<?xml version="1.0" encoding="UTF-8"?>
<svg width="16px" height="16px" viewBox="0 0 16 16" version="1.1" xmlns="http://www.w3.org/2000/svg" xmlns:xlink="http://www.w3.org/1999/xlink">
    <title>形状</title>
    <g id="页面" stroke="none" stroke-width="1" fill="none" fill-rule="evenodd">
        <g id="01首页_周" transform="translate(-330.000000, -558.000000)" fill="#E2E2E2" fill-rule="nonzero">
            <g id="编组-7备份-2" transform="translate(290.000000, 200.000000)">
                <g id="编组-5备份-2" transform="translate(24.000000, 343.000000)">
                    <g id="编组-3备份" transform="translate(16.000000, 12.000000)">
                        <path d="M8,3 C3.58214286,3 0,6.58214286 0,11 C0,15.4178571 3.58214286,19 8,19 C12.4178571,19 16,15.4178571 16,11 C16,6.58214286 12.4178571,3 8,3 Z M11.4553571,8.3875 L7.69464286,13.6017857 C7.46785714,13.9178571 6.99821429,13.9178571 6.77142857,13.6017857 L4.54464286,10.5160714 C4.47678571,10.4214286 4.54464286,10.2892857 4.66071429,10.2892857 L5.49821429,10.2892857 C5.68035714,10.2892857 5.85357143,10.3767857 5.96071429,10.5267857 L7.23214286,12.2910714 L10.0392857,8.39821429 C10.1464286,8.25 10.3178571,8.16071429 10.5017857,8.16071429 L11.3392857,8.16071429 C11.4553571,8.16071429 11.5232143,8.29285714 11.4553571,8.3875 Z" id="形状"></path>
                    </g>
                </g>
            </g>
        </g>
    </g>
</svg>