<?xml version="1.0" encoding="UTF-8"?>
<svg width="200px" height="200px" viewBox="0 0 200 200" version="1.1" xmlns="http://www.w3.org/2000/svg" xmlns:xlink="http://www.w3.org/1999/xlink">
    <title>编组 10备份 3</title>
    <g id="页面" stroke="none" stroke-width="1" fill="none" fill-rule="evenodd">
        <g id="00插画状态" transform="translate(-2120.000000, -319.000000)">
            <g id="编组-10备份-3" transform="translate(2120.000000, 319.000000)">
                <rect id="矩形" x="0" y="0" width="200" height="200"></rect>
                <g id="编组" transform="translate(14.000000, 21.000000)">
                    <path d="M125.594003,140.226055 C125.594003,140.226055 132.418003,150.463055 133.556003,149.891055 C134.694003,149.319055 148.968003,139.722055 146.882003,138.773055 C144.796003,137.824055 137.282003,139.789055 137.282003,139.789055 L131.662003,133.059055 L125.594003,140.226055 Z" id="路径_9421" fill="#FFFFFF" fill-rule="nonzero"></path>
                    <path d="M133.516003,150.234055 C132.170003,150.234055 128.347003,144.964055 125.316003,140.415055 C125.228318,140.296138 125.228318,140.133972 125.316003,140.015055 L131.373003,132.815055 C131.435669,132.738017 131.529696,132.693295 131.629003,132.693295 C131.72831,132.693295 131.822337,132.738017 131.885003,132.815055 L137.370003,139.415055 C138.635003,139.099055 145.002003,137.571055 146.994003,138.479055 C147.232276,138.584721 147.388109,138.818471 147.394094,139.079055 C147.434003,141.313055 134.283003,149.901055 133.671003,150.204055 C133.622279,150.226928 133.56971,150.240494 133.516003,150.244055 L133.516003,150.234055 Z M126.016003,140.253055 C129.024003,144.742055 132.686003,149.534055 133.416003,149.581055 C133.853003,149.345055 137.272003,147.111055 140.611003,144.634055 C146.711003,140.118055 146.736003,139.169055 146.722003,139.075055 C145.087003,138.341055 139.393003,139.575055 137.333003,140.111055 C137.206174,140.144615 137.071511,140.099858 136.990003,139.997055 L131.606003,133.549055 L126.016003,140.253055 Z" id="路径_9422" fill="#231F20" fill-rule="nonzero"></path>
                    <path d="M102.098003,137.951055 C102.098003,137.951055 98.874003,150.018055 99.756003,151.028055 C100.638003,152.038055 121.488003,153.047055 120.728003,151.916055 C119.968003,150.785055 110.161003,144.459055 110.161003,144.459055 L111.097003,138.806055 L102.098003,137.951055 Z" id="路径_9423" fill="#FFFFFF" fill-rule="nonzero"></path>
                    <path d="M116.192003,152.723055 C110.074003,152.723055 100.174003,152.016055 99.508003,151.249055 C98.579003,150.186055 101.002003,140.736055 101.769003,137.862055 C101.816058,137.707304 101.964829,137.606457 102.126003,137.620055 L111.131003,138.468055 C111.223952,138.481474 111.30832,138.529735 111.367003,138.603055 C111.422754,138.675861 111.444931,138.768932 111.428003,138.859055 L110.528003,144.297055 C112.143003,145.340055 120.267003,150.617055 121.007003,151.697055 C121.071678,151.791667 121.096008,151.908141 121.074616,152.020732 C121.053224,152.133322 120.987871,152.232756 120.893003,152.297055 C120.533003,152.609055 118.675003,152.723055 116.192003,152.723055 Z M102.348003,138.323055 C100.848003,144.003055 99.575003,150.162055 100.013003,150.823055 C101.083003,151.651055 117.821003,152.499055 120.258003,151.893055 C116.957039,149.338091 113.52684,146.954609 109.981003,144.752055 C109.866623,144.681708 109.807697,144.547931 109.833003,144.416055 L110.708003,139.116055 L102.348003,138.323055 Z" id="路径_9424" fill="#231F20" fill-rule="nonzero"></path>
                    <rect id="矩形_3283" fill="#FFFFFF" fill-rule="nonzero" x="64.261003" y="96.4790551" width="25.629" height="53.418"></rect>
                    <path d="M89.897003,150.222055 L64.275003,150.222055 C64.088883,150.222055 63.938003,150.071175 63.938003,149.885055 L63.938003,96.4790551 C63.938003,96.2929352 64.088883,96.1420551 64.275003,96.1420551 L89.911003,96.1420551 C90.0971229,96.1420551 90.2480055,96.2929352 90.2480055,96.4790551 L90.2480055,149.891055 C90.2483558,149.982821 90.2111605,150.070738 90.1450558,150.134387 C90.0789511,150.198037 89.9896896,150.231879 89.898003,150.228347 L89.897003,150.222055 Z M64.597003,149.549055 L89.560003,149.549055 L89.560003,96.8150551 L64.598003,96.8150551 L64.597003,149.549055 Z" id="路径_9425" fill="#231F20" fill-rule="nonzero"></path>
                    <rect id="矩形_3284" fill="#FFFFFF" fill-rule="nonzero" x="31.491003" y="82.9240551" width="25.629" height="66.966"></rect>
                    <path d="M57.119003,150.226061 L31.491003,150.226061 C31.4015435,150.226061 31.3156713,150.190902 31.2524136,150.127644 C31.1891559,150.064387 31.1537363,149.978515 31.1540015,149.889055 L31.1540015,82.9230551 C31.1540015,82.7369352 31.304883,82.5860551 31.491003,82.5860551 L57.120003,82.5860551 C57.3061229,82.5860551 57.4570045,82.7369352 57.4570045,82.9230551 L57.4570045,149.889055 C57.4572713,149.978689 57.4217147,150.064714 57.3582401,150.128001 C57.2947655,150.191287 57.2086353,150.226061 57.119003,150.226061 L57.119003,150.226061 Z M31.827003,149.553055 L56.783003,149.553055 L56.783003,83.2600551 L31.827003,83.2600551 L31.827003,149.553055 Z" id="路径_9426" fill="#231F20" fill-rule="nonzero"></path>
                    <rect id="矩形_3285" fill="#FFFFFF" fill-rule="nonzero" x="0.303002973" y="56.8840551" width="25.629" height="93.006"></rect>
                    <path d="M25.912003,150.227055 L0.337002973,150.227055 C0.150883012,150.227055 1.47804306e-06,150.076175 1.47804306e-06,149.890055 L1.47804306e-06,56.8900551 C-0.000263674152,56.8005957 0.035155948,56.7147234 0.0984136017,56.6514658 C0.161671255,56.5882081 0.247543538,56.5530536 0.337002973,56.5530536 L25.912003,56.5530536 C26.0981229,56.5530536 26.249003,56.7039352 26.249003,56.8900551 L26.249003,149.890055 C26.249003,150.076175 26.0981229,150.227055 25.912003,150.227055 L25.912003,150.227055 Z M0.619002973,149.555055 L25.575003,149.555055 L25.575003,57.2210551 L0.639002973,57.2210551 L0.619002973,149.555055 Z" id="路径_9427" fill="#231F20" fill-rule="nonzero"></path>
                    <polygon id="路径_9428" fill="#231F20" fill-rule="nonzero" points="97.286003 84.1890551 136.773003 135.568055 125.149003 143.449055 71.879003 84.1890551"></polygon>
                    <path d="M125.149003,143.786055 C125.05358,143.785138 124.963049,143.74369 124.900003,143.672055 L71.623003,84.4120551 C71.5357259,84.314328 71.5145335,84.1742229 71.569003,84.0550551 C71.6246344,83.9337625 71.7455628,83.8557442 71.879003,83.8550535 L97.286003,83.8550535 C97.3884727,83.8550535 97.4852793,83.902025 97.548003,83.9830551 L137.044003,135.360055 C137.099248,135.435499 137.123249,135.529352 137.111003,135.622055 C137.095966,135.713925 137.042023,135.79484 136.963003,135.844055 L125.340003,143.712055 C125.287123,143.75663 125.221079,143.782626 125.152003,143.786055 L125.149003,143.786055 Z M72.649003,84.5260551 L125.199003,143.039055 L136.284003,135.488055 L97.114003,84.5260551 L72.649003,84.5260551 Z" id="路径_9429" fill="#231F20" fill-rule="nonzero"></path>
                    <path d="M60.095003,85.1040551 C60.095003,85.1040551 63.588003,95.3140551 67.395003,99.4870551 C71.202003,103.660055 102.859003,115.404055 102.859003,115.404055 L99.978003,140.757055 L114.610003,142.312055 C114.610003,142.312055 124.610003,114.644055 121.219003,110.094055 C117.828003,105.544055 80.837003,81.1540551 80.837003,81.1540551 L60.095003,85.1040551 Z" id="路径_9430" fill="#231F20" fill-rule="nonzero"></path>
                    <path d="M114.610003,142.649055 L114.610003,142.649055 L99.945003,141.094055 C99.8560055,141.084488 99.7740555,141.041187 99.716003,140.973055 C99.6614426,140.902269 99.6373317,140.812663 99.649003,140.724055 L102.496003,115.624055 C99.313003,114.433055 70.864003,103.745055 67.149003,99.7070551 C63.340003,95.5340551 59.921003,85.6270551 59.749003,85.2070551 C59.7086828,85.1194728 59.7086828,85.0186374 59.749003,84.9310551 C59.7988169,84.8457944 59.8817203,84.7849744 59.978003,84.7630551 L80.734003,80.8190551 C80.8177067,80.8041903 80.9039483,80.8209397 80.976003,80.8660551 C82.551003,81.8660551 118.120003,105.344055 121.486003,109.894055 C122.960003,111.866055 122.294003,117.970055 119.507003,127.994055 C117.488003,135.394055 114.951003,142.356055 114.924003,142.424055 C114.876972,142.557553 114.751534,142.647437 114.610003,142.649055 L114.610003,142.649055 Z M100.355003,140.462055 L114.381003,141.949055 C114.845003,140.649055 117.033003,134.418055 118.863003,127.815055 C122.228003,115.579055 121.871003,111.534055 120.949003,110.315055 C117.718003,105.994055 83.049003,83.0300551 80.776003,81.5300551 L60.545003,85.3800551 C61.218003,87.2380551 64.334003,95.6500551 67.645003,99.2800551 C71.360003,103.318055 102.645003,114.995055 102.979003,115.110055 C103.124478,115.165168 103.213325,115.312695 103.194003,115.467055 L100.355003,140.462055 Z" id="路径_9431" fill="#231F20" fill-rule="nonzero"></path>
                    <path d="M99.070003,47.8320551 C99.070003,47.8320551 105.720003,62.6390551 106.729003,62.7400551 L110.834003,56.3600551 C110.834003,56.3600551 111.211003,52.0050551 112.348003,50.2350551 C113.485003,48.4650551 114.748003,48.9700551 114.748003,48.9700551 C114.748003,48.9700551 115.872003,46.8430551 117.258003,46.5940551 C118.644003,46.3450551 122.972003,49.0240551 120.435003,50.6790551 C117.898003,52.3340551 109.707003,76.0120551 106.672003,76.3080551 C97.028003,77.2370551 90.172003,50.5650551 90.243003,50.4840551 L99.070003,47.8320551 Z" id="路径_9432" fill="#FFFFFF" fill-rule="nonzero"></path>
                    <path d="M106.163003,76.6650551 C102.455003,76.6650551 98.763003,72.9360551 95.263003,65.5650551 C92.571003,59.8910551 89.589003,50.6780551 90.007003,50.2540551 C90.0456497,50.2145893 90.0944423,50.1865596 90.148003,50.1730551 L98.978003,47.4810551 C99.1375529,47.4400234 99.3041187,47.5158108 99.378003,47.6630551 C102.238003,54.0300551 105.617003,60.9750551 106.647003,62.2210551 L110.503003,56.2210551 C110.564003,55.5880551 110.974003,51.7320551 112.064003,50.0290551 C112.514044,49.0621555 113.51789,48.4770773 114.581003,48.5620551 C114.931003,47.9760551 115.927003,46.4690551 117.199003,46.2400551 C118.343003,46.0310551 120.860003,47.4040551 121.426003,48.8240551 C121.762203,49.6294735 121.40653,50.556951 120.618003,50.9310551 C119.588003,51.6040551 117.253003,56.8310551 115.032003,61.8950551 C111.142003,70.6780551 108.463003,76.4460551 106.693003,76.6140551 C106.517436,76.6410078 106.340488,76.6580348 106.163003,76.6650551 L106.163003,76.6650551 Z M90.636003,50.7200551 C91.8147931,55.232787 93.3530422,59.6438835 95.236003,63.9110551 C97.820003,69.6650551 101.886003,76.4360551 106.630003,75.9720551 C108.138003,75.8240551 111.765003,67.6330551 114.417003,61.6430551 C116.900003,56.0230551 119.054003,51.1710551 120.245003,50.3970551 C121.006003,49.8970551 120.918003,49.4210551 120.797003,49.0970551 C120.048154,47.8607809 118.756462,47.053845 117.317003,46.9230551 C116.307003,47.1050551 115.332003,48.5790551 115.042003,49.1230551 C114.961716,49.2762185 114.779966,49.3456605 114.618003,49.2850551 C114.584003,49.2850551 113.588003,48.9220551 112.599003,50.4160551 C111.522003,52.0920551 111.139003,56.3450551 111.139003,56.3860551 C111.135762,56.4417371 111.117062,56.4954129 111.085003,56.5410551 L107.006003,62.9480551 C106.936018,63.0563135 106.811242,63.1161903 106.683003,63.1030551 C105.653003,62.9750551 101.406003,53.8760551 98.876003,48.2960551 L90.636003,50.7200551 Z" id="路径_9433" fill="#231F20" fill-rule="nonzero"></path>
                    <path d="M69.019003,8.79705513 C68.5657683,9.20716623 68.1367138,9.64323252 67.734003,10.1030551 C66.3559034,11.8617003 65.3058085,13.8541706 64.634003,15.9850551 C63.434003,19.1420551 62.702003,25.2930551 60.734003,27.8170551 C58.567003,30.5830551 53.694003,29.3850551 51.789003,32.6490551 C50.571003,34.7350551 51.567003,37.4410551 50.907003,39.7630551 C49.707003,43.9630551 44.015003,44.9180551 41.407003,48.4250551 C39.321003,51.2180551 39.590003,55.1550551 40.552003,58.4800551 C41.1166912,60.8210746 42.2756942,62.9768546 43.917003,64.7390551 C49.517003,70.0830551 60.272003,65.6680551 64.108003,60.2160551 C66.026003,57.4630551 67.108003,53.8220551 70.108003,52.3160551 C72.282003,51.2260551 74.860003,51.5960551 77.289003,51.5080551 C79.9714552,51.414725 82.5994317,50.7250221 84.982003,49.4890551 C87.472003,48.1890551 89.882003,45.5050551 88.906003,42.8730551 C88.294003,41.2380551 86.506003,40.1810551 86.214003,38.4510551 C85.756003,36.0820551 88.193003,34.3250551 89.895003,32.6160551 C94.3423736,27.7806787 94.2987265,20.3309878 89.795003,15.5480551 C91.8857408,12.7037991 91.6764073,8.77879689 89.295003,6.17305513 C88.7782685,5.59110183 88.1019197,5.17381725 87.350003,4.97305513 C86.5932423,4.86331808 85.8230326,4.88837106 85.075003,5.04705513 C78.811003,5.86305513 73.856003,4.43605513 69.019003,8.79705513 Z" id="路径_9434" fill="#FFFFFF" fill-rule="nonzero"></path>
                    <path d="M50.477003,67.4910551 C47.9758237,67.573379 45.5429977,66.6665037 43.706003,64.9670551 C41.9852841,63.1836919 40.7805106,60.9669916 40.220003,58.5530551 C39.385003,55.6460551 38.813003,51.3110551 41.129003,48.2090551 C42.3919538,46.730308 43.9214839,45.5020027 45.638003,44.5880551 C47.838003,43.2420551 49.918003,41.9430551 50.578003,39.6550551 C50.8006652,38.6641844 50.8778083,37.6461641 50.807003,36.6330551 C50.6582409,35.2092871 50.8904998,33.7715594 51.480003,32.4670551 C52.557003,30.6230551 54.495003,30.1180551 56.359003,29.6270551 C57.974003,29.2030551 59.502003,28.8060551 60.451003,27.6080551 C61.669003,26.0530551 62.430003,22.9440551 63.096003,20.2080551 C63.4200131,18.7423057 63.8242887,17.2954597 64.307003,15.8740551 C64.9945759,13.7064141 66.0659205,11.679903 67.470003,9.89105513 C67.8923745,9.41684206 68.3417899,8.96742663 68.816003,8.54505513 L68.816003,8.54505513 C72.403003,5.31405513 75.984003,5.18005513 80.123003,5.03205513 C81.684003,4.97105513 83.293003,4.91105513 85.009003,4.68205513 L85.265003,4.64205513 C85.9702608,4.51057535 86.6937452,4.51057535 87.399003,4.64205513 C88.217607,4.8574172 88.9533275,5.31215027 89.512003,5.94805513 C91.9186862,8.60292885 92.1967376,12.559688 90.185003,15.5250551 C94.6296776,20.4616426 94.5863513,27.9700893 90.085003,32.8550551 C89.809003,33.1380551 89.513003,33.4200551 89.210003,33.7030551 C87.702003,35.1230551 86.154003,36.5900551 86.518003,38.4140551 C86.7652704,39.2768245 87.2285433,40.0622545 87.864003,40.6960551 C88.4226441,41.3139322 88.8772284,42.0184367 89.210003,42.7820551 C90.210003,45.4740551 87.910003,48.3550551 85.131003,49.8150551 C82.7030587,51.0790463 80.0252223,51.7894021 77.290003,51.8950551 L75.506003,51.8950551 C73.7169935,51.7568208 71.9195798,52.0167166 70.243003,52.6560551 C68.224003,53.6560551 67.143003,55.6560551 65.976003,57.7640551 C65.476003,58.6640551 64.960003,59.6010551 64.376003,60.4560551 C61.866003,64.0430551 56.596003,66.9910551 51.851003,67.4690551 C51.379003,67.4710551 50.921003,67.4910551 50.477003,67.4910551 Z M69.248003,9.04505513 C68.8013729,9.44630753 68.3789629,9.87372639 67.983003,10.3250551 C66.6328043,12.0544326 65.6047619,14.0126248 64.948003,16.1060551 C64.4691221,17.4974721 64.0714526,18.9155261 63.757003,20.3530551 C63.037003,23.3080551 62.297003,26.3530551 60.991003,28.0190551 C59.901003,29.4120551 58.191003,29.8630551 56.536003,30.2940551 C54.726003,30.7650551 53.009003,31.2160551 52.074003,32.8250551 C51.5167259,34.0120601 51.3112831,35.3339038 51.482003,36.6340551 C51.5552892,37.7131426 51.4690278,38.7971389 51.226003,39.8510551 C50.499003,42.3950551 48.204003,43.8080551 45.990003,45.1750551 C44.3528055,46.0524725 42.8886858,47.2201088 41.669003,48.6210551 C39.522003,51.5080551 40.047003,55.5460551 40.869003,58.3870551 C41.3970579,60.6846504 42.5374125,62.7963799 44.169003,64.4980551 C46.2512315,66.332599 49.0355132,67.1574223 51.781003,66.7530551 C56.351003,66.3020551 61.412003,63.4690551 63.822003,60.0230551 C64.387003,59.2090551 64.899003,58.2930551 65.390003,57.4050551 C66.554003,55.2980551 67.759003,53.1110551 69.940003,52.0210551 C71.7031067,51.3064108 73.6112254,51.0225584 75.506003,51.1930551 L77.263003,51.1930551 C79.8978869,51.0837693 82.4761901,50.3943779 84.814003,49.1740551 C87.338003,47.8280551 89.444003,45.2970551 88.576003,42.9740551 C88.2660516,42.2805113 87.8455845,41.6418741 87.331003,41.0830551 C86.6085122,40.3654209 86.0844571,39.4727012 85.810003,38.4920551 C85.399003,36.3250551 87.156003,34.6560551 88.724003,33.1820551 C89.024003,32.9060551 89.316003,32.6300551 89.585003,32.3540551 C93.9024539,27.652512 93.8614535,20.416372 89.491003,15.7640551 C89.3792886,15.6371364 89.3792886,15.4469739 89.491003,15.3200551 C91.4619141,12.6142127 91.2592762,8.89570328 89.006003,6.42005513 C88.5361565,5.88136283 87.9181398,5.49288527 87.229003,5.30305513 C86.6009652,5.20498282 85.9603932,5.22090397 85.338003,5.35005513 L85.075003,5.39005513 C83.332003,5.62605513 81.710003,5.69005513 80.128003,5.74705513 C76.090003,5.88805513 72.651003,6.01605513 69.245003,9.11205513 L69.248003,9.04505513 Z" id="路径_9435" fill="#231F20" fill-rule="nonzero"></path>
                    <path d="M90.798003,36.8620551 C90.798003,36.8620551 99.063003,45.4500551 101.365003,50.7800551 C97.4078326,51.178034 93.5097531,52.0310011 89.748003,53.3220551 L90.798003,36.8620551 Z" id="路径_9436" fill="#6F42FF" fill-rule="nonzero"></path>
                    <path d="M78.099003,31.7600551 C78.099003,31.7600551 70.426003,28.6240551 60.910003,36.6060551 C56.670003,40.2060551 55.782003,44.1060551 53.985003,48.1420551 C55.331003,61.6700551 60.096003,85.0980551 60.096003,85.0980551 L97.288003,84.1830551 C97.288003,84.1830551 94.724003,43.1620551 91.749003,38.1010551 C88.774003,33.0400551 78.099003,31.7600551 78.099003,31.7600551 Z" id="路径_9437" fill="#6F42FF" fill-rule="nonzero"></path>
                    <path d="M73.057003,33.4760551 C73.636003,34.6070551 80.016003,58.9840551 80.016003,58.9840551 L83.455003,36.3430551 L73.057003,33.4760551 Z" id="路径_9438" fill="#231F20" fill-rule="nonzero"></path>
                    <path d="M80.017003,59.3210551 C79.8627335,59.3217112 79.7285956,59.2153975 79.694003,59.0650551 C77.917003,52.2940551 73.219003,34.5260551 72.762003,33.6250551 C72.6990884,33.5074063 72.7149808,33.363182 72.802003,33.2620551 C72.8866721,33.15937 73.0230996,33.1149336 73.152003,33.1480551 L83.552003,36.0290551 C83.715575,36.0721391 83.820085,36.2319272 83.794003,36.3990551 L80.348003,59.0400551 C80.3283992,59.1978254 80.196902,59.3178697 80.038003,59.3230551 L80.017003,59.3210551 Z M73.590003,33.9680551 C74.674003,37.3740551 78.624003,52.3480551 79.930003,57.3220551 L83.080003,36.5860551 L73.590003,33.9680551 Z" id="路径_9439" fill="#231F20" fill-rule="nonzero"></path>
                    <path d="M88.200003,13.8140551 C88.200003,13.8140551 89.936003,19.3260551 88.833003,23.4140551 C88.2623051,25.7505962 86.3631615,27.5280754 83.994003,27.9430551 L83.711003,35.2520551 C83.711003,35.2520551 83.597003,38.9940551 79.040003,38.2340551 C76.3558802,37.7871629 74.093197,35.9851096 73.057003,33.4690551 L73.057003,20.0140551 C73.057003,20.0140551 78.367003,17.2280551 78.105003,12.3820493 C78.107003,12.3770551 84.169003,15.6080551 88.200003,13.8140551 Z" id="路径_9440" fill="#FFFFFF" fill-rule="nonzero"></path>
                    <path d="M80.191003,38.6790551 C79.788997,38.6772996 79.3877546,38.6438628 78.991003,38.5790551 C76.1781822,38.1228961 73.8089303,36.2285567 72.745003,33.5850551 C72.7384696,33.5493516 72.7384696,33.5127587 72.745003,33.4770551 L72.745003,20.0160551 C72.7413278,19.8889478 72.8125725,19.7715117 72.927003,19.7160551 C72.974003,19.7160551 78.042003,16.9700551 77.793003,12.4000551 C77.7884585,12.279787 77.8472816,12.1659359 77.948003,12.1000551 C78.0522711,12.0398559 78.1807348,12.0398559 78.285003,12.1000551 C78.346003,12.1000551 84.248003,15.2300551 88.085003,13.5200551 C88.1729695,13.4809108 88.2735022,13.4813846 88.3610958,13.5213564 C88.4486895,13.5613282 88.5149267,13.6369567 88.543003,13.7290551 C88.617003,13.9580551 90.300003,19.3820551 89.176003,23.5220551 C88.5812619,25.8771768 86.7134471,27.6982189 84.344003,28.2330551 L84.068003,35.2800551 C84.001402,36.2789614 83.5414613,37.2107099 82.789003,37.8710551 C82.0467881,38.4410468 81.1255732,38.7275525 80.191003,38.6790551 Z M73.391003,33.4090551 C74.4003544,35.7768189 76.5416025,37.4711421 79.078003,37.9090551 C80.1899809,38.2029977 81.3748773,37.996627 82.322003,37.3440551 C82.92553,36.8040786 83.2967707,36.0515637 83.358003,35.2440551 L83.658003,27.9440551 C83.6635285,27.7766681 83.7914791,27.638908 83.958003,27.6210551 C86.2009212,27.2272844 87.9918441,25.5320085 88.508003,23.3140551 C89.417003,19.9490551 88.333003,15.5200551 87.983003,14.2550551 C84.517003,15.5340551 79.961003,13.6360551 78.453003,12.9090551 C78.332003,17.1220551 74.321003,19.6390551 73.399003,20.1910551 L73.391003,33.4090551 Z" id="路径_9441" fill="#231F20" fill-rule="nonzero"></path>
                    <path d="M75.635003,19.1610551 C75.635003,19.1610551 73.569003,13.9990551 70.924003,17.1020551 C68.279003,20.2050551 71.833003,23.8320551 74.094003,23.6370551" id="路径_9442" fill="#FFFFFF" fill-rule="nonzero"></path>
                    <path d="M73.876003,23.9870551 C72.2471822,23.8122922 70.8206335,22.8172537 70.094003,21.3490551 C69.2987588,19.8955039 69.5209773,18.0964193 70.646003,16.8800551 C71.157958,16.1267183 72.0391114,15.7114268 72.946003,15.7960551 C74.746003,16.0960551 75.894003,18.9190551 75.941003,19.0330551 C76.007055,19.1472029 76.0004531,19.2893904 75.9241083,19.3969267 C75.8477635,19.504463 75.7157067,19.5575844 75.5861623,19.5328695 C75.4566178,19.5081546 75.3533942,19.4101456 75.322003,19.2820551 C75.033003,18.5690551 74.022003,16.6570551 72.839003,16.4620551 C72.1651192,16.4239079 71.5225955,16.7503237 71.156003,17.3170551 C70.206828,18.3235304 70.016462,19.8278662 70.685003,21.0390551 C71.3133844,22.3474134 72.6011977,23.2127168 74.050003,23.3000551 C74.139281,23.2928797 74.2277429,23.3215392 74.2958522,23.3797042 C74.3639616,23.4378692 74.406115,23.5207545 74.413003,23.6100551 C74.4221838,23.6981419 74.3955727,23.786222 74.3391534,23.8544893 C74.2827341,23.9227567 74.2012424,23.965481 74.113003,23.9730551 L73.876003,23.9870551 Z" id="路径_9443" fill="#231F20" fill-rule="nonzero"></path>
                    <path d="M85.185003,23.5460551 C84.648973,23.533442 84.1169909,23.4497103 83.603003,23.2970551 C83.4876062,23.2613286 83.4000351,23.1667524 83.3732768,23.0489526 C83.3465185,22.9311528 83.3846383,22.8080259 83.4732768,22.7259526 C83.5619153,22.6438793 83.6876062,22.6153286 83.803003,22.6510551 C84.4766932,22.8852083 85.204035,22.9178743 85.896003,22.7450551 C85.984003,22.4450551 85.082003,20.6920551 83.931003,19.0230551 C83.879395,18.9510532 83.858903,18.8613254 83.8741372,18.7740581 C83.8893713,18.6867908 83.9390522,18.609313 84.012003,18.5590551 C84.085121,18.50709 84.1759395,18.4864203 84.2643447,18.5016238 C84.3527498,18.5168272 84.4314456,18.5666491 84.483003,18.6400551 C85.021003,19.4140551 86.758003,22.0050551 86.502003,22.9610551 C86.4618356,23.1370905 86.3426301,23.2847135 86.179003,23.3610551 C85.8649618,23.4939282 85.52582,23.5570481 85.185003,23.5460551 L85.185003,23.5460551 Z" id="路径_9444" fill="#231F20" fill-rule="nonzero"></path>
                    <path d="M83.361003,25.7430551 C82.921891,25.7416821 82.4848468,25.6828492 82.061003,25.5680551 C80.7979916,25.2105903 79.7090744,24.4040376 78.999003,23.3000551 C78.9513799,23.1351253 79.0353462,22.9607556 79.1939825,22.8951483 C79.3526189,22.829541 79.5352197,22.8936665 79.618003,23.0440551 C80.2779638,23.9809863 81.2482664,24.6540696 82.357003,24.9440551 C83.9223113,25.2563873 85.5435682,24.8178597 86.738003,23.7590551 C86.8864514,23.6708747 87.0775329,23.709158 87.1805532,23.8477204 C87.2835736,23.9862827 87.2652015,24.1802936 87.138003,24.2970551 C86.0708049,25.1812891 84.7410428,25.6875973 83.356003,25.7370551 L83.361003,25.7430551 Z" id="路径_9445" fill="#231F20" fill-rule="nonzero"></path>
                    <path d="M83.994003,27.9510551 C81.9407396,28.1365716 79.8715029,28.0278061 77.849003,27.6280551 C77.849003,27.6280551 80.077003,33.4830551 83.792003,33.5980551 L83.994003,27.9510551 Z" id="路径_9446" fill="#231F20" fill-rule="nonzero"></path>
                    <path d="M83.792003,33.9340551 L83.792003,33.9340551 C79.892003,33.8130551 77.641003,27.9980551 77.546003,27.7490551 C77.5055938,27.6286994 77.5310005,27.4959778 77.613003,27.3990551 C77.7008939,27.306265 77.833086,27.2700375 77.956003,27.3050551 C79.9392232,27.6928746 81.9674494,27.7972488 83.980003,27.6150551 C84.076576,27.6088198 84.1714207,27.6428481 84.242003,27.7090551 C84.3126429,27.7746659 84.3494668,27.8689351 84.342003,27.9650551 L84.142003,33.6120551 C84.1344229,33.7978415 83.9777995,33.9423825 83.792003,33.9350551 L83.792003,33.9340551 Z M78.408003,28.1120551 C79.081003,29.5190551 80.865003,32.8840551 83.449003,33.2340551 L83.624003,28.3140551 C81.8834366,28.4485166 80.1331625,28.3814048 78.408003,28.1140551 L78.408003,28.1120551 Z" id="路径_9447" fill="#231F20" fill-rule="nonzero"></path>
                    <ellipse id="椭圆_132" fill="#231F20" fill-rule="nonzero" transform="translate(81.684163, 17.954903) rotate(-0.916654) translate(-81.684163, -17.954903) " cx="81.684163" cy="17.9549031" rx="1" ry="1.01012927"></ellipse>
                    <ellipse id="椭圆_133" fill="#231F20" fill-rule="nonzero" transform="translate(86.979163, 17.872903) rotate(-0.916654) translate(-86.979163, -17.872903) " cx="86.979163" cy="17.8729031" rx="1" ry="1.01012927"></ellipse>
                    <path d="M53.983003,48.1420551 C53.983003,48.1420551 46.243003,73.4880551 51.683003,79.3910551 C55.459003,83.4910551 65.144003,79.0480551 69.357003,77.4260551 C90.181003,69.4370551 97.550003,62.9020551 95.888003,63.2120551 C96.400003,61.5020551 91.177003,63.8850551 90.302003,64.2120551 C89.952003,62.8120551 92.510003,60.3490551 93.950003,60.2680551 C95.390003,60.1870551 97.050003,60.7680551 97.268003,59.3460551 C97.389003,58.5320551 96.595003,57.7040551 95.888003,57.3270551 C95.181003,56.9500551 89.088003,56.5930551 87.812003,57.7510551 C86.977003,58.4980551 86.553003,59.6090551 85.793003,60.4030551 C84.9469204,61.1417518 83.9465882,61.6822318 82.865003,61.9850551 C78.7416696,63.4657218 74.5643363,64.7990551 70.333003,65.9850551 C68.314003,66.5640551 63.455003,67.6850551 63.455003,67.6850551 L65.885003,52.7170551" id="路径_9448" fill="#FFFFFF" fill-rule="nonzero"></path>
                    <path d="M56.373003,81.4360551 C54.5455511,81.5655089 52.750061,80.9067137 51.440003,79.6260551 C45.935003,73.6500551 53.340003,49.0910551 53.661003,48.0540551 C53.7162314,47.8756672 53.905615,47.7758267 54.084003,47.8310551 C54.2623909,47.8862836 54.3622314,48.0756672 54.307003,48.2540551 C54.233003,48.5030551 46.688003,73.4790551 51.938003,79.1730551 C55.195003,82.7130551 63.454003,79.4220551 67.889003,77.6590551 L69.235003,77.1210551 C86.666003,70.4380551 94.561003,64.7910551 95.658003,63.4450551 L95.658003,63.4450551 C95.5768771,63.3586681 95.5439074,63.2376542 95.570003,63.1220551 C95.5784444,63.077451 95.5784444,63.0316593 95.570003,62.9870551 C95.489003,62.9200551 94.897003,62.6300551 90.677003,64.4270551 L90.415003,64.5350551 C90.325066,64.5757847 90.2219399,64.5757847 90.132003,64.5350551 C90.0461442,64.4876527 89.9830467,64.407609 89.957003,64.3130551 C89.8761445,63.5413516 90.1199559,62.7707914 90.630003,62.1860551 C91.4026076,61.0554143 92.5731399,60.2576812 93.908003,59.9520551 C94.2867309,59.9317466 94.666275,59.9317466 95.045003,59.9520551 C96.283003,60.0260551 96.802003,59.9860551 96.909003,59.2790551 C97.016003,58.5720551 96.377003,57.9330551 95.709003,57.6170551 C95.041003,57.3010551 89.167003,56.9440551 87.976003,58.0010551 C87.5691444,58.4005595 87.2182869,58.853344 86.933003,59.3470551 C86.075779,60.8679769 84.6039727,61.9450417 82.895003,62.3020551 C78.783003,63.7760551 74.556003,65.1220551 70.336003,66.3400551 C68.317003,66.9050551 63.491003,68.0230551 63.444003,68.0400551 C63.3367524,68.0647727 63.2242383,68.0343939 63.144003,67.9590551 C63.0627542,67.881971 63.0252544,67.7694717 63.044003,67.6590551 L65.474003,52.6910551 C65.4872061,52.6029857 65.5354431,52.5239908 65.607756,52.4720159 C65.680069,52.420041 65.7703186,52.3994985 65.858003,52.4150551 C66.0404703,52.4457687 66.1656876,52.6156749 66.141003,52.7990551 L63.785003,67.2760551 C65.071003,66.9760551 68.530003,66.1520551 70.159003,65.6940551 C74.365003,64.5160551 78.572003,63.1700551 82.677003,61.7030551 C84.2432429,61.3896253 85.5935815,60.4058333 86.372003,59.0110551 C86.6936739,58.4729064 87.0850632,57.9796348 87.536003,57.5440551 C88.983003,56.2580551 95.161003,56.6350551 96.016003,57.0660551 C96.9618964,57.4741351 97.5751966,58.4048899 97.577003,59.4350551 C97.362003,60.7810551 96.117003,60.7270551 95.013003,60.6670551 C94.6567186,60.6437 94.2992873,60.6437 93.943003,60.6670551 C92.8094404,60.9608369 91.8228802,61.6599321 91.170003,62.6320551 C90.9046502,62.9676403 90.7122183,63.3548881 90.605003,63.7690551 C93.876003,62.4230551 95.444003,62.0330551 95.989003,62.5370551 C96.120104,62.6547749 96.1998102,62.8192139 96.211003,62.9950551 C96.2955985,63.0503512 96.3576604,63.134046 96.386003,63.2310551 C96.709003,64.3680551 87.926003,70.7020551 69.465003,77.8020551 L68.119003,78.3270551 C64.895003,79.5650551 60.236003,81.4360551 56.373003,81.4360551 Z" id="路径_9449" fill="#231F20" fill-rule="nonzero"></path>
                    <path d="M65.829003,53.0620734 L65.768003,53.0620734 C65.6799628,53.047278 65.6016656,52.9974622 65.5509787,52.9239757 C65.5002919,52.8504891 65.4815402,52.7596022 65.499003,52.6720551 L67.067003,43.9230551 C67.1010156,43.740753 67.273767,43.6184981 67.457003,43.6470551 C67.6386601,43.6809632 67.7588397,43.8552013 67.726003,44.0370551 L66.158003,52.7860551 C66.1313842,52.9465877 65.9917186,53.063754 65.829003,53.0620734 L65.829003,53.0620734 Z" id="路径_9450" fill="#231F20" fill-rule="nonzero"></path>
                    <path d="M113.297003,55.1810551 C113.221065,55.1802056 113.147557,55.1541786 113.088003,55.1070551 C112.943946,54.9913959 112.91986,54.7813169 113.034003,54.6360551 C113.990003,53.4580551 113.296003,50.8200551 113.290003,50.7930551 C113.243358,50.625477 113.334801,50.4504656 113.499003,50.3930551 C113.660505,50.3346117 113.840122,50.4069754 113.916003,50.5610551 C113.916003,50.5610551 114.589003,52.0010551 115.666003,52.1090551 C115.821003,51.8600551 115.249003,50.4600551 114.466003,49.1410551 C114.396536,49.0373214 114.390109,48.9036833 114.4493,48.7937618 C114.508492,48.6838403 114.623602,48.6156489 114.748444,48.6165398 C114.873286,48.6174484 114.987402,48.6872919 115.045003,48.7980551 C115.563003,49.6660551 116.721003,51.7660551 116.256003,52.4930551 C116.106775,52.7114447 115.843457,52.822171 115.583003,52.7760551 C115.042551,52.7013513 114.542659,52.4478849 114.163003,52.0560551 C114.328681,53.0964667 114.108548,54.1615645 113.544003,55.0510551 C113.485609,55.1295623 113.394776,55.177369 113.297003,55.1810551 L113.297003,55.1810551 Z" id="路径_9451" fill="#231F20" fill-rule="nonzero"></path>
                    <path d="M116.844003,64.5160551 C114.371735,64.5833567 112.000828,63.5327222 110.390003,61.6560551 C108.787423,59.6718098 108.163084,57.0716209 108.690003,54.5760551 C109.849006,49.0259854 114.6347,44.9756643 120.300003,44.7500551 C122.773734,44.682901 125.145491,45.7364843 126.754003,47.6170551 C128.352711,49.6031471 128.972965,52.203149 128.443003,54.6970551 L128.443003,54.6970551 C127.29788,60.2498305 122.509631,64.3032678 116.844003,64.5160551 Z M120.310003,45.4490551 C114.960751,45.6522102 110.440944,49.480219 109.360003,54.7230551 C108.868031,57.0200497 109.43375,59.4165554 110.901003,61.2510551 C112.38702,62.973692 114.569946,63.9353112 116.844003,63.8690551 C122.187632,63.6642975 126.702141,59.8402333 127.783003,54.6030551 L127.783003,54.6030551 C128.279961,52.3060113 127.713737,49.9073694 126.242003,48.0750551 C124.75889,46.3517479 122.578781,45.3876664 120.306003,45.4500551 L120.310003,45.4490551 Z" id="路径_9452" fill="#D1D3D4" fill-rule="nonzero"></path>
                    <path d="M126.350003,68.4810551 L84.990003,68.4810551 C83.9296224,68.478971 82.9401848,67.9479877 82.3522684,67.0655107 C81.764352,66.1830338 81.6554709,65.0654135 82.062003,64.0860551 L90.811003,43.1620551 C91.3015558,41.9784051 92.4577288,41.2076231 93.739003,41.2100494 L135.076003,41.2100494 C136.137764,41.208629 137.129733,41.7388587 137.718414,42.6224839 C138.307096,43.506109 138.414306,44.6257747 138.004003,45.6050551 L129.250003,66.5290551 C128.763373,67.7033212 127.621078,68.4722038 126.350003,68.4810551 L126.350003,68.4810551 Z M93.708003,41.8810551 C92.6980227,41.8813575 91.7874314,42.4893389 91.400003,43.4220551 L82.650003,64.3420551 C82.3265377,65.1141612 82.4109845,65.9969209 82.8749665,66.693698 C83.3389485,67.3904751 84.1208787,67.8087825 84.958003,67.8080561 L126.322003,67.8080561 C127.331983,67.8077528 128.242575,67.1997713 128.630003,66.2670551 L137.379003,45.3490551 C137.702468,44.576949 137.618021,43.6941894 137.154039,42.9974123 C136.690057,42.3006352 135.908127,41.8823278 135.071003,41.8830551 L93.708003,41.8810551 Z" id="路径_9453" fill="#231F20" fill-rule="nonzero"></path>
                    <path d="M105.733003,46.0020551 L94.373003,46.0020551 C94.186883,46.0020551 94.036003,45.8511751 94.036003,45.6650559 C94.0392079,45.480279 94.1882268,45.3312601 94.373003,45.3280551 L105.734003,45.3280551 C105.918779,45.3312601 106.067798,45.480279 106.071003,45.6650559 C106.071003,45.7546066 106.035361,45.8404758 105.971945,45.9037044 C105.908528,45.9669329 105.822554,46.0023209 105.733003,46.0020551 L105.733003,46.0020551 Z" id="路径_9454" fill="#231F20" fill-rule="nonzero"></path>
                    <path d="M104.211003,48.4850551 L92.858003,48.4850551 C92.7334059,48.4918499 92.6152527,48.4292408 92.5509096,48.3223271 C92.4865664,48.2154133 92.4865664,48.0816969 92.5509096,47.9747832 C92.6152527,47.8678694 92.7334059,47.8052603 92.858003,47.8120551 L104.211003,47.8120551 C104.389727,47.8218017 104.529652,47.9695653 104.529652,48.1485551 C104.529652,48.3275449 104.389727,48.4753086 104.211003,48.4850551 Z" id="路径_9455" fill="#231F20" fill-rule="nonzero"></path>
                    <path d="M116.806003,135.902055 C116.67889,135.899829 116.563434,135.827477 116.506003,135.714055 C116.452003,135.606055 116.452003,135.606055 121.534003,115.792055 C121.560758,115.668322 121.652772,115.568978 121.774096,115.532836 C121.89542,115.496694 122.026798,115.52949 122.116903,115.61841 C122.207007,115.707331 122.241537,115.838264 122.207003,115.960055 C122.207003,115.960055 117.186003,135.518055 117.159003,135.646055 C117.1211,135.780611 117.008149,135.880664 116.870003,135.902055 L116.806003,135.902055 Z" id="路径_9456" fill="#FFFFFF" fill-rule="nonzero"></path>
                    <path d="M110.040003,100.775055 C109.975575,100.773811 109.912684,100.755151 109.858003,100.721055 L90.791003,88.2090551 C90.7159651,88.1608545 90.6636316,88.0843341 90.6459236,87.9969247 C90.6282157,87.9095152 90.6466412,87.81866 90.697003,87.7450551 C90.7999119,87.5920651 91.0066644,87.5501799 91.161003,87.6510551 L110.221003,100.151055 C110.375369,100.256262 110.417158,100.465653 110.315003,100.622055 C110.251437,100.712093 110.149174,100.76693 110.039003,100.770055 L110.040003,100.775055 Z" id="路径_9457" fill="#FFFFFF" fill-rule="nonzero"></path>
                    <path d="M125.298003,89.5470551 C125.298003,101.649823 135.109235,111.461055 147.212003,111.461055 C159.314771,111.461055 169.126003,101.649823 169.126003,89.5470551 L147.212003,89.5470551 L147.212003,67.6600551 C135.121367,67.6639015 125.316755,77.4564333 125.298003,89.5470551 L125.298003,89.5470551 Z" id="路径_9458" fill="#6F42FF" fill-rule="nonzero"></path>
                    <path d="M150.752003,64.3950551 L150.752003,86.3090551 L172.662003,86.3090551 C172.662003,74.207849 162.853209,64.397264 150.752003,64.3950551 Z" id="路径_9459" fill="#E6E7E8" fill-rule="nonzero"></path>
                    <path d="M160.607003,55.2490551 L147.521003,55.2490551 C147.398833,55.2660105 147.277963,55.2103335 147.211449,55.1064636 C147.144935,55.0025936 147.144935,54.8695167 147.211449,54.7656467 C147.277963,54.6617767 147.398833,54.6060998 147.521003,54.6230551 L160.607003,54.6230551 C160.763242,54.6447388 160.879563,54.7783182 160.879563,54.9360551 C160.879563,55.093792 160.763242,55.2273715 160.607003,55.2490551 L160.607003,55.2490551 Z" id="路径_9460" fill="#D1D3D4" fill-rule="nonzero"></path>
                    <path d="M165.531003,55.2490551 L163.048003,55.2490551 C162.891764,55.2273715 162.775443,55.093792 162.775443,54.9360551 C162.775443,54.7783182 162.891764,54.6447388 163.048003,54.6230551 L165.531003,54.6230551 C165.653173,54.6060998 165.774043,54.6617767 165.840557,54.7656467 C165.907071,54.8695167 165.907071,55.0025936 165.840557,55.1064636 C165.774043,55.2103335 165.653173,55.2660105 165.531003,55.2490551 L165.531003,55.2490551 Z" id="路径_9461" fill="#D1D3D4" fill-rule="nonzero"></path>
                    <path d="M166.702003,49.7030551 L147.402003,49.7030551 C147.245764,49.6813715 147.129443,49.547792 147.129443,49.3900551 C147.129443,49.2323182 147.245764,49.0987388 147.402003,49.0770551 L166.702003,49.0770551 C166.858242,49.0987388 166.974563,49.2323182 166.974563,49.3900551 C166.974563,49.547792 166.858242,49.6813715 166.702003,49.7030551 L166.702003,49.7030551 Z" id="路径_9462" fill="#D1D3D4" fill-rule="nonzero"></path>
                    <path d="M153.739003,44.1570551 L147.474003,44.1570551 C147.302795,44.1570551 147.164003,44.0182634 147.164003,43.8470551 C147.161185,43.7640062 147.19294,43.6835088 147.251698,43.6247506 C147.310457,43.5659924 147.390954,43.5342375 147.474003,43.5370551 L153.740003,43.5370551 C153.911211,43.5370551 154.050003,43.6758469 154.050003,43.8470551 C154.046807,44.016922 153.90987,44.1538593 153.740003,44.1570551 L153.739003,44.1570551 Z" id="路径_9463" fill="#D1D3D4" fill-rule="nonzero"></path>
                    <path d="M168.762003,44.3520551 L157.610003,44.3520551 C157.526954,44.3548728 157.446457,44.3231179 157.387698,44.2643597 C157.32894,44.2056015 157.297185,44.125104 157.300003,44.0420551 C157.300003,43.959838 157.332664,43.8809883 157.3908,43.822852 C157.448936,43.7647157 157.527786,43.7320551 157.610003,43.7320551 L168.762003,43.7320551 C168.93187,43.735251 169.068807,43.8721882 169.072003,44.0420551 C169.072003,44.2132634 168.933211,44.3520551 168.762003,44.3520551 L168.762003,44.3520551 Z" id="路径_9464" fill="#D1D3D4" fill-rule="nonzero"></path>
                    <path d="M160.607003,55.2490551 L147.521003,55.2490551 C147.398833,55.2660105 147.277963,55.2103335 147.211449,55.1064636 C147.144935,55.0025936 147.144935,54.8695167 147.211449,54.7656467 C147.277963,54.6617767 147.398833,54.6060998 147.521003,54.6230551 L160.607003,54.6230551 C160.763242,54.6447388 160.879563,54.7783182 160.879563,54.9360551 C160.879563,55.093792 160.763242,55.2273715 160.607003,55.2490551 L160.607003,55.2490551 Z" id="路径_9465" stroke="#E6E7E8" stroke-linecap="round" stroke-linejoin="round"></path>
                    <path d="M165.531003,55.2490551 L163.048003,55.2490551 C162.891764,55.2273715 162.775443,55.093792 162.775443,54.9360551 C162.775443,54.7783182 162.891764,54.6447388 163.048003,54.6230551 L165.531003,54.6230551 C165.653173,54.6060998 165.774043,54.6617767 165.840557,54.7656467 C165.907071,54.8695167 165.907071,55.0025936 165.840557,55.1064636 C165.774043,55.2103335 165.653173,55.2660105 165.531003,55.2490551 L165.531003,55.2490551 Z" id="路径_9466" stroke="#E6E7E8" stroke-linecap="round" stroke-linejoin="round"></path>
                    <path d="M166.702003,49.7030551 L147.402003,49.7030551 C147.245764,49.6813715 147.129443,49.547792 147.129443,49.3900551 C147.129443,49.2323182 147.245764,49.0987388 147.402003,49.0770551 L166.702003,49.0770551 C166.858242,49.0987388 166.974563,49.2323182 166.974563,49.3900551 C166.974563,49.547792 166.858242,49.6813715 166.702003,49.7030551 L166.702003,49.7030551 Z" id="路径_9467" stroke="#E6E7E8" stroke-linecap="round" stroke-linejoin="round"></path>
                    <path d="M153.739003,44.1570551 L147.474003,44.1570551 C147.302795,44.1570551 147.164003,44.0182634 147.164003,43.8470551 C147.161185,43.7640062 147.19294,43.6835088 147.251698,43.6247506 C147.310457,43.5659924 147.390954,43.5342375 147.474003,43.5370551 L153.740003,43.5370551 C153.911211,43.5370551 154.050003,43.6758469 154.050003,43.8470551 C154.046807,44.016922 153.90987,44.1538593 153.740003,44.1570551 L153.739003,44.1570551 Z" id="路径_9468" stroke="#E6E7E8" stroke-linecap="round" stroke-linejoin="round"></path>
                    <path d="M168.762003,44.3520551 L157.610003,44.3520551 C157.526954,44.3548728 157.446457,44.3231179 157.387698,44.2643597 C157.32894,44.2056015 157.297185,44.125104 157.300003,44.0420551 C157.300003,43.959838 157.332664,43.8809883 157.3908,43.822852 C157.448936,43.7647157 157.527786,43.7320551 157.610003,43.7320551 L168.762003,43.7320551 C168.93187,43.735251 169.068807,43.8721882 169.072003,44.0420551 C169.072003,44.2132634 168.933211,44.3520551 168.762003,44.3520551 L168.762003,44.3520551 Z" id="路径_9469" stroke="#E6E7E8" stroke-linecap="round" stroke-linejoin="round"></path>
                    <path d="M168.910003,119.348055 L147.326003,119.348055 C147.147279,119.338309 147.007354,119.190545 147.007354,119.011555 C147.007354,118.832565 147.147279,118.684802 147.326003,118.675055 L168.910003,118.675055 C169.0346,118.66826 169.152753,118.730869 169.217096,118.837783 C169.28144,118.944697 169.28144,119.078413 169.217096,119.185327 C169.152753,119.292241 169.0346,119.35485 168.910003,119.348055 Z" id="路径_9470" fill="#D1D3D4" fill-rule="nonzero"></path>
                    <path d="M164.260003,125.479055 L147.643003,125.479055 C147.518406,125.48585 147.400253,125.423241 147.33591,125.316327 C147.271566,125.209413 147.271566,125.075697 147.33591,124.968783 C147.400253,124.861869 147.518406,124.79926 147.643003,124.806055 L164.260003,124.806055 C164.444008,124.809774 164.592285,124.95805 164.596003,125.142055 C164.596003,125.327785 164.445732,125.478504 164.260003,125.479055 L164.260003,125.479055 Z" id="路径_9471" fill="#D1D3D4" fill-rule="nonzero"></path>
                    <path d="M166.574003,131.395055 L147.326003,131.395055 C147.201406,131.40185 147.083253,131.339241 147.01891,131.232327 C146.954566,131.125413 146.954566,130.991697 147.01891,130.884783 C147.083253,130.777869 147.201406,130.71526 147.326003,130.722055 L166.575003,130.722055 C166.759399,130.725243 166.908267,130.87367 166.912003,131.058055 C166.912003,131.244175 166.761123,131.395055 166.575003,131.395055 L166.574003,131.395055 Z" id="路径_9472" fill="#D1D3D4" fill-rule="nonzero"></path>
                    <path d="M169.650003,125.190055 L166.574003,125.190055 C166.395279,125.180309 166.255354,125.032545 166.255354,124.853555 C166.255354,124.674565 166.395279,124.526802 166.574003,124.517055 L169.638003,124.517055 C169.816727,124.526802 169.956652,124.674565 169.956652,124.853555 C169.956652,125.032545 169.816727,125.180309 169.638003,125.190055 L169.650003,125.190055 Z" id="路径_9473" fill="#D1D3D4" fill-rule="nonzero"></path>
                    <path d="M40.509003,35.3070551 L4.24600297,35.3070551 C4.15654354,35.3073218 4.07067126,35.2719022 4.0074136,35.2086445 C3.94415595,35.1453868 3.90850107,35.0595146 3.90900297,34.9700551 L3.90900297,5.23705513 C3.90220818,5.11245809 3.96481727,4.9943049 4.07173102,4.92996174 C4.17864478,4.86561859 4.31236117,4.86561859 4.41927492,4.92996174 C4.52618868,4.9943049 4.58879777,5.11245809 4.58200297,5.23705513 L4.58200297,34.6370551 L40.508003,34.6370551 C40.6867272,34.6468017 40.8266522,34.7945653 40.8266522,34.9735551 C40.8266522,35.1525449 40.6867272,35.3003086 40.508003,35.3100551 L40.509003,35.3070551 Z" id="路径_9474" fill="#E6E7E8" fill-rule="nonzero"></path>
                    <path d="M4.24700297,35.3070551 C4.1613642,35.3066232 4.07924736,35.2729159 4.01800297,35.2130551 C3.95296073,35.1520003 3.91606575,35.0667638 3.91606575,34.9775551 C3.91606575,34.8883464 3.95296073,34.80311 4.01800297,34.7420551 L19.249003,18.4210551 C19.3230914,18.3455362 19.4264388,18.3060962 19.532003,18.3130551 C19.6349389,18.3274068 19.7261725,18.3867636 19.781003,18.4750551 L23.146003,23.9000551 L33.726003,12.2630551 C33.8048902,12.1674765 33.9298714,12.1229076 34.0514354,12.1470044 C34.1729995,12.1711012 34.2715292,12.259975 34.3079923,12.3784187 C34.3444554,12.4968625 34.3129677,12.6257624 34.226003,12.7140551 L23.355003,24.6800551 C23.2825364,24.7580148 23.1779837,24.7979148 23.072003,24.7880551 C22.9666308,24.7816409 22.8710428,24.7241387 22.816003,24.6340551 L19.451003,19.2030551 L4.49000297,35.2030551 C4.42849765,35.2720128 4.3404042,35.3113272 4.24800297,35.3110565 L4.24700297,35.3070551 Z" id="路径_9475" fill="#E6E7E8" fill-rule="nonzero"></path>
                    <path d="M158.498003,36.6960551 L158.498003,36.6960551 C158.361044,36.6931599 158.240808,36.6041853 158.198003,36.4740551 L146.121003,2.89605513 L132.815003,28.7850551 C132.760616,28.8861712 132.660094,28.9541824 132.546003,28.9670551 C132.429539,28.9760752 132.316491,28.9252036 132.246003,28.8320551 L119.119003,11.6630551 L110.834003,24.9420551 C110.733643,25.0971136 110.52852,25.1448576 110.370003,25.0500551 L103.404003,20.8570551 C103.288189,20.8013384 103.214148,20.6846004 103.213102,20.5560851 C103.212078,20.4275699 103.284229,20.3096544 103.39913,20.2520794 C103.514032,20.1945044 103.651677,20.2072948 103.754003,20.2850551 L110.437003,24.3230551 L118.789003,10.8960551 C118.848055,10.8026044 118.947785,10.7425442 119.058003,10.7340551 C119.169584,10.7257803 119.277222,10.777127 119.341003,10.8690551 L132.441003,28.0040551 L145.865003,1.89605513 C145.929058,1.77866322 146.054408,1.70803266 146.188003,1.71405513 C146.321801,1.72573249 146.437723,1.81151512 146.488003,1.93605513 L158.522003,35.4600551 L164.445003,22.9350551 C164.487598,22.8144988 164.594925,22.7285659 164.721879,22.7133708 C164.848833,22.6981757 164.973409,22.7563521 165.043252,22.8634508 C165.113095,22.9705494 165.116099,23.1080069 165.051003,23.2180551 L158.785003,36.4830551 C158.739392,36.6041994 158.627165,36.6874897 158.498003,36.6960551 Z" id="路径_9476" fill="#D1D3D4" fill-rule="nonzero"></path>
                    <circle id="椭圆_134" fill="#FFFFFF" fill-rule="nonzero" cx="110.545003" cy="24.7270551" r="1.649"></circle>
                    <path d="M110.545003,26.7190551 C109.42994,26.7190551 108.526003,25.815118 108.526003,24.7000551 C108.526003,23.5849922 109.42994,22.6810551 110.545003,22.6810551 C111.660066,22.6810551 112.564003,23.5849922 112.564003,24.7000551 C112.564003,25.2355272 112.351288,25.7490678 111.972652,26.1277037 C111.594016,26.5063397 111.080475,26.7190551 110.545003,26.7190551 Z M110.545003,23.4190551 C109.99754,23.4192298 109.504726,23.7509733 109.298541,24.2581256 C109.092356,24.7652778 109.213884,25.3467848 109.605918,25.7289165 C109.997953,26.1110482 110.582378,26.2176619 111.08409,25.9985719 C111.585803,25.7794818 111.904832,25.2783434 111.891003,24.7310551 C111.876837,23.9978531 111.278342,23.4109183 110.545003,23.4110551 L110.545003,23.4190551 Z" id="路径_9477" fill="#D1D3D4" fill-rule="nonzero"></path>
                    <circle id="椭圆_135" fill="#FFFFFF" fill-rule="nonzero" cx="119.086003" cy="11.0710551" r="1.649"></circle>
                    <path d="M119.085003,13.0570551 C118.265325,13.0569389 117.527064,12.5612651 117.216659,11.8026341 C116.906253,11.0440031 117.085314,10.1729933 117.669815,9.59833557 C118.254315,9.02367782 119.12824,8.85943428 119.881491,9.18267801 C120.634741,9.50592173 121.117806,10.252493 121.104003,11.0720551 C121.085447,12.1738178 120.186922,13.0572114 119.085003,13.0570551 L119.085003,13.0570551 Z M119.085003,9.75705513 C119.090511,9.0211752 119.69007,8.42831035 120.425966,8.43105493 C121.161861,8.43381862 121.756966,9.03115459 121.756966,9.76705513 C121.756966,10.5029557 121.161861,11.1002916 120.425966,11.1030553 C119.69007,11.1057999 119.090511,10.5129351 119.085003,9.77705513 L119.085003,9.75705513 Z" id="路径_9478" fill="#D1D3D4" fill-rule="nonzero"></path>
                    <circle id="椭圆_136" fill="#FFFFFF" fill-rule="nonzero" cx="146.182003" cy="2.05305513" r="1.649"></circle>
                    <path d="M146.175003,4.03805513 C145.355325,4.0379389 144.617064,3.54226514 144.306659,2.7836341 C143.996253,2.02500307 144.175314,1.15399332 144.759815,0.579335573 C145.344315,0.0046778219 146.21824,-0.159565716 146.971491,0.163678008 C147.724741,0.486921732 148.207806,1.23349297 148.194003,2.05305513 C148.175447,3.1548178 147.276922,4.03821138 146.175003,4.03805513 Z M146.175003,0.738055129 C145.630597,0.738055129 145.139796,1.0659975 144.931461,1.56896323 C144.723126,2.07192896 144.838284,2.65086755 145.223237,3.03582086 C145.608191,3.42077416 146.187129,3.53593221 146.690095,3.32759698 C147.193061,3.11926175 147.521003,2.62846131 147.521003,2.08405513 C147.5199,1.34146102 146.917598,0.740054309 146.175003,0.740055129 L146.175003,0.738055129 Z" id="路径_9479" fill="#D1D3D4" fill-rule="nonzero"></path>
                    <circle id="椭圆_137" fill="#FFFFFF" fill-rule="nonzero" cx="158.492003" cy="36.3440551" r="1.649"></circle>
                    <path d="M158.495003,38.3290551 C157.675524,38.3424511 156.929256,37.8591218 156.606329,37.1058331 C156.283402,36.3525443 156.447898,35.4787799 157.02264,34.8944877 C157.597382,34.3101955 158.468317,34.1313235 159.226825,34.4417937 C159.985333,34.752264 160.480893,35.4904663 160.481003,36.3100551 C160.48115,37.4123568 159.597157,38.3110383 158.495003,38.3290551 Z M158.495003,35.0290551 C157.947793,35.0156351 157.446956,35.3349321 157.228184,35.836686 C157.009411,36.3384399 157.116281,36.9227065 157.498499,37.3145318 C157.880718,37.7063571 158.462153,37.8276937 158.969181,37.6214408 C159.47621,37.415188 159.807838,36.9224292 159.80801,36.3750551 C159.810399,35.6428251 159.227017,35.0430035 158.495003,35.0250551 L158.495003,35.0290551 Z" id="路径_9480" fill="#D1D3D4" fill-rule="nonzero"></path>
                    <circle id="椭圆_138" fill="#FFFFFF" fill-rule="nonzero" cx="132.519003" cy="28.6310551" r="1.649"></circle>
                    <path d="M132.519003,30.6430551 C131.699325,30.6429389 130.961064,30.1472651 130.650659,29.3886341 C130.340253,28.6300031 130.519314,27.7589933 131.103815,27.1843356 C131.688315,26.6096778 132.56224,26.4454343 133.315491,26.768678 C134.068741,27.0919217 134.551806,27.838493 134.538003,28.6580551 C134.519447,29.7598178 133.620922,30.6432114 132.519003,30.6430551 Z M132.519003,27.3430551 C131.803607,27.3618475 131.235241,27.9504724 131.241506,28.666088 C131.24777,29.3817037 131.826354,29.9602877 132.54197,29.9665524 C133.257586,29.9728172 133.846211,29.4044514 133.865003,28.6890551 C133.872259,28.3274188 133.733658,27.978081 133.480443,27.719787 C133.227229,27.461493 132.880712,27.3159823 132.519003,27.3160551 L132.519003,27.3430551 Z" id="路径_9481" fill="#D1D3D4" fill-rule="nonzero"></path>
                    <path d="M49.791003,9.24705513 L40.510003,9.24705513 C40.3312788,9.23730855 40.1913537,9.08954491 40.1913537,8.91055513 C40.1913537,8.73156534 40.3312788,8.58380171 40.510003,8.57405513 L49.791003,8.57405513 C49.9156,8.56726033 50.0337532,8.62986942 50.0980964,8.73678318 C50.1624395,8.84369693 50.1624395,8.97741333 50.0980964,9.08432708 C50.0337532,9.19124083 49.9156,9.25384993 49.791003,9.24705513 Z" id="路径_9482" fill="#D1D3D4" fill-rule="nonzero"></path>
                    <path d="M49.791003,11.6430551 L40.510003,11.6430551 C40.3312788,11.6333086 40.1913537,11.4855449 40.1913537,11.3065551 C40.1913537,11.1275653 40.3312788,10.9798017 40.510003,10.9700551 L49.791003,10.9700551 C49.9156,10.9632603 50.0337532,11.0258694 50.0980964,11.1327832 C50.1624395,11.2396969 50.1624395,11.3734133 50.0980964,11.4803271 C50.0337532,11.5872408 49.9156,11.6498499 49.791003,11.6430551 Z" id="路径_9483" fill="#D1D3D4" fill-rule="nonzero"></path>
                    <path d="M46.668003,14.0460551 L40.510003,14.0460551 C40.3312788,14.0363086 40.1913537,13.8885449 40.1913537,13.7095559 C40.1913537,13.5305653 40.3312788,13.3828017 40.510003,13.3730551 L46.668003,13.3730551 C46.8527791,13.3762601 47.001798,13.525279 47.005003,13.7100551 C47.005003,13.7993414 46.9694662,13.8849562 46.9062376,13.9479973 C46.8430089,14.0110383 46.7572888,14.0463209 46.668003,14.0460551 L46.668003,14.0460551 Z" id="路径_9484" fill="#D1D3D4" fill-rule="nonzero"></path>
                </g>
            </g>
        </g>
    </g>
</svg>