<?xml version="1.0" encoding="UTF-8"?>
<svg width="200px" height="200px" viewBox="0 0 200 200" version="1.1" xmlns="http://www.w3.org/2000/svg" xmlns:xlink="http://www.w3.org/1999/xlink">
    <title>编组 10备份 2</title>
    <g id="页面" stroke="none" stroke-width="1" fill="none" fill-rule="evenodd">
        <g id="00插画状态" transform="translate(-1640.000000, -319.000000)">
            <g id="编组-10备份-2" transform="translate(1640.000000, 319.000000)">
                <rect id="矩形" x="0" y="0" width="200" height="200"></rect>
                <g id="编组" transform="translate(17.000000, 26.000000)" fill-rule="nonzero">
                    <path d="M108.14102,40.1593424 C108.14102,40.1593424 115.48402,40.5023424 126.21902,49.5213424 C136.95402,58.5403424 140.87802,64.7583424 140.87802,64.7583424 L140.87802,29.0883424 C140.87802,29.0883424 127.24802,13.2923424 109.24102,7.2823424 L108.14102,40.1593424 Z" id="路径_9012" fill="#E6E7E8"></path>
                    <path d="M140.87802,65.0953424 C140.762788,65.0978693 140.654941,65.0388013 140.59502,64.9403424 C140.55502,64.8793424 136.55702,58.6473424 126.00402,49.7773424 C115.45102,40.9073424 108.19602,40.4963424 108.12202,40.4963424 C107.940477,40.482058 107.801742,40.3283958 107.805924,40.1463424 L108.87602,7.2953424 C108.880348,7.18928985 108.935423,7.0917924 109.02402,7.0333424 C109.109447,6.96763447 109.222552,6.94978684 109.32402,6.9863424 C127.24002,12.9563424 140.99702,28.7383424 141.13802,28.9003424 C141.19104,28.9593076 141.219952,29.0360512 141.219042,29.1153424 L141.219042,64.7853424 C141.219042,64.9347501 141.120368,65.0662246 140.97702,65.1083424 L140.87802,65.0953424 Z M108.48502,39.8493424 C110.05302,40.0243424 116.87802,41.1953424 126.43502,49.2713424 C131.685018,53.5224369 136.427635,58.3643761 140.56902,63.7013424 L140.56902,29.2423424 C139.41802,27.9423424 126.37502,13.5423424 109.56302,7.7663424 L108.48502,39.8493424 Z" id="路径_9013" fill="#231F20"></path>
                    <path d="M30.8780199,52.6103424 L30.8780199,20.8573424 C43.2117684,16.574015 56.2802579,14.8118263 69.3080199,15.6753424 L69.3080199,46.1363424 C69.3080199,46.1363424 45.7860199,46.7823424 30.8780199,52.6103424 Z" id="路径_9014" fill="#E6E7E8"></path>
                    <path d="M30.8850199,52.9463424 C30.814768,52.9463424 30.7457879,52.9275931 30.6850199,52.8923424 C30.5965313,52.8250993 30.5444068,52.7204807 30.5440064,52.6093424 L30.5440064,20.8573424 C30.5427867,20.7207044 30.6258911,20.5974395 30.7530199,20.5473424 C43.1462402,16.2654907 56.2681257,14.494716 69.3530199,15.3383424 C69.5285211,15.3524478 69.6633239,15.4992762 69.6633239,15.6753424 L69.6633239,46.1293424 C69.6668406,46.2174063 69.6345046,46.303206 69.5735113,46.366843 C69.512518,46.43048 69.4281666,46.4664252 69.3400199,46.4663424 C69.1040199,46.4663424 45.6830199,47.1863424 30.9770199,52.9273424 C30.9472491,52.9374269 30.9163501,52.9438082 30.8850199,52.9463424 L30.8850199,52.9463424 Z M31.2220199,21.0923424 L31.2220199,52.1253424 C45.0660199,46.8623424 66.1220199,45.9133424 68.9920199,45.8053424 L68.9920199,15.9913424 C56.1899269,15.21263 43.3591135,16.9451465 31.2220199,21.0913424 L31.2220199,21.0923424 Z" id="路径_9015" fill="#231F20"></path>
                    <path d="M35.4540199,47.3813424 C35.3816473,47.3825742 35.3110455,47.3589226 35.2540199,47.3143424 C35.1674407,47.2524013 35.1169416,47.1517771 35.1189582,47.0453424 L35.1189582,24.4813424 C35.1189582,24.2952224 35.2699,24.1443424 35.4560199,24.1443424 C35.6407961,24.1475473 35.789815,24.2965662 35.7930199,24.4813424 L35.7930199,46.5903424 C38.8420199,45.6343424 56.0650199,40.3983424 62.4930199,41.7313424 C62.6788638,41.7686216 62.7992992,41.9494986 62.7620199,42.1353424 C62.7247407,42.3211862 62.5438638,42.4416216 62.3580199,42.4043424 C55.6280199,41.0113424 35.7580199,47.3173424 35.5580199,47.3843424 L35.4540199,47.3813424 Z" id="路径_9016" fill="#231F20"></path>
                    <path d="M16.1380199,70.2633424 C8.49170012,74.0545096 2.77557755,80.8660803 0.369019949,89.0543424 L0.369019949,60.9753424 C0.369019949,60.9753424 0.120019949,47.3663424 16.1380199,38.7253424 L16.1380199,70.2633424 Z" id="路径_9017" fill="#E6E7E8"></path>
                    <path d="M0.336019949,89.3913643 L0.289019949,89.3913643 C0.122937581,89.3705519 -0.0012762895,89.228716 9.89739316e-06,89.0613424 L9.89739316e-06,60.9763424 C9.89739316e-06,60.8413424 9.89739316e-06,47.0643424 15.9440199,38.4303424 C16.0489592,38.3727022 16.1760807,38.3727022 16.2810199,38.4303424 C16.3819142,38.491649 16.44337,38.601283 16.4430214,38.7193424 L16.4430214,70.2603424 C16.4423147,70.39639 16.3598745,70.5186697 16.2340199,70.5703424 C8.69710932,74.3492533 3.05956912,81.0781055 0.659019949,89.1603424 C0.613239645,89.2995344 0.482537764,89.3930085 0.336019949,89.3913643 L0.336019949,89.3913643 Z M15.7690199,39.2983424 C0.659019949,47.7243424 0.659019949,60.8353424 0.659019949,60.9693424 L0.659019949,87.0293424 C3.38436715,79.6756979 8.77404926,73.6149825 15.7590199,70.0493424 L15.7690199,39.2983424 Z" id="路径_9018" fill="#231F20"></path>
                    <path d="M0.336019949,60.9763424 C0.336019949,60.9763424 3.14301995,73.1853424 13.9450199,77.2303424 L13.9450199,110.086342 C13.9450199,110.086342 1.63501995,101.565342 0.336019949,89.0543424 L0.336019949,60.9763424 Z" id="路径_9019" fill="#FFFFFF"></path>
                    <path d="M13.9440199,110.423342 C13.8764428,110.424095 13.810552,110.402255 13.7560199,110.362342 C13.6280199,110.275342 1.29801995,101.613342 0.00601994938,89.0883424 L0.00601994938,60.9763424 C-0.00420395256,60.7963569 0.128227087,60.6398513 0.307422763,60.6201477 C0.486618439,60.6004442 0.649891639,60.7244355 0.679019949,60.9023424 C0.679019949,61.0163424 3.57901995,72.9833424 14.0790199,76.9203424 C14.2072302,76.9701221 14.2923256,77.0928178 14.2940228,77.2303424 L14.2940228,110.087342 C14.2945341,110.213594 14.2242313,110.329478 14.1120199,110.387342 C14.0605303,110.414931 14.0022933,110.427411 13.9440199,110.423342 L13.9440199,110.423342 Z M0.659019949,63.1563424 L0.659019949,89.0563424 C1.76901995,99.7713424 11.2390199,107.625342 13.5950199,109.422342 L13.5950199,77.4683424 C5.66601995,74.3763424 2.00501995,66.8513424 0.659019949,63.1563424 Z" id="路径_9020" fill="#231F20"></path>
                    <path d="M145.67602,87.3653424 C144.41102,87.6143424 89.5860199,112.940342 89.5860199,112.940342 C89.5860199,112.940342 68.1300199,105.113342 67.6320199,105.362342 C67.1340199,105.611342 121.67602,82.8763424 121.67602,82.8763424 L145.67602,87.3653424 Z" id="路径_9021" fill="#FFFFFF"></path>
                    <path d="M89.5860199,113.270342 C89.5483362,113.277276 89.5097037,113.277276 89.4720199,113.270342 C81.1870199,110.248342 68.5410199,105.739342 67.6720199,105.705342 L67.6720199,105.671342 C67.4160199,105.725342 67.3890199,105.671342 67.3220199,105.516342 C67.2496605,105.351075 67.3207339,105.158161 67.4830199,105.079342 L67.5230199,105.079342 C68.2630199,104.810342 121.00902,82.8223424 121.54002,82.6003424 C121.604997,82.5791136 121.675043,82.5791136 121.74002,82.6003424 L145.74002,87.0893424 C145.896744,87.1231439 146.010462,87.2591111 146.016069,87.4193424 C146.018788,87.5802098 145.905143,87.7196257 145.74702,87.7493424 C144.52902,88.0593424 108.57602,104.575342 89.7310199,113.324342 C89.6792633,113.317385 89.6297195,113.298934 89.5860199,113.270342 L89.5860199,113.270342 Z M68.7220199,105.281342 C70.6600199,105.826342 75.7690199,107.529342 89.5860199,112.570342 C95.2800199,109.938342 136.99402,90.6833424 144.49202,87.4793424 L121.72302,83.2193424 L94.8020199,94.4383424 L76.2260199,102.171342 L70.1010199,104.715342 L68.7220199,105.281342 Z" id="路径_9022" fill="#231F20"></path>
                    <path d="M89.5860199,109.811342 L89.4860199,109.811342 L74.9050199,105.346342 C74.7706331,105.306598 74.676006,105.186309 74.6690199,105.046342 C74.6616241,104.905716 74.7409325,104.774857 74.8690199,104.716342 L116.10502,87.4333424 C116.261676,87.3664224 116.443638,87.4269332 116.52902,87.5743424 L120.82302,95.1523424 C120.859648,95.2382686 120.859648,95.3354162 120.82302,95.4213424 C120.797543,95.5131212 120.729996,95.5873482 120.64102,95.6213424 L89.6820199,109.815342 C89.6499882,109.818429 89.6176839,109.816956 89.5860199,109.811342 L89.5860199,109.811342 Z M75.9860199,104.965342 L89.5680199,109.118342 L120.06302,95.1323424 L116.09902,88.1063424 L75.9860199,104.965342 Z" id="路径_9023" fill="#D1D3D4"></path>
                    <path d="M66.3600199,0.390342399 C64.6431068,0.783048047 63.0343339,1.55072402 61.6490199,2.6383424 C60.3030199,3.6073424 58.9570199,5.1153424 59.4080199,6.6763424 C59.5900199,7.2763424 60.0140199,7.9613424 59.6370199,8.4603424 C59.3810199,8.7903424 58.9030199,8.8173424 58.4930199,8.8773424 C56.8739767,9.11756595 55.5251004,10.2427809 54.9984169,11.7924947 C54.4717333,13.3422085 54.8556385,15.0563242 55.9930199,16.2333424 C54.5341688,16.3154655 53.174478,16.9981201 52.2371661,18.1190293 C51.2998541,19.2399384 50.8686365,20.6989886 51.0460199,22.1493424 C51.1973292,22.9081121 51.4534502,23.642146 51.8070199,24.3303424 C52.5078423,25.4186765 52.8685172,26.691135 52.8430199,27.9853424 C52.1607041,27.9351618 51.4902523,28.1839295 51.0058077,28.6670305 C50.5213632,29.1501315 50.2707345,29.8198898 50.3190199,30.5023424 C50.4999272,31.8881802 51.3541442,33.0950145 52.6010199,33.7263424 C51.2354837,34.1099665 50.3925822,35.4769631 50.6630199,36.8693424 C50.9871583,38.2145593 51.8286948,39.3776907 53.0050199,40.1063424 C55.7647405,42.0119444 59.2777482,42.4593663 62.4270199,41.3063424 C62.701037,42.5924132 63.6276535,43.6415418 64.8700199,44.0723424 C66.099587,44.4755776 67.3944248,44.6421828 68.6860199,44.5633424 C71.0950199,44.5633424 73.7200199,44.3483424 75.5040199,42.7263424 C75.9040199,42.3633424 76.2710199,41.7773424 76.0040199,41.3063424 C75.6740199,40.7273424 74.6110199,40.7203424 74.5500199,40.0613424 C76.3553001,39.9488981 78.0878905,39.3091296 79.5330199,38.2213424 C80.5949525,37.5202099 81.311184,36.403005 81.5050199,35.1453424 C81.5607084,34.1285568 81.0968114,33.1529423 80.2730199,32.5543424 C81.2730199,31.6723424 82.3860199,30.3943424 81.8550199,29.1893424 C81.4240199,28.2063424 80.0780199,27.5333424 80.3610199,26.5573424 C81.8436394,25.9247745 82.9103005,24.5909368 83.2013939,23.0055135 C83.4924874,21.4200901 82.9692261,19.7943329 81.8080199,18.6763424 C83.7174931,17.9720283 84.9752197,16.1400813 84.9464434,14.1050585 C84.9176671,12.0700356 83.6086444,10.2743838 81.6800199,9.6243424 C82.3423486,8.53974558 82.364732,7.18135375 81.7384968,6.07552419 C81.1122616,4.96969464 79.9358176,4.29020296 78.6650199,4.3003424 C79.2054314,3.39336628 78.9356493,2.22166577 78.0530199,1.6423424 C77.1685919,1.12323708 76.1214876,0.955143646 75.1190199,1.1713424 C73.4500199,1.4133424 72.3190199,1.8843424 70.8120199,1.1713424 C69.4631128,0.403660366 67.8896843,0.127638891 66.3600199,0.390342399 L66.3600199,0.390342399 Z" id="路径_9024" fill="#FFFFFF"></path>
                    <path d="M68.3650199,44.9043424 C67.1361448,44.9617586 65.9075091,44.7859969 64.7440199,44.3863424 C63.5278847,43.9510375 62.5796932,42.980349 62.1730199,41.7543424 C59.0137858,42.7967929 55.5486114,42.2985955 52.8110199,40.4083424 C51.5662085,39.6248716 50.6772116,38.3855877 50.3340199,36.9553424 C50.1182222,35.6494847 50.7174011,34.3434805 51.8480199,33.6553424 C50.7970417,32.9502025 50.1140119,31.8142624 49.9840199,30.5553424 C49.947958,29.6576359 50.3280076,28.7934843 51.0140199,28.2133424 C51.4242728,27.8205245 51.9741989,27.6074641 52.5420199,27.6213424 C52.4726527,26.6274894 52.1705189,25.6638811 51.6600199,24.8083424 L51.5050199,24.4853424 C51.1385081,23.7696128 50.8736226,23.0062578 50.7180199,22.2173424 C50.4928938,20.6688104 50.9577925,19.0994119 51.9900199,17.9233424 C52.8363158,16.8855834 54.0333584,16.193682 55.3550199,15.9783424 C54.4011622,14.6460415 54.2080918,12.913813 54.8451947,11.4041872 C55.4822976,9.89456132 56.8580453,8.82441642 58.4780199,8.5783424 L58.6130199,8.5783424 C58.9430199,8.5313424 59.2860199,8.4913424 59.4000199,8.3023424 C59.5140199,8.1133424 59.4610199,7.7503424 59.2720199,7.2593424 C59.2180199,7.1113424 59.1640199,6.9703424 59.1170199,6.8223424 C58.5380199,4.8843424 60.3490199,3.2153424 61.4860199,2.3933424 C62.9056709,1.27275436 64.5596664,0.48660233 66.3250199,0.0933423986 L66.3250199,0.0933423986 C67.9244072,-0.16825658 69.5651798,0.123843971 70.9760199,0.921342399 C71.9725863,1.31746366 73.0747919,1.36016839 74.0990199,1.0423424 C74.4150199,0.981342399 74.7380199,0.921342399 75.0880199,0.867342399 C76.1760394,0.629924647 77.313698,0.820429641 78.2650199,1.3993424 C78.8198799,1.7945326 79.1930691,2.39574186 79.3010199,3.0683424 C79.3396796,3.37927173 79.3054431,3.69493181 79.2010199,3.9903424 C80.4117547,4.15459046 81.4718249,4.88578455 82.0554448,5.95921076 C82.6390648,7.03263697 82.6764161,8.31988146 82.1560199,9.4253424 C84.0224388,10.20631 85.2551985,12.0116927 85.3031614,14.0343467 C85.3511244,16.0570007 84.2053238,17.918786 82.3780199,18.7873424 C83.4199682,20.0071567 83.8338341,21.6429194 83.4973767,23.2114854 C83.1609193,24.7800515 82.1125873,26.1021727 80.6620199,26.7873424 C80.6620199,27.1373424 80.9180199,27.4603424 81.3350199,27.9383424 C81.6599892,28.2550571 81.9303075,28.6233658 82.1350199,29.0283424 C82.5930199,30.0713424 82.1350199,31.2493424 80.7890199,32.5343424 C81.5146964,33.2082664 81.9021935,34.1705935 81.8460199,35.1593424 C81.6457374,36.5158572 80.880142,37.7240227 79.7390199,38.4843424 C78.4098191,39.4843217 76.8450164,40.124296 75.1960199,40.3423424 L75.4320199,40.4563424 C75.7849467,40.5871853 76.0899931,40.8218095 76.3070199,41.1293424 C76.5676398,41.7986011 76.3336981,42.5592221 75.7420199,42.9663424 C73.9110199,44.6283424 71.2730199,44.8663424 68.6950199,44.8913424 L68.3650199,44.9043424 Z M62.4220199,40.9943424 C62.5909002,40.9926217 62.7349733,41.1161741 62.7590199,41.2833424 C63.0048672,42.4532849 63.8529898,43.4049485 64.9870199,43.7833424 C66.1757565,44.1710419 67.427,44.3308401 68.6750199,44.2543424 C71.1180199,44.2543424 73.6080199,44.0123424 75.2750199,42.5043424 C75.5910199,42.2153424 75.8670199,41.7773424 75.7060199,41.4943424 C75.5482734,41.3129035 75.3464593,41.1751464 75.1200199,41.0943424 C74.7360199,40.9123424 74.2590199,40.6773424 74.2050199,40.1253424 C74.1995084,40.0350791 74.2284575,39.9460876 74.2860199,39.8763424 C74.3447674,39.8053554 74.4300898,39.7616096 74.5220199,39.7553424 C76.2616139,39.6463145 77.9307922,39.0283708 79.3220199,37.9783424 C80.3042241,37.3330874 80.9706456,36.3053399 81.1590199,35.1453424 C81.2098268,34.246662 80.7989046,33.3841025 80.0690199,32.8573424 C79.9847348,32.798608 79.9326105,32.7039711 79.9280199,32.6013424 C79.9209785,32.4986319 79.9633215,32.3987171 80.0420199,32.3323424 C81.3880199,31.1543424 81.8930199,30.1453424 81.5360199,29.3323424 C81.3582872,28.997467 81.1314418,28.691074 80.8630199,28.4233424 C80.3780199,27.8983424 79.8270199,27.2993424 80.0420199,26.4983424 C80.0704437,26.3972161 80.1443974,26.3151275 80.2420199,26.2763424 C81.6206365,25.6879406 82.612458,24.4475857 82.8832147,22.9733092 C83.1539714,21.4990327 82.6675999,19.9872017 81.5880199,18.9473424 C81.5008891,18.8688667 81.4617818,18.7501485 81.4852132,18.6352521 C81.5086447,18.5203557 81.5911173,18.426432 81.7020199,18.3883424 C83.4813778,17.7368785 84.6552074,16.0326272 84.6295548,14.1379342 C84.6039022,12.2432412 83.384363,10.5713942 81.5880199,9.9683424 C81.4912884,9.93738942 81.414198,9.86361871 81.3790199,9.7683424 C81.3323883,9.67765227 81.3323883,9.57003253 81.3790199,9.4793424 C81.9699983,8.50345185 81.9909856,7.28526856 81.4339741,6.28959999 C80.8769625,5.29393143 79.8278829,4.67438074 78.6870199,4.6673424 L78.6870199,4.6673424 C78.5599066,4.66511589 78.4444512,4.59276385 78.3870199,4.4793424 C78.3334256,4.36287054 78.3464034,4.22660369 78.4210199,4.1223424 C78.621893,3.84715861 78.6997356,3.50103097 78.6360199,3.1663424 C78.5541417,2.67717245 78.2833575,2.23975179 77.8820199,1.9483424 C77.0701844,1.47235077 76.1069035,1.32528226 75.1900199,1.5373424 C74.8470199,1.5843424 74.5170199,1.6453424 74.2280199,1.6993424 C73.0658461,2.05371729 71.8164844,1.99183269 70.6950199,1.5243424 C69.4080392,0.792325787 67.9104957,0.51940404 66.4480199,0.750342399 C64.7801473,1.12755627 63.2168523,1.87043729 61.8710199,2.9253424 C61.0770199,3.5043424 59.2800199,5.0183424 59.7580199,6.6203424 C59.7980199,6.7483424 59.8450199,6.8763424 59.8990199,7.0103424 C60.1929573,7.53159097 60.1880076,8.16971615 59.8860199,8.6863424 C59.5666804,9.02239364 59.124585,9.21438933 58.6610199,9.2183424 L58.5260199,9.2183424 C57.0350643,9.44624753 55.7954063,10.4860842 55.3115749,11.9146488 C54.8277436,13.3432134 55.1804014,14.9223413 56.2260199,16.0093424 C56.3202672,16.1053688 56.3467773,16.2489983 56.2930199,16.3723424 C56.2373885,16.493635 56.1164601,16.5716533 55.9830199,16.5723424 C54.6259079,16.6539039 53.3619881,17.2897311 52.4875516,18.330772 C51.6131151,19.3718129 51.2050515,20.7265282 51.3590199,22.0773424 C51.5132153,22.8040451 51.7669411,23.5059974 52.1130199,24.1633424 L52.2680199,24.4793424 C52.9297238,25.5346161 53.2492918,26.7685326 53.1830199,28.0123424 C53.1705086,28.1033143 53.1190435,28.1843445 53.0420199,28.2343424 C52.966225,28.2885198 52.8710604,28.3081339 52.7800199,28.2883424 C52.2935173,28.2043459 51.7956931,28.3522877 51.4340199,28.6883424 C50.9176478,29.1296701 50.6262725,29.7792097 50.6400199,30.4583424 C50.8083614,31.7320114 51.6009303,32.8377819 52.7530199,33.4063424 C52.8776315,33.4770633 52.9439008,33.618846 52.9182303,33.7598088 C52.8925598,33.9007716 52.7805627,34.0100905 52.6390199,34.0323424 C51.460937,34.3909591 50.7454409,35.5830206 50.9830199,36.7913424 C51.2951541,38.0447653 52.0845977,39.126662 53.1830199,39.8063424 C55.8452359,41.6717674 59.2524868,42.1144859 62.3030199,40.9913424 C62.3430998,40.9849479 62.3839401,40.9849479 62.4240199,40.9913424 L62.4220199,40.9943424 Z" id="路径_9025" fill="#231F20"></path>
                    <path d="M84.6520199,42.6963424 C84.6520199,42.6963424 104.01502,67.5963424 105.16602,67.7393424 C105.16602,67.7393424 125.60602,64.8653424 126.87802,62.8533424 C128.15002,60.8413424 129.57002,61.3993424 129.57002,61.3993424 C129.57002,61.3993424 130.82202,58.9763424 132.39702,58.7073424 C133.97202,58.4383424 138.89702,61.3993424 136.03102,63.3173424 C133.16502,65.2353424 107.72302,81.2603424 104.27102,81.6233424 C93.3340199,82.7543424 82.8710199,56.5233424 84.0800199,53.0463424 L84.6520199,42.6963424 Z" id="路径_9026" fill="#FFFFFF"></path>
                    <path d="M103.63102,81.9673424 C100.37302,81.9673424 96.8600199,79.6923424 93.4140199,75.3383424 C87.4510199,67.8073424 82.9620199,55.6253424 83.7830199,52.9603424 L84.3280199,42.6763424 C84.335006,42.5363758 84.4296331,42.4160871 84.5640199,42.3763424 C84.6969522,42.3355737 84.8412631,42.3808945 84.9270199,42.4903424 C92.4040199,52.1083424 103.87902,66.5373424 105.22702,67.3903424 C113.07502,66.2903424 125.74102,64.0253424 126.60902,62.6793424 C127.67902,60.9793424 128.89102,60.9293424 129.43602,61.0233424 C129.81302,60.3503424 130.95002,58.6233424 132.37702,58.3313424 C133.66902,58.0823424 136.49602,59.6103424 137.14202,61.2053424 C137.518157,62.0963311 137.130453,63.1258135 136.26002,63.5473424 C134.06602,64.9943424 107.99302,81.5303424 104.34502,81.9073424 C104.10834,81.9407754 103.86996,81.9608073 103.63102,81.9673424 L103.63102,81.9673424 Z M84.9540199,43.6043424 L84.4540199,53.0263424 C84.4601227,53.0550213 84.4601227,53.0846635 84.4540199,53.1133424 C83.7140199,55.2403424 87.8190199,67.1663424 93.9540199,74.9063424 C96.4310199,78.0293424 100.23302,81.6363424 104.28502,81.2463424 C107.57602,80.9033424 132.21602,65.4303424 135.91702,62.9933424 C136.59002,62.5563424 136.78502,62.0513424 136.54302,61.4583424 C135.670978,60.0361956 134.168591,59.1198061 132.50502,58.9953424 C131.34102,59.2173424 130.23702,60.9063424 129.90502,61.5393424 C129.826662,61.6947215 129.641114,61.7625515 129.48102,61.6943424 C129.44102,61.6943424 128.28102,61.2773424 127.18102,63.0403424 C125.83502,65.1263424 107.33302,67.7513424 105.22702,68.0743424 C105.198394,68.0809288 105.168646,68.0809288 105.14002,68.0743424 C103.99602,67.9123424 91.0540199,51.4743424 84.9400199,43.6093424 L84.9540199,43.6043424 Z" id="路径_9027" fill="#231F20"></path>
                    <path d="M70.3030199,35.9803424 C70.3030199,35.9803424 61.5540199,32.4403424 50.8660199,41.6133424 C46.0540199,45.7053424 45.0780199,50.1813424 43.0590199,54.7713424 C44.6810199,70.1163424 50.2940199,96.6603424 50.2940199,96.6603424 L86.9070199,96.6603424 C86.9070199,96.6603424 89.8620199,74.4033424 90.9450199,60.9903424 C91.6180199,52.6443424 87.8020199,46.3993424 85.8230199,43.0903424 C82.4310199,37.3463424 70.3030199,35.9803424 70.3030199,35.9803424 Z" id="路径_9028" fill="#6F42FF"></path>
                    <path d="M64.5960199,37.9583424 C65.2690199,39.2433424 76.4210199,68.4663424 76.4210199,68.4663424 L76.4210199,41.1353424 L64.5960199,37.9583424 Z" id="路径_9029" fill="#231F20"></path>
                    <path d="M76.4280199,68.8033521 C76.2882144,68.8043992 76.162364,68.7187732 76.1120199,68.5883424 C76.0040199,68.2993424 64.9530199,39.3653424 64.3000199,38.1133424 C64.2392745,37.9943177 64.2545946,37.8506442 64.3390723,37.7471048 C64.42355,37.6435654 64.5612254,37.5997215 64.6900199,37.6353424 L76.5150199,40.8053424 C76.6636651,40.8455369 76.76616,40.9813735 76.7640528,41.1353424 L76.7640528,68.4673424 C76.7662161,68.630435 76.6489312,68.7706669 76.4880199,68.7973424 L76.4280199,68.8033521 Z M65.1880199,38.4693424 C66.7760199,42.3193424 73.8700199,60.8403424 76.0880199,66.6423424 L76.0880199,41.3903424 L65.1880199,38.4693424 Z" id="路径_9030" fill="#231F20"></path>
                    <path d="M80.8100199,13.6313424 L81.3620199,15.4893424 C81.6040199,16.3173424 82.3180199,16.6063424 82.6210199,17.2893424 C82.8358909,18.2790131 82.9152839,19.293292 82.8570199,20.3043424 C83.0137193,22.3478081 82.8684932,24.4032116 82.4260199,26.4043424 C81.800777,29.0656742 79.65753,31.1032903 76.9680199,31.5933424 L76.7120199,39.8933424 C76.7120199,39.8933424 76.6180199,44.1403424 71.4350199,43.3193424 C68.3815452,42.8273389 65.7999832,40.7905379 64.6110199,37.9353424 L64.5370199,27.1673424 C64.5370199,26.0163424 64.0790199,23.8563424 64.5370199,22.7673424 C64.9950199,21.6783424 66.9800199,21.0043424 67.8550199,19.9743424 C69.0225777,18.6158644 69.7004357,16.9048451 69.7800199,15.1153424 C71.6973297,15.2013338 73.4963546,14.1883396 74.4170199,12.5043424 C75.9785279,14.4068403 78.7698243,14.7227442 80.7170199,13.2173424 L80.8100199,13.6313424 Z" id="路径_9031" fill="#FFFFFF"></path>
                    <path d="M72.6720199,43.7733424 C72.221016,43.7716378 71.7708863,43.7335139 71.3260199,43.6593424 C68.1499888,43.1683938 65.4619439,41.0523218 64.2390199,38.0803424 C64.232642,38.04261 64.232642,38.0040748 64.2390199,37.9663424 L64.1650199,27.1573424 C64.1650199,26.8203424 64.1180199,26.3763424 64.0780199,25.9053424 C63.8811515,24.8209345 63.9087192,23.707677 64.1590199,22.6343424 C64.6088043,21.8770073 65.2688751,21.2666155 66.0590199,20.8773424 C66.6012847,20.5694056 67.097489,20.1866483 67.5330199,19.7403424 C68.6550012,18.4425653 69.3049022,16.8033629 69.3770199,15.0893424 C69.3799582,14.9993859 69.4188643,14.9143689 69.4850199,14.8533424 C69.549175,14.7859491 69.6418542,14.7535672 69.7340199,14.7663424 C71.5196628,14.8466442 73.1945591,13.9008752 74.0480199,12.3303424 C74.1026492,12.2273517 74.2075667,12.1608279 74.3240199,12.1553424 C74.4404839,12.1463223 74.5535319,12.1971939 74.6240199,12.2903424 C76.0664256,14.0411123 78.6348496,14.3383693 80.4390199,12.9633424 C80.5260899,12.8886925 80.6451481,12.8634492 80.7550199,12.8963424 C80.8621679,12.9315364 80.9451682,13.0171539 80.9770199,13.1253424 L81.1050199,13.5493424 L81.1050199,13.5493424 L81.6570199,15.4073424 C81.7834423,15.7518444 81.9913603,16.0606335 82.2630199,16.3073424 C82.5376988,16.551166 82.7657428,16.8429133 82.9360199,17.1683424 C83.1772934,17.938099 83.2642886,18.7479027 83.1920199,19.5513424 L83.1920199,20.3053424 C83.3554267,22.3839 83.2081422,24.4752052 82.7550199,26.5103424 C82.1036494,29.1925113 79.9931525,31.2766851 77.3030199,31.8943424 L77.0470199,39.9233424 C76.985274,41.04471 76.4762608,42.0944372 75.6340199,42.8373424 C74.7917774,43.4954249 73.7404867,43.8277478 72.6730199,43.7733424 L72.6720199,43.7733424 Z M64.9390199,37.8973424 C66.1112852,40.5977332 68.5757714,42.517109 71.4810199,42.9923424 C72.7565181,43.30445 74.1045584,43.0597814 75.1890199,42.3193424 C75.8821252,41.6958131 76.3047338,40.8265597 76.3670199,39.8963424 L76.6290199,31.5713424 C76.6369191,31.4036229 76.7628099,31.265143 76.9290199,31.2413424 C79.4763243,30.7833791 81.5077802,28.8552842 82.0980199,26.3353424 C82.5356857,24.3639752 82.6762385,22.3382628 82.5150199,20.3253424 L82.5150199,19.5383424 C82.576201,18.8320062 82.5084319,18.1204316 82.3150199,17.4383424 C82.1833003,17.1871514 82.0105962,16.9596958 81.8040199,16.7653424 C81.4555573,16.4443521 81.1920417,16.0420356 81.0370199,15.5943424 L80.4920199,13.7633424 C78.5586899,14.9594795 76.0586289,14.6816949 74.4350199,13.0903424 C73.4365935,14.5256433 71.8082256,15.3924933 70.0600199,15.4193424 C69.8978638,17.1625882 69.1915385,18.8106805 68.0410199,20.1303424 C67.5807541,20.6546556 67.045661,21.1082043 66.4530199,21.4763424 C65.7800199,21.9273424 65.0190199,22.3913424 64.8110199,22.9163424 C64.6124531,23.8901138 64.5988837,24.892553 64.7710199,25.8713424 C64.8180199,26.3563424 64.8650199,26.8203424 64.8650199,27.2173424 L64.9390199,37.8973424 Z" id="路径_9032" fill="#231F20"></path>
                    <path d="M67.4100199,22.8953424 C67.4100199,22.8953424 65.0280199,17.0533424 62.0260199,20.5953424 C59.0240199,24.1373424 63.1100199,28.2543424 65.6810199,27.9953424" id="路径_9033" fill="#FFFFFF"></path>
                    <path d="M65.4380199,28.3403424 C63.6077709,28.1550393 62.000017,27.0450853 61.1780199,25.3993424 C60.2624382,23.7750279 60.5017679,21.7451725 61.7700199,20.3783424 C62.3464624,19.5428956 63.3215596,19.0743622 64.3340199,19.1463424 C66.3530199,19.4693424 67.6650199,22.6323424 67.6990199,22.7673424 C67.7613999,22.8806652 67.7534085,23.0196935 67.6784548,23.1251224 C67.603501,23.2305512 67.4748143,23.2837722 67.3472883,23.262083 C67.2197623,23.2403937 67.1159055,23.1476225 67.0800199,23.0233424 C67.0800199,23.0233424 65.8550199,20.0753424 64.2060199,19.8133424 C63.425872,19.7765478 62.6850278,20.1574446 62.2610199,20.8133424 C61.1802444,21.9765793 60.977919,23.7060572 61.7610199,25.0873424 C62.5750199,26.6353424 64.3050199,27.7793424 65.6310199,27.6583424 C65.7512398,27.646374 65.8687126,27.6994513 65.9391875,27.7975805 C66.0096624,27.8957098 66.0224325,28.0239829 65.9726875,28.1340806 C65.9229425,28.2441782 65.8182398,28.319374 65.6980199,28.3313424 C65.6116607,28.3402792 65.5247905,28.3432863 65.4380199,28.3403424 L65.4380199,28.3403424 Z" id="路径_9034" fill="#231F20"></path>
                    <path d="M78.2590199,26.5433424 C77.6646581,26.5303336 77.0743194,26.4423036 76.5020199,26.2813424 C76.3818001,26.2456158 76.2897722,26.1484666 76.2606024,26.0264899 C76.2314325,25.9045131 76.2695523,25.77624 76.3606024,25.6899898 C76.4516524,25.6037397 76.5818001,25.5726158 76.7020199,25.6083424 C77.4796277,25.8701471 78.3165527,25.9003723 79.1110199,25.6953424 C79.2660199,25.3583424 78.2290199,23.3463424 76.8630199,21.4213424 C76.7569196,21.2707592 76.788707,21.0632581 76.9350199,20.9513424 C77.0080494,20.8991101 77.098946,20.8782793 77.1874329,20.8934968 C77.2759198,20.9087143 77.3546353,20.9587141 77.4060199,21.0323424 C78.0180199,21.9073424 80.0060199,24.8323424 79.7350199,25.8783424 C79.6870244,26.0606349 79.5647764,26.2144424 79.3980199,26.3023424 C79.0390237,26.4658544 78.6484783,26.5484698 78.2540199,26.5443424 L78.2590199,26.5433424 Z" id="路径_9035" fill="#231F20"></path>
                    <path d="M76.1990199,29.0613424 C75.7148179,29.0622339 75.2326288,28.999018 74.7650199,28.8733424 C73.3554164,28.4708717 72.1358579,27.5782783 71.3260199,26.3563424 C71.2906321,26.273395 71.2899656,26.1797247 71.3241695,26.0962821 C71.3583735,26.0128395 71.424594,25.9465868 71.5080199,25.9123424 C71.6791994,25.8460226 71.872249,25.9262396 71.9460199,26.0943424 C72.6992652,27.1562303 73.8024872,27.9188555 75.0620199,28.2483424 C76.857974,28.6051283 78.7177938,28.1078463 80.0960199,26.9023424 C80.2432749,26.8045793 80.4410414,26.8371979 80.5491017,26.9770716 C80.6571619,27.1169452 80.6387936,27.3165402 80.5070199,27.4343424 C79.2929739,28.442088 77.7770942,29.0154263 76.2000199,29.0633424 L76.1990199,29.0613424 Z" id="路径_9036" fill="#231F20"></path>
                    <ellipse id="椭圆_102" fill="#231F20" transform="translate(74.176769, 20.616053) rotate(-1.146000) translate(-74.176769, -20.616053) " cx="74.1767695" cy="20.6160535" rx="1" ry="1.144"></ellipse>
                    <ellipse id="椭圆_103" fill="#231F20" transform="translate(80.177769, 20.496053) rotate(-1.146000) translate(-80.177769, -20.496053) " cx="80.1777695" cy="20.4960535" rx="1" ry="1.144"></ellipse>
                    <path d="M72.6690199,22.8763424 C70.7100199,22.8763424 70.6100199,22.7413424 70.5220199,22.6343424 C70.4340199,22.5273424 70.2660199,22.2973424 70.2060198,18.6973424 C70.2058639,18.5165555 70.348389,18.3678528 70.5290199,18.3603424 C72.8034759,18.1641987 75.0863692,18.0827622 77.3690199,18.1163424 C77.5160171,18.1643972 77.6126754,18.3048794 77.6050199,18.4593424 L77.3360199,22.4503424 C77.3224623,22.6205946 77.1836853,22.7537862 77.0130199,22.7603424 C74.9610199,22.8223424 73.5810199,22.8763424 72.6690199,22.8763424 Z M71.0270199,22.1493424 C71.6600199,22.2303424 74.2270199,22.1893424 76.6470199,22.0953424 L76.8760199,18.7303424 C75.9000199,18.7303424 72.9390199,18.8713424 70.8520199,18.9723424 C70.85649,20.0337045 70.9159028,21.0941236 71.0300199,22.1493424 L71.0270199,22.1493424 Z" id="路径_9039" fill="#231F20"></path>
                    <path d="M85.0160199,22.7613424 L78.8100199,22.7613424 C78.721292,22.7632249 78.6355456,22.72929 78.5721363,22.6671978 C78.508727,22.6051056 78.473,22.5200903 78.4730199,22.4313424 L78.4390199,18.4313424 C78.4390199,18.2479222 78.5856393,18.0981523 78.7690199,18.0943424 C85.1290199,18.0333424 85.3180199,18.0943424 85.3850199,18.0943424 C85.5320171,18.1423972 85.6286754,18.2828794 85.6210199,18.4373424 L85.3520199,22.4283424 C85.3520399,22.5170903 85.3163129,22.6021056 85.2529036,22.6641978 C85.1894943,22.72629 85.1037479,22.7602249 85.0150199,22.7583424 L85.0160199,22.7613424 Z M79.1470199,22.0883424 L84.7060199,22.0883424 L84.9280199,18.7233424 L79.1130199,18.7233424 L79.1470199,22.0883424 Z" id="路径_9040" fill="#231F20"></path>
                    <path d="M78.7770199,20.4833424 L77.2360199,20.4833424 C77.0572957,20.4735958 76.9173707,20.3258322 76.9173707,20.1468424 C76.9173707,19.9678526 77.0572957,19.820089 77.2360199,19.8103424 L78.7770199,19.8103424 C78.9557442,19.820089 79.0956692,19.9678526 79.0956692,20.1468424 C79.0956692,20.3258322 78.9557442,20.4735958 78.7770199,20.4833424 L78.7770199,20.4833424 Z" id="路径_9041" fill="#231F20"></path>
                    <path d="M58.5730199,60.9753424 C58.5730199,60.9753424 56.7220199,79.2683424 57.6240199,83.6633424 L88.3240199,87.9843424 C88.3240199,87.9843424 96.1920199,87.6743424 99.9810199,89.0273424 C102.30302,89.8553424 106.51602,93.4823424 105.75602,94.6203424 C104.99602,95.7583424 102.91602,97.1783424 101.04502,96.6393424 C99.1740199,96.1003424 93.9110199,94.4253424 93.9110199,94.4253424 C93.9110199,94.4253424 98.0110199,98.1333424 95.5460199,97.8843424 C93.7045108,97.5669541 91.9421987,96.894837 90.3570199,95.9053424 C90.3570199,95.9053424 73.3020199,99.1423424 62.3860199,98.5973424 C48.9250199,97.9243424 43.1980199,94.7343424 41.6770199,86.7723424 C40.1560199,78.8103424 41.7640199,58.0343424 43.0970199,54.7723424" id="路径_9042" fill="#FFFFFF"></path>
                    <path d="M65.0540199,99.0023424 C64.1180199,99.0023424 63.2100199,99.0023424 62.3620199,98.9353424 C48.5850199,98.2223424 42.8910199,94.9443424 41.3430199,86.8213424 C39.7950199,78.6983424 41.4710199,57.8403424 42.7830199,54.6213424 C42.8270136,54.508213 42.9287612,54.4277313 43.0489807,54.4109689 C43.1692002,54.3942066 43.2890823,54.4437863 43.3623439,54.5405666 C43.4356055,54.637347 43.4507842,54.766186 43.4020199,54.8773424 C42.1170199,58.0473424 40.4950199,78.7633424 42.0020199,86.6913424 C43.4760199,94.4173424 49.0020199,97.5473424 62.3950199,98.2403424 C73.1630199,98.7923424 90.1240199,95.6083424 90.2950199,95.5483424 C90.3787237,95.5334775 90.4649652,95.5502269 90.5370199,95.5953424 C92.0812035,96.5485966 93.7914965,97.201704 95.5780199,97.5203424 C95.7187967,97.5610946 95.8682432,97.5610946 96.0090199,97.5203424 C96.0830199,97.2203424 94.9860199,95.8513424 93.6870199,94.6803424 C93.5671405,94.5741875 93.538512,94.3983344 93.61853,94.2596366 C93.6985479,94.1209389 93.8651149,94.0576986 94.0170199,94.1083424 C94.0640199,94.1083424 99.2670199,95.7973424 101.13102,96.3083424 C102.82002,96.7723424 104.78602,95.4803424 105.49902,94.4083424 C105.549187,94.2876825 105.549187,94.1520023 105.49902,94.0313424 C105.06202,92.6853424 101.87102,89.9933424 99.8990199,89.3203424 C96.2110199,87.9743424 88.4580199,88.2973424 88.3700199,88.2973424 L57.6130199,83.9763424 C57.4710604,83.9560228 57.3575097,83.8480894 57.3300199,83.7073424 C56.4300199,79.3123424 58.1980199,61.6653424 58.2720199,60.9183424 C58.2839883,60.7981225 58.3591841,60.6934198 58.4692818,60.6436748 C58.5793795,60.5939298 58.7076525,60.6066999 58.8057818,60.6771748 C58.9039111,60.7476497 58.9569884,60.8651225 58.9450199,60.9853424 C58.9450199,61.1603424 57.1750199,78.6653424 57.9450199,83.3433424 L88.4060199,87.6303424 C88.6680199,87.6303424 96.3210199,87.3303424 100.13002,88.6873424 C102.14902,89.4073424 105.59502,92.1873424 106.14002,93.8223424 C106.271731,94.1334076 106.246832,94.4886894 106.07302,94.7783424 C105.22502,96.0503424 102.98402,97.5173424 100.96502,96.9593424 C99.6930199,96.6023424 96.8800199,95.7213424 95.1900199,95.1823424 C96.0380199,96.0823424 96.9000199,97.2013424 96.6240199,97.8073424 C96.4760199,98.1373424 96.1060199,98.2713424 95.5240199,98.2073424 C93.6742807,97.9046049 91.902047,97.2413764 90.3080199,96.2553424 C88.8250199,96.5523424 75.2640199,99.0023424 65.0540199,99.0023424 Z" id="路径_9043" fill="#231F20"></path>
                    <path d="M58.5750199,61.3133424 L58.5410199,61.3133424 C58.3587179,61.2793298 58.236463,61.1065783 58.2650199,60.9233424 L60.6650199,47.5703424 C60.7023666,47.3885517 60.8778837,47.2697213 61.0605422,47.3025618 C61.2432007,47.3354024 61.3663343,47.5079278 61.3380199,47.6913424 L58.9380199,61.0443424 C58.9015061,61.2122923 58.7463265,61.3272876 58.5750199,61.3133424 L58.5750199,61.3133424 Z" id="路径_9044" fill="#231F20"></path>
                    <path d="M107.33402,108.795342 L107.33402,60.2893424 C107.33402,60.2893424 149.22302,58.6803424 166.56102,41.3373424 L166.56102,91.4713424 C166.56102,91.4713424 149.22302,105.604342 107.33402,108.795342 Z" id="路径_9045" fill="#6F42FF"></path>
                    <path d="M107.33402,109.131342 C107.249815,109.130259 107.168703,109.099444 107.10502,109.044342 C107.036994,108.979248 106.998063,108.88949 106.99702,108.795342 L106.99702,60.2853424 C106.99702,60.1047352 107.139548,59.9563301 107.32002,59.9493424 C107.73702,59.9493424 149.27702,58.1493424 166.30402,41.1043424 C166.403177,41.0111883 166.546662,40.9824914 166.67402,41.0303424 C166.801906,41.0828385 166.884761,41.2081122 166.883051,41.3463424 L166.883051,91.4663424 C166.884445,91.5690615 166.836923,91.6663332 166.75502,91.7283424 C166.58702,91.8693424 148.87302,105.969342 107.36002,109.153342 L107.33402,109.131342 Z M107.67102,60.6063424 L107.67102,108.431342 C146.90902,105.349342 164.57102,92.5313424 166.22402,91.2823424 L166.22402,42.1513424 C149.48502,58.0613424 111.57402,60.4103424 107.67002,60.6063424 L107.67102,60.6063424 Z" id="路径_9046" fill="#231F20"></path>
                    <path d="M20.7080199,126.751342 L20.7080199,93.4903424 C20.7080199,93.4903424 39.3170199,105.790342 67.1470199,103.047342 L67.1470199,135.500342 C67.1470199,135.500342 48.9180199,141.013342 20.7080199,126.751342 Z" id="路径_9047" fill="#FFFFFF"></path>
                    <path d="M57.4420199,136.839342 C49.2850199,136.839342 36.4570199,135.089342 20.5530199,127.053342 C20.4429873,126.993171 20.373558,126.878727 20.3710186,126.753342 L20.3710186,93.4903424 C20.3710186,93.3660168 20.4376276,93.2512363 20.5460199,93.1903424 C20.651373,93.1262567 20.7836669,93.1262567 20.8890199,93.1903424 C21.0770199,93.3113424 39.7340199,105.390342 67.1060199,102.690342 C67.1988149,102.681432 67.2912394,102.710676 67.3620199,102.771342 C67.4300463,102.836437 67.4689772,102.926194 67.4700233,103.020342 L67.4700233,135.473342 C67.4706733,135.621105 67.3749921,135.752058 67.2340199,135.796342 C64.0292212,136.5681 60.7374779,136.918721 57.4420199,136.839342 Z M21.0420199,126.548342 C46.9740199,139.591342 64.5670199,135.789342 66.8080199,135.223342 L66.8080199,103.397342 C41.9460199,105.732342 24.2590199,95.9973424 21.0420199,94.0763424 L21.0420199,126.548342 Z" id="路径_9048" fill="#231F20"></path>
                    <path d="M117.09302,99.8493424 C117.008448,99.8492439 116.926894,99.8179044 116.86402,99.7613424 C116.795994,99.6962476 116.757063,99.6064904 116.756014,99.5123424 L116.756014,64.9603424 C116.754977,64.7877637 116.884481,64.6422874 117.05602,64.6233424 C119.21602,64.4143424 127.56902,63.4123424 127.65602,63.4053424 C127.75115,63.3944495 127.846502,63.4238166 127.91902,63.4863424 C127.992066,63.5483288 128.033827,63.6395433 128.033031,63.7353424 L128.033031,97.6293424 C128.032315,97.76539 127.949874,97.8876697 127.82402,97.9393424 C124.71502,99.2853424 117.41902,99.8303424 117.10902,99.8503424 L117.09302,99.8493424 Z M117.43002,65.2623424 L117.43002,99.1493424 C118.92402,99.0213424 124.64502,98.4763424 127.36402,97.4063424 L127.36402,64.1183424 C125.75502,64.3063424 119.63102,65.0333424 117.41002,65.2623424 L117.43002,65.2623424 Z" id="路径_9049" fill="#231F20"></path>
                    <path d="M134.24702,96.3163424 C134.167964,96.3159672 134.091671,96.287224 134.03202,96.2353424 C133.958123,96.1703363 133.914341,96.0777066 133.91102,95.9793424 L133.91102,69.1593424 C133.911898,68.994914 134.031647,68.8552771 134.19402,68.8293424 C137.79657,68.1805459 141.325151,67.1728585 144.72702,65.8213424 C144.825506,65.7676319 144.944534,65.7676319 145.04302,65.8213424 C145.135806,65.885672 145.191023,65.9914374 145.191023,66.1043424 L145.191023,92.3513424 C145.191534,92.4775939 145.121231,92.5934777 145.00902,92.6513424 C141.633149,94.3790547 138.027192,95.6142668 134.30102,96.3193424 L134.24702,96.3163424 Z M134.58402,69.4423424 L134.58402,95.5763424 C138.03322,94.8791243 141.374012,93.724947 144.51802,92.1443424 L144.51802,66.6363424 C141.303103,67.8774571 137.979818,68.817163 134.59102,69.4433424 L134.58402,69.4423424 Z" id="路径_9050" fill="#231F20"></path>
                    <path d="M150.92202,90.2933424 C150.846818,90.2950334 150.773223,90.2714409 150.71302,90.2263424 C150.631609,90.1608513 150.584489,90.0618243 150.585016,89.9573424 L150.585016,70.9103424 C150.586547,70.7568365 150.691919,70.6238856 150.84102,70.5873424 C154.18475,69.7450738 157.367674,68.3600186 160.26302,66.4873424 C160.370909,66.4233401 160.505131,66.4233401 160.61302,66.4873424 C160.725069,66.5453811 160.795305,66.6611546 160.795021,66.7873424 L160.795021,86.0493424 C160.794806,86.1638874 160.736424,86.2704814 160.64002,86.3323424 C157.633581,88.1113474 154.388012,89.4509277 151.00202,90.3103424 L150.92202,90.2933424 Z M151.25902,71.1723424 L151.25902,89.5263424 C154.364601,88.6996053 157.345686,87.4612983 160.12302,85.8443424 L160.12302,67.3833424 C157.36812,69.0730265 154.380338,70.3496062 151.25502,71.1723424 L151.25902,71.1723424 Z" id="路径_9051" fill="#231F20"></path>
                    <path d="M147.59402,58.5803424 C147.410417,58.5986224 147.245911,58.4667071 147.223863,58.2835188 C147.201815,58.1003304 147.330323,57.933149 147.51302,57.9073424 C152.331761,56.578957 156.885439,54.429821 160.97402,51.5543424 C161.123515,51.4464763 161.331534,51.4760672 161.44502,51.6213424 C161.556235,51.7699958 161.526277,51.9805991 161.37802,52.0923424 C157.213588,55.020046 152.575699,57.2080738 147.66802,58.5603424 L147.59402,58.5803424 Z" id="路径_9052" fill="#FFFFFF"></path>
                    <path d="M153.38802,60.3363424 C153.2678,60.3604578 153.143847,60.3186049 153.062852,60.2265491 C152.981858,60.1344934 152.956127,60.0062203 152.995352,59.8900491 C153.034578,59.7738779 153.1328,59.6874578 153.25302,59.6633424 L154.43102,59.1383424 C156.7838,58.2342326 158.988689,56.9845034 160.97302,55.4303424 C161.115469,55.3384839 161.303979,55.3667211 161.41326,55.4962867 C161.522541,55.6258524 161.518585,55.8164241 161.40402,55.9413424 C159.370205,57.5354703 157.112634,58.8212748 154.70402,59.7573424 L153.52602,60.2753424 C153.484785,60.3050909 153.437775,60.3258705 153.38802,60.3363424 Z" id="路径_9053" fill="#FFFFFF"></path>
                    <path d="M11.0100199,83.2063424 C10.9435935,83.2058834 10.8785652,83.1872053 10.8220199,83.1523424 C7.44639465,80.7885554 4.46991522,77.9008606 2.00501995,74.5983424 C1.90002237,74.4491431 1.93282204,74.2434803 2.07901995,74.1343424 C2.23030153,74.028023 2.43863045,74.0607541 2.55001995,74.2083424 C4.96685812,77.443066 7.88417084,80.2715968 11.1920199,82.5873424 C11.3463857,82.6925493 11.388175,82.9019402 11.2860199,83.0583424 C11.2239223,83.150024 11.1207478,83.2053495 11.0100199,83.2063424 L11.0100199,83.2063424 Z" id="路径_9054" fill="#D1D3D4"></path>
                    <path d="M11.0100199,89.3913475 C10.9436001,89.3908324 10.878586,89.3721581 10.8220199,89.3373424 C7.44638371,86.9735686 4.46990232,84.0858719 2.00501995,80.7833424 C1.89946605,80.6342723 1.93233351,80.4281845 2.07901995,80.3193424 C2.23030153,80.213023 2.43863045,80.2457541 2.55001995,80.3933424 C4.96630093,83.630547 7.88364176,86.4614681 11.1920199,88.7793424 C11.3463857,88.8845493 11.388175,89.0939402 11.2860199,89.2503424 C11.2223719,89.339369 11.1194569,89.3919451 11.0100199,89.3913475 L11.0100199,89.3913475 Z" id="路径_9055" fill="#D1D3D4"></path>
                    <path d="M11.0100199,95.5763424 C10.9435935,95.5758834 10.8785652,95.5572053 10.8220199,95.5223424 C7.44638371,93.1585686 4.46990232,90.2708719 2.00501995,86.9683424 C1.90002237,86.8191431 1.93282204,86.6134803 2.07901995,86.5043424 C2.23030153,86.398023 2.43863045,86.4307541 2.55001995,86.5783424 C4.96264151,89.8119526 7.87516442,92.6404214 11.1780199,94.9573424 C11.3323857,95.0625493 11.374175,95.2719402 11.2720199,95.4283424 C11.2127831,95.5160921 11.1157527,95.5709032 11.0100199,95.5763424 L11.0100199,95.5763424 Z" id="路径_9056" fill="#D1D3D4"></path>
                    <path d="M135.31902,52.9473424 C135.220787,52.9502665 135.126567,52.908309 135.06302,52.8333424 C127.98302,44.6963424 114.24602,36.4043424 114.11202,36.3243424 C114.011991,36.2622047 113.95083,36.1530975 113.95002,36.0353424 L113.95002,14.0733424 C113.95002,13.8872224 114.1009,13.7363424 114.28702,13.7363424 C114.471405,13.7400786 114.619832,13.8889466 114.62302,14.0733424 L114.62302,35.8453424 C116.20502,36.8143424 128.83702,44.6553424 135.57402,52.3953424 C135.701943,52.5262845 135.701943,52.7354003 135.57402,52.8663424 C135.502434,52.9248256 135.411233,52.9537953 135.31902,52.9473424 Z" id="路径_9057" fill="#231F20"></path>
                    <path d="M127.90102,38.5843452 C127.666976,38.5848006 127.436219,38.5292544 127.22802,38.4223424 C126.02802,37.8223424 125.69402,35.6363424 125.33702,33.3223424 C125.204725,31.7956412 124.827569,30.3001839 124.22002,28.8933424 C124.117636,28.6507698 123.883198,28.4901799 123.62002,28.4823424 C121.74902,28.4153424 117.82502,33.5233424 116.45902,35.4953424 C116.346332,35.621883 116.157209,35.6450742 116.017285,35.5495102 C115.877361,35.4539463 115.830153,35.2693476 115.90702,35.1183424 C116.42502,34.3643424 121.03502,27.8093424 123.58602,27.8093424 L123.64702,27.8093424 C124.139348,27.8255298 124.583509,28.1093629 124.80502,28.5493424 C125.466052,30.0249067 125.871815,31.6019737 126.00502,33.2133424 C126.32102,35.2323424 126.64402,37.3663424 127.53302,37.8133424 C127.932383,37.9596083 128.378233,37.8989637 128.72402,37.6513424 C130.16704,36.8532878 131.44942,35.7943579 132.50602,34.5283424 C133.713394,33.1058147 135.162265,31.9074489 136.78602,30.9883424 C136.947892,30.8976501 137.152623,30.9548675 137.24402,31.1163424 C137.33011,31.2804131 137.270337,31.4831974 137.10902,31.5743424 C135.551222,32.4621992 134.161721,33.6171261 133.00402,34.9863424 C131.892111,36.3062875 130.548801,37.4123835 129.04002,38.2503424 C128.693472,38.4511132 128.303207,38.5643827 127.90302,38.5803424 L127.90102,38.5843452 Z" id="路径_9058" fill="#231F20"></path>
                    <path d="M41.6530199,45.5643424 C41.4669,45.5643424 41.3160166,45.4134624 41.3160166,45.2273424 L41.3160166,26.2273424 C41.3153666,26.0795798 41.4110478,25.9486263 41.5520199,25.9043424 C42.829284,25.5048173 44.1369288,25.2098448 45.4620199,25.0223424 C45.5563252,25.0090647 45.651333,25.0413525 45.7180199,25.1093424 C45.7918795,25.1707097 45.8338272,25.2623324 45.8320199,25.3583424 L45.8320199,43.9753424 C45.828815,44.1601186 45.6797961,44.3091375 45.4950199,44.3123424 C45.4055605,44.312609 45.3196882,44.2771894 45.2564306,44.2139318 C45.1931729,44.1506741 45.1577533,44.0648018 45.1580199,43.9753424 L45.1580199,25.7363424 C44.0862088,25.9129243 43.0272358,26.1601294 41.9880199,26.4763424 L41.9880199,45.2273424 C41.9882856,45.3164553 41.9531401,45.4020238 41.8903154,45.4652236 C41.8274906,45.5284235 41.7421328,45.5640776 41.6530199,45.5643424 L41.6530199,45.5643424 Z" id="路径_9059" fill="#231F20"></path>
                    <path d="M57.5770199,130.506342 L57.5770199,130.506342 C57.4419894,130.497982 57.3244873,130.411031 57.2770199,130.284342 L49.8770199,109.636342 L41.7200199,125.519342 C41.6656328,125.620458 41.5651108,125.68847 41.4510199,125.701342 C41.3341192,125.712948 41.2198625,125.661533 41.1510199,125.566342 L33.0750199,115.006342 L27.9750199,123.106342 C27.8769195,123.260034 27.6757204,123.310114 27.5170199,123.220342 L23.1760199,120.602342 C23.0993843,120.557434 23.0440883,120.483528 23.0226338,120.397334 C23.0011793,120.311139 23.0153781,120.219935 23.0620199,120.144342 C23.108274,120.067517 23.1832401,120.012295 23.2703249,119.990899 C23.3574097,119.969504 23.4494308,119.983699 23.5260199,120.030342 L27.5640199,122.466342 L32.7130199,114.215342 C32.7720719,114.121892 32.8718015,114.061831 32.9820199,114.053342 C33.0933337,114.046467 33.2003192,114.097503 33.2650199,114.188342 L41.3410199,124.714342 L49.6190199,108.614342 C49.6809188,108.497259 49.8058208,108.427459 49.9379772,108.436097 C50.0701335,108.444735 50.1848875,108.530198 50.2310199,108.654342 L57.6310199,129.269342 L61.1910199,121.731342 C61.2355612,121.611875 61.3437112,121.527774 61.4704692,121.514033 C61.5972272,121.500292 61.7208865,121.559265 61.789993,121.666413 C61.8590995,121.773561 61.861819,121.910536 61.7970199,122.020342 L57.8670199,130.320342 C57.8096736,130.428921 57.6996215,130.499506 57.5770199,130.506342 L57.5770199,130.506342 Z" id="路径_9060" fill="#D1D3D4"></path>
                    <circle id="椭圆_104" fill="#FFFFFF" cx="27.6880199" cy="122.935342" r="1.03"></circle>
                    <path d="M27.6870199,124.301342 C26.9436447,124.301342 26.3410199,123.698718 26.3410199,122.955342 C26.3410199,122.211967 26.9436447,121.609342 27.6870199,121.609342 C28.4303952,121.609342 29.0330199,122.211967 29.0330199,122.955342 C29.0330199,123.698718 28.4303952,124.301342 27.6870199,124.301342 L27.6870199,124.301342 Z M27.6870199,122.242342 C27.3153323,122.242342 27.0140199,122.543655 27.0140199,122.915342 C27.0140199,123.28703 27.3153323,123.588342 27.6870199,123.588342 C28.0587076,123.588342 28.3600199,123.28703 28.3600199,122.915342 C28.3600199,122.543655 28.0587076,122.242342 27.6870199,122.242342 Z" id="路径_9061" fill="#D1D3D4"></path>
                    <circle id="椭圆_105" fill="#FFFFFF" cx="33.0110199" cy="114.414342" r="1.03"></circle>
                    <path d="M33.0110199,115.780342 C32.2676447,115.780342 31.6650199,115.177718 31.6650199,114.434342 C31.6650199,113.690967 32.2676447,113.088342 33.0110199,113.088342 C33.7543952,113.088342 34.3570199,113.690967 34.3570199,114.434342 C34.3570199,114.791324 34.2152096,115.133684 33.9627857,115.386108 C33.7103617,115.638532 33.3680013,115.780342 33.0110199,115.780342 L33.0110199,115.780342 Z M33.0110199,113.721342 C32.6393323,113.721342 32.3380199,114.022655 32.3380199,114.394342 C32.3380199,114.76603 32.6393323,115.067342 33.0110199,115.067342 C33.3827076,115.067342 33.6840199,114.76603 33.6840199,114.394342 C33.6840199,114.215852 33.6131148,114.044672 33.4869028,113.91846 C33.3606908,113.792248 33.1895106,113.721342 33.0110199,113.721342 L33.0110199,113.721342 Z" id="路径_9062" fill="#D1D3D4"></path>
                    <circle id="椭圆_106" fill="#FFFFFF" cx="49.9040199" cy="108.795342" r="1.03"></circle>
                    <path d="M49.9040199,110.161342 C49.1606447,110.161342 48.5580199,109.558718 48.5580199,108.815342 C48.5580199,108.071967 49.1606447,107.469342 49.9040199,107.469342 C50.6473952,107.469342 51.2500199,108.071967 51.2500199,108.815342 C51.2500199,109.558718 50.6473952,110.161342 49.9040199,110.161342 Z M49.9040199,108.102342 C49.5323323,108.102342 49.2310199,108.403655 49.2310199,108.775342 C49.2310199,109.14703 49.5323323,109.448342 49.9040199,109.448342 C50.2757076,109.448342 50.5770266,109.14703 50.5770266,108.775342 C50.5778179,108.596332 50.5072652,108.424381 50.3809666,108.297519 C50.254668,108.170657 50.0830316,108.099342 49.9040199,108.099342 L49.9040199,108.102342 Z" id="路径_9063" fill="#D1D3D4"></path>
                    <circle id="椭圆_107" fill="#FFFFFF" cx="57.5770199" cy="130.170342" r="1.03"></circle>
                    <path d="M57.5770199,131.536342 C56.8336447,131.536342 56.2310199,130.933718 56.2310199,130.190342 C56.2310199,129.446967 56.8336447,128.844342 57.5770199,128.844342 C58.3203952,128.844342 58.9230199,129.446967 58.9230199,130.190342 C58.9230199,130.933718 58.3203952,131.536342 57.5770199,131.536342 L57.5770199,131.536342 Z M57.5770199,129.477342 C57.1942866,129.477342 56.8840199,129.787609 56.8840199,130.170342 C56.8840199,130.553076 57.1942866,130.863342 57.5770199,130.863342 C57.9597533,130.863342 58.2700199,130.553076 58.2700199,130.170342 C58.2700199,129.787609 57.9597533,129.477342 57.5770199,129.477342 Z" id="路径_9064" fill="#D1D3D4"></path>
                    <circle id="椭圆_108" fill="#FFFFFF" cx="41.3840199" cy="125.365342" r="1.03"></circle>
                    <path d="M41.3830199,126.731342 C40.6396447,126.731342 40.0370199,126.128718 40.0370199,125.385342 C40.0370199,124.641967 40.6396447,124.039342 41.3830199,124.039342 C42.1263952,124.039342 42.7290199,124.641967 42.7290199,125.385342 C42.7290199,126.128718 42.1263952,126.731342 41.3830199,126.731342 L41.3830199,126.731342 Z M41.3830199,124.672342 C41.0113323,124.672342 40.7100199,124.973655 40.7100199,125.345342 C40.7100199,125.71703 41.0113323,126.018342 41.3830199,126.018342 C41.7547076,126.018342 42.0560199,125.71703 42.0560199,125.345342 C42.0560199,124.973655 41.7547076,124.672342 41.3830199,124.672342 Z" id="路径_9065" fill="#D1D3D4"></path>
                    <path d="M112.18602,114.663342 C98.4410199,121.467342 83.4410199,121.582342 83.4410199,121.582342 L83.4410199,143.597342 C93.3905841,143.911422 103.26397,141.766034 112.18602,137.351342 L112.18602,114.663342 Z" id="路径_9066" fill="#FFFFFF"></path>
                    <path d="M85.2120199,143.970411 L83.4350199,143.970411 C83.2529825,143.963464 83.1080766,143.815484 83.1050199,143.633342 L83.1050199,121.582342 C83.1055711,121.396613 83.2562898,121.246342 83.4420199,121.246342 C83.5900199,121.246342 98.5180199,121.046342 112.04202,114.361342 C112.145419,114.307451 112.26862,114.307451 112.37202,114.361342 C112.468424,114.423203 112.527058,114.529797 112.527058,114.644342 L112.527058,137.332342 C112.52895,137.458983 112.45823,137.575554 112.34502,137.632342 C103.912569,141.814987 94.624806,143.984517 85.2120199,143.970411 Z M83.7780199,143.297342 C93.491772,143.551292 103.122859,141.452297 111.85002,137.179342 L111.85002,115.202342 C99.4500199,121.185342 86.0500199,121.838342 83.7780199,121.932342 L83.7780199,143.297342 Z" id="路径_9067" fill="#231F20"></path>
                    <path d="M90.1730199,130.856342 C90.0861994,133.811843 91.6133543,136.580764 94.1594023,138.084147 C96.7054503,139.58753 99.8675896,139.58753 102.413638,138.084147 C104.959686,136.580764 106.486841,133.811843 106.40002,130.856342 L98.2500199,130.856342 L98.2500199,122.746342 C93.785483,122.768342 90.176816,126.391753 90.1730199,130.856342 Z" id="路径_9068" fill="#6F42FF"></path>
                    <path d="M99.5940199,121.548342 L99.5940199,129.665342 L107.67002,129.665342 C107.67002,125.19841 104.060895,121.570905 99.5940199,121.548342 Z" id="路径_9069" fill="#E6E7E8"></path>
                    <path d="M125.84202,115.343373 C125.678927,115.345539 125.538695,115.228254 125.51202,115.067342 C125.477089,114.882856 125.596984,114.704573 125.78102,114.667342 C125.94202,114.667342 141.75202,111.706342 150.75702,106.678342 C150.862498,106.606747 150.999408,106.601011 151.110505,106.663531 C151.221603,106.726051 151.28775,106.846058 151.28129,106.973376 C151.27483,107.100693 151.196875,107.213389 151.08002,107.264342 C141.98002,112.345342 126.06402,115.307342 125.90202,115.340342 L125.84202,115.343373 Z" id="路径_9070" fill="#D1D3D4"></path>
                    <path d="M125.84202,121.306342 C125.719953,121.320703 125.599711,121.267668 125.528008,121.167843 C125.456304,121.068017 125.444441,120.937136 125.497028,120.826045 C125.549614,120.714953 125.65836,120.641164 125.78102,120.633342 C125.94302,120.599342 141.75202,117.665342 150.75702,112.633342 C150.862603,112.557304 151.002528,112.548841 151.116507,112.611598 C151.230485,112.674356 151.298154,112.797123 151.290356,112.927003 C151.282558,113.056883 151.200688,113.170672 151.08002,113.219342 C141.98002,118.307342 126.06402,121.262342 125.90202,121.295342 L125.84202,121.306342 Z" id="路径_9071" fill="#D1D3D4"></path>
                    <path d="M125.84202,127.269342 C125.719953,127.283703 125.599711,127.230668 125.528008,127.130843 C125.456304,127.031017 125.444441,126.900136 125.497028,126.789045 C125.549614,126.677953 125.65836,126.604164 125.78102,126.596342 C125.94302,126.596342 141.75202,123.628342 150.75702,118.596342 C150.919287,118.509076 151.121509,118.565592 151.21502,118.724342 C151.258024,118.802944 151.267958,118.895435 151.242626,118.981376 C151.217294,119.067317 151.158782,119.139633 151.08002,119.182342 C141.98002,124.270342 126.06402,127.225342 125.90202,127.258342 L125.84202,127.269342 Z" id="路径_9072" fill="#D1D3D4"></path>
                    <path d="M125.84202,133.232342 C125.719953,133.246703 125.599711,133.193668 125.528008,133.093843 C125.456304,132.994017 125.444441,132.863136 125.497028,132.752045 C125.549614,132.640953 125.65836,132.567164 125.78102,132.559342 C130.376328,131.667763 134.921057,130.532833 139.39602,129.159342 C139.57416,129.106221 139.762195,129.204673 139.82002,129.381342 C139.872717,129.557684 139.773739,129.743603 139.59802,129.798342 C135.094861,131.173759 130.521735,132.308695 125.89802,133.198342 L125.84202,133.232342 Z" id="路径_9073" fill="#D1D3D4"></path>
                    <path d="M23.3460199,64.0723796 C23.2275955,64.0741164 23.1173023,64.0122912 23.0570199,63.9103424 C22.9645834,63.7484899 23.0183156,63.5424426 23.1780199,63.4463424 C27.7410199,60.7543424 37.0690199,58.7823424 37.4660199,58.7013424 C37.553137,58.6805906 37.6449469,58.6961362 37.7203761,58.7444109 C37.7958053,58.7926856 37.8483755,58.8695433 37.8660199,58.9573424 C37.9056724,59.1384718 37.7911043,59.3174846 37.6100199,59.3573424 C37.5100199,59.3573424 27.9860199,61.3763424 23.5170199,64.0283424 C23.4647834,64.0542586 23.4073307,64.0679378 23.3490199,64.0683424 L23.3460199,64.0723796 Z" id="路径_9074" fill="#D1D3D4"></path>
                    <path d="M23.3460199,67.4503424 C23.1955177,67.4479864 23.0648268,67.3461101 23.025812,67.2007337 C22.9867972,67.0553572 23.04892,66.9017354 23.1780199,66.8243424 C27.7410199,64.1323424 37.0690199,62.1603424 37.4660199,62.1133424 C37.5880709,62.0834594 37.7167049,62.122502 37.8015556,62.2151831 C37.8864062,62.3078643 37.9139718,62.4394362 37.8734591,62.5583821 C37.8329463,62.6773281 37.7308018,62.7647211 37.6070199,62.7863424 C37.5070199,62.7863424 27.9830199,64.8053424 23.5140199,67.4573424 C23.4584155,67.4702243 23.4003601,67.4678053 23.3460199,67.4503424 L23.3460199,67.4503424 Z" id="路径_9075" fill="#D1D3D4"></path>
                    <path d="M23.3460199,70.8293424 C23.2267436,70.8284338 23.1168333,70.7645413 23.0570199,70.6613424 C22.9645834,70.4994899 23.0183156,70.2934426 23.1780199,70.1973424 C27.7410199,67.5053424 37.0690199,65.5333424 37.4660199,65.4863424 C37.6482867,65.451029 37.8255663,65.5671471 37.8660199,65.7483424 C37.8867718,65.8354594 37.8712262,65.9272694 37.8229515,66.0026986 C37.7746768,66.0781278 37.6978191,66.130698 37.6100199,66.1483424 C37.5100199,66.1483424 27.9860199,68.1673424 23.5170199,70.8193424 C23.4625783,70.8355555 23.4053078,70.8399872 23.3490199,70.8323424 L23.3460199,70.8293424 Z" id="路径_9076" fill="#D1D3D4"></path>
                    <path d="M23.3460199,74.2013424 C23.1955177,74.1989864 23.0648268,74.0971101 23.025812,73.9517337 C22.9867972,73.8063572 23.04892,73.6527354 23.1780199,73.5753424 C25.8551321,72.1599876 28.6873955,71.0599687 31.6180199,70.2973424 C31.8038638,70.2454277 31.9966051,70.3539986 32.0485199,70.5398424 C32.1004347,70.7256862 31.9918637,70.9184276 31.8060199,70.9703424 C28.9389649,71.7136633 26.1660449,72.7815646 23.5410199,74.1533424 C23.4829685,74.1901202 23.4145101,74.2069715 23.3460199,74.2013424 Z" id="路径_9077" fill="#D1D3D4"></path>
                </g>
            </g>
        </g>
    </g>
</svg>