<?xml version="1.0" standalone="no"?><!DOCTYPE svg PUBLIC "-//W3C//DTD SVG 1.1//EN" "http://www.w3.org/Graphics/SVG/1.1/DTD/svg11.dtd"><svg t="1742969006944" class="icon" viewBox="0 0 1024 1024" version="1.1" xmlns="http://www.w3.org/2000/svg" p-id="2317" xmlns:xlink="http://www.w3.org/1999/xlink" width="128" height="128"><path d="M512 64c81.636 0 156.8 19.911 225.493 59.733s122.951 94.08 162.773 162.773S960 430.364 960 512s-19.911 156.8-59.733 225.493-94.08 122.951-162.773 162.773S593.636 960 512 960s-156.8-19.911-225.493-59.733-122.951-94.08-162.773-162.773S64 593.636 64 512s19.911-156.8 59.733-225.493 94.08-122.951 162.773-162.773S430.364 64 512 64z m119.467 812.373c57.742-17.92 108.516-48.782 152.32-92.587 43.804-43.805 75.164-94.578 94.08-152.32 18.916-57.742 23.396-117.476 13.44-179.2-9.956-61.724-32.853-117.476-68.693-167.253-35.84-49.778-81.138-88.604-135.893-116.48C631.964 140.658 573.724 126.72 512 126.72s-119.964 13.938-174.72 41.813-100.053 66.702-135.893 116.48-58.738 105.529-68.693 167.253c-9.956 61.724-5.476 121.458 13.44 179.2s50.276 108.516 94.08 152.32c43.804 43.804 94.578 74.667 152.32 92.587h2.987c5.973 0 10.951-1.493 14.933-4.48 3.982-2.987 5.973-7.467 5.973-13.44v-65.707l-20.907 2.987H377.6c-19.911 1.991-38.329-1.991-55.253-11.947S293.974 759.893 288 741.973l-17.92-32.853-11.947-11.947-23.893-17.92c-3.982-3.982-5.973-6.969-5.973-8.96s0.996-3.982 2.987-5.973l14.933-2.987c5.973 0 11.947 1.493 17.92 4.48 5.973 2.987 11.947 5.476 17.92 7.467l11.947 14.933 11.947 11.947c7.964 13.938 17.422 24.889 28.373 32.853 10.951 7.964 23.893 11.449 38.827 10.453 14.933-0.996 29.369-4.48 43.307-10.453 1.991-9.956 4.978-19.413 8.96-28.373 3.982-8.96 8.96-16.427 14.933-22.4-25.884-1.991-49.778-7.467-71.68-16.427-21.902-8.96-40.818-21.404-56.747-37.333-15.929-15.929-26.88-34.844-32.853-56.747-7.964-25.884-11.947-52.764-11.947-80.64 0-17.92 3.484-35.84 10.453-53.76 6.969-17.92 16.427-33.849 28.373-47.787-1.991-7.964-3.484-15.431-4.48-22.4s-1.493-14.933-1.493-23.893 0.996-17.92 2.987-26.88c1.991-8.96 3.982-18.418 5.973-28.373h8.96c7.964 0 16.427 0.996 25.387 2.987s17.422 4.978 25.387 8.96l26.88 14.933 20.907 11.947c63.716-17.92 127.431-17.92 191.147 0l20.907-11.947 26.88-14.933c7.964-3.982 15.929-6.969 23.893-8.96 7.964-1.991 16.924-2.987 26.88-2.987h5.973c3.982 9.956 6.969 19.413 8.96 28.373 1.991 8.96 2.987 17.92 2.987 26.88 0 8.96-0.498 16.924-1.493 23.893s-2.489 14.436-4.48 22.4c11.947 13.938 21.404 29.867 28.373 47.787 6.969 17.92 10.453 35.84 10.453 53.76 0 27.876-3.982 54.756-11.947 80.64-5.973 21.902-16.924 40.818-32.853 56.747-15.929 15.929-35.342 28.373-58.24 37.333-22.898 8.96-47.289 14.436-73.173 16.427 9.956 7.964 16.924 18.418 20.907 31.36 3.982 12.942 5.973 26.382 5.973 40.32v104.533c0 5.973 1.991 10.453 5.973 13.44 3.982 2.987 7.964 4.48 11.947 4.48h5.972z" p-id="2318"></path></svg>