<?xml version="1.0" encoding="UTF-8"?>
<svg width="200px" height="200px" viewBox="0 0 200 200" version="1.1" xmlns="http://www.w3.org/2000/svg" xmlns:xlink="http://www.w3.org/1999/xlink">
    <title>编组 10</title>
    <g id="页面" stroke="none" stroke-width="1" fill="none" fill-rule="evenodd">
        <g id="00插画状态" transform="translate(-200.000000, -319.000000)">
            <g id="编组-15" transform="translate(177.000000, 319.000000)">
                <g id="编组-10" transform="translate(23.000000, 0.000000)">
                    <rect id="矩形" x="0" y="0" width="200" height="200"></rect>
                    <g id="编组" transform="translate(7.000000, 29.000000)" fill-rule="nonzero">
                        <polygon id="路径_10439" fill="#F1F2F2" points="158.13 56.721 158.13 130.345 22.199 130.345 22.199 56.725 90.168 15.625"></polygon>
                        <path d="M158.13,130.642884 L22.181,130.642884 C22.0153146,130.642884 21.8809982,130.507685 21.8809982,130.342 L21.8809982,56.722 C21.8809982,56.6136221 21.9387276,56.5134661 22.033,56.46 L90.033,15.36 C90.1300396,15.2996148 90.2529604,15.2996148 90.35,15.36 L158.312,56.46 C158.403964,56.5149926 158.459615,56.61486 158.458034,56.722 L158.458034,130.342 C158.458034,130.425715 158.423502,130.505725 158.362163,130.562697 C158.300823,130.619668 158.218469,130.648419 158.135,130.642884 L158.13,130.642884 Z M22.504,130.032 L157.844,130.032 L157.844,56.879 L90.174,15.966 L22.504,56.879 L22.504,130.032 Z" id="路径_10440" fill="#231F20"></path>
                        <path d="M119.686,26.068 C119.686,26.068 122.826,20.203 122.417,16.314 C122.129829,14.026735 120.410861,12.1800625 118.15,11.73 C118.15,11.73 108.841,6.883 106.683,3.524 L106.756,8.438 C105.065529,7.85451761 103.5058,6.94538348 102.165,5.762 C101.341105,7.2450356 101.385503,9.058069 102.281,10.499 C100.649377,10.7832559 98.9768538,10.3125369 97.733,9.219 C97.733,9.219 98.654,16.596 105.158,17.547 C109.444,18.143 115.022,26.355 119.686,26.068 Z" id="路径_10441" fill="#FFFFFF"></path>
                        <path d="M119.449,26.379 C116.876,26.379 114.115,24.062 111.449,21.825 C109.157,19.905 106.999,18.088 105.133,17.82 C98.476,16.845 97.458,9.285 97.445,9.22 C97.423716,9.08892567 97.4911343,8.95945389 97.6107259,8.90173597 C97.7303174,8.84401806 97.8736247,8.87178829 97.963,8.97 C99.0064104,9.89588151 100.392059,10.3385192 101.779,10.189 C101.068729,8.71186016 101.120945,6.98162019 101.919,5.55 C101.962249,5.47094926 102.03874,5.415525 102.127328,5.39904787 C102.215917,5.38257074 102.307221,5.40678602 102.376,5.465 C103.595499,6.50768343 104.974784,7.34740988 106.461,7.952 L106.394,3.471 C106.38889,3.33588599 106.4769,3.21482097 106.607,3.178 C106.736955,3.13467281 106.879753,3.18487861 106.954,3.3 C108.978,6.446 117.623,11.036 118.269,11.378 C120.648833,11.8757959 122.443492,13.8400136 122.725,16.255 C123.14,20.224 120.085,25.973 119.957,26.217 C119.907477,26.3103231 119.812517,26.3707178 119.707,26.376 L119.449,26.379 Z M98.209,9.968 C98.672,11.868 100.294,16.491 105.22,17.217 C107.25,17.517 109.487,19.381 111.835,21.356 C114.426,23.526 117.096,25.77 119.449,25.77 L119.498,25.77 C119.98,24.825 122.473,19.753 122.113,16.314 C121.87051,14.1519995 120.245868,12.4011985 118.108,11.998 L118.023,11.968 C117.663,11.785 109.878,7.701 107.013,4.415 L107.074,8.402 C107.074525,8.49675821 107.03182,8.58658623 106.958,8.646 C106.882712,8.706371 106.78298,8.72683853 106.69,8.701 C105.077483,8.14987722 103.584345,7.29743136 102.29,6.189 C101.65283,7.50129498 101.74998,9.05152065 102.546,10.274 C102.6016,10.3614868 102.612717,10.470061 102.576,10.567 C102.537243,10.6628749 102.451839,10.7320291 102.35,10.75 C100.92053,10.99704 99.4499346,10.7193279 98.209,9.968 L98.209,9.968 Z" id="路径_10442" fill="#231F20"></path>
                        <path d="M114.858,86.782 C114.858,86.782 129.858,68.609 132.342,54.727 C134.826,40.845 126.154,37.657 123.13,36.621 C120.106,35.585 104.347,29.049 96.43,34.755 C88.513,40.461 80.63,76.055 80.63,76.055 L114.858,86.782 Z" id="路径_10443" fill="#6F42FF"></path>
                        <path d="M60.765,104.87 L76.902,84.752 C76.902,84.752 88.132,70.432 81.858,68.901 C81.858,68.901 73.152,70.035 58.929,75.001 C54.704,76.47 47.443,93.247 42.859,104.873 L60.765,104.87 Z" id="路径_10444" fill="#231F20"></path>
                        <path d="M60.765,105.175 L42.831,105.175 C42.7304798,105.175 42.6366212,105.124729 42.581,105.041 C42.5347733,104.953391 42.5347733,104.848609 42.581,104.761 C47.665,91.861 54.615,76.169 58.834,74.7 C72.917,69.823 81.734,68.6 81.823,68.6 L81.933,68.6 C82.8362236,68.7601059 83.5836721,69.3933556 83.89,70.258 C85.335,74.404 77.483,84.487 77.147,84.889 L61.004,105.007 C60.9582238,105.099185 60.8683851,105.161469 60.766,105.172 L60.765,105.175 Z M43.311,104.565 L60.619,104.565 L76.619,84.538 C76.698,84.438 84.599,74.296 83.27,70.468 C83.0371366,69.8169661 82.4722102,69.3414195 81.791,69.223 C81.023,69.323 72.415,70.607 58.984,75.283 C55.884,76.362 50.327,86.756 43.284,104.57 L43.311,104.565 Z" id="路径_10445" fill="#231F20"></path>
                        <path d="M87.79,104.871 L91.89,94.891 C91.89,94.891 101.89,97.884 108.558,95.373 C113.252,93.605 114.685,87.539 116.806,82.625 C116.806,82.625 88.763,75.98 82.506,73.273 C82.506,73.273 82.116,73.273 74.94,80.808 C71.733,84.191 69.179,94.5 67.34,104.87 L87.79,104.871 Z" id="路径_10446" fill="#231F20"></path>
                        <path d="M87.79,105.175056 L67.331,105.175056 C67.2389947,105.176776 67.1512638,105.136228 67.093,105.065 C67.0377673,104.996492 67.0134977,104.908107 67.026,104.821 C69.367,91.653 71.958,83.484 74.714,80.6 C81.981,72.943 82.371,72.961 82.514,72.967 C82.5504427,72.9612684 82.5875573,72.9612684 82.624,72.967 C88.812,75.686 116.599,82.267 116.855,82.331 C116.94277,82.3503664 117.016795,82.4089455 117.055816,82.4899142 C117.094837,82.5708828 117.094536,82.6652816 117.055,82.746 C116.655,83.66 116.281,84.636 115.915,85.575 C114.275,89.8 112.574,94.175 108.63,95.658 C102.473,97.975 93.706,95.719 92.036,95.258 L88.043,105.012 C87.9939915,105.107765 87.8974585,105.169958 87.79,105.175056 L87.79,105.175056 Z M67.672,104.565 L87.589,104.565 L91.613,94.774 C91.6703298,94.6287266 91.8295262,94.5517382 91.979,94.597 C92.079,94.597 101.959,97.529 108.439,95.085 C112.097,93.701 113.773,89.458 115.371,85.331 C115.694,84.496 116.029,83.636 116.377,82.813 C113.14,82.039 88.632,76.15 82.524,73.589 C82.176,73.851 80.738,75.113 75.147,80.996 C72.547,83.77 69.965,91.909 67.691,104.565 L67.672,104.565 Z" id="路径_10447" fill="#231F20"></path>
                        <path d="M96.435,34.756 C96.435,34.756 89.729,42.072 85.986,45.73 C82.243,49.388 74.903,54.125 74.903,54.125 C74.903,54.125 53.017,55.887 52.785,56.234 C52.553,56.581 52.785,63.848 52.785,63.848 C52.785,63.848 74.171,67.948 78.073,67.248 C81.975,66.548 91.18,60.348 91.18,60.348 L96.435,34.756 Z" id="路径_10448" fill="#6F42FF"></path>
                        <path d="M105.75,31.122 L105.073,38.005 C105.925674,40.414403 108.444027,41.8069044 110.938,41.248 C115.583,40.541 116.425,37.359 116.425,37.359 L119.433,23.91 C119.433,23.91 116.647,21.898 114.019,14.034 C114.019,14.034 104.314,12.205 103.978,15.948 C103.978,15.948 102.064,22.654 102.204,26.196 C102.333,29.641 105.689,31.067 105.75,31.122 Z" id="路径_10449" fill="#FFFFFF"></path>
                        <path d="M109.871,41.6391369 C107.596911,41.6551801 105.559686,40.2358547 104.787,38.097 C104.777905,38.0588681 104.777905,38.0191319 104.787,37.981 L105.433,31.275 C103.427601,30.3313198 102.082417,28.3845436 101.909,26.175 C101.769,22.615 103.616,16.11 103.695,15.811 C103.756231,15.1868833 104.088138,14.6210332 104.603,14.263 C107.042,12.398 113.803,13.653 114.083,13.653 C114.193468,13.6748316 114.284063,13.7536264 114.321,13.86 C116.869,21.499 119.594,23.565 119.621,23.614 C119.71638,23.6866412 119.761512,23.8076401 119.737,23.925 L116.725,37.374 C116.682,37.526 115.75,40.774 110.988,41.501 C110.617611,41.5719583 110.242683,41.6167358 109.866,41.635 L109.871,41.6391369 Z M105.384,37.981 C106.204516,40.211492 108.554091,41.4854096 110.871,40.956 C115.242,40.285 116.102,37.298 116.108,37.298 L119.077,24.051 C118.437,23.496 116.029,21.082 113.767,14.297 C112.694,14.114 106.988,13.236 104.939,14.791 C104.548201,15.0619156 104.299684,15.493976 104.262,15.968 C104.262,16.09 102.354,22.674 102.488,26.173 C102.66384,28.2010083 103.927825,29.973268 105.788,30.8 C105.839869,30.8248643 105.888833,30.8553827 105.934,30.891 C106.001646,30.9555915 106.035296,31.0480374 106.025,31.141 L105.384,37.981 Z" id="路径_10450" fill="#231F20"></path>
                        <path d="M116.096,24.141 C116.304982,23.5331138 116.70486,23.0090632 117.236,22.647 C118.033716,22.0609269 119.031369,21.8152898 120.01,21.964 C121.138838,22.4122376 121.76168,23.6267144 121.467,24.805 C121.159825,26.2015947 120.155594,27.3418383 118.809,27.823 C117.88789,28.0953567 116.896258,27.9899328 116.053,27.53" id="路径_10451" fill="#FFFFFF"></path>
                        <path d="M117.791,28.275 C117.132897,28.2778333 116.48478,28.1140838 115.907,27.799 C115.804003,27.7506232 115.736356,27.6490884 115.731383,27.5354045 C115.726409,27.4217205 115.784929,27.3146659 115.883308,27.2574788 C115.981687,27.2002917 116.103674,27.2024185 116.2,27.263 C116.973124,27.6815151 117.880229,27.7778321 118.724,27.531 C119.960507,27.0813634 120.880828,26.0301077 121.163,24.745 C121.41651,23.7313404 120.901301,22.6827469 119.944,22.264 C119.055024,22.1236076 118.146743,22.3431209 117.42,22.874 C116.94316,23.1950165 116.58538,23.6642071 116.402,24.209 C116.366273,24.317966 116.275128,24.3995949 116.162897,24.4231377 C116.050667,24.4466806 115.934402,24.4085609 115.857897,24.3231377 C115.781393,24.2377146 115.756273,24.117966 115.792,24.009 C116.021201,23.3387047 116.461999,22.7610344 117.048,22.363 C117.922804,21.7161869 119.023658,21.4543368 120.096,21.638 C121.380104,22.1284089 122.098767,23.4975975 121.773,24.833 C121.455181,26.3598156 120.364417,27.6105176 118.895,28.133 C118.536044,28.2346545 118.163997,28.2825084 117.791,28.275 L117.791,28.275 Z" id="路径_10452" fill="#231F20"></path>
                        <path d="M109.3,20.77 C109.3,20.77 106.508,24.007 107,24.69 C107.492,25.373 109.1,25.153 109.1,25.153" id="路径_10453" fill="#FFFFFF"></path>
                        <path d="M108.53,25.498 C107.873741,25.5688865 107.219781,25.3455292 106.744,24.888 C106.201,24.126 107.963,21.84 109.067,20.621 C109.138453,20.5393648 109.24803,20.5020506 109.354455,20.5231132 C109.46088,20.5441758 109.547983,20.6204154 109.582955,20.7231132 C109.617927,20.825811 109.595453,20.9393648 109.524,21.021 C108.183,22.582 107.116,24.24 107.244,24.575 C107.518,24.953 108.506,24.975 109.073,24.904 C109.241447,24.8821848 109.395685,25.0010532 109.4175,25.1695 C109.439315,25.3379468 109.320447,25.4921848 109.152,25.514 C108.944531,25.5204358 108.736864,25.5150939 108.53,25.498 Z" id="路径_10454" fill="#231F20"></path>
                        <ellipse id="椭圆_189" fill="#231F20" transform="translate(111.793035, 20.268377) rotate(-80.792031) translate(-111.793035, -20.268377) " cx="111.793035" cy="20.268377" rx="1" ry="1"></ellipse>
                        <ellipse id="椭圆_190" fill="#231F20" transform="translate(105.714434, 19.824186) rotate(-1.990000) translate(-105.714434, -19.824186) " cx="105.714434" cy="19.8241859" rx="1" ry="1"></ellipse>
                        <path d="M105.75,31.122 C105.75,31.122 109.932,32.53 112.596,31.335 C112.596,31.335 109.243,36.822 105.28,35.84 L105.75,31.122 Z" id="路径_10455" fill="#231F20"></path>
                        <path d="M106.268,36.267 C105.912351,36.2688547 105.557887,36.2258487 105.213,36.139 C105.067938,36.101303 104.970399,35.9655044 104.981,35.816 L105.444,31.097 C105.452186,31.0036639 105.501243,30.9187303 105.578,30.865 C105.660719,30.8248494 105.757281,30.8248494 105.84,30.865 C105.883,30.865 109.949,32.218 112.473,31.084 C112.59573,31.0316744 112.738161,31.0634599 112.827,31.163 C112.907,31.2696667 112.907,31.4163333 112.827,31.523 C112.73,31.705 109.901,36.267 106.268,36.267 Z M105.616,35.603 C108.353,36.085 110.798,33.303 111.822,31.945 C109.8809,32.2719539 107.889978,32.1348853 106.012,31.545 L105.616,35.603 Z" id="路径_10456" fill="#231F20"></path>
                        <path d="M105.805,21.984 L105.605,21.984 L103.355,21.807 C102.014158,21.6996732 101.013337,20.5270529 101.118,19.186 L101.264,17.357 C101.270575,17.2767456 101.309137,17.2025035 101.371012,17.1509722 C101.432887,17.099441 101.51288,17.0749472 101.593,17.083 L108.093,17.595 C108.17352,17.603871 108.24759,17.6432314 108.3,17.705 C108.353277,17.7649345 108.379661,17.8440862 108.373,17.924 L108.227,19.753 C108.121665,21.0205626 107.059924,21.9943692 105.788,21.9900146 L105.805,21.984 Z M101.849,17.713 L101.727,19.213 C101.649927,20.2171728 102.39916,21.094705 103.403,21.176 L105.653,21.353 L105.653,21.353 C106.13566,21.3975537 106.615616,21.2433466 106.982,20.926 C107.345963,20.6185356 107.575583,20.1811824 107.622,19.707 L107.738,18.207 L101.849,17.713 Z" id="路径_10457" fill="#231F20"></path>
                        <path d="M113.888,22.648013 L113.688,22.648013 L111.438,22.465 C110.097158,22.3576732 109.096337,21.1850529 109.201,19.844 L109.347,18.015 C109.352035,17.9336709 109.389937,17.8578888 109.451991,17.805077 C109.514045,17.7522651 109.594912,17.7269674 109.676,17.735 L116.176,18.253 C116.340722,18.266794 116.463249,18.4112336 116.45,18.576 L116.31,20.405 C116.207622,21.6749366 115.14505,22.65212 113.871,22.648013 L113.888,22.648013 Z M113.736,22.038 C114.21293,22.0794104 114.686561,21.927945 115.050963,21.6174799 C115.415365,21.3070148 115.640134,20.8634533 115.675,20.386 L115.797,18.886 L109.926,18.38 L109.81,19.874 C109.732944,20.8785328 110.482759,21.7562236 111.487,21.837 L113.736,22.038 Z" id="路径_10458" fill="#231F20"></path>
                        <path d="M109.531,19.49 L109.531,19.49 L107.946,19.362 C107.864671,19.3569646 107.788889,19.3190629 107.736077,19.2570089 C107.683265,19.194955 107.657967,19.114088 107.666,19.033 C107.685245,18.8678178 107.828866,18.7455874 107.995,18.753 L109.58,18.881 C109.748447,18.881 109.885,19.0175532 109.885,19.186 C109.885,19.3544468 109.748447,19.491 109.58,19.491 L109.531,19.49 Z" id="路径_10459" fill="#231F20"></path>
                        <path d="M108.554,30.244 C106.676233,30.1294417 105.070612,28.8526969 104.536,27.049 C104.501704,26.9512882 104.520227,26.8427977 104.585,26.762 C104.640065,26.6758185 104.739379,26.6284895 104.841,26.64 C107.442819,26.7763353 110.044059,26.3609139 112.474,25.421 C112.572127,25.3763749 112.686653,25.3878274 112.774,25.451 C112.862949,25.512574 112.911857,25.6172685 112.902,25.725 C112.902,25.865 112.585,29.212 109.64,30.053 C109.289212,30.1691292 108.923361,30.2334731 108.554,30.244 L108.554,30.244 Z M105.268,27.269 C105.901691,28.9623377 107.697147,29.9187995 109.456,29.5 C110.901358,28.98869 111.951436,27.7279826 112.193,26.214 C109.967484,26.9816504 107.621145,27.3391071 105.268,27.269 L105.268,27.269 Z" id="路径_10460" fill="#231F20"></path>
                        <path d="M130.94,42.266 C134.488,43.93 140.249,82.923 133.988,85.55 C124.234,89.616 97.83,75.796 97.83,75.796 L103.024,65.572 C103.024,65.572 120.96,70.912 122.203,67.267 C123.446,63.622 117.289,43.567 119.386,41.388 C121.483,39.209 130.94,42.266 130.94,42.266 Z" id="路径_10461" fill="#6F42FF"></path>
                        <path d="M104.006,69.7 C100.954226,69.0778093 97.979811,68.1231127 95.136,66.853 C93.0829866,65.7336179 90.8998732,64.871456 88.636,64.286 C85.6178215,63.6307867 82.5074465,63.5153368 79.449,63.945 C79.3252848,63.9547522 79.2058235,63.9945726 79.101,64.061 C78.741,64.361 79.272,64.89 79.711,65.03 C80.8984019,65.3789691 82.1315043,65.5475178 83.369,65.53 C80.2403664,65.8172303 77.1645131,66.5235499 74.224,67.63 C73.889,67.758 73.492,67.996 73.547,68.343 C73.602,68.69 74.187,68.794 74.602,68.727 L81.857,67.508 C80.0027385,67.7285411 78.1980955,68.2560781 76.517,69.069 C76.279,69.185 76.005,69.356 75.993,69.624 C75.993,70.087 76.639,70.173 77.093,70.081 C79.319001,69.63179 81.5015985,68.9893575 83.616,68.161 L78.806,70.142 C78.7617504,70.3076872 78.7858479,70.4842018 78.8728893,70.6319654 C78.9599307,70.7797289 79.1026332,70.8863782 79.269,70.928 C79.6053242,70.9928242 79.9529172,70.9655282 80.275,70.849 L85.414,69.471 L82.114,70.69 C81.596,70.879 80.968,71.233 81.053,71.781 C81.153,72.427 82.047,72.476 82.693,72.391 C85.249052,72.0091395 87.8396579,71.9128806 90.417,72.104 C91.3511547,72.0501562 92.2883982,72.107559 93.209,72.275 C94.5365634,72.8175444 95.8135388,73.476445 97.025,74.244 C98.915,75.232 100.799,76.238 102.682,77.244" id="路径_10462" fill="#FFFFFF"></path>
                        <path d="M102.714,77.4791386 C102.667397,77.4804994 102.621209,77.4698141 102.58,77.448 C100.702,76.444 98.8163333,75.444 96.923,74.448 C96.545,74.248 96.155,74.021 95.759,73.783 C94.9433341,73.2597252 94.0711299,72.8303324 93.159,72.503 C92.58289,72.3625595 91.9886501,72.311297 91.397,72.351 L90.434,72.351 C87.8770036,72.1597389 85.306626,72.255671 82.771,72.637 C82.2276918,72.7523747 81.6610968,72.6723432 81.171,72.411 C80.9712238,72.2667309 80.8407334,72.0456222 80.811,71.801 C80.7628081,71.4583746 80.899809,71.1158723 81.171,70.901 L80.378,71.114 C80.0050511,71.249561 79.6009634,71.2749033 79.214,71.187 C78.9469606,71.1008013 78.7266494,70.9093834 78.604,70.657 C78.5175766,70.4628499 78.5175766,70.2411501 78.604,70.047 C78.135,70.157 77.671,70.26 77.204,70.358 C76.7866103,70.4628133 76.3443935,70.3877199 75.985,70.151 C75.8297238,70.0177016 75.7460413,69.8192333 75.759,69.615 C75.759,69.139 76.259,68.908 76.436,68.822 L76.79,68.657 L74.69,69.011 C74.3190994,69.0924673 73.9312209,69.0359387 73.599,68.852 C73.4478153,68.743698 73.3468322,68.578879 73.319,68.395 C73.282,68.151 73.319,67.695 74.173,67.383 C76.3283626,66.5554403 78.5601973,65.9427995 80.836,65.554 C80.4443204,65.4964347 80.0558194,65.4190015 79.672,65.322 C79.2394833,65.2031738 78.8929469,64.8794408 78.745,64.456 C78.704566,64.2397951 78.7836586,64.018565 78.952,63.877 C79.0935434,63.7751945 79.2602095,63.7139914 79.434,63.7 C82.524703,63.2615835 85.6687824,63.3770526 88.719,64.041 C90.7328041,64.5349963 92.6764156,65.2805233 94.504,66.26 L95.284,66.632 C98.1001387,67.8735493 101.041282,68.8095658 104.057,69.424 C104.206133,69.4600874 104.298444,69.6094785 104.264,69.759 C104.248126,69.8315098 104.203513,69.8944769 104.140368,69.9334948 C104.077224,69.9725126 104.000951,69.9842422 103.929,69.966 C100.860426,69.3345021 97.8683486,68.3760315 95.004,67.107 L94.224,66.729 C92.4336639,65.772772 90.5309497,65.0438013 88.56,64.559 C85.574278,63.9057114 82.4957095,63.7922548 79.47,64.224 C79.3995908,64.2239436 79.3304797,64.2429491 79.27,64.279 C79.27,64.45 79.532,64.679 79.788,64.761 C80.9482287,65.0998647 82.1523955,65.2643297 83.361,65.249 L83.361,65.249 C83.4999593,65.2676946 83.603667,65.3862888 83.603667,65.5265 C83.603667,65.6667112 83.4999593,65.7853054 83.361,65.804 C80.2617017,66.0945435 77.2150968,66.7977614 74.302,67.895 C74.058,67.986 73.778,68.151 73.802,68.303 C73.8062711,68.3398734 73.826339,68.3730766 73.857,68.394 C74.0693839,68.489894 74.3078952,68.5113847 74.534,68.455 L80.149,67.504 C80.6946269,67.3830434 81.2459893,67.2895921 81.801,67.224 C81.9510977,67.2092966 82.0869694,67.3132755 82.112,67.462 C82.1341964,67.6132885 82.0309174,67.7544068 81.88,67.779 L80.252,68.053 C78.9875663,68.3293684 77.7598647,68.7529221 76.594,69.315 C76.294,69.461 76.228,69.571 76.228,69.632 C76.2235578,69.6667183 76.237591,69.7012322 76.265,69.723 C76.4889445,69.8368713 76.7467862,69.8649672 76.99,69.802 C79.2037485,69.3560331 81.374326,68.7176083 83.477,67.894 C83.6183632,67.8387113 83.7780374,67.9061293 83.837,68.046 C83.8922172,68.1890156 83.8252867,68.3501772 83.685,68.412 L79.015,70.338 C79.0070612,70.363735 79.0070612,70.391265 79.015,70.417 C79.0693,70.5286864 79.1656798,70.6142774 79.283,70.655 C79.5692085,70.7071491 79.864237,70.6798253 80.136,70.576 L85.275,69.192 C85.413334,69.1683549 85.5478036,69.2507706 85.5895196,69.3847675 C85.6312356,69.5187644 85.5673101,69.6629446 85.44,69.722 L82.148,70.941 C81.861,71.041 81.203,71.331 81.264,71.727 C81.2759127,71.8205982 81.3267441,71.904833 81.404,71.959 C81.7695469,72.1371154 82.1857108,72.1823737 82.581,72.087 C85.1587861,71.6973804 87.7722314,71.5990952 90.372,71.794 L91.293,71.794 C91.9426401,71.7503373 92.595093,71.8100808 93.226,71.971 C94.1826482,72.3052134 95.0955568,72.7534418 95.945,73.306 C96.335,73.532 96.719,73.757 97.091,73.952 C98.981,74.9433333 100.866667,75.9433333 102.748,76.952 C102.814636,76.9856005 102.864684,77.0449278 102.886578,77.1162723 C102.908472,77.1876168 102.900318,77.264805 102.864,77.33 C102.836532,77.398124 102.782306,77.4519879 102.714,77.4791386 L102.714,77.4791386 Z" id="路径_10463" fill="#231F20"></path>
                        <path d="M97.55,38.346 C96.288,39.084 89.521,54.3 86.577,61.561" id="路径_10464" fill="#FFFFFF"></path>
                        <path d="M86.595,61.8421852 C86.5017283,61.8426775 86.4142433,61.7968651 86.3616736,61.7198164 C86.3091039,61.6427678 86.2983529,61.5446005 86.333,61.458 C88.997,54.858 95.971,38.944 97.41,38.103 C97.496101,38.051911 97.6029173,38.0506372 97.6902122,38.0996583 C97.777507,38.1486795 97.8320183,38.2405482 97.833323,38.3406584 C97.834406,38.4407685 97.782101,38.533911 97.696,38.585 C97.2045698,38.8628243 95.933708,42.336357 93.931543,46.2277709 C91.4544741,51.0422096 88.6632635,57.1745489 86.851,61.666 C86.8103836,61.7720482 86.7085602,61.8421852 86.595,61.8421852 Z" id="路径_10465" fill="#231F20"></path>
                        <polygon id="路径_10466" fill="#FFFFFF" points="49.304 67.603 48.956 70.703 88.491 87.73 88.613 84.475"></polygon>
                        <path d="M88.491,88.032 C88.4508501,88.0411686 88.4091499,88.0411686 88.369,88.032 L48.834,71.005 C48.708137,70.9530984 48.6330038,70.8229497 48.651,70.688 L48.998,67.588 C49.0074184,67.4918921 49.0645383,67.4069637 49.15,67.362 C49.2357074,67.3166641 49.3382926,67.3166641 49.424,67.362 L88.734,84.219 C88.8507537,84.2682218 88.9239951,84.385488 88.917,84.512 L88.795,87.767 C88.7894508,87.8689879 88.7351002,87.9620539 88.649,88.017 C88.5981285,88.0356218 88.5430902,88.0397757 88.49,88.029 L88.491,88.032 Z M49.279,70.511 L88.198,87.27 L88.298,84.661 L49.56,68.037 L49.279,70.511 Z" id="路径_10467" fill="#231F20"></path>
                        <path d="M49.304,67.6 C49.304,67.6 60.82,62.077 61.113,62.235 C61.406,62.393 102.136,78.695 102.136,78.695 L88.614,84.468 L49.304,67.6 Z" id="路径_10468" fill="#FFFFFF"></path>
                        <path d="M88.613,84.777 C88.5727838,84.7855602 88.5312162,84.7855602 88.491,84.777 L49.182,67.888 C49.0718144,67.8413362 48.9998967,67.733656 48.9988616,67.614 C48.9953945,67.495005 49.0624926,67.3851367 49.17,67.334 C60.832,61.734 61.088,61.878 61.259,61.975 C61.869,62.249 101.849,78.258 102.251,78.435 C102.366879,78.4789658 102.442561,78.5910868 102.440063,78.715 C102.441521,78.8368358 102.369201,78.9474898 102.257,78.995 L88.735,84.768 C88.6956344,84.7805577 88.6540579,84.7846472 88.613,84.78 L88.613,84.777 Z M50.041,67.588 L88.613,84.146 L101.336,78.738 C95.045,76.214 63.075,63.418 61.063,62.576 C60.27,62.759 54.174,65.612 50.041,67.587 L50.041,67.588 Z" id="路径_10469" fill="#231F20"></path>
                        <polygon id="路径_10470" fill="#FFFFFF" points="88.491 87.727 101.629 81.612 102.135 78.698 88.611 84.471"></polygon>
                        <path d="M88.491,88.032 C88.4301891,88.034688 88.3701586,88.0174863 88.32,87.983 C88.229579,87.9249882 88.1781569,87.8221439 88.186,87.715 L88.308,84.459 C88.3151831,84.3428483 88.3854317,84.2399707 88.491,84.191 L102.019,78.418 C102.119223,78.3754863 102.234754,78.3920458 102.319,78.461 C102.410592,78.5281609 102.453765,78.6431556 102.429,78.754 L101.929,81.662 C101.909857,81.7596525 101.84677,81.8430299 101.758,81.888 L88.614,87.988 C88.5764994,88.0110471 88.5346101,88.0260319 88.491,88.032 L88.491,88.032 Z M88.912,84.679 L88.812,87.27 L101.358,81.43 L101.736,79.223 L88.912,84.679 Z" id="路径_10471" fill="#231F20"></path>
                        <polygon id="路径_10472" fill="#FFFFFF" points="49.304 67.603 48.493 38.993 89.881 57.993 88.613 84.47"></polygon>
                        <path d="M88.613,84.776 C88.572787,84.7845902 88.531213,84.7845902 88.491,84.776 L49.182,67.883 C49.0718144,67.8363362 48.9998967,67.728656 48.999,67.609 L48.1818886,38.999 C48.1791182,38.8930699 48.2323354,38.7934777 48.322,38.737 C48.4130252,38.6860629 48.5239748,38.6860629 48.615,38.737 L90.028,57.721 C90.1416517,57.7697308 90.2124745,57.8845676 90.205,58.008 L88.937,84.485 C88.9337224,84.5845282 88.8812711,84.6759435 88.797,84.729 C88.7431937,84.7660191 88.6779685,84.7824427 88.613,84.776 L88.613,84.776 Z M49.596,67.395 L88.326,84.02 L89.545,58.183 L48.81,39.471 L49.596,67.395 Z" id="路径_10473" fill="#231F20"></path>
                        <path d="M110.652,83.002 C110.609745,83.0103799 110.566255,83.0103799 110.524,83.002 L102.154,79.143 C102.019623,79.084368 101.947308,78.9372004 101.983,78.795 L104.513,68.212 C104.54709,68.0536851 104.700674,67.9510002 104.86,67.98 L121.223,70.601 L120.687,44.667 C120.684011,44.5855468 120.714294,44.5063837 120.770882,44.4477207 C120.82747,44.3890577 120.905492,44.3559999 120.987,44.3559999 L120.987,44.3559999 C121.150275,44.3616797 121.28132,44.492725 121.287,44.656 L121.830023,70.956 C121.831124,71.04617 121.790523,71.1318008 121.72,71.188 C121.653545,71.2473632 121.564139,71.2741117 121.476,71.261 L105.016,68.627 L102.608,78.692 L110.753,82.392 C110.874562,82.459023 110.940769,82.5953117 110.918312,82.7322971 C110.895856,82.8692825 110.789598,82.9772983 110.653,83.002 L110.652,83.002 Z" id="路径_10474" fill="#231F20"></path>
                        <path d="M38.11,104.871 C36.69,103.798 34.989,103.231 33.788,104.871 L38.11,104.871 Z" id="路径_10475" fill="#FFFFFF"></path>
                        <path d="M38.111,105.15 L33.789,105.15 C33.6841579,105.148803 33.5883123,105.090529 33.539,104.998 C33.4838218,104.908127 33.4838218,104.794873 33.539,104.705 C33.9332427,104.111519 34.5554429,103.707577 35.258,103.589 C36.3598494,103.525841 37.440853,103.908156 38.258,104.65 C38.3528371,104.722733 38.3926735,104.846624 38.358,104.961 C38.3191287,105.065203 38.224612,105.138415 38.114,105.15 L38.111,105.15 Z M34.411,104.595 L37.185,104.595 C36.6413465,104.247604 35.9991615,104.087146 35.356,104.138 C35.0027597,104.194541 34.673855,104.35343 34.41,104.595 L34.411,104.595 Z" id="路径_10476" fill="#231F20"></path>
                        <path d="M69.257,95.7130194 L69.208,95.7130194 C69.1283283,95.7007612 69.0569335,95.656976 69.0099042,95.5915113 C68.962875,95.5260467 68.9441684,95.4444107 68.958,95.365 C69.007,95.065 70.177,87.903 72.439,84.265 C72.5265371,84.1219583 72.7134582,84.0769629 72.8565,84.1645 C72.9995417,84.2520372 73.0445371,84.4389583 72.957,84.582 C70.781,88.112 69.567,95.382 69.557,95.458 C69.5345692,95.6059114 69.406593,95.7146912 69.257,95.7130194 Z" id="路径_10477" fill="#FFFFFF"></path>
                        <polygon id="路径_10478" fill="#231F20" points="106.933 42.575 107.555 44.66 99.782 60.675 101.995 66.4 106.848 62.261 108.842 44.655 109.872 43.594 108.811 41.82"></polygon>
                        <polygon id="路径_10479" fill="#FFFFFF" points="158.13 56.721 158.13 130.341 22.199 130.341 22.199 56.721 90.168 103.005"></polygon>
                        <path d="M158.13,130.646 L22.181,130.646 C22.0153146,130.646 21.881,130.511685 21.881,130.346 L21.881,56.721 C21.881,56.6076723 21.9447951,56.5039975 22.046,56.453 C22.1437367,56.3951059 22.2652633,56.3951059 22.363,56.453 L90.149,102.631 L157.941,56.457 C158.036574,56.3990715 158.156426,56.3990715 158.252,56.457 C158.354382,56.5067062 158.418718,56.6112028 158.417034,56.725 L158.417034,130.345 C158.417034,130.506125 158.290976,130.639019 158.13,130.646 L158.13,130.646 Z M22.504,130.036 L157.844,130.036 L157.844,57.294 L90.357,103.261 C90.2530138,103.327343 90.1199862,103.327343 90.016,103.261 L22.504,57.294 L22.504,130.036 Z" id="路径_10480" fill="#231F20"></path>
                        <path d="M90.167,103.309 C90.106582,103.309 90.0474194,103.291725 89.996,103.26 L22.027,56.97 C21.9600608,56.9251578 21.9139726,56.8552746 21.8991129,56.7760857 C21.8842532,56.6968969 21.9018713,56.6150592 21.948,56.549 C22.0434614,56.4091506 22.2332602,56.3713687 22.375,56.464 L90.167,102.638 L157.959,56.464 C158.025798,56.4184401 158.108157,56.4017724 158.187414,56.4177742 C158.26667,56.4337761 158.336111,56.4810926 158.38,56.549 C158.426129,56.6150592 158.443747,56.6968969 158.428887,56.7760857 C158.414027,56.8552746 158.367939,56.9251578 158.301,56.97 L90.338,103.26 C90.2862258,103.290914 90.2272893,103.307802 90.167,103.309 L90.167,103.309 Z" id="路径_10481" fill="#231F20"></path>
                        <polygon id="路径_10482" fill="#FFFFFF" points="22.199 130.341 90.159 87.977 158.128 130.341"></polygon>
                        <path d="M158.13,130.646 L22.181,130.646 C22.0449763,130.647875 21.924717,130.557988 21.888,130.427 C21.8500099,130.296091 21.9050507,130.156024 22.022,130.086 L90.027,87.722 C90.1262254,87.661706 90.2507746,87.661706 90.35,87.722 L158.306,130.086 C158.422949,130.156024 158.47799,130.296091 158.44,130.427 C158.401847,130.564398 158.272249,130.655952 158.13,130.646 Z M23.266,130.036 L157.088,130.036 L90.188,88.336 L23.266,130.036 Z" id="路径_10483" fill="#231F20"></path>
                        <rect id="矩形_3375" fill="#6F42FF" transform="translate(146.452276, 109.156656) rotate(-14.340000) translate(-146.452276, -109.156656) " x="126.843276" y="98.2866561" width="39.218" height="21.74"></rect>
                        <path d="M130.147,124.854 C130.091389,124.852147 130.036965,124.837428 129.988,124.811 C129.920456,124.766533 129.870854,124.69957 129.848,124.622 L124.465,103.559 C124.426045,103.396277 124.522816,103.231899 124.684,103.187 L162.684,93.475 C162.758881,93.4474548 162.841119,93.4474548 162.916,93.475 C162.987015,93.5156823 163.037778,93.5842122 163.056,93.664 L168.439,114.727 C168.460786,114.805429 168.449946,114.889345 168.408472,114.959491 C168.367176,115.029638 168.299149,115.079992 168.22,115.099 L130.22,124.811 L130.147,124.854 Z M125.136,103.73 L130.367,124.202 L167.774,114.637 L162.574,94.137 L125.136,103.73 Z" id="路径_10484" fill="#231F20"></path>
                        <polygon id="路径_10485" fill="#6F42FF" points="130.148 124.55 146.127 107.876 168.147 114.832"></polygon>
                        <path d="M130.148,124.854002 C130.039622,124.854378 129.939466,124.796272 129.886,124.702 C129.812214,124.585129 129.830136,124.432587 129.929,124.336 L145.907,107.671 C145.986741,107.586949 146.106593,107.554192 146.218,107.586 L168.238,114.548 C168.369185,114.587615 168.456851,114.711089 168.451276,114.848 C168.444917,114.984171 168.350871,115.100511 168.219,115.135 L130.219,124.847 L130.148,124.854002 Z M146.218,108.223 L131.105,123.989 L167.037,114.802 L146.218,108.223 Z" id="路径_10486" fill="#231F20"></path>
                        <polygon id="路径_10487" fill="#6F42FF" points="124.765 103.487 147.053 111.498 162.763 93.77"></polygon>
                        <path d="M147.053,111.802 C147.019925,111.807873 146.986075,111.807873 146.953,111.802 L124.661,103.79 C124.534974,103.745684 124.453435,103.623376 124.461,103.49 C124.466292,103.355508 124.557499,103.239683 124.687,103.203 L162.687,93.491 C162.815813,93.4597075 162.950303,93.5135035 163.022,93.625 C163.096559,93.7395851 163.084223,93.8900856 162.992,93.991 L147.28,111.716 C147.220385,111.7755 147.138049,111.806405 147.054,111.801 L147.053,111.802 Z M125.801,103.535 L146.962,111.135 L161.874,94.309 L125.801,103.535 Z" id="路径_10488" fill="#231F20"></path>
                        <rect id="矩形_3376" fill="#6F42FF" transform="translate(173.538453, 82.688021) rotate(-13.883418) translate(-173.538453, -82.688021) " x="162.367491" y="76.495656" width="22.3419248" height="12.3847299"></rect>
                        <path d="M164.178,91.677 C164.036963,91.6766376 163.913826,91.5814118 163.878,91.445 L160.909,79.429 C160.870045,79.2662774 160.966816,79.1018988 161.128,79.057 L182.813,73.698 C182.890681,73.6760017 182.973998,73.6869131 183.043278,73.7284869 C183.112559,73.7699418 183.161664,73.838147 183.179,73.917 L186.154,85.933 C186.173719,86.0121476 186.16036,86.0959123 186.117,86.165 C186.076412,86.2360982 186.00784,86.2868917 185.928,86.305 L164.251,91.666 L164.178,91.677 Z M161.578,79.577 L164.407,91.002 L185.494,85.79 L182.694,74.365 L161.578,79.577 Z" id="路径_10489" fill="#231F20"></path>
                        <polygon id="路径_10490" fill="#6F42FF" points="164.178 91.378 173.353 81.953 185.853 86.013"></polygon>
                        <path d="M164.178,91.678 C164.06922,91.679906 163.96834,91.6213802 163.916,91.526 C163.844882,91.4085364 163.862593,91.2577818 163.959,91.16 L173.134,81.741 C173.21369,81.6567806 173.334777,81.6260222 173.445,81.662 L185.955,85.722 C186.123447,85.722 186.26,85.8585532 186.26,86.027 C186.26,86.1954468 186.123447,86.332 185.955,86.332 L164.276,91.691 L164.178,91.678 Z M173.438,82.302 L165.138,90.837 L184.743,85.99 L173.438,82.302 Z" id="路径_10491" fill="#231F20"></path>
                        <polygon id="路径_10492" fill="#6F42FF" points="161.203 79.357 173.859 84.015 182.888 73.993"></polygon>
                        <path d="M173.865,84.319 C173.828567,84.3248487 173.791433,84.3248487 173.755,84.319 L161.099,79.661 C160.972974,79.6166842 160.891435,79.4943762 160.899,79.361 C160.903788,79.2278324 160.995842,79.1137832 161.125,79.081 L182.81,73.722 C182.939051,73.6870229 183.075672,73.7416712 183.145,73.856 C183.213877,73.972998 183.1989,74.1211544 183.108,74.222 L174.085,84.222 C174.02577,84.2831995 173.945116,84.3190458 173.86,84.322 L173.865,84.319 Z M162.245,79.442 L173.773,83.709 L181.997,74.564 L162.245,79.442 Z" id="路径_10493" fill="#231F20"></path>
                        <rect id="矩形_3377" fill="#6F42FF" transform="translate(143.901831, 79.866820) rotate(-24.120000) translate(-143.901831, -79.866820) " x="134.165831" y="74.4713201" width="19.472" height="10.791"></rect>
                        <path d="M137.226,89.0980675 C137.105601,89.1005467 136.995348,89.0308511 136.946,88.921 L132.538,79.069 C132.504394,78.9958924 132.501564,78.9123495 132.530145,78.8371352 C132.558727,78.7619209 132.616324,78.7013403 132.69,78.669 L150.455,70.713 C150.609701,70.6441438 150.791059,70.7117086 150.863,70.865 L155.263,80.686 C155.29356,80.7603142 155.29356,80.8436858 155.263,80.918 C155.232147,80.9921752 155.175738,81.052841 155.104,81.089 L137.326,89.013 C137.299115,89.0481456 137.265018,89.0771284 137.226,89.0980675 L137.226,89.0980675 Z M133.215,79.098 L137.379,88.389 L154.589,80.683 L150.431,71.392 L133.215,79.098 Z" id="路径_10494" fill="#231F20"></path>
                        <polygon id="路径_10495" fill="#6F42FF" points="137.226 88.763 143.633 79.263 154.991 80.805"></polygon>
                        <path d="M137.226,89.099 C137.110919,89.1040932 137.003085,89.0428427 136.948523,88.9413909 C136.893961,88.8399391 136.902307,88.7162051 136.97,88.623 L143.383,79.123 C143.446361,79.0252284 143.560599,78.972983 143.676,78.989 L155.034,80.537 C155.16934,80.5529228 155.276947,80.6580647 155.296,80.793 C155.313954,80.9277832 155.242266,81.0586038 155.119,81.116 L137.348,89.041 C137.312074,89.0690384 137.270425,89.0888388 137.226,89.099 Z M143.78,79.619 L138.074,88.081 L153.894,80.997 L143.78,79.619 Z" id="路径_10496" fill="#231F20"></path>
                        <polygon id="路径_10497" fill="#6F42FF" points="132.812 78.918 144.395 80.954 150.583 70.962"></polygon>
                        <path d="M144.389,81.259 L144.34,81.259 L132.757,79.223 C132.626757,79.1990886 132.527596,79.0926129 132.513,78.961 C132.494106,78.8275727 132.566499,78.6979199 132.69,78.644 L150.455,70.688 C150.57936,70.6327325 150.725209,70.6647384 150.815,70.767 C150.895,70.8736667 150.895,71.0203333 150.815,71.127 L144.627,81.127 C144.572151,81.2052191 144.484396,81.2538899 144.389,81.259 Z M133.842,78.82 L144.242,80.649 L149.802,71.675 L133.842,78.82 Z" id="路径_10498" fill="#231F20"></path>
                        <path d="M72.61,0.304931738 L36.861,0.304931738 C35.7404603,0.304931738 34.665815,0.750132651 33.8734738,1.54247385 C33.0811327,2.33481505 32.636,3.40946033 32.636,4.53 L32.636,22.819 C32.636,25.1524031 34.5275969,27.044 36.861,27.044 L68.69,27.044 L72.482,33.544 L72.531,27.044 L72.631,27.044 C74.9644031,27.044 76.856,25.1524031 76.856,22.819 L76.856,4.53 C76.856,3.40528964 76.4075925,2.32699118 75.610053,1.53395645 C74.8125134,0.740921724 73.7316922,0.298611113 72.607,0.304931738 L72.61,0.304931738 Z" id="路径_10499" fill="#FFFFFF"></path>
                        <path d="M72.457,33.8500018 C72.3486221,33.8503782 72.2484661,33.7922724 72.195,33.698 L68.495,27.352 L36.861,27.352 C34.3605205,27.3486947 32.3343053,25.3224795 32.331,22.822 L32.331,4.53 C32.3343053,2.02952048 34.3605205,0.00330533087 36.861,0 L72.61,0 C75.1118499,0 77.14,2.02815008 77.14,4.53 L77.14,22.819 C77.139201,25.2417192 75.2323095,27.2349672 72.812,27.343 L72.763,33.549 C72.7638219,33.6856672 72.6700491,33.8047504 72.537,33.836 C72.5120476,33.8464122 72.4849188,33.8505331 72.458,33.848 L72.457,33.8500018 Z M36.861,0.61 C34.6974138,0.613304031 32.944304,2.36641383 32.941,4.53 L32.941,22.819 C32.944304,24.9825862 34.6974138,26.735696 36.861,26.739 L68.69,26.739 C68.8005152,26.73642 68.9034944,26.7948262 68.958,26.891 L72.189,32.433 L72.226,27.044 C72.226,26.9644351 72.2576071,26.8881289 72.313868,26.831868 C72.3701289,26.7756071 72.4464351,26.744 72.526,26.744 L72.626,26.744 C74.7895862,26.740696 76.542696,24.9875862 76.546,22.824 L76.546,4.53 C76.546,3.49035136 76.1330012,2.49328402 75.3978586,1.75814142 C74.662716,1.02299881 73.6656486,0.61 72.626,0.61 L36.861,0.61 Z" id="路径_10500" fill="#231F20"></path>
                        <polygon id="路径_10501" fill="#231F20" points="48.846 18.631 64.867 8.831 51.29 14.482"></polygon>
                        <path d="M48.846,18.936 C48.7656808,18.9354039 48.688955,18.9026243 48.633,18.845 C48.5352808,18.7459271 48.5152686,18.5939978 48.584,18.473 L51.023,14.327 C51.0561321,14.2693286 51.1074899,14.2243026 51.169,14.199 L64.746,8.542 C64.8429976,8.49305461 64.9587391,8.49957482 65.0496259,8.55910452 C65.1405126,8.61863422 65.1927368,8.72212943 65.1866259,8.83060452 C65.180515,8.9390796 65.1169976,9.03605461 65.02,9.085 L49.005,18.885 C48.957776,18.9164595 48.9027122,18.9341215 48.846,18.936 Z M51.504,14.723 L49.73,17.729 L61.374,10.621 L51.504,14.723 Z" id="路径_10502" fill="#231F20"></path>
                        <polygon id="路径_10503" fill="#6F42FF" points="51.291 14.479 56.531 17.158 64.865 8.83"></polygon>
                        <path d="M56.533,17.437 C56.4908136,17.4460538 56.4471864,17.4460538 56.405,17.437 L51.168,14.761 C51.0538906,14.7078795 50.9892509,14.585146 51.01,14.461 C51.0123696,14.352556 51.0798742,14.2562337 51.181,14.217 L64.758,8.56 C64.8807221,8.51348719 65.0192837,8.55845476 65.0913056,8.66816809 C65.1633275,8.77788142 65.1494817,8.92289759 65.058,9.017 L56.73,17.357 C56.677052,17.4104534 56.605231,17.4409773 56.53,17.442 L56.533,17.437 Z M51.955,14.505 L56.497,16.816 L63.691,9.628 L51.955,14.505 Z" id="路径_10504" fill="#231F20"></path>
                        <polygon id="路径_10505" fill="#6F42FF" points="64.868 8.828 47.621 12.943 43.701 10.706"></polygon>
                        <path d="M47.621,13.236 C47.5738165,13.236 47.5275201,13.2231743 47.487,13.199 L43.561,10.956 C43.4555471,10.895292 43.4018285,10.7730596 43.4284185,10.6543215 C43.4550085,10.5355834 43.5557273,10.4479354 43.677,10.438 L64.844,8.56 C64.9873117,8.55346078 65.1142818,8.65165104 65.144,8.792 C65.1677173,8.93537328 65.0778077,9.07306101 64.937,9.109 L47.69,13.236 L47.621,13.236 Z M44.609,10.913 L47.657,12.663 L61.07,9.45 L44.609,10.913 Z" id="路径_10506" fill="#231F20"></path>
                        <polygon id="路径_10507" fill="#6F42FF" points="47.621 12.943 48.846 18.631 51.291 14.479 64.868 8.828"></polygon>
                        <path d="M48.846,18.905 L48.803,18.905 C48.6890762,18.8868542 48.5987201,18.7992967 48.577,18.686 L47.358,13.004 C47.3415841,12.9329047 47.3542034,12.8581981 47.3930607,12.7964394 C47.431918,12.7346807 47.4938035,12.6909714 47.565,12.675 L64.806,8.554 C64.9475347,8.52391216 65.0898395,8.60164882 65.141,8.737 C65.1837405,8.87625638 65.1153805,9.02544456 64.982,9.084 L51.482,14.699 L49.082,18.771 C49.0308839,18.852523 48.9421996,18.9028777 48.846,18.905 L48.846,18.905 Z M47.962,13.15 L48.98,17.875 L51.065,14.339 C51.0955823,14.2865561 51.1427159,14.2457539 51.199,14.223 L61.563,9.901 L47.962,13.15 Z" id="路径_10508" fill="#231F20"></path>
                        <path d="M70.153,123.147 C69.9845532,123.147 69.848,123.010447 69.848,122.842 C69.848,122.673553 69.9845532,122.537 70.153,122.537 C70.964,122.537 71.775,122.537 72.592,122.476 C72.7604468,122.476 72.897,122.612553 72.897,122.781 C72.897,122.949447 72.7604468,123.086 72.592,123.086 C71.776,123.116 70.958,123.135 70.153,123.147 Z M67.714,123.147 L67.714,123.147 C66.903,123.147 66.086,123.147 65.275,123.086 C65.1947132,123.084181 65.1185077,123.050248 65.0634385,122.991796 C65.0083694,122.933344 64.9790348,122.855253 64.982,122.775 C64.9910439,122.606598 65.1303553,122.474757 65.299,122.475 C66.11,122.505 66.915,122.524 67.738,122.536 C67.9064468,122.536 68.043,122.672553 68.043,122.841 C68.043,123.009447 67.9064468,123.146 67.738,123.146 L67.714,123.147 Z M75.03,122.976 C74.8692614,122.976151 74.7369653,122.849588 74.73,122.689 C74.7236853,122.607744 74.7507022,122.527415 74.8048371,122.46649 C74.8589719,122.405565 74.9355649,122.369287 75.017,122.366 C75.817,122.323 76.633,122.266 77.456,122.201 C77.5361042,122.194677 77.6153967,122.220753 77.6761126,122.273386 C77.7368285,122.326019 77.7738923,122.400809 77.779,122.481 C77.7870326,122.562088 77.7617349,122.642955 77.708923,122.705009 C77.6561112,122.767063 77.5803291,122.804965 77.499,122.81 C76.688,122.871 75.877,122.926 75.06,122.975 L75.03,122.976 Z M62.837,122.976 L62.837,122.976 C62.02,122.927 61.209,122.876 60.398,122.805 C60.2309719,122.78978 60.1073213,122.642943 60.1207507,122.475761 C60.13418,122.30858 60.2796841,122.183363 60.447,122.195 C61.258,122.262 62.063,122.317 62.886,122.366 C63.0544468,122.366 63.191,122.502553 63.191,122.671 C63.191,122.839447 63.0544468,122.976 62.886,122.976 L62.837,122.976 Z M79.907,122.592 C79.75392,122.585178 79.6276335,122.469836 79.607,122.318 C79.5972129,122.236913 79.6209103,122.15534 79.6726203,122.092118 C79.7243303,122.028896 79.7995823,121.98949 79.881,121.983 C80.6936667,121.897667 81.5066667,121.806333 82.32,121.709 C82.4884468,121.687185 82.6426848,121.806053 82.6645,121.9745 C82.6863152,122.142947 82.5674468,122.297185 82.399,122.319 C81.5863333,122.425 80.7733333,122.516333 79.96,122.593 L79.907,122.592 Z M58.007,122.592 L57.977,122.592 C57.166,122.501 56.355,122.403 55.538,122.299 C55.3695532,122.277185 55.2506848,122.122947 55.2725,121.9545 C55.2943152,121.786053 55.4485532,121.667185 55.617,121.689 C56.417,121.789 57.217,121.889 58.056,121.976 C58.164966,121.982609 58.2621287,122.046849 58.3108878,122.144521 C58.3596469,122.242193 58.3525947,122.358459 58.2923878,122.449521 C58.2321809,122.540584 58.127966,122.592609 58.019,122.586 L58.007,122.592 Z M84.752,121.982 C84.6020794,121.98362 84.4739809,121.874309 84.452,121.726 C84.4385449,121.645838 84.4581937,121.563647 84.5064495,121.498238 C84.5547053,121.432829 84.6274373,121.3898 84.708,121.379 C85.508,121.257 86.308,121.129 87.108,120.995 C87.1874107,120.981168 87.2690467,120.999875 87.3345113,121.046904 C87.399976,121.093933 87.4437612,121.165328 87.456,121.245 C87.4719608,121.323756 87.4548755,121.405611 87.4087431,121.471406 C87.3626107,121.537202 87.2914803,121.581163 87.212,121.593 C86.412,121.733 85.603,121.861 84.773,121.983 L84.752,121.982 Z M53.179,121.933 L53.13,121.933 C52.33,121.805 51.521,121.665 50.722,121.518 C50.61092,121.500575 50.5179832,121.42437 50.4791336,121.318856 C50.4402839,121.213343 50.4616127,121.095065 50.5348709,121.009768 C50.608129,120.92447 50.7218303,120.885527 50.832,120.908 C51.632,121.06 52.432,121.195 53.232,121.323 C53.3990281,121.33822 53.5226787,121.485057 53.5092493,121.652239 C53.49582,121.81942 53.3503159,121.944637 53.183,121.933 L53.179,121.933 Z M89.562,121.159 C89.453034,121.169897 89.346532,121.121833 89.2826122,121.032914 C89.2186925,120.943995 89.207066,120.827729 89.2521122,120.727914 C89.2971585,120.628098 89.392034,120.559897 89.501,120.549 C90.301,120.391 91.101,120.226 91.885,120.055 C92.0534468,120.017997 92.2199969,120.124553 92.2569999,120.293 C92.294003,120.461447 92.1874468,120.627997 92.019,120.665 L89.619,121.159 L89.562,121.159 Z M48.393,121.037 L48.326,121.037 C47.526,120.866 46.735,120.683 45.942,120.488 C45.8641941,120.468889 45.7972653,120.419449 45.7561274,120.350698 C45.7149896,120.281947 45.7030611,120.199598 45.723,120.122 C45.7405417,120.042903 45.7893298,119.974263 45.8582658,119.931696 C45.9272018,119.889129 46.0104238,119.876254 46.089,119.896 C46.875,120.096 47.662,120.268 48.454,120.439 C48.534203,120.45516 48.6043269,120.503374 48.648129,120.572476 C48.6919311,120.641577 48.705611,120.72557 48.686,120.805 C48.6530237,120.947986 48.5214546,121.046134 48.375,121.037 L48.393,121.037 Z M94.299,120.116001 C94.1592092,120.116377 94.0376855,120.020153 94.006,119.884 C93.9842137,119.805571 93.9952327,119.721655 94.0365284,119.651509 C94.0778242,119.581362 94.1458513,119.531008 94.225,119.512 C95.0176667,119.316667 95.804,119.113333 96.584,118.902 C96.6616012,118.880037 96.7447771,118.890244 96.8147656,118.930318 C96.8847541,118.970392 96.9356598,119.036958 96.956,119.115 C96.9958569,119.277464 96.9026142,119.442937 96.743,119.493 C95.957,119.7 95.164,119.901 94.372,120.103 L94.299,120.116001 Z M43.632,119.884 L43.547,119.884 C42.761,119.665 41.98,119.439 41.2,119.201 C41.0315532,119.150466 40.935966,118.972947 40.9865001,118.8045 C41.0370341,118.636053 41.2145532,118.540466 41.383,118.591 C42.151,118.829 42.931,119.054 43.712,119.268 C43.873682,119.315486 43.9681323,119.483102 43.925,119.646 C43.8968627,119.779903 43.7816873,119.877802 43.645,119.884 L43.632,119.884 Z M99.012,118.842 C98.8453317,118.862075 98.6932836,118.744984 98.6701153,118.578718 C98.646947,118.412451 98.7611926,118.258254 98.927,118.232 C99.707,118.006 100.482,117.763 101.25,117.519 C101.418447,117.466809 101.597309,117.561053 101.6495,117.7295 C101.701691,117.897947 101.607447,118.076809 101.439,118.129 C100.665,118.379 99.884,118.617 99.098,118.848 C99.0735048,118.850511 99.0487565,118.848477 99.025,118.842 L99.012,118.842 Z M38.975,118.452 C38.9419468,118.458112 38.9080532,118.458112 38.875,118.452 C38.101,118.19 37.333,117.909 36.575,117.623 C36.4184273,117.564182 36.3391817,117.389573 36.398,117.233 C36.4568183,117.076427 36.6314273,116.997182 36.788,117.056 C37.544,117.336 38.3,117.611 39.068,117.873 C39.2261183,117.930479 39.3098597,118.103278 39.257,118.263 C39.2121975,118.375538 39.1041135,118.450092 38.983,118.452 L38.975,118.452 Z M103.658,117.342 C103.529342,117.343779 103.413878,117.263315 103.371,117.142 C103.31814,116.982278 103.401882,116.809479 103.56,116.752 C104.328,116.484 105.09,116.203 105.846,115.917 C105.921137,115.887954 106.004798,115.890346 106.078153,115.923638 C106.151507,115.95693 106.208391,116.018323 106.236,116.094 C106.268283,116.170295 106.26758,116.256543 106.234057,116.332301 C106.200534,116.408059 106.137175,116.466583 106.059,116.494 C105.303,116.781 104.535,117.061 103.759,117.335 C103.729511,117.343873 103.698782,117.347925 103.668,117.347 L103.658,117.342 Z M34.421,116.732 C34.382819,116.740667 34.343181,116.740667 34.305,116.732 C33.549,116.415 32.793,116.086 32.062,115.757 C31.9873004,115.723629 31.9294705,115.661197 31.9019054,115.584166 C31.8743403,115.507135 31.8794316,115.422187 31.916,115.349 C31.9494552,115.276392 32.0105071,115.22014 32.085606,115.192729 C32.1607048,115.165318 32.2436383,115.169015 32.316,115.203 C33.041,115.532 33.785,115.861 34.535,116.172 C34.6110069,116.201838 34.6715673,116.261369 34.7027045,116.336853 C34.7338417,116.412337 34.7328651,116.497252 34.7,116.572 C34.6485928,116.672049 34.5444477,116.733837 34.432,116.731 L34.421,116.732 Z M108.221,115.61 C108.097087,115.612561 107.984966,115.536879 107.941,115.421 C107.908135,115.346252 107.907158,115.261337 107.938295,115.185853 C107.969433,115.110369 108.029993,115.050838 108.106,115.021 C108.856,114.71 109.6,114.411 110.337,114.064 C110.410987,114.030807 110.495259,114.028979 110.570615,114.058933 C110.645971,114.088887 110.705992,114.148071 110.737,114.223 C110.800689,114.37554 110.733919,114.55125 110.585,114.623 C109.841,114.952 109.091,115.269 108.335,115.586 C108.302338,115.594373 108.268716,115.598408 108.235,115.598 L108.221,115.61 Z M30.004,114.702 C29.9578253,114.700665 29.9123359,114.690481 29.87,114.672 C29.138,114.306 28.413,113.922 27.706,113.532 C27.6335928,113.494329 27.5796601,113.428783 27.5566398,113.350476 C27.5336195,113.272169 27.543499,113.187863 27.584,113.117 C27.6667699,112.971038 27.8504062,112.917053 27.999,112.995 C28.699,113.385 29.419,113.763 30.145,114.123 C30.292839,114.203755 30.3516961,114.386036 30.279,114.538 C30.2251143,114.63935 30.1197842,114.702779 30.005,114.703 L30.004,114.702 Z M112.689,113.629 C112.571659,113.63203 112.463836,113.564738 112.415,113.458 C112.378049,113.385562 112.372087,113.301227 112.39848,113.224312 C112.424873,113.147396 112.481359,113.084489 112.555,113.05 C113.287,112.696 114.012,112.337 114.731,111.965 C114.880945,111.88768 115.06518,111.946555 115.1425,112.0965 C115.21982,112.246445 115.160945,112.43068 115.011,112.508 C114.286,112.88 113.56,113.246 112.816,113.599 C112.776203,113.618168 112.732038,113.626449 112.688,113.623 L112.689,113.629 Z M25.742,112.349 C25.6857819,112.347797 25.6310337,112.330818 25.584,112.3 C24.884,111.879 24.184,111.44 23.511,111 C23.4430926,110.956111 23.3957761,110.88667 23.3797742,110.807414 C23.3637724,110.728157 23.3804401,110.645798 23.426,110.579 C23.4698885,110.511093 23.53933,110.463776 23.6185862,110.447774 C23.6978425,110.431772 23.7802024,110.44844 23.847,110.494 C24.518,110.933 25.206,111.366 25.901,111.786 C25.9696807,111.827427 26.0189122,111.894632 26.0377015,111.972608 C26.0564909,112.050584 26.0432733,112.132837 26.001,112.201 C25.9455536,112.291899 25.8474587,112.348115 25.741,112.35 L25.742,112.349 Z M117.017,111.38 C116.907396,111.379073 116.806048,111.321592 116.749,111.228 C116.671053,111.079406 116.725038,110.89577 116.871,110.813 C117.578,110.413 118.279,110.013 118.971,109.594 C119.115699,109.506463 119.303963,109.552801 119.3915,109.6975 C119.479037,109.842199 119.432699,110.030463 119.288,110.118 C118.593333,110.524667 117.886,110.931 117.166,111.337 C117.120767,111.364665 117.06901,111.379847 117.016,111.381 L117.017,111.38 Z M21.676,109.657007 C21.6128382,109.65671 21.551203,109.637558 21.499,109.602 C20.8323333,109.118667 20.18,108.625 19.542,108.121 C19.4779655,108.071507 19.4366442,107.998242 19.4274175,107.917837 C19.4181908,107.837433 19.4418415,107.756712 19.493,107.694 C19.6014488,107.565327 19.7915396,107.543815 19.926,107.645 C20.536,108.145 21.2,108.633 21.852,109.108 C21.9197348,109.153824 21.9658266,109.225314 21.9796077,109.305924 C21.9933888,109.386534 21.9736645,109.469276 21.925,109.535 C21.8657245,109.612464 21.7735393,109.657631 21.676,109.657007 L21.676,109.657007 Z M17.86,106.609 C17.7869111,106.608451 17.7162572,106.582663 17.66,106.536 C17.111,106.054 16.56,105.561 16.038,105.067 L15.849,104.884 C15.7918975,104.827632 15.7597552,104.750738 15.7597552,104.6705 C15.7597552,104.590262 15.7918975,104.513368 15.849,104.457 C15.9055771,104.398018 15.9837696,104.364672 16.0655,104.364672 C16.1472304,104.364672 16.2254229,104.398018 16.282,104.457 L16.465,104.634 C16.989,105.128 17.526,105.616 18.074,106.085 C18.1771071,106.165568 18.2160996,106.303671 18.1703549,106.426267 C18.1246102,106.548863 18.0046824,106.627667 17.874,106.621 L17.86,106.609 Z M14.322,103.257 C14.239846,103.256783 14.1611153,103.224068 14.103,103.166 C13.53,102.556 12.969,101.947 12.433,101.374 C12.3758975,101.317632 12.3437552,101.240738 12.3437552,101.1605 C12.3437552,101.080262 12.3758975,101.003368 12.433,100.947 C12.4895771,100.888018 12.5677696,100.854672 12.6495,100.854672 C12.7312304,100.854672 12.8094229,100.888018 12.866,100.947 C13.402,101.557 13.957,102.166 14.524,102.721 C14.5829821,102.777577 14.6163278,102.85577 14.6163278,102.9375 C14.6163278,103.01923 14.5829821,103.097423 14.524,103.154 C14.4755918,103.220076 14.4042762,103.265718 14.324,103.282 L14.322,103.257 Z M11.067,99.599 C10.9743472,99.5977199 10.8870909,99.5551916 10.829,99.483 C10.305,98.873 9.799,98.203 9.311,97.563 C9.21329159,97.4273988 9.2402316,97.2388188 9.372,97.136 C9.43622182,97.0861252 9.51793833,97.0644563 9.59843488,97.0759558 C9.67893143,97.0874553 9.75131199,97.1311381 9.799,97.197 C10.281,97.807 10.787,98.471 11.299,99.097 C11.3515129,99.1581895 11.377183,99.2379421 11.3702221,99.3182745 C11.3632612,99.3986069 11.3242554,99.4727553 11.262,99.524 C11.2148867,99.5914396 11.1429721,99.6374649 11.062,99.652 L11.067,99.599 Z M8.135,95.699 C8.03447982,95.6990375 7.94062116,95.6487293 7.885,95.565 C7.422,94.888 6.971,94.193 6.55,93.504 C6.46246287,93.3609582 6.50745825,93.1740371 6.6505,93.0865 C6.79354175,92.9989629 6.98046287,93.0439582 7.068,93.187 C7.483,93.864 7.928,94.553 8.385,95.223 C8.43112873,95.2890592 8.44874676,95.3708969 8.4338871,95.4500857 C8.41902743,95.5292746 8.37293922,95.5991578 8.306,95.644 C8.26439778,95.7003743 8.20354947,95.7395165 8.135,95.754 L8.135,95.699 Z M5.586,91.557 C5.47485037,91.5560104 5.37267909,91.4957751 5.318,91.399 C4.918,90.68 4.544,89.942 4.19,89.216 C4.15343158,89.1428126 4.14834027,89.057865 4.17590537,88.9808338 C4.20347047,88.9038025 4.26130042,88.8413709 4.336,88.808 C4.48512797,88.7364016 4.66407043,88.7990315 4.736,88.948 C5.083,89.667 5.461,90.393 5.846,91.106 C5.88667722,91.1750529 5.8972935,91.2577542 5.87537629,91.3348423 C5.85345908,91.4119304 5.8009216,91.4766761 5.73,91.514 C5.69405977,91.5629029 5.64258548,91.5981592 5.584,91.614 L5.586,91.557 Z M3.458,87.216 C3.33215323,87.2194601 3.21753334,87.1439788 3.171,87.027 C2.86,86.277 2.561,85.503 2.293,84.741 C2.23583855,84.5827704 2.31777044,84.4081615 2.47600001,84.351 C2.63422958,84.2938386 2.80883852,84.3757704 2.866,84.534 C3.134,85.29 3.427,86.052 3.738,86.796 C3.79996839,86.952013 3.7269408,87.1290496 3.573,87.196 C3.53673477,87.2101922 3.49790781,87.2166633 3.459,87.215 L3.458,87.216 Z M1.836,82.616 C1.69997632,82.6178745 1.57971697,82.5279879 1.543,82.397 C1.317,81.611 1.11,80.812 0.933,80.019 C0.909063186,79.913428 0.94326665,79.8031053 1.02272628,79.7295895 C1.1021859,79.6560736 1.21482988,79.6305333 1.3182263,79.6625895 C1.42162273,79.6946456 1.50006322,79.779428 1.524,79.885 C1.701,80.665 1.902,81.452 2.134,82.226 C2.158027,82.3035869 2.14956779,82.3876004 2.11055565,82.45884 C2.07154351,82.5300796 2.00531279,82.5824563 1.927,82.604 C1.90162541,82.6128109 1.87484641,82.6168786 1.848,82.616 L1.836,82.616 Z M0.769,77.861 C0.619079399,77.86262 0.490980886,77.7533093 0.469,77.605 C0.341,76.794 0.237,75.977 0.158,75.166 C0.148175196,75.057034 0.197229375,74.9511038 0.286684301,74.8881123 C0.376139228,74.8251207 0.492404571,74.8146378 0.591684301,74.8606123 C0.690964032,74.9065867 0.758175196,75.002034 0.768,75.111 C0.847,75.904 0.951,76.711 1.079,77.511 C1.09463266,77.5913179 1.07677988,77.6745362 1.02957787,77.7413742 C0.982375867,77.8082122 0.909920995,77.8528697 0.829,77.865 L0.769,77.861 Z M0.3,73.014 C0.136725049,73.0083203 0.00567973274,72.877275 7.16093851e-15,72.714 C7.16093851e-15,72.314 7.16093851e-15,71.914 7.16093851e-15,71.495 L7.16093851e-15,70.239 C0.00176738277,70.157622 0.0365262104,70.0804554 0.0963009615,70.0252062 C0.156075712,69.9699569 0.235734729,69.9413683 0.317,69.946 C0.397286766,69.9478191 0.473492333,69.9817519 0.528561477,70.0402041 C0.58363062,70.0986564 0.612965209,70.1767474 0.61,70.257 L0.61,72.657 C0.614680774,72.7394673 0.585152434,72.8202158 0.528376224,72.8802094 C0.471600014,72.9402029 0.392599902,72.9741327 0.31,72.974 L0.3,73.014 Z M0.465,68.137 L0.465,68.137 C0.384745599,68.130425 0.310503498,68.0918633 0.258972247,68.0299882 C0.207440996,67.968113 0.182947197,67.8881196 0.191,67.808 C0.276,66.991 0.391,66.168 0.526,65.369 C0.538238804,65.2893283 0.582024017,65.2179335 0.64748868,65.1709042 C0.712953343,65.123875 0.794589314,65.1051684 0.874,65.119 C0.954920995,65.1311303 1.02737587,65.1757878 1.07457787,65.2426258 C1.12177988,65.3094638 1.13963266,65.3926821 1.124,65.473 C0.99,66.259 0.88,67.064 0.801,67.873 C0.779102289,68.0334161 0.639839815,68.1515521 0.478,68.147 L0.465,68.137 Z M1.288,63.337 L1.215,63.337 C1.13585128,63.3179919 1.06782418,63.2676375 1.02652844,63.1974913 C0.985232694,63.1273451 0.974213731,63.0434295 0.996,62.965 C1.185,62.165 1.411,61.374 1.661,60.6 C1.68393769,60.5215643 1.73788041,60.4558805 1.81035979,60.4181308 C1.88283918,60.3803811 1.96758173,60.373833 2.045,60.4 C2.12202419,60.4230463 2.1865748,60.4760445 2.22417482,60.5471086 C2.26177484,60.6181726 2.26927744,60.7013549 2.245,60.778 C2.001,61.54 1.782,62.32 1.593,63.107 C1.56183955,63.2409882 1.44354316,63.3366145 1.306,63.339 L1.288,63.337 Z M2.782,58.698 C2.74386812,58.7070947 2.70413188,58.7070947 2.666,58.698 C2.58891067,58.6693585 2.52695905,58.6103264 2.49463235,58.5347084 C2.46230564,58.4590904 2.46243855,58.3735172 2.495,58.298 C2.795,57.542 3.141,56.786 3.501,56.055 C3.57500616,55.9050547 3.75655469,55.8434938 3.9065,55.9175 C4.05644531,55.9915062 4.11800616,56.1730547 4.044,56.323 C3.697,57.042 3.361,57.78 3.062,58.53 C3.01074946,58.6318019 2.90791833,58.6974143 2.794,58.701 L2.782,58.698 Z M4.94,54.3510014 C4.88630859,54.3511668 4.83364701,54.3362692 4.788,54.308 C4.71763892,54.2682465 4.66629235,54.201787 4.64558659,54.1236698 C4.62488083,54.0455526 4.63656735,53.9623856 4.678,53.893 C5.093,53.193 5.525,52.493 5.978,51.808 C6.0705077,51.668272 6.25877196,51.6299923 6.3985,51.7225 C6.53822804,51.8150077 6.5765077,52.003272 6.484,52.143 C6.045,52.814 5.612,53.509 5.204,54.197 C5.15018423,54.2919005 5.04909177,54.3501052 4.94,54.349 L4.94,54.3510014 Z M7.629,50.279 C7.5627891,50.2803894 7.4981351,50.258838 7.446,50.218 C7.38096628,50.1712992 7.3372984,50.1005402 7.32471488,50.0214706 C7.31213136,49.942401 7.33167634,49.8615819 7.379,49.797 C7.867,49.139 8.373,48.486 8.891,47.858 C8.94137512,47.7948613 9.01508211,47.7547033 9.09544788,47.7466103 C9.17581364,47.7385173 9.25604753,47.7631729 9.318,47.815 C9.38113874,47.8653751 9.42129665,47.9390821 9.42938969,48.0194479 C9.43748273,48.0998136 9.41282706,48.1800475 9.361,48.242 C8.849,48.852 8.349,49.504 7.873,50.156 C7.81052299,50.2238714 7.72113912,50.2605041 7.629,50.256 L7.629,50.279 Z M10.72,46.511 C10.6454758,46.5123364 10.5734944,46.4839038 10.52,46.432 C10.4610179,46.3754229 10.4276722,46.2972304 10.4276722,46.2155 C10.4276722,46.1337696 10.4610179,46.0555771 10.52,45.999 C11.069,45.389 11.648,44.78 12.227,44.237 C12.2833684,44.1798975 12.3602623,44.1477552 12.4405,44.1477552 C12.5207377,44.1477552 12.5976316,44.1798975 12.654,44.237 C12.7129821,44.2935771 12.7463278,44.3717696 12.7463278,44.4535 C12.7463278,44.5352304 12.7129821,44.6134229 12.654,44.67 C12.081,45.225 11.514,45.81 10.965,46.407 C10.9006602,46.4707012 10.8109928,46.5019378 10.721,46.492 L10.72,46.511 Z M14.207,43.103 C14.1206066,43.1046222 14.0379024,43.0680274 13.981,43.003 C13.9238975,42.9466316 13.8917552,42.8697377 13.8917552,42.7895 C13.8917552,42.7092623 13.9238975,42.6323684 13.981,42.576 C14.591,42.033 15.237,41.509 15.881,41.009 C16.0159747,40.9288769 16.1894985,40.961892 16.2856188,41.0859838 C16.3817391,41.2100756 16.3703234,41.386343 16.259,41.497 C15.649,41.985 14.997,42.503 14.387,43.033 C14.3352844,43.0695566 14.2733264,43.0888091 14.21,43.088 L14.207,43.103 Z M64.868,42.14 C64.7546723,42.1400345 64.6509975,42.0762049 64.6,41.975 C64.2014476,41.2906194 63.7271285,40.653274 63.186,40.075 C63.104148,39.9948135 63.0737645,39.8757171 63.1071992,39.766119 C63.1406338,39.6565209 63.2323213,39.5746642 63.3449942,39.5538206 C63.457667,39.532977 63.5725702,39.576616 63.643,39.667 C64.2198331,40.2797568 64.7213878,40.9592392 65.137,41.691 C65.1747835,41.7619549 65.1825098,41.8451051 65.1584465,41.9218068 C65.1343833,41.9985084 65.0805438,42.0623439 65.009,42.099 C64.9646362,42.1168573 64.9164381,42.1230542 64.869,42.117 L64.868,42.14 Z M18.09,40.098 C17.9888269,40.1007147 17.8937532,40.0497552 17.84,39.964 C17.7938713,39.8979408 17.7762532,39.8161031 17.7911129,39.7369143 C17.8059726,39.6577254 17.8520608,39.5878422 17.919,39.543 C18.59,39.08 19.285,38.635 19.98,38.214 C20.0486465,38.1697757 20.1323543,38.1554454 20.2118024,38.1743167 C20.2912505,38.193188 20.359573,38.24363 20.401,38.314 C20.4452243,38.3826465 20.4595546,38.4663543 20.4406833,38.5458024 C20.421812,38.6252505 20.37137,38.693573 20.301,38.735 C19.612,39.143 18.929,39.589 18.265,40.035 C18.2150173,40.0741261 18.1534739,40.0955784 18.09,40.096 L18.09,40.098 Z M61.655,38.498 C61.5816505,38.4989369 61.5104997,38.4729668 61.455,38.425 C60.8372147,37.9138693 60.1897518,37.4397088 59.516,37.005 C59.4219082,36.9463007 59.3669402,36.8412867 59.3723262,36.7305173 C59.3777122,36.6197478 59.4426091,36.5205621 59.541952,36.4712683 C59.6412948,36.4219745 59.7595331,36.4302888 59.851,36.493 C60.5436184,36.9435453 61.2094121,37.4340422 61.845,37.962 C61.9481071,38.0425683 61.9870996,38.1806709 61.9413549,38.3032667 C61.8956102,38.4258626 61.7756824,38.5046665 61.645,38.498 L61.655,38.498 Z M22.236,37.584 C22.1212158,37.5837785 22.0158857,37.5203499 21.962,37.419 C21.9242165,37.3480451 21.9164902,37.2648949 21.9405535,37.1881932 C21.9646167,37.1114916 22.0184562,37.0476561 22.09,37.011 C22.809,36.633 23.553,36.273 24.303,35.938 C24.3761076,35.904394 24.4596505,35.9015638 24.5348648,35.9301453 C24.6100791,35.9587267 24.6706597,36.0163237 24.703,36.09 C24.7666885,36.2425403 24.6999187,36.4182504 24.551,36.49 C23.813,36.819 23.082,37.173 22.375,37.545 C22.3320547,37.56858 22.2839878,37.5812834 22.235,37.582 L22.236,37.584 Z M57.595,35.828 C57.5479332,35.8271271 57.5018462,35.8144016 57.461,35.791 C56.761,35.444 56.016,35.114 55.261,34.822 C55.1597152,34.7828794 55.0869948,34.6926957 55.0702318,34.5854202 C55.0534688,34.4781447 55.09521,34.3700751 55.1797318,34.3019202 C55.2642536,34.2337653 55.3787152,34.2158794 55.48,34.255 C56.2515136,34.5401486 57.004913,34.8720985 57.736,35.249 C57.8085894,35.2845842 57.8637452,35.3479587 57.8889707,35.4247645 C57.9141961,35.5015704 57.907356,35.5853062 57.87,35.657 C57.813737,35.7693803 57.6953654,35.8368521 57.57,35.828 L57.595,35.828 Z M26.705,35.584 C26.5773532,35.5825533 26.4635536,35.5032505 26.418,35.384 C26.3889543,35.3088631 26.3913465,35.2252018 26.4246381,35.1518473 C26.4579298,35.0784928 26.5193234,35.0216091 26.595,34.994 C27.357,34.701 28.137,34.433 28.918,34.194 C28.9946165,34.1676422 29.0787272,34.1741873 29.150344,34.2120798 C29.2219609,34.2499723 29.2746897,34.3158291 29.296,34.394 C29.3202774,34.4706451 29.3127748,34.5538274 29.2751748,34.6248914 C29.2375748,34.6959555 29.1730242,34.7489537 29.096,34.772 C28.334,35.016 27.56,35.278 26.81,35.565 C26.7692571,35.5806551 26.7254803,35.5868112 26.682,35.583 L26.705,35.584 Z M31.35,34.127 C31.241034,34.1400402 31.1333884,34.0939572 31.0676123,34.0061099 C31.0018361,33.9182627 30.9879224,33.8019974 31.0311123,33.7011099 C31.0743021,33.6002225 31.168034,33.5300402 31.277,33.517 C32.063,33.317 32.868,33.139 33.677,32.987 C33.7564335,32.9693539 33.8396277,32.9847312 33.9075051,33.0296057 C33.9753825,33.0744802 34.02212,33.1450022 34.037,33.225 C34.0670363,33.3913734 33.9586636,33.5512676 33.793,33.585 C33,33.737 32.208,33.914 31.428,34.109 L31.35,34.127 Z M53.05,34.072 L52.976,34.072 C52.22,33.859 51.434,33.664 50.629,33.499 C50.5490022,33.48412 50.4784802,33.4373825 50.4336057,33.3695051 C50.3887312,33.3016277 50.3733539,33.2184335 50.391,33.139 C50.4274778,32.9757688 50.5865245,32.8706213 50.751,32.901 C51.5574197,33.0640043 52.3551006,33.2675965 53.141,33.511 C53.2912904,33.5457042 53.3869865,33.6933346 53.3573075,33.8446975 C53.3276285,33.9960605 53.1832675,34.0966208 53.031,34.072 L53.05,34.072 Z M36.135,33.207 C35.9708221,33.2120102 35.8319735,33.0865073 35.8204236,32.9226595 C35.8088736,32.7588117 35.9287428,32.6150713 36.092,32.597 C36.892,32.487 37.714,32.397 38.531,32.329 C38.6983159,32.3173627 38.84382,32.4425795 38.8572493,32.6097611 C38.8706787,32.7769427 38.7470281,32.9237801 38.58,32.939 C37.78,33.012 36.971,33.098 36.18,33.207 L36.135,33.207 Z M48.285,33.097 L48.242,33.097 C47.468,32.997 46.657,32.914 45.842,32.859 C45.7605649,32.8557133 45.6839719,32.8194354 45.6298371,32.7585101 C45.5757022,32.6975848 45.5486853,32.6172564 45.555,32.536 C45.5678042,32.3664978 45.7143285,32.2386787 45.884,32.249 C46.713,32.31 47.536,32.389 48.323,32.493 C48.431966,32.4996094 48.5291287,32.5638494 48.5778877,32.6615215 C48.6266468,32.7591935 48.6195947,32.8754588 48.5593877,32.9665215 C48.4991808,33.0575841 48.394966,33.1096094 48.286,33.103 L48.285,33.097 Z M40.969,32.786 C40.8060102,32.7860444 40.6728031,32.6559454 40.669,32.493 C40.6654937,32.3257207 40.7949623,32.1856471 40.962,32.176 C41.773,32.176 42.602,32.139 43.401,32.176 C43.5684501,32.1819263 43.7011048,32.3194451 43.7010001,32.487 C43.7010548,32.568508 43.6679423,32.6465298 43.6092793,32.7031179 C43.5506163,32.7597059 43.4714532,32.7899886 43.39,32.787 L40.945,32.787 L40.969,32.786 Z" id="路径_10509" fill="#D1D3D4"></path>
                    </g>
                </g>
            </g>
        </g>
    </g>
</svg>