<?xml version="1.0" encoding="UTF-8"?>
<svg width="200px" height="200px" viewBox="0 0 200 200" version="1.1" xmlns="http://www.w3.org/2000/svg" xmlns:xlink="http://www.w3.org/1999/xlink">
    <title>编组 10备份 5</title>
    <g id="页面" stroke="none" stroke-width="1" fill="none" fill-rule="evenodd">
        <g id="00插画状态" transform="translate(-3080.000000, -319.000000)">
            <g id="编组-10备份-5" transform="translate(3080.000000, 319.000000)">
                <rect id="矩形" x="0" y="0" width="200" height="200"></rect>
                <g id="编组" transform="translate(4.600000, 17.000000)" fill-rule="nonzero">
                    <path d="M190.274913,89.7292307 L190.274913,94.8912307 L166.011913,124.659231 L158.264913,115.021231 L12.346913,166.400231 L11.289913,158.755231 L112.129913,117.404231 C112.129913,117.404231 148.277913,102.079231 147.066913,102.079231 C145.855913,102.079231 134.619913,92.6152307 134.619913,92.6152307 L135.729913,87.9042307 L174.536913,93.8202307 L190.274913,89.7292307 Z" id="路径_9768" fill="#D1D3D4"></path>
                    <path d="M12.346913,166.737651 C12.2852901,166.738582 12.224567,166.722274 12.171913,166.690231 C12.0859904,166.637478 12.0288979,166.54834 12.016913,166.448231 L10.953913,158.796231 C10.9359056,158.643882 11.0212502,158.498102 11.162913,158.439231 L112.022913,117.095231 C124.581913,111.771231 143.082913,103.823231 146.387913,102.147231 C143.917913,100.801231 136.769913,94.8472307 134.421913,92.8732307 C134.323055,92.7920605 134.278859,92.6617998 134.307913,92.5372307 L135.418913,87.8262307 C135.459096,87.6559878 135.622852,87.5447905 135.795913,87.5702307 L174.541913,93.4792307 L190.189913,89.4412307 C190.291603,89.4165124 190.399014,89.4395702 190.481599,89.5038465 C190.564184,89.5681228 190.613913,89.6665848 190.613913,89.7712307 L190.613913,94.9332307 C190.613913,95.0104545 190.584544,95.0848021 190.532913,95.1422307 L166.269913,124.910231 C166.209901,124.991312 166.114785,125.03887 166.013913,125.038231 C165.908711,125.052595 165.805242,125.002045 165.751913,124.910231 L158.151913,115.488231 L12.460913,166.723231 C12.4240024,166.734425 12.3854356,166.739162 12.346913,166.737651 Z M11.673913,158.964231 L12.635913,165.950231 L158.164913,114.725231 C158.300744,114.676877 158.452288,114.72029 158.541913,114.833231 L166.025913,124.141231 L189.951913,94.7902307 L189.951913,90.1802307 L174.651913,94.1442307 C174.607497,94.1544872 174.561329,94.1544872 174.516913,94.1442307 L136.016913,88.2752307 L135.016913,92.4882307 C140.306913,96.9372307 146.296913,101.661231 147.097913,101.742231 C147.264913,101.744992 147.41019,101.857307 147.454913,102.018231 C147.528913,102.408231 147.562913,102.570231 129.807913,110.229231 C121.152913,113.958231 112.376913,117.679231 112.307913,117.713231 L11.673913,158.964231 Z" id="路径_9769" fill="#231F20"></path>
                    <polygon id="路径_9770" fill="#FFFFFF" points="32.941913 86.8422307 25.201913 84.4932307 22.334913 89.8032307 29.556913 92.4032307"></polygon>
                    <path d="M29.555913,92.7452307 L29.441913,92.7452307 L22.219913,90.1452307 C22.1260494,90.1128485 22.0522953,90.0390944 22.019913,89.9452307 C21.9829119,89.856951 21.9829119,89.7575104 22.019913,89.6692307 L24.906913,84.3452307 C24.9808194,84.2042287 25.1448554,84.1360907 25.296913,84.1832307 L33.043913,86.5322307 C33.1396644,86.5671003 33.2172216,86.6392466 33.258913,86.7322307 C33.3039427,86.8271615 33.3039427,86.9372999 33.258913,87.0322307 L29.893913,92.5982307 C29.8198018,92.7087615 29.6884454,92.7664492 29.556913,92.7462307 L29.555913,92.7452307 Z M22.825913,89.6222307 L29.425913,91.9982307 L32.440913,87.0382307 L25.373913,84.8982307 L22.825913,89.6222307 Z" id="路径_9771" fill="#231F20"></path>
                    <polygon id="路径_9772" fill="#FFFFFF" points="6.83491305 121.496231 144.946913 95.5962307 135.746913 87.9102307 190.275913 89.7542307 165.602913 117.154231 158.202913 109.226231 11.289913 158.755231"></polygon>
                    <path d="M11.289913,159.091231 C11.2254846,159.089987 11.1625942,159.071327 11.107913,159.037231 C11.0239843,158.982474 10.9675526,158.894367 10.952913,158.795231 L6.49791305,121.536231 C6.47368257,121.360675 6.59244187,121.197325 6.76691305,121.166231 L144.179913,95.3892307 L135.531913,88.1612307 C135.421856,88.0695807 135.38175,87.9183796 135.431913,87.7842307 C135.478337,87.6443936 135.615241,87.5551983 135.761913,87.5692307 L190.276913,89.4132307 C190.407713,89.4145476 190.52539,89.4929983 190.576913,89.6132307 C190.626184,89.7341416 190.602279,89.8725397 190.515913,89.9702307 L165.842913,117.370231 C165.780927,117.443277 165.689712,117.485038 165.593913,117.484231 C165.499265,117.485609 165.408582,117.446276 165.344913,117.376231 L158.095913,109.609231 L11.395913,159.050231 C11.3635149,159.070527 11.327536,159.084443 11.289913,159.091231 Z M7.20491305,121.765231 L11.572913,158.304231 L158.090913,108.904231 C158.216978,108.863661 158.355145,108.897719 158.447913,108.992231 L165.595913,116.651231 L189.528913,90.0602307 L136.702913,88.2792307 L145.149913,95.3322307 C145.249003,95.4161991 145.291018,95.5496383 145.257913,95.6752307 C145.224783,95.8015218 145.122826,95.8980516 144.994913,95.9242307 L7.20491305,121.765231 Z" id="路径_9773" fill="#231F20"></path>
                    <ellipse id="椭圆_151" fill="#E6E7E8" transform="translate(59.023728, 129.692872) rotate(-9.750000) translate(-59.023728, -129.692872) " cx="59.0237283" cy="129.692872" rx="27.345" ry="5.573"></ellipse>
                    <polygon id="路径_9774" fill="#FFFFFF" points="77.139913 109.960231 73.262913 115.984231 80.753913 118.131231 85.996913 111.852231"></polygon>
                    <path d="M80.753913,118.468231 C80.7229596,118.475131 80.6908665,118.475131 80.659913,118.468231 L73.173913,116.321231 C73.0732263,116.29145 72.9917265,116.217192 72.952731,116.119704 C72.9137355,116.022215 72.9215405,115.912235 72.973913,115.821231 L76.843913,109.764231 C76.9185594,109.643089 77.0624503,109.583437 77.200913,109.616231 L86.064913,111.507231 C86.1807319,111.533166 86.2749122,111.617134 86.313913,111.729231 C86.3485478,111.840343 86.325685,111.961403 86.252913,112.052231 L81.002913,118.331231 C80.9448366,118.412129 80.853333,118.462475 80.753913,118.468231 L80.753913,118.468231 Z M73.794913,115.776231 L80.632913,117.741231 L85.384913,112.061231 L77.308913,110.331231 L73.794913,115.776231 Z" id="路径_9775" fill="#231F20"></path>
                    <path d="M73.261913,115.977231 C73.261913,115.977231 69.647913,120.190231 69.822913,120.688231 C69.997913,121.186231 85.302913,126.967231 85.975913,125.850231 C86.648913,124.733231 80.732913,118.103231 80.732913,118.103231 L73.261913,115.977231 Z" id="路径_9776" fill="#231F20"></path>
                    <path d="M85.491913,126.355231 C85.3373653,126.363807 85.1824608,126.363807 85.027913,126.355231 C82.099913,126.018231 69.769913,121.644231 69.507913,120.855231 C69.440913,120.655231 69.271913,120.182231 73.014913,115.794231 C73.097622,115.693259 73.2338996,115.653528 73.357913,115.694231 L80.841913,117.841231 C80.9030112,117.861392 80.9585072,117.895648 81.003913,117.941231 C82.834913,119.960231 87.027913,124.880231 86.286913,126.085231 C86.0757614,126.289814 85.7839838,126.388909 85.491913,126.355231 L85.491913,126.355231 Z M70.180913,120.580231 C71.795913,121.643231 84.731913,126.173231 85.754913,125.655231 C85.963913,125.155231 83.607913,121.832231 80.565913,118.427231 L73.377913,116.361231 C72.1986231,117.678833 71.1284297,119.090151 70.177913,120.581231 L70.180913,120.580231 Z" id="路径_9777" fill="#231F20"></path>
                    <path d="M80.342913,71.9882307 C80.342913,71.9882307 97.235913,88.1412307 97.706913,91.9632307 C98.177913,95.7852307 84.717913,115.122231 84.717913,115.122231 L74.617913,110.808231 C74.617913,110.808231 85.951913,96.4522307 83.617913,92.1792307 C81.283913,87.9062307 68.682913,80.2262307 68.682913,80.2262307 C68.682913,80.2262307 60.572913,98.1552307 55.221913,100.935231 C49.870913,103.715231 27.586913,93.5352307 27.586913,93.5352307 L32.163913,84.3082307 C32.163913,84.3082307 46.922913,89.7392307 49.695913,87.3902307 C52.468913,85.0412307 56.923913,63.4172307 56.923913,63.4172307 L80.342913,71.9882307 Z" id="路径_9778" fill="#231F20"></path>
                    <path d="M84.717913,115.459231 C84.6754777,115.465513 84.6323484,115.465513 84.589913,115.459231 L74.489913,111.145231 C74.3958093,111.101295 74.3266793,111.017089 74.301913,110.916231 C74.27443,110.815698 74.2971449,110.708081 74.362913,110.627231 C77.478913,106.683231 85.130913,95.7132307 83.327913,92.3682307 C81.268913,88.5992307 70.815913,81.9682307 68.837913,80.7382307 C67.646913,83.3222307 60.424913,98.6382307 55.376913,101.259231 C49.958913,104.079231 28.361913,94.2532307 27.445913,93.8592307 C27.3625737,93.819446 27.299283,93.7471137 27.270913,93.6592307 C27.2340333,93.5778821 27.2340333,93.4845793 27.270913,93.4032307 L31.847913,84.1762307 C31.927728,84.0265423 32.1049775,83.9576828 32.264913,84.0142307 C36.302913,85.5012307 47.313913,88.9742307 49.464913,87.1502307 C51.615913,85.3262307 55.346913,69.3502307 56.578913,63.3652307 C56.5986615,63.2695871 56.6589298,63.1872141 56.7441103,63.139444 C56.8292908,63.0916738 56.9310054,63.083205 57.022913,63.1162307 L80.390913,71.7162307 C80.4326956,71.734513 80.4712045,71.75951 80.504913,71.7902307 C81.177913,72.4632307 97.491913,88.0502307 98.004913,91.9812307 C98.517913,95.9122307 85.540913,114.514231 84.988913,115.301231 C84.9300929,115.395293 84.8287464,115.454381 84.717913,115.459231 L84.717913,115.459231 Z M75.187913,110.674231 L84.609913,114.712231 C88.439913,109.200231 97.760913,95.0192307 97.397913,92.0172307 C97.034913,89.0152307 86.003913,77.8832307 80.181913,72.2842307 L57.244913,63.8372307 C56.611913,66.8452307 52.644913,85.3742307 49.982913,87.6222307 C47.320913,89.8702307 34.859913,85.6032307 32.403913,84.7012307 L28.109913,93.3492307 C30.835913,94.5672307 50.319913,103.135231 55.138913,100.649231 C60.314913,97.9572307 68.356913,80.2762307 68.438913,80.0952307 C68.4784954,80.0068328 68.5549135,79.9402869 68.647913,79.9132307 C68.7338393,79.8766031 68.8309868,79.8766031 68.916913,79.9132307 C69.434913,80.2292307 81.616913,87.7002307 83.972913,92.0282307 C86.184913,96.1022307 76.943913,108.399231 75.186913,110.673231 L75.187913,110.674231 Z" id="路径_9779" fill="#231F20"></path>
                    <path d="M117.641913,31.0082307 C118.836816,30.1684663 120.121372,29.4641408 121.471913,28.9082307 C123.026913,28.4082307 124.991913,28.0532307 124.547913,27.3942307 C124.103913,26.7352307 120.421913,27.6942307 120.421913,27.6942307 C120.421913,27.6942307 122.568913,24.3942307 123.786913,23.7432307 C125.004913,23.0922307 126.720913,23.1432307 125.872913,22.5182307 C124.513905,21.8887101 122.967743,21.7937484 121.541913,22.2522307 C120.641913,22.7162307 115.484913,28.3772307 115.215913,28.6792307 C114.946913,28.9812307 117.641913,31.0082307 117.641913,31.0082307 Z" id="路径_9780" fill="#FFFFFF"></path>
                    <path d="M117.641913,31.3442307 C117.570095,31.3421255 117.500506,31.3188133 117.441913,31.2772307 C115.765913,30.0182307 114.890913,29.1572307 114.823913,28.7772307 C114.809368,28.6612084 114.843382,28.5443297 114.917913,28.4542307 C114.964913,28.4002307 120.301913,22.4772307 121.351913,21.9542307 C122.887514,21.4237629 124.571283,21.5277837 126.029913,22.2432307 C126.268287,22.3803853 126.407038,22.6419523 126.386913,22.9162307 C126.325913,23.2792307 125.901913,23.4072307 125.269913,23.5892307 C124.804997,23.7016463 124.35368,23.8642682 123.923913,24.0742307 C122.846929,24.9611351 121.919735,26.0156238 121.177913,27.1972307 C122.611913,26.8742307 124.401913,26.6252307 124.811913,27.2442307 C124.938549,27.4033839 124.978921,27.6145915 124.919913,27.8092307 C124.737913,28.3092307 123.963913,28.5562307 122.610913,28.9462307 C122.267913,29.0402307 121.937913,29.1462307 121.580913,29.2562307 C120.262653,29.7885628 119.00762,30.465717 117.838913,31.2752307 C117.782958,31.3198809 117.7135,31.3442307 117.641913,31.3442307 Z M115.561913,28.7732307 C116.202517,29.4390025 116.900551,30.0470214 117.647913,30.5902307 C118.805707,29.7785799 120.052048,29.101228 121.362913,28.5712307 C121.705913,28.4572307 122.035913,28.3562307 122.419913,28.2552307 C123.076659,28.1222735 123.705331,27.8762863 124.277913,27.5282307 C123.003128,27.4263883 121.720933,27.5842388 120.508913,27.9922307 C120.373516,28.02928 120.229334,27.9785207 120.147008,27.8648221 C120.064683,27.7511235 120.061457,27.5983014 120.138913,27.4812307 C120.225913,27.3462307 122.346913,24.1162307 123.611913,23.4432307 C124.091463,23.2030444 124.59761,23.02012 125.119913,22.8982307 L125.610913,22.7572307 C124.365618,22.2271142 122.972581,22.1562397 121.679913,22.5572307 C120.923913,22.9382307 116.423913,27.8102307 115.562913,28.7732307 L115.561913,28.7732307 Z" id="路径_9781" fill="#231F20"></path>
                    <path d="M83.653913,33.1942307 C83.653913,33.1942307 104.726913,37.6272307 106.745913,37.1112307 L114.687913,28.1872307 L119.358913,31.2292307 C119.358913,31.2292307 116.928913,38.5782307 113.570913,42.8192307 C110.212913,47.0602307 88.177913,48.0012307 88.177913,48.0012307 L83.653913,33.1942307 Z" id="路径_9782" fill="#6F42FF"></path>
                    <path d="M83.956913,28.4032307 C82.6793806,28.2933969 81.4423903,27.9001973 80.335913,27.2522307 C78.4149286,26.0550973 77.0936544,24.0975463 76.701913,21.8682307 C75.3650856,21.699614 74.1521266,21.0007686 73.3357532,19.9288201 C72.5193798,18.8568716 72.1681068,17.5017842 72.360913,16.1682307 C73.9833255,16.5921854 75.7105158,16.1951258 76.984913,15.1052307 C75.3551337,15.2277338 73.9210243,14.0376529 73.740913,12.4132307 C73.717611,12.2370451 73.7432111,12.0578443 73.814913,11.8952307 C74.063913,11.4312307 74.743913,11.5182307 75.254913,11.6332307 C77.8318103,12.0253867 80.4624588,11.8693197 82.974913,11.1752307 C85.4831107,10.4802453 88.0919672,10.2208141 90.687913,10.4082307 C94.375913,10.9262307 97.269913,13.5712307 96.677913,17.4612307 C96.5214749,18.7970388 96.1958651,20.1075426 95.708913,21.3612307 C95.459084,21.7803293 95.124225,22.1424403 94.725913,22.4242307 C92.666913,24.1402307 91.219913,26.6642307 88.668913,27.8082307 C87.1728732,28.3980949 85.5526233,28.6026892 83.956913,28.4032307 Z" id="路径_9783" fill="#FFFFFF"></path>
                    <path d="M85.060913,28.7932307 C84.6811154,28.8019359 84.3011761,28.7838913 83.923913,28.7392307 L83.923913,28.7392307 C82.5968841,28.6209537 81.3123238,28.2112056 80.161913,27.5392307 C78.2274608,26.333915 76.8722629,24.3876933 76.412913,22.1552307 C73.560524,21.644206 71.6242723,18.9672198 72.031913,16.0982307 C72.0494461,16.0054661 72.1058699,15.9246526 72.186913,15.8762307 C72.2659624,15.8230211 72.3648018,15.8083238 72.455913,15.8362307 C73.6581766,16.1437718 74.9326436,15.9776615 76.015913,15.3722307 C75.4924489,15.2513281 75.005542,15.0068459 74.595913,14.6592307 C73.9100345,14.102788 73.4800707,13.291236 73.404913,12.4112307 C73.380579,12.180691 73.4200124,11.9478955 73.518913,11.7382307 C73.918913,10.9912307 74.938913,11.2132307 75.329913,11.3012307 C77.752913,11.8392307 80.296913,11.3882307 82.907913,10.8432307 L83.223913,10.7762307 C85.6668531,10.1026852 88.2111462,9.87471167 90.734913,10.1032307 C92.7771595,10.3252509 94.6476083,11.3493216 95.934913,12.9502307 C96.9092007,14.2673205 97.2986863,15.9272449 97.011913,17.5402307 C96.8528996,18.9111872 96.5167631,20.2557333 96.011913,21.5402307 C95.7609933,21.9769056 95.4201294,22.3552644 95.011913,22.6502307 L94.944913,22.7042307 C94.2301154,23.3340931 93.5557755,24.008433 92.925913,24.7232307 C91.8213173,26.1064221 90.4476186,27.2511711 88.887913,28.0882307 C87.6751936,28.5869447 86.3717369,28.8270641 85.060913,28.7932307 Z M83.990913,28.0662307 C85.5380703,28.2451252 87.105341,28.0297803 88.546913,27.4402307 C90.0451104,26.6667312 91.3584272,25.5785544 92.396913,24.2502307 C93.0550045,23.4989355 93.7607985,22.7908033 94.509913,22.1302307 L94.576913,22.0762307 C94.9102551,21.8394195 95.1919623,21.5372987 95.404913,21.1882307 C95.8701914,19.9643749 96.1841848,18.6882522 96.339913,17.3882307 C96.5966295,15.9540534 96.2535743,14.4773616 95.390913,13.3032307 C94.2135135,11.8426247 92.5027104,10.9112914 90.636913,10.7152307 C88.1913068,10.526981 85.7314824,10.7545359 83.361913,11.3882307 L83.038913,11.4552307 C80.346913,12.0202307 77.738913,12.4852307 75.177913,11.9192307 C74.565913,11.7842307 74.215913,11.8112307 74.107913,12.0132307 C74.0805263,12.1215261 74.0805263,12.2349353 74.107913,12.3432307 C74.2615286,13.7846611 75.5289413,14.8456274 76.974913,14.7432307 C77.1221134,14.7292745 77.2622044,14.8093265 77.324913,14.9432307 C77.3822096,15.0786542 77.3468113,15.2355332 77.236913,15.3332307 C75.9812872,16.4139202 74.3010725,16.8624193 72.673913,16.5512307 C72.5680643,17.6917132 72.9002106,18.8297343 73.602913,19.7342307 C74.3396784,20.7536414 75.4751289,21.4117155 76.725913,21.5442307 C76.876528,21.5584636 76.9992,21.6713219 77.025913,21.8202307 C77.4013103,23.9494016 78.6605656,25.8201187 80.491913,26.9692307 C81.5565534,27.5881476 82.7449654,27.963795 83.971913,28.0692307 L83.990913,28.0662307 Z" id="路径_9784" fill="#231F20"></path>
                    <path d="M96.164913,22.7362307 C96.164913,22.7362307 98.149913,26.3912307 97.618913,27.0702307 C97.087913,27.7492307 95.552913,27.1312307 95.552913,27.1312307" id="路径_9785" fill="#FFFFFF"></path>
                    <path d="M96.771913,27.7232307 C96.3108728,27.7063561 95.8559138,27.6123898 95.425913,27.4452307 C95.3429655,27.4122952 95.276529,27.3477127 95.2412597,27.2657303 C95.2059904,27.1837479 95.2047863,27.091102 95.237913,27.0082307 C95.2694974,26.9242122 95.3339435,26.8566844 95.4163962,26.8212127 C95.4988488,26.7857411 95.5921933,26.7853865 95.674913,26.8202307 C96.098913,26.9882307 97.067913,27.2202307 97.350913,26.8602307 C97.633913,26.5002307 96.850913,24.6932307 95.869913,22.8962307 C95.8204908,22.8198019 95.8040843,22.7266322 95.8244263,22.6379185 C95.8447683,22.5492047 95.9001289,22.4724911 95.977913,22.4252307 C96.1419837,22.3391407 96.3447681,22.3989134 96.435913,22.5602307 C97.061913,23.7182307 98.454913,26.4972307 97.855913,27.2712307 C97.582834,27.5799072 97.1833902,27.7464649 96.771913,27.7232307 L96.771913,27.7232307 Z" id="路径_9786" fill="#231F20"></path>
                    <path d="M96.070913,18.1182307 C97.416913,19.4642307 96.783913,21.9072307 96.629913,23.5432307 C96.4145797,25.8358974 96.1452464,28.126564 95.821913,30.4152307 C95.621913,31.8622307 91.843913,31.5662307 91.221913,31.0882307 L91.154913,35.9342307 C91.154913,35.9342307 90.043913,38.5182307 87.116913,36.8492307 C84.189913,35.1802307 83.657913,33.1942307 83.657913,33.1942307 L84.478913,26.5712307 C86.263018,26.5580235 87.8908034,25.5508796 88.698913,23.9602307 C90.428913,21.1202307 90.757913,16.5602307 90.757913,16.5602307 C90.757913,16.5602307 94.745913,16.8402307 96.070913,18.1182307 Z" id="路径_9787" fill="#FFFFFF"></path>
                    <path d="M88.944913,37.7382716 C88.2292724,37.7185843 87.5320194,37.5072328 86.925913,37.1262307 C83.917913,35.4102307 83.325913,33.3372307 83.304913,33.2492307 C83.2982001,33.2044811 83.2982001,33.1589803 83.304913,33.1142307 L84.136913,26.4982307 C84.1444872,26.4099913 84.1872115,26.3284996 84.2554788,26.2720803 C84.3237462,26.215661 84.4118263,26.1890498 84.499913,26.1982307 C86.1565096,26.1775955 87.6622607,25.231675 88.399913,23.7482307 C90.068913,21.0162307 90.418913,16.5402307 90.418913,16.4932307 C90.4363677,16.3088375 90.5970607,16.1716066 90.781913,16.1832307 C90.949913,16.1832307 94.913913,16.5262307 96.300913,17.8722307 L96.300913,17.8722307 C97.545913,19.0832307 97.283913,21.0822307 97.067913,22.6912307 C97.027913,23.0012307 96.993913,23.2972307 96.967913,23.5732307 C96.752913,25.8482307 96.482913,28.1632307 96.159913,30.4582307 C96.0640859,30.968868 95.6895805,31.3824086 95.190913,31.5282307 C94.0065336,31.8886535 92.7444602,31.9073714 91.549913,31.5822307 L91.488913,35.9232307 C91.4984467,35.9653648 91.4984467,36.0090966 91.488913,36.0512307 C91.1542766,36.7691824 90.5492776,37.325652 89.805913,37.5992307 C89.5285817,37.6928877 89.2376273,37.7398595 88.944913,37.7382716 Z M83.997913,33.1282307 C84.6574124,34.6203231 85.8230582,35.8313055 87.288913,36.5472307 C87.952385,37.005979 88.7808667,37.157837 89.563913,36.9642307 C90.1077577,36.7603612 90.554797,36.3590257 90.815913,35.8402307 L90.882913,31.0752307 C90.8835399,30.9476478 90.9563715,30.8314271 91.070913,30.7752307 C91.1879386,30.7201992 91.3259685,30.7356647 91.427913,30.8152307 C92.5563909,31.2228644 93.7862191,31.2558282 94.934913,30.9092307 C95.277913,30.7742307 95.459913,30.5932307 95.493913,30.3712307 C95.809913,28.0892307 96.085913,25.7812307 96.293913,23.5132307 C96.3123887,23.2113865 96.3484499,22.9108764 96.401913,22.6132307 C96.601913,21.1532307 96.838913,19.3422307 95.836913,18.3662307 L95.836913,18.3662307 C94.826913,17.3902307 92.027913,17.0202307 91.058913,16.8992307 C90.8493842,19.414978 90.1448962,21.8645437 88.985913,24.1072307 C88.1494966,25.6923897 86.5596229,26.7388459 84.772913,26.8802307 L83.997913,33.1282307 Z" id="路径_9788" fill="#231F20"></path>
                    <path d="M95.914913,28.6992307 C95.4335041,28.963022 94.8617006,29.0063215 94.346058,28.8180315 C93.8304155,28.6297416 93.4210607,28.2281661 93.222913,27.7162307" id="路径_9789" fill="#FFFFFF"></path>
                    <path d="M94.899913,29.2642307 C94.6494982,29.2665554 94.4007599,29.2231787 94.165913,29.1362307 C93.5908227,28.9017064 93.1445103,28.4309834 92.940913,27.8442307 C92.8921488,27.7330743 92.9073275,27.6042353 92.9805891,27.5074549 C93.0538507,27.4106746 93.1737328,27.3610949 93.2939523,27.3778572 C93.4141718,27.3946196 93.5159194,27.4751013 93.559913,27.5882307 C93.7007917,27.9934009 94.0062098,28.3202454 94.400913,28.4882307 C94.8483661,28.6111466 95.3247835,28.5729199 95.746913,28.3802307 C95.9104079,28.3102591 96.1001098,28.3798026 96.1796417,28.5388664 C96.2591736,28.6979301 96.2009873,28.8914178 96.046913,28.9802307 C95.6871316,29.1544954 95.2953416,29.2528684 94.895913,29.2692307 L94.899913,29.2642307 Z" id="路径_9790" fill="#231F20"></path>
                    <path d="M91.629913,23.8262307 C91.6160699,23.247607 91.4430729,22.6839831 91.129913,22.1972307 C90.9382217,21.7896089 90.6864149,21.4130785 90.382913,21.0802307 C90.076156,20.7463976 89.6354821,20.5682919 89.182913,20.5952307 C88.7798146,20.6694227 88.4287942,20.9149911 88.220913,21.2682307 C88.0099382,21.6044703 87.8785946,21.9844775 87.836913,22.3792307 C87.6064642,24.1328559 88.3311332,25.8758756 89.736913,26.9492307 L89.622913,26.8012307" id="路径_9791" fill="#FFFFFF"></path>
                    <path d="M89.724913,27.2512307 C89.6525404,27.2524625 89.5819386,27.2288109 89.524913,27.1842307 C88.0347006,26.0276028 87.2668626,24.1694271 87.505913,22.2982307 C87.5571803,21.8526564 87.7090005,21.4245507 87.949913,21.0462307 C88.215434,20.6219348 88.6544436,20.3362127 89.149913,20.2652307 C89.707748,20.2226651 90.2547426,20.4356509 90.636913,20.8442307 C90.9608944,21.1995751 91.2304836,21.6009261 91.436913,22.0352307 C91.7833364,22.5787417 91.9720136,23.207781 91.981913,23.8522307 C91.9645162,24.0341774 91.8075015,24.1705208 91.624913,24.1622307 C91.5356556,24.156826 91.4522057,24.1161685 91.3929375,24.0492105 C91.3336693,23.9822524 91.3034427,23.8944841 91.308913,23.8052307 C91.2912693,23.286003 91.1280651,22.7821838 90.837913,22.3512307 C90.6652815,21.9767641 90.4385226,21.6297185 90.164913,21.3212307 C89.9292685,21.0586794 89.588356,20.9155622 89.235913,20.9312307 C88.9364707,20.9837395 88.6741354,21.1626376 88.515913,21.4222307 C88.3304244,21.7149531 88.2150906,22.0465807 88.178913,22.3912307 C87.9898806,23.9029769 88.5532258,25.4114571 89.686913,26.4292307 C89.7691679,26.4422686 89.8436496,26.4853896 89.895913,26.5502307 L90.009913,26.7052307 C90.1201785,26.8300304 90.1201785,27.017431 90.009913,27.1422307 C89.9371944,27.2211461 89.8317334,27.2614803 89.724913,27.2512307 L89.724913,27.2512307 Z" id="路径_9792" fill="#231F20"></path>
                    <path d="M91.218913,31.0752307 C90.129085,30.6182903 89.194332,29.8564597 88.526913,28.8812307 C88.526913,28.8812307 88.358913,32.3942307 91.265913,33.6602307 L91.218913,31.0752307 Z" id="路径_9793" fill="#231F20"></path>
                    <path d="M91.261913,33.9962307 C91.2174154,34.0057397 91.1714107,34.0057397 91.126913,33.9962307 C88.044913,32.6502307 88.178913,29.0432307 88.185913,28.8962307 C88.1937457,28.744207 88.3008378,28.6155335 88.448913,28.5802307 C88.5959356,28.547213 88.7470092,28.6158085 88.818913,28.7482307 C89.4563131,29.6454884 90.3334378,30.3451782 91.349913,30.7672307 C91.4724865,30.8174629 91.5542628,30.9348453 91.558913,31.0672307 L91.598913,33.6582307 C91.6043855,33.7723867 91.5477926,33.8806016 91.450913,33.9412307 C91.3955611,33.9796098 91.3292152,33.9989168 91.261913,33.9962307 L91.261913,33.9962307 Z M88.939913,29.9582307 C89.1123717,31.2433878 89.8345154,32.3902789 90.918913,33.1012307 L90.918913,31.2912307 C90.1887572,30.9615269 89.518066,30.5134984 88.933913,29.9652307 L88.939913,29.9582307 Z" id="路径_9794" fill="#231F20"></path>
                    <ellipse id="椭圆_152" fill="#231F20" transform="translate(95.005648, 21.034576) rotate(-75.463491) translate(-95.005648, -21.034576) " cx="95.005648" cy="21.0345757" rx="1" ry="1"></ellipse>
                    <path d="M85.261913,33.7132307 C85.261913,33.7132307 91.702913,39.1382307 91.635913,44.7782307 C91.568913,50.4182307 81.351913,71.5112307 81.116913,71.7402307 C80.881913,71.9692307 56.974913,63.3882307 56.974913,63.3882307 C56.974913,63.3882307 60.574913,54.3362307 65.003913,48.4402307 C69.607913,42.3212307 79.399913,29.8302307 85.261913,33.7132307 Z" id="路径_9795" fill="#6F42FF"></path>
                    <path d="M120.785913,56.6902307 C117.824913,56.2732307 115.959913,54.6712307 115.744913,51.6962307 C115.354913,46.3962307 113.180913,41.8432307 110.891913,37.1522307 C102.431913,19.7812307 112.439913,-1.2907693 134.198913,0.432230698 C148.951913,1.6032307 158.764913,12.1602307 157.566913,26.5052307 C157.000319,33.4422846 153.718094,39.8752005 148.433913,44.4052307 C144.812913,47.6152307 141.633913,51.0052307 139.650913,55.4902307 C138.371913,58.3772307 136.043913,59.5692307 132.826913,58.8552307 C130.888913,58.4042307 128.916913,58.1422307 126.957913,57.7982307 C124.917913,57.4242307 122.851913,56.9802307 120.785913,56.6902307 Z" id="路径_9796" fill="#FFFFFF"></path>
                    <path d="M134.608913,59.3764089 C133.982797,59.3721715 133.359277,59.2953221 132.750913,59.1472307 C131.404913,58.8472307 130.058913,58.6152307 128.712913,58.4002307 C128.106913,58.3002307 127.512913,58.2002307 126.912913,58.1002307 L124.974913,57.7432307 C123.588913,57.4872307 122.161913,57.2182307 120.754913,57.0232307 L120.754913,57.0232307 C117.537913,56.5722307 115.639913,54.6942307 115.424913,51.7232307 C115.034913,46.3792307 112.786913,41.7692307 110.612913,37.3072307 C106.143913,28.1472307 106.628913,17.6752307 111.877913,9.9752307 C116.730913,2.8482307 124.665913,-0.658769302 134.242913,0.102230698 C141.807913,0.702230698 148.328913,3.8102307 152.602913,8.8512307 C156.697527,13.7834762 158.616151,20.1657771 157.919913,26.5382307 C157.317455,33.5501455 153.993114,40.0473474 148.658913,44.6382307 C145.528913,47.4112307 142.049913,50.8902307 139.958913,55.6082307 C139.166329,57.8801945 137.015081,59.395316 134.608913,59.3764089 L134.608913,59.3764089 Z M120.831913,56.3542307 C122.251913,56.5542307 123.691913,56.8182307 125.078913,57.0812307 L127.010913,57.4312307 C127.610913,57.5392307 128.210913,57.6312307 128.810913,57.7312307 C130.156913,57.9532307 131.549913,58.1752307 132.902913,58.4922307 C135.944913,59.1652307 138.111913,58.1352307 139.343913,55.3492307 C141.483913,50.5102307 145.030913,46.9702307 148.214913,44.1432307 C153.451355,39.6834934 156.694603,33.320798 157.226913,26.4632307 C157.912778,20.2680048 156.052174,14.0599753 152.071913,9.2632307 C147.912913,4.3632307 141.552913,1.3412307 134.171913,0.756230698 C124.856913,0.0222306984 117.130913,3.4482307 112.412913,10.3332307 C107.304913,17.8332307 106.839913,28.0472307 111.194913,36.9922307 C113.402913,41.5082307 115.676913,46.1862307 116.080913,51.6572307 C116.280913,54.3492307 117.917913,55.9372307 120.832913,56.3682307 L120.831913,56.3542307 Z" id="路径_9797" fill="#231F20"></path>
                    <rect id="矩形_3314" fill="#FFFFFF" transform="translate(126.469318, 60.756086) rotate(-169.925667) translate(-126.469318, -60.756086) " x="115.827798" y="57.7328016" width="21.2830395" height="6.04656815" rx="3.022"></rect>
                    <path d="M134.339913,65.5002308 C134.166473,65.5002308 133.99329,65.4868975 133.821913,65.4602307 L117.998913,62.6532307 C117.228537,62.5213942 116.5437,62.0849009 116.098913,61.4422307 C115.653232,60.8039149 115.478821,60.0149306 115.613913,59.2482307 L115.761913,58.4272307 C116.045239,56.8291732 117.569538,55.7627007 119.167913,56.0442307 L134.990913,58.8442307 C136.588971,59.1275565 137.655443,60.6518559 137.373913,62.2502307 L137.232913,63.0782307 C136.976558,64.4762572 135.761234,65.4937185 134.339913,65.5002308 L134.339913,65.5002308 Z M118.651913,56.6702307 C117.555393,56.6754582 116.618626,57.4621241 116.423913,58.5412307 L116.282913,59.3622307 C116.175111,59.9551443 116.308467,60.5665603 116.653374,61.0607333 C116.998282,61.5549062 117.526197,61.8909406 118.119913,61.9942307 L118.119913,61.9942307 L133.908913,64.8272307 C134.500764,64.9329758 135.11036,64.7986426 135.602946,64.4539264 C136.095532,64.1092102 136.430539,63.5825008 136.533913,62.9902307 L136.681913,62.1692307 C136.898296,60.9358457 136.077254,59.7594807 134.844913,59.5372307 L119.021913,56.7512307 C118.890718,56.7199148 118.756715,56.7018244 118.621913,56.6972307 L118.651913,56.6702307 Z" id="路径_9798" fill="#231F20"></path>
                    <rect id="矩形_3315" fill="#FFFFFF" transform="translate(125.418318, 66.712086) rotate(-169.925667) translate(-125.418318, -66.712086) " x="114.776798" y="63.6888016" width="21.2830395" height="6.04656815" rx="3.022"></rect>
                    <path d="M133.249913,71.4842307 C133.078454,71.4852307 132.907305,71.4695298 132.738913,71.4372307 L116.915913,68.6372307 C116.147743,68.4997118 115.464919,68.0645014 115.015913,67.4262307 C114.565219,66.7878499 114.390418,65.9949419 114.530913,65.2262307 L114.671913,64.4052307 C114.807916,63.6365351 115.243948,62.9534464 115.883944,62.5064621 C116.52394,62.0594778 117.315387,61.8852739 118.083913,62.0222307 L133.906913,64.8292307 C135.505497,65.1159795 136.571052,66.6416508 136.289913,68.2412307 L136.141913,69.0622307 C135.888492,70.4625235 134.670949,71.4819111 133.247913,71.4852307 L133.249913,71.4842307 Z M117.567913,62.6472307 C116.471393,62.6524582 115.534626,63.4391241 115.339913,64.5182307 L115.191913,65.3462307 C114.979801,66.5771568 115.799793,67.7488926 117.028913,67.9712307 L117.028913,67.9712307 L132.851913,70.7782307 C134.084403,70.9905865 135.258191,70.1713433 135.483913,68.9412307 L135.624913,68.1132307 C135.730658,67.5213794 135.596325,66.9117833 135.251609,66.4191976 C134.906893,65.9266118 134.380183,65.5916043 133.787913,65.4882307 L117.964913,62.6812307 C117.832635,62.6597693 117.698916,62.6484032 117.564913,62.6472307 L117.567913,62.6472307 Z" id="路径_9799" fill="#231F20"></path>
                    <path d="M116.759913,68.2662307 C116.359913,70.5072307 119.673913,72.9772307 124.159913,73.7662307 C128.645913,74.5552307 132.606913,73.3892307 133.003913,71.1412307 L116.759913,68.2662307 Z" id="路径_9800" fill="#FFFFFF"></path>
                    <path d="M126.935913,74.3572307 C125.981098,74.3528959 125.028483,74.2652299 124.088913,74.0952307 C122.050419,73.7779856 120.110425,73.0025351 118.414913,71.8272307 C116.906913,70.7102307 116.193913,69.4272307 116.395913,68.2062307 C116.430314,68.0248943 116.604184,67.904969 116.785913,67.9372307 L133.039913,70.8112307 C133.126345,70.8305124 133.202784,70.880642 133.254913,70.9522307 C133.305521,71.024655 133.324972,71.1143485 133.308913,71.2012307 C132.993913,73.1522307 130.372913,74.3572307 126.935913,74.3572307 Z M117.048913,68.6632307 C117.203581,69.7620446 117.853265,70.7293852 118.811913,71.2882307 C120.423154,72.3980547 122.263111,73.1317818 124.195913,73.4352307 C128.186913,74.1422307 131.861913,73.2202307 132.554913,71.4162307 L117.048913,68.6632307 Z" id="路径_9801" fill="#231F20"></path>
                    <path d="M131.149913,55.4052307 C131.741913,48.9982307 132.273913,42.3822307 134.972913,36.4532307 C136.143913,33.8822307 137.947913,30.5302307 140.195913,28.7402307 C141.267637,28.0188623 142.589542,27.7717299 143.849493,28.0571876 C145.109445,28.3426454 146.195753,29.1353887 146.851913,30.2482307 C147.529092,31.8379299 147.346116,33.6635462 146.366913,35.0872307 C145.378054,36.4782473 144.03825,37.5823865 142.483913,38.2872307 C135.855351,41.4934576 127.960834,40.4994929 122.333913,35.7502307 C120.518437,34.2573141 119.170547,32.2738365 118.450913,30.0362307 C117.749372,27.7665862 118.180125,25.2981268 119.608913,23.4002307 C121.250913,21.3812307 123.308913,23.2322307 124.319913,24.8602307 C126.533913,28.3602307 126.129913,33.3872307 125.894913,37.3312307 C125.504281,42.9211393 124.372715,48.4343734 122.529913,53.7262307" id="路径_9802" fill="#FFFFFF"></path>
                    <path d="M131.153913,55.7552307 L131.153913,55.7552307 C130.96952,55.7377761 130.832289,55.5770831 130.843913,55.3922307 L130.904913,54.7862307 C131.18676,49.9519038 131.944083,45.1570909 133.165913,40.4712307 C130.746538,40.3116348 128.3789,39.697589 126.186913,38.6612307 C125.712368,43.8390155 124.609598,48.9398283 122.902913,53.8512307 C122.84233,54.0249612 122.653603,54.1179898 122.478913,54.0602307 C122.305042,53.9995334 122.210133,53.8123643 122.263913,53.6362307 C123.986893,48.6919176 125.088017,43.5524428 125.541913,38.3362307 C124.335086,37.6935499 123.206028,36.9144495 122.176913,36.0142307 C120.311402,34.4824104 118.927974,32.4444244 118.192913,30.1452307 C117.461706,27.7708023 117.914767,25.1896926 119.410913,23.2062307 C119.871325,22.5527106 120.631052,22.1764218 121.429913,22.2062307 C123.064913,22.3062307 124.343913,24.1382307 124.700913,24.6962307 C126.874913,28.1492307 126.585913,32.9882307 126.349913,36.8712307 L126.349913,37.9352307 C128.573488,39.0317419 130.995525,39.6681177 133.470913,39.8062307 C133.84776,38.6177603 134.297274,37.4535669 134.816913,36.3202307 C136.516913,32.5712307 138.309913,29.9332307 140.133913,28.4862307 C141.252634,27.6896223 142.658994,27.4103655 143.997201,27.719109 C145.335408,28.0278525 146.477271,28.8950208 147.133913,30.1012307 C147.878476,31.7961524 147.689139,33.7561681 146.633913,35.2772307 C145.611093,36.7265206 144.216023,37.8728409 142.595913,38.5952307 C139.864041,39.9544792 136.835181,40.6076954 133.785913,40.4952307 C132.542843,45.1867818 131.776295,49.9917815 131.497913,54.8372307 L131.443913,55.4432307 C131.436297,55.604048 131.313745,55.7358961 131.153913,55.7552307 Z M134.030913,39.8352307 C136.90775,39.9105781 139.759227,39.2798539 142.335913,37.9982307 C143.838029,37.3235494 145.132403,36.2594623 146.084913,34.9162307 C147.000009,33.5913002 147.175003,31.8907574 146.548913,30.4072307 C145.936654,29.3854228 144.933064,28.6585353 143.771285,28.3954306 C142.609507,28.1323259 141.390667,28.3559058 140.397913,29.0142307 C138.661913,30.3602307 136.938913,32.9512307 135.275913,36.6062307 C134.798986,37.6576523 134.383291,38.7357871 134.030913,39.8352307 L134.030913,39.8352307 Z M121.242913,22.8712307 C120.700124,22.9011209 120.20236,23.1825463 119.896913,23.6322307 C118.54239,25.4477368 118.137301,27.8013421 118.806913,29.9652307 C119.511581,32.137381 120.824074,34.0620459 122.588913,35.5112307 C123.509875,36.3158531 124.515819,37.0176664 125.588913,37.6042307 L125.588913,37.3282307 L125.622913,36.8282307 C125.851913,33.0392307 126.133913,28.3212307 124.067913,25.0572307 C123.428913,24.0412307 122.367913,22.9372307 121.328913,22.8762307 L121.242913,22.8712307 Z" id="路径_9803" fill="#D1D3D4"></path>
                    <path d="M116.073913,47.3282307 L119.647913,44.3402307 C120.778913,43.4112307 121.875913,40.8542307 122.898913,40.8671813 C123.921913,40.8802307 122.090913,43.9092307 122.090913,43.9092307 C122.090913,43.9092307 125.890913,40.9952307 127.084913,40.9092307 C128.278913,40.8232307 128.921913,42.8202307 128.625913,43.4402307 C128.329913,44.0602307 125.113913,45.5672307 123.913913,46.7672307 C122.287673,48.1516523 120.584994,49.4436851 118.813913,50.6372307" id="路径_9804" fill="#FFFFFF"></path>
                    <path d="M118.818913,50.9692307 C118.672687,50.9676652 118.544264,50.8717031 118.501323,50.7319153 C118.458381,50.5921274 118.510783,50.440618 118.630913,50.3572307 C120.382912,49.1746178 122.068153,47.895998 123.678913,46.5272307 C124.545731,45.7839705 125.483583,45.1278091 126.478913,44.5682307 C127.140098,44.2156262 127.757649,43.7866966 128.318913,43.2902307 C128.403123,42.7499118 128.264559,42.1985441 127.934913,41.7622307 C127.77087,41.4501511 127.452256,41.249825 127.099913,41.2372307 C126.305913,41.2912307 123.734913,43.0682307 122.294913,44.1712307 C122.169186,44.2727645 121.98964,44.2727645 121.863913,44.1712307 C121.742148,44.0640915 121.716289,43.8843505 121.802913,43.7472307 C122.35012,42.9839414 122.712014,42.1036849 122.859913,41.1762307 C122.459913,41.1762307 121.796913,42.1522307 121.259913,42.9062307 C120.862696,43.5313862 120.390154,44.1053551 119.852913,44.6152307 L116.285913,47.5972307 L115.848913,47.0852307 L119.422913,44.0972307 C119.912685,43.6229216 120.344072,43.0918291 120.707913,42.5152307 C121.420913,41.4992307 122.093913,40.5432307 122.881913,40.5432307 L122.881913,40.5432307 C123.109893,40.5331832 123.323837,40.6533328 123.433913,40.8532307 C123.662913,41.2532307 123.433913,42.0382307 123.076913,42.7712307 C124.328913,41.8712307 126.199913,40.6442307 127.040913,40.5842307 C127.633984,40.5704967 128.186845,40.8830167 128.480913,41.3982307 C128.951775,42.0278135 129.110403,42.8375158 128.911913,43.5982307 C128.736913,43.9752307 128.036913,44.4122307 126.811913,45.1592307 C125.855032,45.6875118 124.953234,46.3099265 124.119913,47.0172307 C122.481716,48.4142585 120.764909,49.7163874 118.977913,50.9172307 C118.929895,50.9471614 118.875337,50.9650044 118.818913,50.9692307 L118.818913,50.9692307 Z" id="路径_9805" fill="#231F20"></path>
                    <path d="M88.025913,38.4632307 C88.225913,38.7052307 97.725913,53.8692307 97.725913,53.8692307 L116.637913,44.7832307 L121.254913,50.1132307 C121.254913,50.1132307 105.317913,62.1332307 99.125913,64.1522307 C92.933913,66.1712307 78.604913,43.9952307 78.793913,41.5522307 C78.982913,39.1092307 85.296913,35.0852307 88.025913,38.4632307 Z" id="路径_9806" fill="#6F42FF"></path>
                    <path d="M97.727913,54.2072307 C97.6126813,54.2097576 97.5048345,54.1506896 97.444913,54.0522307 L88.844913,40.3632307 C88.7631691,40.2084772 88.8134917,40.0169057 88.960737,39.9223038 C89.1079824,39.827702 89.3031379,39.8615592 89.409913,40.0002307 C89.517913,40.1622307 96.664913,51.5422307 97.849913,53.4612307 L107.823913,48.2452307 C107.931093,48.1898545 108.059674,48.1958645 108.161221,48.2609967 C108.262768,48.326129 108.321853,48.4404883 108.316221,48.5609968 C108.310588,48.6815052 108.241093,48.7898545 108.133913,48.8452307 L97.883913,54.2292307 C97.8308856,54.2354993 97.7771387,54.2279196 97.727913,54.2072307 L97.727913,54.2072307 Z" id="路径_9807" fill="#231F20"></path>
                    <path d="M98.669913,64.2442307 C94.685913,64.2442307 90.384913,60.8792307 85.881913,54.1962307 C85.7796398,54.0436952 85.8183286,53.8373553 85.968913,53.7322307 C86.123519,53.6286618 86.3325078,53.6672649 86.439913,53.8192307 C91.352913,61.0682307 95.929913,64.3052307 100.014913,63.4302307 C104.099913,62.5552307 112.391913,56.0672307 112.472913,56.0302307 C112.567808,55.9540328 112.696341,55.9347338 112.80943,55.9797033 C112.922518,56.0246728 113.0027,56.1269666 113.019356,56.247523 C113.036012,56.3680793 112.986572,56.4882821 112.889913,56.5622307 C112.546913,56.8312307 104.463913,63.2052307 100.155913,64.1202307 C99.6660943,64.2148374 99.167694,64.2577394 98.668913,64.2482307 L98.669913,64.2442307 Z" id="路径_9808" fill="#231F20"></path>
                    <path d="M91.433913,35.2142307 L90.982913,36.5602307 L92.093913,38.0072307 C92.093913,38.0072307 89.919913,49.2472307 73.093913,40.2822307 L67.709913,42.2202307 L70.909913,46.5812307 C70.909913,46.5812307 91.100913,54.3482307 92.655913,38.1342307 L92.938913,36.3242307 L91.433913,35.2142307 Z" id="路径_9809" fill="#231F20"></path>
                    <path d="M80.846913,48.7902307 C77.4186626,48.7135749 74.0262374,48.0747503 70.804913,46.8992307 C70.7461622,46.8753418 70.6950065,46.8359381 70.656913,46.7852307 L67.456913,42.4242307 C67.3948462,42.3373839 67.3750256,42.2272692 67.402913,42.1242307 C67.438213,42.0241033 67.5140952,41.9435012 67.611913,41.9022307 L72.995913,39.9642307 C73.0818393,39.9276031 73.1789868,39.9276031 73.264913,39.9642307 C79.584913,43.3292307 84.517913,44.2382307 87.929913,42.6562307 C89.785658,41.7379615 91.163308,40.073801 91.718913,38.0792307 L90.708913,36.7332307 C90.6408137,36.6451601 90.6206037,36.5291402 90.654913,36.4232307 L91.105913,35.0772307 C91.1401649,34.9759789 91.2196612,34.8964825 91.320913,34.8622307 C91.4239113,34.8334527 91.5344145,34.8533432 91.620913,34.9162307 L93.141913,36.0472307 C93.2410695,36.122911 93.2903124,36.2471723 93.269913,36.3702307 L92.986913,38.1802307 C92.586913,42.2802307 90.967913,45.2472307 88.160913,46.9802307 C85.936477,48.2465017 83.405178,48.8729237 80.846913,48.7902307 Z M71.134913,46.3072307 C72.177913,46.6842307 81.902913,50.0762307 87.825913,46.4212307 C90.342913,44.8662307 91.863913,42.2152307 92.287913,38.5402307 C91.6519285,40.6017473 90.1899083,42.3074375 88.249913,43.2512307 C84.655913,44.9512307 79.560913,44.0862307 73.106913,40.6512307 L68.274913,42.3902307 L71.134913,46.3072307 Z M91.325913,36.4812307 L92.325913,37.7872307 L92.325913,37.8272307 L92.534913,36.4812307 L91.551913,35.7472307 L91.325913,36.4812307 Z" id="路径_9810" fill="#231F20"></path>
                    <path d="M25.203913,84.4932307 C25.203913,84.4932307 19.003913,82.0842307 18.661913,82.3122307 C18.319913,82.5402307 11.177913,93.3232307 12.523913,93.4982307 C13.869913,93.6732307 22.329913,89.8032307 22.329913,89.8032307 L25.203913,84.4932307 Z" id="路径_9811" fill="#231F20"></path>
                    <path d="M12.595913,93.8342307 L12.481913,93.8342307 C12.2573064,93.8118734 12.0739746,93.6448017 12.030913,93.4232307 C11.630913,91.7232307 18.397913,82.0892307 18.471913,82.0422307 C18.545913,81.9952307 18.971913,81.7122307 25.322913,84.1822307 C25.4101979,84.220518 25.4780928,84.2927467 25.510913,84.3822307 C25.5512332,84.469813 25.5512332,84.5706484 25.510913,84.6582307 L22.616913,89.9582307 C22.5813186,90.022039 22.527297,90.0736209 22.461913,90.1062307 C21.620913,90.4962307 14.284913,93.8342307 12.595913,93.8342307 Z M18.807913,82.6342307 C18.497913,83.0182307 16.956913,85.2792307 15.442913,87.7092307 C12.999913,91.7002307 12.683913,92.8642307 12.656913,93.1672307 C13.847913,93.1132307 18.942913,90.9732307 22.078913,89.5462307 L24.710913,84.6672307 C22.7857766,83.8745533 20.8157127,83.195716 18.810913,82.6342307 L18.807913,82.6342307 Z" id="路径_9812" fill="#231F20"></path>
                    <path d="M64.344913,16.9002307 C64.344913,16.9002307 52.566913,15.2782307 49.404913,8.3732307 L41.374913,18.8662307 C41.374913,18.8662307 47.223913,29.7022307 57.527913,28.2882307 L64.344913,16.9002307 Z" id="路径_9813" fill="#FFFFFF"></path>
                    <path d="M55.715913,28.7532307 C46.447913,28.7532307 41.131913,19.1292307 41.077913,19.0212307 C41.0069276,18.9106417 41.0069276,18.7688197 41.077913,18.6582307 L49.133913,8.1652307 C49.2073539,8.07175489 49.3240658,8.02312016 49.4421529,8.03678481 C49.56024,8.05044947 49.6627606,8.12445307 49.712913,8.2322307 C52.754913,14.8882307 64.270913,16.5512307 64.384913,16.5712307 C64.4964903,16.5821885 64.5939078,16.6514463 64.640913,16.7532307 C64.6947797,16.8541599 64.6947797,16.9753015 64.640913,17.0762307 L57.815913,28.4842307 C57.7639462,28.5720965 57.6749524,28.6316708 57.573913,28.6462307 C56.9574574,28.7211592 56.3368984,28.7572304 55.715913,28.7544034 L55.715913,28.7532307 Z M41.773913,18.8862307 C42.601913,20.2992307 48.200913,29.1092307 57.320913,27.9862307 L63.788913,17.1572307 C61.533913,16.7672307 52.461913,14.8752307 49.338913,9.0072307 L41.773913,18.8862307 Z" id="路径_9814" fill="#D1D3D4"></path>
                    <path d="M22.242913,57.3092307 C22.242913,57.3092307 11.063913,51.1642307 0.328913047,58.2982307 L4.68691305,72.9742307 C4.68691305,72.9742307 14.573913,65.5742307 22.245913,67.5292307 L22.242913,57.3092307 Z" id="路径_9815" fill="#FFFFFF"></path>
                    <path d="M4.68791305,73.3072307 C4.65220947,73.3137641 4.61561663,73.3137641 4.57991305,73.3072307 C4.47653973,73.2723899 4.39642506,73.1896669 4.36491305,73.0852307 L0.016913047,58.4172307 C-0.0308114148,58.2754645 0.0250460476,58.1194774 0.151913047,58.0402307 C10.919913,50.8792307 22.294913,56.9772307 22.408913,57.0402307 C22.5169944,57.0959444 22.5846282,57.2076368 22.5839187,57.3292307 L22.5839187,67.5172307 C22.5816621,67.6206938 22.5318597,67.7173474 22.448913,67.7792307 C22.3680628,67.8449988 22.260446,67.8677138 22.159913,67.8402307 C14.759913,65.9402307 4.98391305,73.1572307 4.88991305,73.2242307 C4.83235864,73.2697916 4.76295134,73.2979016 4.68991305,73.3052307 L4.68791305,73.3072307 Z M0.730913047,58.4402307 L4.87591305,72.4172307 C6.77591305,71.0712307 15.024913,65.6332307 21.909913,67.1002307 L21.909913,57.5172307 C20.462913,56.7972307 10.380913,52.1872307 0.729913047,58.4392307 L0.730913047,58.4402307 Z" id="路径_9816" fill="#D1D3D4"></path>
                    <path d="M20.375913,24.9702307 C20.375913,24.9702307 20.308913,23.7702307 23.740913,23.5162307 C25.7907055,23.3730014 27.8198612,24.0022966 29.428913,25.2802307 L20.376913,36.9702307 C20.376913,36.9702307 18.417913,27.5542307 20.375913,24.9702307 Z" id="路径_9817" fill="#FFFFFF"></path>
                    <path d="M20.375913,37.3072308 L20.301913,37.3072308 C20.1732091,37.2805004 20.0726433,37.1799347 20.045913,37.0512307 C19.964913,36.6612307 18.113913,27.6292307 20.045913,24.8512307 C20.112913,24.4512307 20.590913,23.4172307 23.693913,23.1892307 C25.8334503,23.032173 27.9527539,23.6938075 29.622913,25.0402307 C29.7566765,25.1567348 29.7772264,25.3569872 29.669913,25.4982307 L20.637913,37.1682307 C20.579098,37.2552161 20.4809163,37.3072308 20.375913,37.3072308 L20.375913,37.3072308 Z M24.305913,23.8462307 C24.1197112,23.8363301 23.9331149,23.8363301 23.746913,23.8462307 C21.310913,24.0212307 20.731913,24.7142307 20.711913,24.9632307 C20.7131449,25.0356033 20.6894933,25.1062051 20.644913,25.1632307 C19.103913,27.1822307 20.159913,33.9122307 20.563913,36.1632307 L28.935913,25.3342307 C27.5844863,24.3671814 25.9676389,23.8405711 24.305913,23.8262307 L24.305913,23.8462307 Z" id="路径_9818" fill="#D1D3D4"></path>
                    <path d="M20.376913,24.9702307 L14.876913,36.2102307 C16.4789042,38.8676881 18.7789773,41.034945 21.526913,42.4762307 L26.910913,32.3762307 C26.910913,32.3762307 21.128913,29.8762307 20.376913,24.9702307 Z" id="路径_9819" fill="#FFFFFF"></path>
                    <path d="M21.525913,42.8122307 C21.4695114,42.8118818 21.413995,42.7981741 21.363913,42.7722307 C18.5553694,41.3057234 16.2074001,39.090658 14.579913,36.3722307 C14.5327077,36.2742885 14.5327077,36.1601729 14.579913,36.0622307 L20.079913,24.8222307 C20.1430667,24.6899134 20.2847243,24.613823 20.429913,24.6342307 C20.5772132,24.6540693 20.6930745,24.7699306 20.712913,24.9172307 C21.432913,29.5812307 26.991913,32.0582307 27.052913,32.0852307 C27.1384081,32.1241612 27.2041943,32.1964537 27.234913,32.2852307 C27.2686625,32.3717216 27.2686625,32.4677398 27.234913,32.5542307 L21.850913,42.6542307 C21.7825345,42.76563 21.6557569,42.8272634 21.525913,42.8122307 L21.525913,42.8122307 Z M15.259913,36.1962307 C16.7778899,38.6224084 18.8849061,40.6251918 21.384913,42.0182307 L26.445913,32.5182307 C25.267913,31.9392307 21.370913,29.7592307 20.253913,25.9562307 L15.259913,36.1962307 Z" id="路径_9820" fill="#D1D3D4"></path>
                    <path d="M117.567913,78.0862307 C116.729841,79.6836727 115.411566,80.9778144 113.798913,81.7862307 C110.843913,83.4692307 106.442913,81.7862307 106.442913,81.7862307 L107.542913,91.3862307 C107.542913,91.3862307 111.392913,93.1492307 116.783913,90.7132307 C122.174913,88.2772307 122.389913,85.7662307 122.389913,85.7662307 L117.567913,78.0862307 Z" id="路径_9821" fill="#FFFFFF"></path>
                    <path d="M111.106913,92.3542307 C109.841237,92.3764499 108.583698,92.1477138 107.406913,91.6812307 C107.297988,91.632464 107.222242,91.5305852 107.206913,91.4122307 L106.106913,81.8012307 C106.097529,81.6862466 106.145411,81.5740237 106.234913,81.5012307 C106.329394,81.4295745 106.454184,81.4118013 106.564913,81.4542307 C106.604913,81.4542307 110.851913,83.0692307 113.631913,81.4542307 C115.16223,80.6612446 116.422524,79.431579 117.252913,77.9212307 C117.304158,77.8083087 117.412362,77.7318391 117.535913,77.7212307 C117.662618,77.7059301 117.786452,77.7666715 117.851913,77.8762307 L122.677913,85.5762307 C122.712894,85.6368298 122.729242,85.7063938 122.724913,85.7762307 C122.724913,85.8902307 122.424913,88.5352307 116.916913,91.0052307 C115.098266,91.8630965 113.117494,92.3230037 111.106913,92.3542307 L111.106913,92.3542307 Z M107.855913,91.1542307 C110.757387,92.0444969 113.890172,91.7841775 116.604913,90.4272307 C121.113913,88.3882307 121.881913,86.3222307 121.988913,85.8502307 L117.546913,78.7562307 C116.636187,80.1474769 115.391248,81.2882409 113.925913,82.0742307 C111.435913,83.4942307 108.070913,82.6742307 106.798913,82.2742307 L107.855913,91.1542307 Z" id="路径_9822" fill="#D1D3D4"></path>
                    <path d="M155.580913,51.0842307 C153.137129,52.9115372 151.397233,55.5247366 150.653913,58.4842307 L164.921913,58.6252307 C164.921913,58.6252307 157.626913,51.1182307 155.580913,51.0842307 Z" id="路径_9823" fill="#FFFFFF"></path>
                    <path d="M164.922913,58.9512307 L164.922913,58.9512307 L150.654913,58.8102307 C150.551844,58.8119762 150.454132,58.7644205 150.391913,58.6822307 C150.326076,58.6037674 150.303245,58.4978487 150.330913,58.3992307 C151.077858,55.3544465 152.868743,52.6679426 155.391913,50.8072307 C155.448302,50.7710918 155.513048,50.7500838 155.579913,50.7462307 C157.706913,50.7862307 164.409913,57.6042307 165.163913,58.3782307 C165.258432,58.4753824 165.285548,58.6197074 165.232734,58.7445397 C165.179921,58.8693719 165.057458,58.9504138 164.921913,58.9502307 L164.922913,58.9512307 Z M151.091913,58.1432307 L164.114913,58.2712307 C161.260913,55.4042307 157.094913,51.6352307 155.674913,51.4262307 C153.473249,53.1226722 151.868217,55.4754127 151.091913,58.1442307 L151.091913,58.1432307 Z" id="路径_9824" fill="#D1D3D4"></path>
                    <path d="M173.005913,60.4452307 C173.005913,60.4452307 176.337913,54.1322307 167.500913,49.0042307 L155.581913,51.0842307 C155.581913,51.0842307 166.753913,54.3482307 160.030913,64.9752307 L173.005913,60.4452307 Z" id="路径_9825" fill="#FFFFFF"></path>
                    <path d="M160.028913,65.3122626 C159.905488,65.3139613 159.791868,65.2451959 159.736155,65.1350463 C159.680443,65.0248967 159.69238,64.892626 159.766913,64.7942307 C161.785913,61.6172307 162.351913,58.8112307 161.466913,56.4622307 C160.080913,52.7872307 155.550913,51.4212307 155.510913,51.4082307 C155.327948,51.3952214 155.188989,51.238269 155.198244,51.0550758 C155.207499,50.8718825 155.361569,50.7297341 155.544913,50.7352307 L167.470913,48.6492307 C167.549574,48.6360843 167.630366,48.6501964 167.699913,48.6892307 C172.410913,51.3812307 173.669913,54.4842307 173.925913,56.5892307 C174.111491,57.9495671 173.903269,59.3345924 173.325913,60.5802307 C173.2899,60.6568082 173.224148,60.715335 173.143913,60.7422307 L160.167913,65.2712307 C160.125017,65.2946127 160.077632,65.3085895 160.028913,65.3122626 L160.028913,65.3122626 Z M156.838913,51.1782307 C159.17061,52.1013339 161.047782,53.9013222 162.067913,56.1922307 C162.955913,58.5482307 162.531913,61.2802307 160.802913,64.3222307 L172.762913,60.1492307 C173.162913,59.2672307 175.205913,53.8972307 167.438913,49.3272307 L156.838913,51.1782307 Z" id="路径_9826" fill="#D1D3D4"></path>
                    <path d="M51.946913,51.0632307 C50.0050283,49.7267697 47.6705394,49.0812548 45.317913,49.2302307 C41.528913,49.5462307 40.323913,47.5302307 40.323913,47.5302307 L38.533913,54.6372307 C38.533913,54.6372307 40.552913,57.1372307 42.349913,57.1942307 C44.146913,57.2512307 45.566913,56.1172307 48.474913,57.1942307 L51.946913,51.0632307 Z" id="路径_9827" fill="#FFFFFF"></path>
                    <path d="M42.490913,57.5322307 L42.335913,57.5322307 C40.435913,57.4652307 38.364913,54.9612307 38.297913,54.8402307 C38.2286175,54.7568326 38.2036831,54.6451861 38.230913,54.5402307 L40.020913,47.4332307 C40.0511497,47.300304 40.1615858,47.2006715 40.296913,47.1842307 C40.4306158,47.1580643 40.5660365,47.2205352 40.632913,47.3392307 C40.679913,47.4132307 41.803913,49.1762307 45.303913,48.8872307 C47.7404771,48.7208156 50.161238,49.3876268 52.168913,50.7782307 C52.3038916,50.880679 52.3438285,51.066343 52.262913,51.2152307 L48.782913,57.3462307 C48.701727,57.484393 48.5344759,57.5462759 48.382913,57.4942307 C47.0379021,56.9817577 45.5644826,56.9116949 44.176913,57.2942307 C43.6256522,57.4312398 43.0615962,57.510335 42.493913,57.5302307 L42.490913,57.5322307 Z M38.903913,54.5502307 C39.334913,55.0412307 40.976913,56.8112307 42.356913,56.8582307 C42.9171816,56.8538224 43.4749969,56.783676 44.018913,56.6492307 C45.434383,56.270813 46.9299684,56.3177674 48.318913,56.7842307 L51.501913,51.1712307 C49.6695347,50.0013937 47.5139949,49.4413314 45.343913,49.5712307 C42.651913,49.8002307 41.157913,48.8982307 40.491913,48.2252307 L38.903913,54.5502307 Z" id="路径_9828" fill="#D1D3D4"></path>
                </g>
            </g>
        </g>
    </g>
</svg>