<?xml version="1.0" encoding="UTF-8"?>
<svg width="200px" height="200px" viewBox="0 0 200 200" version="1.1" xmlns="http://www.w3.org/2000/svg" xmlns:xlink="http://www.w3.org/1999/xlink">
    <title>编组 10备份 4</title>
    <g id="页面" stroke="none" stroke-width="1" fill="none" fill-rule="evenodd">
        <g id="00插画状态" transform="translate(-2600.000000, -319.000000)">
            <g id="编组-10备份-4" transform="translate(2600.000000, 319.000000)">
                <rect id="矩形" x="0" y="0" width="200" height="200"></rect>
                <g id="编组" transform="translate(4.000000, 24.000000)" fill-rule="nonzero">
                    <path d="M20.2057001,104.351672 C20.2057001,104.351672 19.2036895,113.232961 23.0092962,117.136551 C26.814903,121.04014 39.6848236,121.980218 40.4557432,123.290967 C41.2266628,124.601715 54.0438947,153.80977 54.0438947,153.80977 C56.1468229,155.856312 70.8673203,150.894326 71.2592506,145.980406 C71.2592506,145.980406 59.5817597,121.874841 59.0206707,119.057379 C58.4595817,116.239918 62.9954361,104.09932 62.9177895,98.6289339 L20.2057001,104.351672 Z" id="路径_10144" fill="#E6E7E8"></path>
                    <path d="M62.9353524,98.6354045 C63.0120746,104.103018 58.4771446,116.23622 59.0382336,119.06385 C59.5993226,121.891479 71.2768135,145.986877 71.2768135,145.986877 C70.9329501,150.122482 60.4682248,154.285817 55.9055639,154.285817 C55.2547719,154.35492 54.6007802,154.188306 54.0623819,153.81624 C54.0623819,153.81624 41.2488476,124.606337 40.4742305,123.297437 C39.6996134,121.988538 26.8620456,121.047535 23.0277835,117.143021 C19.1935215,113.238508 20.2241874,104.358142 20.2241874,104.358142 L62.9815706,98.6381776 M62.9815706,97.9375096 L62.8891342,97.9375096 L20.131751,103.657474 C19.8103364,103.697292 19.5580954,103.952208 19.5216707,104.274025 C19.4800743,104.65209 18.5335255,113.53338 22.5498873,117.627388 C25.0734012,120.199893 31.0540365,121.509717 35.4188835,122.463661 C36.9530683,122.721519 38.4581157,123.129903 39.9122172,123.682897 C40.6970022,125.126754 49.9147605,146.052507 53.4338144,154.089852 C53.4728317,154.172554 53.5249602,154.248406 53.5881832,154.314473 C54.2524995,154.82654 55.0877222,155.064703 55.9222024,154.980015 C60.7094838,154.980015 71.6021897,150.66231 71.9950444,146.043263 C72.0047685,145.917757 71.980501,145.791949 71.9247927,145.679064 C68.6895186,138.992214 60.1909156,121.146442 59.742599,118.916876 C59.5041131,117.715203 60.4432669,114.010352 61.3898157,110.463567 C62.4694729,106.25771 63.696104,101.547151 63.6535833,98.6178416 C63.6460315,98.2362988 63.3345328,97.9310391 62.9529153,97.9310391 L62.9815706,97.9375096 Z" id="路径_10145" fill="#231F20"></path>
                    <path d="M57.7200905,104.429318 C56.415281,106.176442 55.6591841,108.271957 55.547835,110.449701 C55.4553986,113.842117 59.7536914,121.027199 59.7536914,121.027199 L69.4262367,114.767406 L64.5197124,103.397728 L57.7200905,104.429318 Z" id="路径_10146" fill="#FFFFFF"></path>
                    <path d="M59.752767,121.363668 L59.6760448,121.363668 C59.5846984,121.337905 59.5052381,121.281007 59.4514243,121.202828 C59.2757952,120.901486 55.098594,113.892033 55.1993497,110.429365 C55.3170232,108.177506 56.1107612,106.01341 57.4769827,104.219488 C57.5312261,104.151849 57.6086239,104.106728 57.6942083,104.09285 L64.4513094,103.048318 C64.608968,103.021912 64.7645074,103.105577 64.8293743,103.251679 L69.7358987,114.621356 C69.8010074,114.779377 69.7452445,114.961381 69.6027903,115.055807 L59.9283962,121.314676 C59.8752034,121.346222 59.814608,121.363125 59.752767,121.363668 Z M57.9447109,104.758392 C56.7279249,106.415977 56.0171231,108.390426 55.8981689,110.443231 C55.8214467,113.303213 59.059494,119.107295 59.8729343,120.518799 L68.9853151,114.624129 L64.2886214,103.773944 L57.9447109,104.758392 Z" id="路径_10147" fill="#231F20"></path>
                    <path d="M122.480111,128.673538 C122.480111,128.673538 90.341822,105.002424 71.5846268,104.841585 C66.8405171,104.853218 62.1028007,105.190479 57.4048823,105.85099 C46.3226818,107.25325 35.2127504,109.761974 27.4813695,110.168695 C12.1443213,110.982135 0.582375806,106.229055 0.32725133,90.2125993 C0.102630867,76.5089024 6.5519188,73.9012714 20.1641037,69.9274304 C26.893474,67.9714761 39.8881837,65.8602286 52.1757549,62.2173099 C59.6631037,60.0163991 66.895328,57.2617942 72.2575638,53.6373628 C86.4447031,44.0692706 96.7901855,22.5925964 96.7901855,22.5925964 L122.480111,128.673538 Z" id="路径_10148" fill="#FFFFFF"></path>
                    <path d="M122.480111,129.046391 C122.405424,129.046391 122.33227,129.024865 122.27028,128.9832 C116.357995,124.722693 110.230621,120.768902 103.91241,117.137475 C90.3843427,109.425506 79.218025,105.265868 71.6132821,105.221498 C66.8731608,105.229752 62.1395005,105.571687 57.4474031,106.244769 C52.8986076,106.826194 48.3775431,107.583248 44.0034524,108.347698 C38.5462573,109.382027 33.0388016,110.130856 27.5035542,110.591129 C17.5435317,111.123563 10.1689553,109.23139 5.61276494,104.983937 C1.97446806,101.591521 0.0822948584,96.6498705 0.00557264275,90.2643637 C-0.225518368,76.2454586 6.73494288,73.5333745 20.0947764,69.6353313 C22.9408933,68.8080255 26.8796085,67.9603837 31.4431938,66.9713142 C37.8009697,65.5690539 45.0063874,64.0484751 52.0999571,61.9594123 C60.8620039,59.3869072 67.4018795,56.5897816 72.0911783,53.4293809 C86.0333611,44.0230524 96.4278348,22.7349485 96.5332123,22.5177229 C96.5964925,22.382056 96.7389832,22.301587 96.8878393,22.3174539 C97.0366954,22.3333207 97.1590226,22.4420171 97.1922839,22.5879746 L122.839689,128.619001 C122.874218,128.760957 122.815278,128.909234 122.692715,128.988747 C122.631664,129.031816 122.5573,129.051799 122.482884,129.045133 L122.480111,129.046391 Z M70.9542105,104.513435 L71.5846268,104.513435 C79.4278557,104.583687 90.4120736,108.62778 104.241484,116.54126 C112.687398,121.377533 119.662649,126.247083 121.912552,127.868417 L96.6774131,23.6593125 C94.5744849,27.7671863 84.9222756,45.5565723 72.4322686,53.9784532 C67.680113,57.1887695 61.0773807,60.013626 52.2524772,62.6073915 C45.134874,64.7103197 37.910969,66.2595538 31.5393276,67.6331588 C26.9905322,68.6148334 23.0647581,69.4624753 20.2399016,70.2823862 C6.85880767,74.1868999 0.431704467,76.667893 0.655400566,90.2236917 C0.760778067,96.3781075 2.57622905,101.151523 6.06662768,104.410831 C10.4823147,108.525175 17.673867,110.354492 27.4453193,109.835924 C32.9547101,109.375218 38.4364759,108.628868 43.8684953,107.599887 C48.2425859,106.899219 52.770121,106.107039 57.3337063,105.496959 C61.8519607,104.870584 66.4058697,104.535888 70.9671516,104.494948 L70.9542105,104.513435 Z" id="路径_10149" fill="#231F20"></path>
                    <path d="M133.681555,131.436463 C121.933812,133.764011 108.446416,118.027638 100.190921,94.2234149 C96.025893,82.1292378 93.5214305,69.5257654 92.7460928,56.7580158 C91.2948413,31.430441 97.7441292,11.6176221 109.554729,9.26973743 C124.159681,6.38202416 141.40554,31.3916177 148.07113,65.1207373 C154.736719,98.849857 148.300372,128.548749 133.681555,131.436463 Z" id="路径_10150" fill="#E6E7E8"></path>
                    <path d="M111.888748,9.04413868 C125.949249,9.04413868 141.755874,33.1700942 148.07113,65.119813 C154.736719,98.8591006 148.29575,128.547825 133.68063,131.435538 C132.912158,131.589416 132.130338,131.66663 131.346611,131.66663 C120.187688,131.66663 107.927848,116.463614 100.189996,94.2224906 C96.0252722,82.1282725 93.5211207,69.5247996 92.7460928,56.7570915 C91.2948413,31.4295167 97.7441292,11.6166977 109.554729,9.26881307 C110.323412,9.11707139 111.105234,9.04183071 111.888748,9.04413868 M111.888748,8.34352466 L111.888748,8.34352466 C111.060538,8.34167593 110.234175,8.42173143 109.42162,8.58201058 C97.5019458,10.9372902 90.4961908,30.3110362 92.048198,56.7996122 C92.8313192,69.6311363 95.3471541,82.2976858 99.5272275,94.4545059 C107.546086,117.487809 120.037017,132.368222 131.350308,132.368222 C132.178732,132.368222 133.005096,132.285711 133.817436,132.123265 C141.177223,130.672014 146.764079,122.814919 149.546415,110.001385 C152.279759,97.3847399 152.007072,81.3960151 148.76163,64.9848558 C145.705682,49.5082286 140.280589,35.2018463 133.480968,24.7158606 C126.681346,14.2298749 118.968452,8.34167593 111.891521,8.34167593 L111.888748,8.34352466 Z" id="路径_10151" fill="#231F20"></path>
                    <path d="M123.945228,85.2580081 L100.189072,94.2243393 C96.0243589,82.1301182 93.5202076,69.5266469 92.7451685,56.7589402 L119.661725,56.3596149 L123.945228,85.2580081 Z" id="路径_10152" fill="#231F20"></path>
                    <path d="M100.188148,94.5728245 C100.137236,94.583415 100.08469,94.583415 100.033779,94.5728245 C99.9470282,94.5330482 99.8802593,94.4596023 99.8489062,94.3694644 C95.6804822,82.2444672 93.1718026,69.611207 92.391137,56.8134777 C92.3851533,56.7179009 92.4185555,56.6240407 92.4835734,56.5537314 C92.5478227,56.4820732 92.6396825,56.4413587 92.7359248,56.4418833 L119.652481,56.0425581 L119.652481,56.0425581 C119.825886,56.0440579 119.972101,56.1721927 119.996345,56.3439007 L124.292789,85.2154873 C124.313361,85.3780845 124.220807,85.5338648 124.068168,85.5935522 L100.306466,94.5598834 C100.267905,94.5717775 100.227485,94.5764775 100.187223,94.5737489 L100.188148,94.5728245 Z M93.1158385,57.1009549 C93.9110708,69.5918015 96.3623634,81.9216233 100.405373,93.7667791 L123.536659,85.0333876 L119.330803,56.7154951 L93.1158385,57.1009549 Z" id="路径_10153" fill="#231F20"></path>
                    <ellipse id="椭圆_172" fill="#FFFFFF" transform="translate(121.749069, 70.826513) rotate(-8.680851) translate(-121.749069, -70.826513) " cx="121.749069" cy="70.8265131" rx="6.80183102" ry="14.6070593"></ellipse>
                    <path d="M123.454391,85.6444965 C119.66912,85.6444965 115.883849,79.8051846 114.678479,71.9055694 C114.068698,68.3631216 114.212004,64.7319503 115.099064,61.2485764 C115.996622,58.1926288 117.552326,56.342052 119.494415,56.0545748 C121.436504,55.7670976 123.469181,57.0501149 125.234716,59.7067371 C127.120278,62.7656891 128.338376,66.1884581 128.809232,69.7508768 L128.809232,69.7508768 C130.077459,78.0359518 127.960665,85.0028836 124.002539,85.6064933 C123.82106,85.6331207 123.637807,85.6457908 123.454391,85.6444965 L123.454391,85.6444965 Z M120.034244,56.7117976 C119.889773,56.6976427 119.744264,56.6976427 119.599793,56.7117976 C117.945181,56.9567541 116.585442,58.6326261 115.772926,61.4149619 C114.913432,64.7994664 114.777363,68.327185 115.3736,71.7678392 C116.558635,79.5324972 120.378107,85.4012845 123.897161,84.8753213 C127.416215,84.3493582 129.308388,77.5857865 128.103018,69.8192798 C127.637391,66.3536889 126.443102,63.0259978 124.598753,60.0552224 C123.180779,57.8792694 121.561293,56.7090245 120.033319,56.7090245 L120.034244,56.7117976 Z" id="路径_10154" fill="#231F20"></path>
                    <path d="M15.2640499,106.664431 C15.1345322,106.665872 15.0151926,106.594411 14.9553123,106.479558 C9.93693993,97.1499515 8.91274457,89.5636958 8.93400495,84.8494391 C8.84199609,82.0768939 9.28126151,79.3123456 10.2281146,76.7048675 C10.2776511,76.5892823 10.3850887,76.5089046 10.5099567,76.4940119 C10.6348247,76.4791191 10.7581527,76.531974 10.8334842,76.6326665 C10.9088156,76.733359 10.924706,76.8665915 10.8751694,76.9821768 C10.8261781,77.0940248 6.12948444,88.596811 15.5783337,106.155106 C15.622243,106.236651 15.6314021,106.33246 15.6037377,106.420847 C15.5760733,106.509233 15.5139248,106.582724 15.4313598,106.624683 C15.3823862,106.652675 15.326929,106.667205 15.2705205,106.667205 L15.2640499,106.664431 Z" id="路径_10155" fill="#D1D3D4"></path>
                    <path d="M56.7245504,16.9512026 C56.7245504,16.9512026 55.5959019,11.5963617 56.5285852,11.5612359 C57.4612685,11.5261101 58.2035329,14.2039927 58.2035329,14.2039927 C58.2035329,14.2039927 60.684526,8.81402596 61.2807408,9.5146939 C61.8769556,10.2153618 62.8299749,12.4024072 62.5748504,13.0688737 C62.319726,13.7353401 60.5560394,18.879426 60.5560394,18.879426 L56.7245504,16.9512026 Z" id="路径_10156" fill="#FFFFFF"></path>
                    <path d="M60.5514175,19.2362306 C60.4977214,19.2388123 60.4443411,19.2266659 60.3970487,19.2011047 L56.5701816,17.2664108 C56.4759813,17.2153959 56.4085374,17.1260327 56.3853088,17.0214543 C56.1542178,15.9205367 55.4461549,12.2554333 56.0765712,11.4493878 C56.1808799,11.3079342 56.342924,11.2204711 56.5184172,11.2109019 L56.553543,11.2109019 C57.345723,11.2109019 57.9558033,12.3608108 58.2710114,13.2509734 C59.1260482,11.4780431 60.3739396,9.21335122 61.0746076,9.11536863 C61.2527401,9.09023538 61.4309967,9.16041515 61.5441845,9.30024144 C62.111744,10.0009094 63.2403925,12.2998028 62.8974535,13.2047552 C62.6451021,13.8564318 60.8999028,18.9524508 60.8786424,19.008837 C60.8448087,19.1026635 60.7739755,19.1785085 60.6826772,19.2186676 C60.642151,19.2323193 60.5997253,19.2394942 60.5569637,19.239928 L60.5514175,19.2362306 Z M57.0471534,16.7127167 L60.3628473,18.3950593 C60.7834329,17.1822936 62.0451898,13.4885349 62.2550205,12.9487063 C62.4232547,12.5207258 61.7290573,10.6775439 61.1125065,9.85763296 C60.0643923,11.2379224 59.1996814,12.7482924 58.5400014,14.3509666 C58.479244,14.4864233 58.3368898,14.5660515 58.1896674,14.5469318 C58.0435098,14.5371613 57.9195872,14.4358712 57.8809298,14.2945804 C57.5795871,13.2084526 56.9981622,12.0169474 56.611778,11.9180404 C56.380687,12.3173657 56.5701816,14.4628146 57.0323636,16.7127167 L57.0471534,16.7127167 Z" id="路径_10157" fill="#231F20"></path>
                    <path d="M28.5674972,29.4633943 C28.5674972,29.4633943 43.9248815,30.6650676 47.1074669,28.9170952 L55.5959019,16.0970903 L62.2263652,19.2232895 C62.2263652,19.2232895 57.5934526,33.0111035 53.8146524,37.0339359 C47.7138497,43.4896943 28.2726251,40.7138291 28.2726251,40.7138291 L28.5674972,29.4633943 Z" id="路径_10158" fill="#6F42FF"></path>
                    <path d="M14.5911129,65.350904 C14.5911129,65.350904 6.17940009,51.5140986 5.85772141,41.8341583 C5.53604272,32.1542181 11.7523909,30.8157389 13.9043104,30.4228842 C16.0562299,30.0300295 27.4259077,27.1284508 32.2483149,31.8251445 C37.0707221,36.5218382 38.9212989,61.4676506 38.9212989,61.4676506 L14.5911129,65.350904 Z" id="路径_10159" fill="#6F42FF"></path>
                    <path d="M38.8159214,56.4770092 C44.0002432,58.1433609 49.0193451,60.2856076 53.8091062,62.8763814 C58.0149626,65.0634268 63.5519032,92.7573735 63.5519032,92.7573735 C63.5519032,92.7573735 63.274594,97.3486897 57.9937022,97.2571777 L40.6239775,67.6913938 C40.6239775,67.6913938 34.4002344,56.862469 38.8159214,56.4770092 Z" id="路径_10160" fill="#231F20"></path>
                    <path d="M58.1471467,97.5797808 L57.9863073,97.5797808 C57.8636345,97.5792008 57.7509991,97.511903 57.6923596,97.4041516 L40.3254079,67.8818127 C40.1405351,67.5527391 35.7553521,59.8564841 37.1825701,57.1157447 C37.4971631,56.5153118 38.109821,56.1299302 38.7872661,56.1063392 C38.8313629,56.099382 38.8762778,56.099382 38.9203745,56.1063392 C44.1283395,57.7753192 49.1689359,59.9273518 53.9764161,62.5343668 C55.819598,63.4873861 58.0491641,68.8431514 60.6068794,78.5092262 C62.492582,85.6379217 63.8874474,92.5845175 63.9013128,92.651996 C63.9051795,92.6826869 63.9051795,92.7137416 63.9013128,92.7444324 C63.896691,92.7998943 63.5380378,97.5797808 58.1471467,97.5797808 Z M38.7872661,56.8060828 C38.369274,56.8257369 37.9931056,57.0657246 37.799121,57.436499 C36.7619845,59.4340497 39.706084,65.3989709 40.9327151,67.52963 L58.1896674,96.8781885 C62.6756061,96.8781885 63.152578,93.2121607 63.2015693,92.7499786 C61.65973,85.0398581 56.9769018,64.8877976 53.6473425,63.1564638 C48.8926558,60.6020389 43.9195908,58.4768239 38.7872661,56.8060828 L38.7872661,56.8060828 Z" id="路径_10161" fill="#231F20"></path>
                    <path d="M13.6796899,62.3374772 C13.6796899,62.3374772 33.3899045,60.5811855 37.9322294,59.3582519 C37.9322294,59.3582519 38.1984462,59.3582519 42.334051,65.2251905 C46.4696557,71.0921291 44.9629423,100.180941 44.9629423,100.180941 C44.9629423,100.180941 41.0584286,105.431329 37.448787,105.172507 L29.4160634,73.1322005 C29.4160634,73.1322005 22.3224938,74.1832024 18.0325202,71.8214523 C15.0181691,70.1529752 14.6401042,65.884262 13.6796899,62.3374772 Z" id="路径_10162" fill="#231F20"></path>
                    <path d="M37.7085333,105.543177 L37.4210561,105.543177 C37.2685071,105.534331 37.140096,105.425878 37.1058479,105.27696 L29.1498466,73.5379963 C27.70599,73.7136255 21.7410688,74.2774876 17.864286,72.1357361 C15.2705205,70.7334758 14.5421216,67.5379493 13.8340587,64.4746069 C13.6796899,63.7739389 13.5188506,63.0723466 13.3432214,62.441006 C13.3140409,62.3406692 13.3320678,62.2325074 13.3922127,62.1470582 C13.4521455,62.0650108 13.543628,62.0117298 13.6445641,62.0000843 C13.8405293,62.0000843 33.3834339,60.2336246 37.8407173,59.0282539 C37.8822933,59.0208331 37.9248549,59.0208331 37.9664308,59.0282539 C38.1346651,59.0282539 38.3944114,59.0707747 42.6132089,65.0421664 C46.8320064,71.0135581 45.3752087,99.0236374 45.3114275,100.215143 C45.3055107,100.282067 45.281197,100.346051 45.2411759,100.400015 C45.0821853,100.636653 41.3810316,105.543177 37.7085333,105.543177 Z M29.4160634,72.7883371 C29.5785544,72.7865871 29.720919,72.8968049 29.7599269,73.0545539 L37.7223987,104.842509 C40.7922117,104.842509 44.121771,100.699509 44.6200032,100.061698 C44.7124396,98.1057439 45.9381464,70.9377603 42.0474981,65.4350211 C39.0470124,61.1940389 38.1078585,60.0515249 37.8416417,59.7501822 C33.3483081,60.8788307 17.0305096,62.3929391 14.1354014,62.6591559 C14.2759048,63.1989845 14.4016183,63.7526786 14.5347267,64.3137675 C15.2353946,67.2301361 15.9369869,70.2435629 18.21462,71.5238071 C22.3502247,73.8014401 29.3069885,72.8068244 29.3809376,72.7929589 L29.4160634,72.7883371 Z" id="路径_10163" fill="#231F20"></path>
                    <path d="M18.958733,23.0566271 C18.608399,22.9863755 18.1878134,20.253031 18.1175617,19.9581589 C17.6580705,18.389904 17.5151015,16.7459174 17.6969761,15.1218862 C17.7503983,14.1487424 18.0339307,13.2021562 18.5242819,12.3598864 C19.047297,11.5058523 20.0917659,11.1275105 21.0404008,11.4484635 C21.2919521,11.6295648 21.5869514,11.7408672 21.8954376,11.7710665 C22.1201363,11.7206071 22.3264891,11.6089526 22.4916524,11.4484635 C23.9634414,10.2466688 25.8629482,9.69956273 27.7485107,9.93435518 C29.6460087,10.20777 31.2328295,11.5161575 31.8628551,13.3267712 C31.7926034,12.9570256 32.3185665,12.7028255 32.6615056,12.8710597 C32.9792607,13.0809623 33.2047838,13.4043664 33.2919219,13.7750878 C33.7403359,14.816563 33.8096742,15.9822316 33.4878871,17.0695212 C33.0321756,18.1843043 31.8129394,18.2332956 30.6842909,18.2332956 C27.467504,18.2480854 22.4001403,23.7711606 18.958733,23.0566271 Z" id="路径_10164" fill="#FFFFFF"></path>
                    <path d="M19.6030147,23.4661213 C19.3676924,23.4662886 19.1329515,23.4427526 18.9023468,23.3958688 L18.9023468,23.3958688 C18.516887,23.3191465 18.2996614,22.8495696 17.8578154,20.3963074 C17.8533881,20.2720034 17.8296886,20.1491404 17.7875638,20.032108 C17.325033,18.4235618 17.1846182,16.7395261 17.374373,15.0765924 C17.4391653,14.0505993 17.7440768,13.0541752 18.2645356,12.1676187 C18.875926,11.1720661 20.1017817,10.7418397 21.2012402,11.1369528 C21.2835335,11.1733198 21.3632182,11.2153241 21.4397261,11.2626663 C21.5685428,11.3522879 21.7180553,11.4076393 21.8741772,11.4235057 C22.0208369,11.3769899 22.1551192,11.2980003 22.2670319,11.1924146 C23.8161012,9.91696788 25.8224236,9.33647192 27.8132162,9.58771866 C29.5987785,9.8608402 31.1434183,10.9774266 31.9626864,12.58728 C32.2347714,12.4542399 32.5530331,12.4542399 32.825118,12.58728 C33.2358023,12.8310486 33.529505,13.2315523 33.6385584,13.6965168 C34.1232482,14.8109613 34.1889039,16.0630157 33.8234312,17.2220413 C33.2558717,18.6243016 31.720503,18.6243016 30.7184924,18.6243016 C29.3162321,18.6243016 27.4517898,19.7880759 25.6298683,20.9167244 C23.5777801,22.1313387 21.4535916,23.4661213 19.6030147,23.4661213 Z M19.1195723,22.7654525 C20.8435113,23.0594002 23.0943377,21.6645349 25.2739882,20.3195852 C27.2576734,19.0855592 29.1359811,17.9291798 30.7203411,17.9227092 C31.8554602,17.9227092 32.8232693,17.845987 33.1809982,16.9761605 C33.4710816,15.9695571 33.3991225,14.8931142 32.9776381,13.9340784 C32.9158756,13.6529258 32.7538882,13.4038662 32.5219266,13.2334105 C32.4528116,13.2025251 32.3738161,13.2025251 32.3047011,13.2334105 C32.2698785,13.2432896 32.2399261,13.2656716 32.2205839,13.2962672 C32.2517305,13.4805708 32.1357359,13.6577847 31.9543671,13.7029874 C31.7754241,13.7440378 31.5951417,13.6399822 31.5411764,13.4645015 C30.9575177,11.776058 29.4762291,10.5576017 27.7069143,10.3105713 C25.9166287,10.0845631 24.1126705,10.6099229 22.7236678,11.7618229 C22.5056697,11.9646877 22.2326911,12.0987655 21.9388827,12.1472827 C21.6426564,12.1555883 21.3514141,12.0698336 21.106955,11.9023262 L20.9109899,11.7969487 C20.1111013,11.5404461 19.2399094,11.8686269 18.8080617,12.5891287 C18.3567188,13.3909886 18.0931332,14.2847779 18.0371421,15.2032302 C17.861281,16.7802927 17.999514,18.3765698 18.4438622,19.8999239 C18.4427352,20.0362024 18.4665442,20.1715377 18.5141139,20.2992492 C18.625746,21.1280995 18.8230758,21.9431304 19.1029338,22.731251 L19.1195723,22.7654525 Z" id="路径_10165" fill="#231F20"></path>
                    <path d="M28.820773,28.3421408 L28.5822871,33.5574027 C27.677497,35.2567335 25.6528767,36.0216516 23.8504675,35.3451228 C20.4793119,34.3144568 20.1779692,31.8408587 20.1779692,31.8408587 L20.7806545,22.1886493 C20.7806545,22.1886493 23.633242,20.674541 24.4956736,14.6818889 C24.4956736,14.6818889 31.9395773,14.3731513 31.7852085,17.1980078 C31.7852085,17.1980078 32.4858764,22.3994043 32.002434,25.0347662 C31.6311691,26.6386383 30.4090618,27.9090334 28.820773,28.3421408 Z" id="路径_10166" fill="#FFFFFF"></path>
                    <path d="M25.2665932,35.9191528 C24.7528826,35.914866 24.242641,35.8344983 23.7524849,35.6806669 C20.1983052,34.5945391 19.8415007,31.9933787 19.8276352,31.8907743 L20.4303206,22.1757082 C20.4365857,22.0538723 20.5069362,21.9444772 20.6151934,21.888231 C20.6151934,21.888231 23.3208069,20.3528623 24.1194575,14.6402925 C24.1460015,14.4727858 24.2865175,14.3469391 24.455926,14.3389498 C24.6731515,14.3389498 29.8884135,14.1291192 31.5633611,15.8317978 C31.9454183,16.194392 32.145733,16.7085668 32.1096603,17.234058 C32.1096603,17.3884268 32.8103282,22.4557905 32.3194909,25.1262782 C31.9678895,26.7826703 30.7518985,28.1215672 29.1369055,28.6305423 L28.8984196,33.6073184 C28.9057462,33.6513854 28.9057462,33.6963598 28.8984196,33.7404268 C28.1675766,35.0700376 26.7772592,35.9029564 25.2601227,35.9200772 L25.2665932,35.9191528 Z M21.117123,22.4003287 L20.5005722,31.8704383 C20.5005722,31.8704383 20.8296458,34.0639542 23.9281141,35.0132761 C25.5384529,35.6442497 27.3671017,34.9848925 28.2042222,33.4714368 L28.4427081,28.3338215 C28.4480914,28.2241468 28.5019437,28.1225388 28.589682,28.0565123 C28.6361186,28.0300291 28.6854299,28.00894 28.7366559,27.9936555 C30.1781816,27.5903343 31.2869226,26.4359268 31.6317641,24.9793044 C32.101341,22.4280596 31.4219334,17.2691839 31.4145385,17.2691839 C31.442915,16.9240279 31.3142207,16.584465 31.0642045,16.3448198 C29.9290855,15.194911 26.3675108,15.0202061 24.7554199,15.0507102 C24.0048363,20.1273175 21.7687997,21.9631045 21.117123,22.4003287 Z" id="路径_10167" fill="#231F20"></path>
                    <path d="M22.7994656,22.1313387 C22.7013138,21.6547674 22.4562751,21.220939 22.0987977,20.8908422 C21.7545465,20.5914194 21.3607244,20.3543128 20.9350233,20.1901742 C20.7175018,20.080073 20.4780919,20.0200626 20.2343554,20.0145451 C20.0600829,20.0279536 19.8906112,20.0780391 19.7370475,20.161519 C19.3561797,20.3210538 19.0452271,20.6119979 18.8607504,20.9814299 C18.7474968,21.29297 18.7138175,21.6278567 18.7627678,21.9557096 C18.7819427,22.3130944 18.8478243,22.6664309 18.958733,23.0067115 C19.2036397,23.6901688 19.7122611,24.2469522 20.3708338,24.5525257 C21.0294064,24.8580993 21.7829781,24.8869655 22.4629971,24.6326678" id="路径_10168" fill="#FFFFFF"></path>
                    <path d="M21.5164483,25.2011517 C21.0700006,25.2043567 20.6282728,25.1097007 20.2223387,24.9238425 C19.4834224,24.5732589 18.9113193,23.9470649 18.628735,23.1795676 C18.5021891,22.8104426 18.424499,22.4263426 18.397644,22.0370536 C18.3465227,21.6516533 18.3896608,21.259604 18.5233575,20.8945396 C18.7432228,20.4498861 19.1131941,20.0972675 19.5678889,19.8989996 C19.7643028,19.7977055 19.9782933,19.7349517 20.1983052,19.714097 C20.4990779,19.7124771 20.7962592,19.779501 21.0672074,19.9100919 C21.5270191,20.0825529 21.9538051,20.3326839 22.3289643,20.6495832 C22.7378193,21.0199451 23.0176422,21.5112545 23.1276148,22.0518434 C23.1620484,22.240459 23.0384644,22.4217155 22.8503056,22.4585636 C22.6603129,22.4927561 22.4774604,22.3700363 22.4371149,22.1812544 C22.3660806,21.7791346 22.1639101,21.4118473 21.8621605,21.136723 C21.5423124,20.8787973 21.1822505,20.6751891 20.7963687,20.5340377 C20.6243678,20.4453384 20.4351048,20.3951837 20.2417503,20.3870638 C20.1143514,20.4008904 19.9907504,20.4388491 19.8775509,20.4989118 C19.5770666,20.6237804 19.3293621,20.8492634 19.1768829,21.136723 C19.0870599,21.3979266 19.0607597,21.6767716 19.1001607,21.9501634 C19.1181883,22.2771741 19.1803766,22.6002424 19.2850335,22.9105776 C19.4900618,23.5117807 19.9266303,24.0062477 20.4977991,24.2841826 C21.0727799,24.5453623 21.7272681,24.570586 22.320645,24.3544343 C22.5005547,24.2881125 22.700355,24.3787436 22.7689616,24.5577944 C22.8026417,24.6441331 22.8000457,24.7404114 22.7617619,24.8248097 C22.7234782,24.909208 22.6527482,24.9745802 22.5656015,25.0061109 C22.230561,25.1340527 21.8750849,25.2001368 21.5164483,25.2011517 L21.5164483,25.2011517 Z" id="路径_10169" fill="#231F20"></path>
                    <path d="M27.2918749,20.2243757 C27.2918749,20.2243757 29.0232087,22.9438547 28.5859845,23.3995662 C28.1487603,23.8552777 26.9600282,23.5188092 26.9600282,23.5188092" id="路径_10170" fill="#FFFFFF"></path>
                    <path d="M27.8039725,23.995781 C27.4891325,23.9905201 27.1764024,23.9432686 26.8740623,23.8552777 C26.7403288,23.8301704 26.6318392,23.7324326 26.5929614,23.6020349 C26.5540837,23.4716372 26.5913372,23.3304464 26.6894868,23.2362037 C26.7876365,23.141961 26.9302233,23.1104702 27.0589351,23.1546097 C27.4582604,23.2664578 28.1385923,23.3394825 28.3345575,23.1546097 C28.0411728,22.174023 27.5890172,21.2481656 26.9960784,20.4138703 C26.9035056,20.2519735 26.9539913,20.0459334 27.1109227,19.9451721 C27.2678541,19.8444108 27.4762141,19.8842533 27.5848983,20.0358055 C28.8327897,21.9982303 29.2487535,23.2109959 28.8392603,23.645447 C28.5557511,23.8974422 28.1822477,24.023833 27.8039725,23.995781 Z" id="路径_10171" fill="#231F20"></path>
                    <ellipse id="椭圆_173" fill="#231F20" transform="translate(25.170833, 19.511049) rotate(-1.146000) translate(-25.170833, -19.511049) " cx="25.1708333" cy="19.5110485" rx="1" ry="1"></ellipse>
                    <ellipse id="椭圆_174" fill="#231F20" transform="translate(28.808544, 19.978080) rotate(-1.350000) translate(-28.808544, -19.978080) " cx="28.8085438" cy="19.9780799" rx="1" ry="1"></ellipse>
                    <path d="M27.0681788,26.3362708 C26.6253332,26.3425312 26.1855919,26.2614931 25.7740691,26.0977849 C24.722297,25.6206105 23.9651439,24.6655651 23.7404682,23.5326746 C23.6963287,23.4039628 23.7278195,23.261376 23.8220622,23.1632263 C23.9163048,23.0650767 24.0574957,23.0278232 24.1878934,23.066701 C24.318291,23.1055787 24.4160289,23.2140683 24.4411362,23.3478018 C24.6164358,24.2661589 25.2175092,25.0466624 26.060622,25.45073 C27.6237216,26.0811463 29.6351377,24.9247669 29.6563981,24.9109014 C29.8229475,24.8148128 30.0358183,24.8709183 30.1333699,25.0366149 C30.2293777,25.2054225 30.1731697,25.4199974 30.0067321,25.5200573 C29.1058459,26.0214197 28.0985816,26.3011977 27.0681788,26.3362708 L27.0681788,26.3362708 Z" id="路径_10172" fill="#231F20"></path>
                    <path d="M28.8216974,28.3412164 C28.8216974,28.3412164 25.5485243,28.9374312 23.684082,27.7597914 C23.684082,27.7597914 25.5975156,32.2318647 28.660858,31.9194296 L28.8216974,28.3412164 Z" id="路径_10173" fill="#231F20"></path>
                    <path d="M28.3438011,32.2762341 C25.2739882,32.2762341 23.4372768,28.0703777 23.3605546,27.888278 C23.301273,27.7481512 23.3411276,27.5857248 23.4585372,27.4889527 C23.5800487,27.3944264 23.7502164,27.3944264 23.8717279,27.4889527 C25.5956668,28.5824754 28.729261,28.0287813 28.7782522,28.0213864 C28.8828321,27.9999447 28.9914392,28.0282918 29.0722,28.0981086 C29.1535082,28.1665287 29.1977161,28.2693378 29.191443,28.3754179 L29.0232087,31.9499336 C29.0175705,32.1229685 28.8863841,32.265938 28.7144711,32.2864021 L28.3438011,32.2762341 Z M24.4614722,28.4983583 C25.1621401,29.6547377 26.5080142,31.5543058 28.3234651,31.5755662 L28.4565736,28.77197 C27.1201736,28.9576712 25.759836,28.8657863 24.4605478,28.5020557 L24.4614722,28.4983583 Z" id="路径_10174" fill="#231F20"></path>
                    <path d="M9.36938041,32.3021163 C4.28537817,35.2184849 -2.2942451,60.2271541 1.65925992,62.621257 C7.88392739,66.343671 27.2086821,59.5440491 27.2086821,59.5440491 L24.7055043,52.0742632 C24.7055043,52.0742632 11.9834819,53.9387055 11.4926446,51.3735953 C11.0018073,48.8084851 17.1700886,35.7425993 15.957323,34.0537862 C14.7445573,32.3649731 9.36938041,32.3021163 9.36938041,32.3021163 Z" id="路径_10175" fill="#6F42FF"></path>
                    <path d="M23.6545024,54.8094564 C25.7898182,54.683675 27.9051535,54.3263151 29.963287,53.7436647 C31.4726996,53.1855187 33.045215,52.8157525 34.6451908,52.6427471 C36.7730472,52.4995579 38.9093912,52.7368251 40.9539754,53.3434151 C41.0355926,53.3591501 41.1109829,53.397968 41.171201,53.4552631 C41.3884265,53.693749 40.9752358,54.0015623 40.6526328,54.0514779 C39.8140157,54.1775415 38.9612654,54.1775415 38.1226484,54.0514779 C40.2185626,54.5560004 42.2367951,55.3410932 44.1226954,56.3854971 C44.3399209,56.5047401 44.5848774,56.7007053 44.5155501,56.9317963 C44.4462228,57.1628873 44.0321077,57.1767528 43.7584959,57.0926356 L38.9518029,55.5434015 C40.1884329,55.8751977 41.3611655,56.4106436 42.4218655,57.1277615 C42.5762343,57.233139 42.7444686,57.3727179 42.7306031,57.555742 C42.7306031,57.8709501 42.2332953,57.8709501 41.9384231,57.7591021 C40.4675775,57.2332888 39.0449261,56.5813433 37.6863485,55.8105427 L40.7552372,57.634313 C40.8180939,57.865404 40.5943978,58.0900244 40.3623825,58.1251503 C40.1188988,58.1413728 39.875838,58.0878225 39.6617145,57.9707815 L36.3044243,56.4779335 L38.4073525,57.6204475 C38.7364261,57.8053203 39.1080204,58.1038899 39.0174328,58.4690137 C38.9268451,58.8341375 38.2779415,58.8387593 37.8471879,58.7074996 C36.144605,58.1980403 34.3909043,57.8784247 32.6180605,57.7544803 C31.9884795,57.6280062 31.3464865,57.5740416 30.7046269,57.5936409 C29.7439976,57.8318227 28.8059248,58.1531737 27.9010308,58.5540552 L23.7580311,60.0404326" id="路径_10176" fill="#FFFFFF"></path>
                    <path d="M23.7950057,60.3611869 C23.6411918,60.356686 23.5119689,60.2441761 23.4863433,60.0924451 C23.4607176,59.9407142 23.5458237,59.7920064 23.6896282,59.7372412 L27.8326278,58.2508638 C28.109937,58.1584274 28.3872463,58.0410331 28.6645555,57.9282607 C29.3078836,57.634607 29.9832087,57.4168402 30.676896,57.2793572 C31.1450958,57.2286725 31.6183666,57.2523828 32.0791562,57.3496088 C32.283061,57.3884092 32.4888607,57.4164868 32.6957071,57.433726 C34.4935762,57.5550495 36.2716279,57.8819405 37.9950861,58.4080057 C38.2225719,58.4833111 38.4682683,58.4833111 38.6957541,58.4080057 C38.7211871,58.3941213 38.7410895,58.371935 38.7521403,58.3451489 C38.7521403,58.2259059 38.5977715,58.0364113 38.2899583,57.8681771 L36.1870301,56.7256631 C36.0401488,56.6427798 35.9828681,56.4600849 36.0561351,56.308178 C36.129402,56.1562712 36.3080356,56.0873613 36.4643393,56.1507087 L39.8216295,57.5945653 C39.9742406,57.6783858 40.14486,57.7240534 40.3189373,57.7276737 L40.3817941,57.7276737 L37.5218117,56.0314657 C37.4489519,55.9890672 37.3961108,55.919251 37.3750939,55.8376147 C37.3540769,55.7559785 37.3666354,55.6693254 37.4099637,55.5970146 C37.4984484,55.4459844 37.6912298,55.3930721 37.8444148,55.4777716 C39.1873245,56.241931 40.594669,56.886835 42.0502712,57.4050707 C42.1620017,57.4469208 42.2821074,57.4614983 42.4006052,57.4475914 L42.2536313,57.3422139 C41.528845,56.8540798 40.750351,56.4508757 39.9334775,56.1405407 L38.8612152,55.7966772 C38.6975964,55.7427576 38.6052138,55.5697946 38.6513846,55.4038225 C38.7019047,55.236501 38.8744158,55.1378652 39.0442393,55.1792021 C39.4139849,55.2845796 39.7837306,55.4038225 40.1451569,55.5369309 L43.8675709,56.7386042 C43.9885963,56.7717102 44.1162911,56.7717102 44.2373165,56.7386042 C44.1540711,56.6817301 44.0673163,56.6301712 43.9775702,56.5842354 C42.1160514,55.5521193 40.1235752,54.7763346 38.0542454,54.2779471 C37.8876525,54.2397405 37.7818622,54.0757244 37.8157595,53.9082015 C37.8510608,53.7408337 38.0108562,53.6301125 38.1799589,53.6558501 C38.9884687,53.7784669 39.8108459,53.7784669 40.6193557,53.6558501 C40.6996445,53.6452286 40.7764601,53.6164622 40.8439761,53.571733 C38.8526056,52.9886286 36.7731827,52.765442 34.7034258,52.9126614 C33.3249463,53.0515457 31.9688452,53.3598352 30.6658036,53.8305549 L30.0982441,54.0061841 C28.0169875,54.5920843 25.878561,54.9515879 23.7201322,55.0784464 C23.5432254,55.0908708 23.3882923,54.9608742 23.3697982,54.7844986 C23.3575374,54.608871 23.4883493,54.4558459 23.663746,54.4406352 C25.776978,54.3185717 27.8708159,53.9683591 29.9087495,53.3961038 L30.4698384,53.2204746 C31.8260432,52.7281013 33.2393118,52.4100382 34.6756949,52.2739259 C36.831367,52.1257637 38.9961911,52.3630304 41.0685966,52.9745938 C41.2079647,53.0077038 41.335747,53.0779841 41.4383422,53.1779539 C41.5770325,53.3236783 41.6204513,53.5357484 41.5501902,53.724253 C41.3902775,54.0420894 41.0831204,54.2599043 40.7302793,54.305678 L40.5204487,54.305678 C41.8300277,54.7554163 43.098341,55.3173586 44.3112656,55.9852475 C44.9490768,56.3355815 44.9074805,56.7496966 44.8575648,56.9096115 C44.8086323,57.0641537 44.7002065,57.1928677 44.5562221,57.2673404 C44.2778808,57.3698368 43.9721317,57.3698368 43.6937905,57.2673404 L42.9542992,57.0288545 C43.0484968,57.1531378 43.0932861,57.3079243 43.0800127,57.4633056 C43.0659358,57.6423884 42.9669643,57.8039045 42.8137959,57.8977567 C42.5115063,58.03757 42.1630661,58.03757 41.8607766,57.8977567 C41.6179769,57.8133315 41.384421,57.7208951 41.1601086,57.6204475 C41.1446444,57.7233922 41.1064359,57.8215975 41.0482606,57.9079247 C40.9221097,58.1041669 40.7177735,58.2368002 40.4871716,58.2721241 C40.1933202,58.2962719 39.8987302,58.2353001 39.6386054,58.096495 L39.4537326,58.0197728 C39.4930576,58.1572103 39.4930576,58.3029209 39.4537326,58.4403584 C39.3968253,58.6339916 39.263249,58.7959529 39.083987,58.888675 C38.6963933,59.0327978 38.2699074,59.0327978 37.8823137,58.888675 C36.2056875,58.3826058 34.4778453,58.0651268 32.7308329,57.9421262 C32.4954944,57.9267958 32.2614275,57.8959162 32.030165,57.8496898 C31.6432707,57.7680285 31.2463839,57.7443524 30.8525252,57.7794381 C30.2104523,57.9134366 29.58517,58.1180406 28.9880829,58.3895184 C28.6941351,58.5152319 28.4066579,58.6280043 28.1256512,58.7333818 C26.723391,59.2168242 25.3220551,59.7150564 23.9826516,60.2123643 C23.9411519,60.2810178 23.8750371,60.331265 23.7977788,60.3528676 L23.7950057,60.3611869 Z" id="路径_10177" fill="#231F20"></path>
                    <path d="M34.3161172,35.3580638 C35.1082972,35.9884801 37.6438278,50.2671315 38.9212989,55.4962589" id="路径_10178" fill="#FFFFFF"></path>
                    <path d="M38.9203745,55.8114739 C38.7713351,55.8124313 38.641036,55.7111725 38.6051664,55.5665106 C38.1494549,53.6808079 37.5255092,50.6599862 36.8738325,47.432107 C35.8995528,42.6586911 34.5749392,36.1262104 34.0702364,35.5928523 C34.0049219,35.540578 33.9636168,35.4640362 33.9557758,35.3807469 C33.9479348,35.2974576 33.974229,35.2145518 34.02864,35.1510063 C34.1423314,35.0141842 34.3441759,34.9924849 34.4843515,35.102015 C35.0167852,35.5299956 35.844091,39.3078714 37.4700474,47.3036204 C38.121724,50.5065418 38.7391992,53.5347584 39.1939863,55.4130662 C39.2338458,55.5829006 39.131475,55.7536551 38.9628953,55.798526 L38.9203745,55.8114739 Z" id="路径_10179" fill="#231F20"></path>
                    <polygon id="路径_10180" fill="#FFFFFF" points="61.0672127 58.769432 61.0043559 60.907486 32.4304146 68.5954218 32.6689005 66.3667801"></polygon>
                    <path d="M32.4165491,68.946783 C32.3340065,68.9465094 32.2542794,68.9166528 32.1919287,68.862563 C32.1032385,68.789135 32.0582544,68.6754541 32.0726857,68.5612203 L32.3037767,66.3325786 C32.3175646,66.1871568 32.4217241,66.0663169 32.563523,66.0312359 L60.9590621,58.4329635 C61.0661219,58.403846 61.1806463,58.4271623 61.2677997,58.4958202 C61.3573274,58.5634572 61.4072479,58.6712716 61.4009081,58.7832975 L61.3380513,60.8862257 C61.3315497,61.0404743 61.2268255,61.1731497 61.078305,61.2152993 L32.5080612,68.9254198 C32.4796222,68.9404246 32.4477615,68.9477526 32.4156248,68.946783 L32.4165491,68.946783 Z M32.9776381,66.6477867 L32.8232693,68.1267692 L60.646627,60.6394205 L60.6882234,59.2371602 L32.9776381,66.6477867 Z" id="路径_10181" fill="#231F20"></path>
                    <path d="M61.0607421,58.769432 C61.0607421,58.769432 53.7776778,53.8629077 53.5604523,53.9544197 C53.3432267,54.0459317 24.0371891,61.1108461 24.0371891,61.1108461 L32.6661274,66.3677044 L61.0607421,58.769432 Z" id="路径_10182" fill="#FFFFFF"></path>
                    <path d="M32.6689005,66.7189628 C32.6038347,66.720859 32.5396157,66.7038409 32.4840277,66.6699715 L23.8550893,61.3844579 C23.7363622,61.3067326 23.6735922,61.1671235 23.69425,61.026729 C23.7151456,60.8873894 23.8174829,60.7741264 23.9539963,60.7392518 C33.9778,58.3211154 53.0363379,53.7297992 53.4569235,53.5966908 C53.6417963,53.5264391 53.8146524,53.4561875 61.258556,58.4468289 C61.3733585,58.5233223 61.4325826,58.6600675 61.4098387,58.796132 C61.3870948,58.9321965 61.2866174,59.0422467 61.1531785,59.0772452 L32.7576395,66.7106435 L32.6689005,66.7189628 Z M24.95878,61.2513495 L32.7391522,65.9970345 L60.2445287,58.629853 C57.7145443,56.9410399 54.1880955,54.6273567 53.5641497,54.3186191 C51.7413038,54.7808011 32.3037767,59.4774949 24.9449146,61.2513495 L24.95878,61.2513495 Z" id="路径_10183" fill="#231F20"></path>
                    <polygon id="路径_10184" fill="#FFFFFF" points="32.4304146 68.5972705 24.0963484 63.1435227 24.0399622 61.1099218 32.6689005 66.3667801"></polygon>
                    <path d="M32.4165491,68.9476045 C32.3510154,68.9455331 32.2872111,68.9260728 32.2316763,68.8912183 L23.8976101,63.4374704 C23.8004415,63.3734985 23.7404494,63.2662714 23.7367708,63.1499932 L23.680348,61.1163923 C23.6785506,60.9892305 23.7457726,60.8710612 23.8560137,60.8076547 C23.9670416,60.7450579 24.1027147,60.7450579 24.2137426,60.8076547 L32.842681,66.0719079 C32.9605752,66.1407276 33.026596,66.2727693 33.0109152,66.4083765 L32.7724293,68.6268502 C32.7619615,68.7478863 32.6870593,68.85388 32.5764641,68.9041594 C32.5291718,68.9297206 32.4757915,68.941867 32.4220953,68.9392852 L32.4165491,68.9476045 Z M24.425422,62.9475575 L32.1355425,67.9871902 L32.2899113,66.58493 L24.4041616,61.778237 L24.425422,62.9475575 Z" id="路径_10185" fill="#231F20"></path>
                    <polygon id="路径_10186" fill="#FFFFFF" points="61.0644396 58.769432 64.4355953 39.395686 34.4140998 48.2418499 32.6689005 66.3677044"></polygon>
                    <path d="M32.6689005,66.718136 C32.570336,66.7203853 32.4755055,66.6803115 32.4084928,66.6079944 C32.34148,66.5356772 32.3087324,66.4380743 32.3185665,66.3399735 L34.0637659,48.2067241 C34.0765283,48.063363 34.1772243,47.9431179 34.3161172,47.9053814 L64.3376127,39.0592175 C64.4520517,39.0237001 64.5767274,39.0503163 64.6666863,39.1294692 C64.7573947,39.2103284 64.7997236,39.3324175 64.7785343,39.4520722 L61.4073786,58.8332131 C61.387331,58.9682949 61.2876254,59.0778615 61.1550273,59.1105223 L32.7594882,66.7152653 L32.6689005,66.718136 Z M34.7718287,48.4932769 L33.0950323,65.884262 L60.7825086,58.4754842 L64.0177827,39.8726578 L34.7718287,48.4932769 Z" id="路径_10187" fill="#231F20"></path>
                    <path d="M17.8568911,63.3330173 C17.7003697,63.3352915 17.5620653,63.2315632 17.5204226,63.0806659 C17.4944052,62.9914285 17.5049183,62.8955095 17.5496474,62.8140262 C17.5943766,62.7325429 17.6696546,62.6721757 17.7589085,62.6462148 L23.5555954,60.9287464 L22.9316497,54.0884525 L11.6183581,54.2566867 C11.5163212,54.2584121 11.4187894,54.214726 11.3521413,54.1374438 C11.2824858,54.0590394 11.2516198,53.9535525 11.2680242,53.8499666 L14.2259891,36.0180598 C14.2413395,35.9257711 14.2929658,35.8434561 14.3693649,35.7894559 C14.4457639,35.7354556 14.5405881,35.7142567 14.6327093,35.7305826 C14.8178094,35.77879 14.9322392,35.9640765 14.8924556,36.1511682 L12.0047423,53.571733 L23.2200512,53.4034987 L23.2200512,53.4034987 C23.3993117,53.4028753 23.5489773,53.5400688 23.5639147,53.7187069 L24.2645826,61.1700054 C24.2785202,61.3338483 24.1766312,61.4853361 24.0196261,61.5342049 L17.9428569,63.3357904 L17.8568911,63.3330173 Z" id="路径_10188" fill="#231F20"></path>
                    <path d="M62.0239295,87.8795045 C62.4796409,87.3470708 62.9630833,86.842368 63.4677861,86.3580013 C64.5687037,85.3069993 66.9720502,83.6773455 67.9888506,85.7109464 C68.5989309,86.9727034 68.1006987,88.8094147 67.7503647,90.0776422 C67.0559621,92.5144125 65.822295,94.7637618 64.1407231,96.6591142 C62.683001,98.3340618 57.706225,101.088667 57.5869821,96.9114656 C57.6022258,96.1536514 57.7566985,95.4051011 58.0426935,94.7031599 C58.9436677,92.2053793 60.2928412,89.892958 62.0239295,87.8795045 Z" id="路径_10189" fill="#FFFFFF"></path>
                    <path d="M59.4347858,99.4386769 C59.1603781,99.4419056 58.8875408,99.3968499 58.6287403,99.3055684 C58.0325255,99.0957378 57.3179921,98.5069179 57.2754714,96.9290285 C57.2824473,96.1282708 57.4418101,95.3361625 57.7450483,94.5950093 C58.6548132,92.0570841 60.0258784,89.7091937 61.789141,87.6696738 L61.789141,87.6696738 C62.2448525,87.1372402 62.7356898,86.6186719 63.2468631,86.1278346 C63.5907265,85.798761 65.3913877,84.1792752 66.905496,84.452887 C67.5322703,84.5658587 68.0596723,84.9875718 68.3077562,85.5741406 C69.0084242,86.9764008 68.4482596,88.8898344 68.0979256,90.1719273 C67.3848169,92.6529016 66.1248563,94.9425617 64.4106374,96.8726423 C63.5103068,97.8755773 61.1966236,99.4386769 59.4347858,99.4386769 Z M66.5523889,85.0620429 C65.4538532,85.2384788 64.4455049,85.7761562 63.6868604,86.5900166 C63.1943532,87.0634581 62.7263246,87.5617219 62.2846001,88.0828646 L62.2846001,88.0828646 C60.574047,90.0658438 59.243548,92.3470572 58.3597504,94.8122348 C58.0861802,95.4803269 57.9388729,96.1933573 57.9252993,96.915163 C57.9252993,97.8968376 58.2691627,98.499523 58.8579826,98.7093536 C60.2038567,99.192796 62.853084,97.6786877 63.9114808,96.4594515 C65.5657095,94.6027164 66.7782604,92.3956652 67.4582657,90.0036931 C67.7873393,88.8186583 68.2781766,87.0179972 67.718012,85.8606934 C67.5626658,85.4671681 67.2204309,85.1776915 66.806589,85.0897738 C66.7228794,85.0727922 66.637791,85.0635099 66.5523889,85.0620429 Z" id="路径_10190" fill="#231F20"></path>
                    <path d="M44.6542047,92.2739311 C44.9819103,91.9803267 45.3999062,91.8071942 45.8392394,91.7830938 C46.1197248,91.8175311 46.3858951,91.926361 46.610159,92.098302 C47.4538097,92.7844776 47.9431484,93.814432 47.9421691,94.9018981 C47.9227825,95.9782843 47.7114892,97.0425763 47.3182219,98.0447359 C46.2524301,101.149675 44.6689945,104.226883 42.0123723,106.161577 C41.5392347,106.525528 41.0079307,106.806806 40.4409534,106.993504 C35.4919083,108.486352 36.9921511,103.250754 37.9664308,100.832618 C39.3501518,97.4081906 41.666896,94.4406827 44.6532803,92.2674606 L44.6542047,92.2739311 Z" id="路径_10191" fill="#FFFFFF"></path>
                    <path d="M38.913904,107.597114 C38.2921686,107.641607 37.6827316,107.40799 37.2500487,106.959303 C35.9319056,105.521917 37.1030748,102.129501 37.6706344,100.734635 C39.078806,97.2524753 41.4311828,94.2326101 44.4628614,92.0151092 C44.8531218,91.676461 45.3486215,91.4834219 45.8651216,91.4688101 C46.209957,91.497058 46.5389915,91.6255871 46.8116704,91.8385557 C47.7374872,92.5881955 48.2735637,93.7171176 48.2694166,94.9083687 C48.2526733,96.0241277 48.0366736,97.1279177 47.6315813,98.1676763 C46.2995727,102.043535 44.5266425,104.756543 42.2129593,106.438886 C41.7120746,106.82484 41.1495237,107.123304 40.549104,107.321653 C40.0202425,107.492133 39.46943,107.584921 38.913904,107.597114 L38.913904,107.597114 Z M45.7828532,92.1066213 C45.4340042,92.1520047 45.106823,92.301104 44.8436993,92.5346018 L44.8436993,92.5346018 C41.9105601,94.672156 39.6314204,97.5851014 38.2622273,100.946315 C37.4302997,103.006722 36.8599671,105.551496 37.7223987,106.504516 C38.1845808,107.009218 39.0682728,107.072075 40.3512901,106.689388 C40.8825872,106.509295 41.3799897,106.241535 41.8228776,105.897208 C44.0311833,104.291588 45.7273914,101.691352 47.0168792,97.9347366 C47.4007623,96.9682753 47.6050049,95.9398578 47.6195646,94.9000494 C47.6288844,93.9069896 47.1868438,92.9634029 46.4178913,92.3349392 C46.2448198,92.1956594 46.0358819,92.1081747 45.8152059,92.0825878 L45.7828532,92.1066213 Z" id="路径_10192" fill="#231F20"></path>
                    <path d="M44.7531117,76.1040309 C44.6619134,76.1040309 44.5744504,76.0678026 44.5099635,76.0033157 C44.4454766,75.9388288 44.4092482,75.8513657 44.4092482,75.7601675 C44.4092482,75.7111762 44.2974002,70.6715434 43.1752222,68.050047 C43.1065773,67.9333707 43.111296,67.7875868 43.1873426,67.6755939 C43.2633891,67.563601 43.3971531,67.5054427 43.5309221,67.5262115 C43.6646911,67.5469803 43.774524,67.6429591 43.8130334,67.7727378 C44.9906732,70.4922168 45.1071431,75.4828583 45.1071431,75.7139493 C45.1091237,75.8070266 45.0739752,75.8970645 45.0094583,75.9641829 C44.9449414,76.0313013 44.8563626,76.0699798 44.7632797,76.0716782 L44.7531117,76.1040309 Z" id="路径_10193" fill="#FFFFFF"></path>
                    <path d="M25.5328101,35.8063804 L23.4298819,36.4164607 L24.0464327,37.8187209 C24.0464327,37.8187209 20.00234,43.7559112 5.35948919,42.907345 L1.0066589,46.1805181 L5.03041559,48.4516805 C5.03041559,48.4516805 18.2294098,49.1523485 25.1408797,38.022081 L26.444233,37.6578816 L25.5328101,35.8063804 Z" id="路径_10194" fill="#231F20"></path>
                    <polygon id="矩形_3338" fill="#FFFFFF" transform="translate(155.530631, 13.041503) rotate(-14.100000) translate(-155.530631, -13.041503) " points="141.764078 3.42441979 169.297185 3.42441979 169.297185 22.6585868 141.764078 22.6585868"></polygon>
                    <path d="M144.517874,26.0635834 C144.456124,26.0624088 144.395687,26.04555 144.342245,26.0145921 C144.260627,25.9678469 144.202301,25.8890729 144.181406,25.7973665 L139.492107,7.14554886 C139.44781,6.95597663 139.56324,6.76578459 139.751853,6.7175683 L166.45026,0.00945843414 C166.639832,-0.0348384388 166.830024,0.0805912827 166.87824,0.269204731 L171.566615,18.9247199 C171.587554,19.0135112 171.572252,19.106986 171.524094,19.1844662 C171.477349,19.2660844 171.398575,19.3244107 171.306869,19.3453055 L144.607538,26.0534154 L144.517874,26.0635834 Z M140.2658,7.31378311 L144.779469,25.2861932 L170.798468,18.7463176 L166.298664,0.773907499 L140.2658,7.31378311 Z" id="路径_10195" fill="#D1D3D4"></path>
                    <path d="M144.517874,26.0635834 C144.474059,26.0735053 144.428581,26.0735053 144.384766,26.0635834 C144.211944,25.9848368 144.130779,25.7847669 144.199893,25.6078719 L151.17422,8.78444631 C151.215748,8.68463555 151.30103,8.60958733 151.405311,8.58108622 C151.505588,8.54681033 151.616377,8.56521733 151.700183,8.63007751 L162.410789,16.340198 C162.559294,16.4569814 162.588827,16.67031 162.477634,16.8230456 C162.36644,16.9757811 162.154354,17.013208 161.997598,16.9077575 L151.652116,9.40746767 L144.853418,25.8445091 C144.797136,25.9762918 144.667643,26.0617716 144.524345,26.0617347 L144.517874,26.0635834 Z" id="路径_10196" fill="#D1D3D4"></path>
                    <path d="M159.286439,14.8131486 C159.244797,14.8197861 159.202367,14.8197861 159.160725,14.8131486 C159.07289,14.780246 159.001917,14.7134964 158.963695,14.6278428 C158.925472,14.5421891 158.923192,14.4447854 158.957365,14.3574371 L161.676844,7.11689357 C161.710687,7.01704456 161.792208,6.94072651 161.89407,6.91353348 C161.99249,6.87888834 162.101414,6.89186364 162.188942,6.94865931 L169.62545,11.6166977 C169.705903,11.6646435 169.763318,11.7433308 169.784429,11.8345765 C169.805539,11.9258223 169.788518,12.021731 169.737298,12.1001401 C169.632742,12.262512 169.416503,12.3096463 169.253856,12.2055176 L162.160286,7.74730985 L159.584084,14.5820576 C159.539136,14.7125978 159.420472,14.8035979 159.282741,14.8131486 L159.286439,14.8131486 Z" id="路径_10197" fill="#D1D3D4"></path>
                    <path d="M157.758465,8.58201058 C156.891222,8.58143014 156.117884,8.03596718 155.826324,7.2192027 C155.534765,6.40243822 155.787879,5.49056396 156.458716,4.94093723 C157.129552,4.39131049 158.073398,4.32249629 158.816862,4.7690089 C159.284026,5.04789373 159.619955,5.50234781 159.749545,6.03076582 L159.749545,6.03076582 C159.883258,6.55789448 159.80167,7.11656667 159.522794,7.58344134 C159.243918,8.050316 158.790689,8.38699713 158.263168,8.51915383 C158.098098,8.56045689 157.928623,8.5815636 157.758465,8.58201058 L157.758465,8.58201058 Z M157.758465,5.17572411 C157.647443,5.17542151 157.536844,5.18940177 157.429391,5.21732546 C157.083578,5.30917738 156.785957,5.52974768 156.597464,5.83387628 C156.413414,6.14152026 156.360469,6.51013808 156.45049,6.85714727 C156.633193,7.57722915 157.362231,8.01539445 158.083841,7.83882189 C158.429655,7.74696997 158.727276,7.52639967 158.915769,7.22227107 C159.099818,6.91462709 159.152764,6.54600926 159.062742,6.19900007 L159.062742,6.19900007 C158.980799,5.84968478 158.757509,5.55006801 158.446192,5.37169425 C158.240967,5.24682646 158.006062,5.1791635 157.76586,5.17572411 L157.758465,5.17572411 Z" id="路径_10198" fill="#D1D3D4"></path>
                    <circle id="椭圆_175" fill="#FFFFFF" cx="166.667485" cy="110.940539" r="10.4157341"></circle>
                    <path d="M167.880251,100.124555 L169.093017,100.327915 C169.133564,100.349602 169.175569,100.368443 169.21873,100.384301 C171.031615,100.792561 172.698875,101.687391 174.041137,102.972521 C177.0863,105.700071 178.294054,109.934225 177.146076,113.857832 C176.554823,116.204225 175.145304,118.262451 173.171311,119.661913 C170.491469,121.711123 166.998025,122.366658 163.757587,121.428373 C162.064432,120.987554 160.514217,120.115956 159.257783,118.898389 C156.976009,116.800733 155.709656,113.820979 155.783099,110.722389 C155.777309,110.406466 155.789035,110.090465 155.818225,109.77584 L156.021585,108.563074 C156.037712,108.487668 156.063498,108.414657 156.098307,108.345849 C156.23881,107.897532 156.350658,107.441821 156.518893,107.01384 C157.395972,104.738204 159.019635,102.827744 161.124074,101.595218 C162.862925,100.549756 164.864886,100.024325 166.89303,100.08111 C167.235969,100.089429 167.557648,100.11069 167.880251,100.124555 Z M173.537359,118.24209 C175.021014,116.845667 176.041092,115.028109 176.460198,113.034223 L172.208124,112.333555 C172.012158,113.083215 171.843924,113.826403 171.619304,114.552029 C171.394683,115.277655 171.114601,115.954289 170.879812,116.654957 L173.537359,118.24209 Z M156.749984,109.74626 C156.496846,111.770078 156.871128,113.822822 157.822246,115.627064 L160.878193,114.989253 C160.758449,113.478473 160.810235,111.958991 161.032562,110.459869 L156.749984,109.74626 Z M176.586836,112.178262 C176.93717,110.606843 176.309527,107.271738 175.514574,106.311324 L172.472492,106.94174 C172.594745,108.449467 172.545438,109.9662 172.325518,111.462804 L176.586836,112.178262 Z M162.505074,105.274187 L159.824418,103.683357 C158.605182,104.607721 156.943176,107.552744 156.915445,108.884753 L161.176763,109.585421 C161.453038,108.098199 161.897427,106.64719 162.501377,105.260322 L162.505074,105.274187 Z M166.387403,115.311856 C167.017819,115.466225 167.621429,115.599333 168.21672,115.774038 C168.81201,115.948743 169.418393,116.152103 170.018305,116.348993 L170.102422,116.188153 C170.625877,114.966766 171.018158,113.693248 171.272667,112.389017 C171.272667,112.213388 171.272667,112.157926 171.097038,112.129271 L167.22765,111.49146 C167.162384,111.487648 167.096951,111.487648 167.031685,111.49146 L166.387403,115.311856 Z M161.89407,110.5976 C161.673414,112.028398 161.626238,113.480597 161.753566,114.922699 L165.517577,115.126059 L166.155388,111.313057 L161.89407,110.5976 Z M171.454767,111.298268 C171.674357,109.869911 171.723693,108.420545 171.601741,106.980563 L167.81647,106.784598 L167.186054,110.583734 L171.454767,111.298268 Z M163.310195,105.592168 C162.724024,106.912622 162.298244,108.298578 162.041968,109.720378 L166.310681,110.421046 L166.948492,106.62191 L163.310195,105.592168 Z M171.483422,106.05435 C171.354868,105.071281 171.075835,104.113841 170.656116,103.215628 C170.383469,102.590832 169.968092,102.038685 169.443351,101.603537 C169.217653,101.446415 168.983767,101.301393 168.742683,101.169086 L167.957898,105.86578 C169.124793,106.036637 170.305057,106.098528 171.483422,106.050653 L171.483422,106.05435 Z M166.247824,116.176137 L165.46951,120.822915 C166.001666,120.811069 166.518581,120.642943 166.955887,120.339472 C167.890257,119.691151 168.666536,118.840626 169.227049,117.851084 C169.367553,117.626464 169.493266,117.395373 169.63377,117.150416 C168.537896,116.721841 167.403869,116.398098 166.2469,116.183532 L166.247824,116.176137 Z M164.593213,120.689806 L165.371527,116.028238 C164.211657,115.855406 163.037955,115.793502 161.866339,115.843366 C161.992976,116.369329 162.090959,116.874031 162.230538,117.364869 C162.450008,118.253081 162.860043,119.08293 163.432211,119.796871 C163.733513,120.189292 164.132145,120.496153 164.588591,120.687033 L164.593213,120.689806 Z M163.675319,104.736207 C164.78297,105.167273 165.927811,105.495873 167.095466,105.717882 L167.880251,101.056314 C167.51244,101.068105 167.151473,101.158899 166.821854,101.322531 C166.03814,101.711337 165.361769,102.286459 164.852034,102.997478 C164.438844,103.543778 164.081115,104.132597 163.674395,104.736207 L163.675319,104.736207 Z M172.7877,118.853095 C172.056568,118.310184 171.266469,117.851568 170.43242,117.48596 C169.782519,118.806518 168.851845,119.969072 167.705546,120.892242 C169.562546,120.698129 171.329084,119.991834 172.808036,118.852171 L172.7877,118.853095 Z M165.596148,101.035054 C163.739234,101.206107 161.975238,101.925928 160.528784,103.102856 L162.835072,104.434865 C163.263053,103.783188 163.641118,103.173108 164.054308,102.586136 C164.486298,101.996071 165.005936,101.475498 165.595223,101.042448 L165.596148,101.035054 Z M158.293672,116.455295 C159.324432,118.018972 160.767998,119.266735 162.464402,120.060314 C161.664855,118.810797 161.156839,117.397324 160.978025,115.92471 C160.071877,115.993218 159.176187,116.162497 158.307537,116.429412 L158.293672,116.455295 Z M170.910316,101.959418 C171.301139,102.569515 171.607721,103.22963 171.821739,103.921842 C172.017705,104.62251 172.185939,105.324103 172.368039,106.024771 C173.26281,105.940718 174.146179,105.762247 175.0034,105.492337 C174.016909,103.946104 172.612034,102.711429 170.951913,101.931687 L170.910316,101.959418 Z" id="路径_10199" fill="#D1D3D4"></path>
                    <path d="M139.597555,41.2848771 L150.18728,41.2848771 C152.059525,41.2848771 153.57728,42.8026318 153.57728,44.6748771 L153.57728,49.8247194 C153.57728,51.6969647 152.059525,53.2147194 150.18728,53.2147194 L139.597555,53.2147194 C137.72531,53.2147194 136.207555,51.6969647 136.207555,49.8247194 L136.207555,44.6748771 C136.207555,42.8026318 137.72531,41.2848771 139.597555,41.2848771 Z" id="矩形_3339" fill="#FFFFFF" transform="translate(144.892418, 47.249798) rotate(-10.230000) translate(-144.892418, -47.249798) "></path>
                    <path d="M139.316478,54.6402979 C137.999036,54.6362357 136.87195,53.6929811 136.635822,52.3968663 L135.3602,45.3384224 C135.100578,43.8559087 136.081771,42.4403695 137.56111,42.1632319 L149.974395,39.9271953 C150.686595,39.796747 151.421412,39.9556958 152.016031,40.3688231 C152.61065,40.7819505 153.015973,41.4151442 153.142191,42.1281061 L154.417813,49.18655 C154.677964,50.6691798 153.696536,52.0850571 152.216902,52.3617404 L152.216902,52.3617404 L139.803618,54.5977771 C139.642785,54.6261068 139.479786,54.6402979 139.316478,54.6402979 L139.316478,54.6402979 Z M150.45414,40.6213927 C150.332952,40.6112627 150.211129,40.6112627 150.089941,40.6213927 L137.683126,42.8648243 C136.582734,43.0652262 135.853127,44.1197014 136.053473,45.2201038 L137.3217,52.2711528 C137.415858,52.8008688 137.718963,53.2705151 138.162871,53.5745061 C138.601741,53.8857215 139.148524,54.0045584 139.67698,53.9035797 L152.090264,51.667543 C152.619373,51.5721641 153.088845,51.2703178 153.395224,50.828521 C153.701604,50.3867242 153.819746,49.8412359 153.723616,49.3122635 L152.455388,42.2538196 C152.353086,41.7253497 152.052028,41.256229 151.614217,40.9430714 C151.274631,40.7079231 150.870885,40.583023 150.457838,40.5853108 L150.45414,40.6213927 Z" id="路径_10200" fill="#D1D3D4"></path>
                    <path d="M142.681163,51.7109882 C142.637348,51.7209101 142.591869,51.7209101 142.548054,51.7109882 C142.437052,51.6676683 142.35724,51.5688704 142.338224,51.4512419 L141.062601,44.2596896 C141.041412,44.1400349 141.083741,44.0179458 141.174449,43.9370865 C141.262415,43.8542945 141.388012,43.825012 141.503523,43.8603643 L149.47339,46.1102664 C149.604423,46.1430697 149.704113,46.2495505 149.728224,46.3824577 C149.752335,46.5153648 149.696399,46.6500778 149.585238,46.7268172 L142.855868,51.6333416 C142.807075,51.6766861 142.746032,51.7038165 142.681163,51.7109882 L142.681163,51.7109882 Z M141.832597,44.7015356 L142.926119,50.7579688 L148.617429,46.5983306 L141.832597,44.7015356 Z" id="路径_10201" fill="#D1D3D4"></path>
                    <rect id="矩形_3340" fill="#FFFFFF" x="131.956691" y="73.6221135" width="25.8507649" height="14.2435256"></rect>
                    <path d="M157.813927,88.215973 L131.949296,88.215973 C131.757462,88.2120468 131.602889,88.0574733 131.598962,87.865639 L131.598962,73.6221135 C131.598962,73.5291991 131.635872,73.4400903 131.701573,73.3743899 C131.767273,73.3086896 131.856382,73.2717795 131.949296,73.2717795 L157.813927,73.2717795 C158.007411,73.2717795 158.164261,73.4286294 158.164261,73.6221135 L158.164261,87.865639 C158.160334,88.0574733 158.005761,88.2120468 157.813927,88.215973 Z M132.307025,87.515305 L157.463593,87.515305 L157.463593,74.0011027 L132.307025,74.0011027 L132.307025,87.515305 Z" id="路径_10202" fill="#D1D3D4"></path>
                    <path d="M144.889469,82.8537468 C144.819107,82.8542748 144.750425,82.8322449 144.693503,82.7908804 L131.760726,73.9095907 C131.649774,73.8412165 131.585505,73.7172856 131.593542,73.5872054 C131.601578,73.4571252 131.680614,73.3420481 131.799139,73.2878518 C131.917664,73.2336555 132.056406,73.2491529 132.160051,73.3281657 L144.889469,82.0828176 L157.611491,73.3013591 C157.771728,73.2026134 157.981253,73.2469108 158.087811,73.402062 C158.19437,73.5572132 158.160501,73.7686742 158.010816,73.8827841 L145.085434,82.7640739 C145.032027,82.8151097 144.963003,82.8466918 144.889469,82.8537468 L144.889469,82.8537468 Z" id="路径_10203" fill="#D1D3D4"></path>
                    <path d="M131.950221,88.2160191 C131.835415,88.2127237 131.728868,88.1555105 131.662743,88.0616042 C131.555333,87.9000003 131.596345,87.6822305 131.75518,87.5707669 L142.115452,80.4531637 C142.277056,80.3457537 142.494826,80.3867649 142.606289,80.5456002 C142.710188,80.7079011 142.669671,80.9230472 142.513853,81.0364375 L132.160976,88.1540406 C132.09862,88.1955582 132.025124,88.2171557 131.950221,88.2160191 L131.950221,88.2160191 Z" id="路径_10204" fill="#D1D3D4"></path>
                    <path d="M157.80838,88.215973 C157.738312,88.2146683 157.67017,88.1928114 157.612415,88.1531162 L147.259538,81.0105553 C147.109853,80.8964453 147.075985,80.6849843 147.182543,80.5298331 C147.289102,80.374682 147.498626,80.3303846 147.658863,80.4291303 L158.011741,87.5467334 C158.170576,87.658197 158.211587,87.8759668 158.104177,88.0375707 C158.041845,88.1429888 157.930703,88.2100209 157.80838,88.215973 L157.80838,88.215973 Z" id="路径_10205" fill="#D1D3D4"></path>
                    <polygon id="路径_10206" fill="#FFFFFF" points="188.671047 76.888816 174.399791 75.1325243 177.147925 52.8285443 195.173024 55.047018 192.964718 72.955647"></polygon>
                    <path d="M188.670123,77.2403088 L188.621132,77.2403088 L174.35727,75.4736146 C174.165894,75.4518444 174.027986,75.2796657 174.048532,75.0881548 L176.810532,52.7841748 C176.82092,52.690801 176.868377,52.6055122 176.942245,52.5474603 C177.016114,52.4894083 177.110204,52.4634582 177.203387,52.4754372 L195.228486,54.6939109 C195.322948,54.7034539 195.409261,54.7516287 195.466972,54.8270193 C195.522687,54.9014593 195.547822,54.9943902 195.537223,55.0867656 L193.328918,72.9889241 C193.320893,73.0730031 193.280848,73.1507779 193.21707,73.2061496 L188.920625,77.1383943 C188.855545,77.2066067 188.764334,77.2436298 188.670123,77.2403088 Z M174.791721,74.821938 L188.55088,76.518146 L192.630098,72.7818665 L194.774623,55.349285 L177.447419,53.2463568 L174.791721,74.821938 Z" id="路径_10207" fill="#D1D3D4"></path>
                    <line x1="179.845219" y1="56.7441504" x2="191.992287" y2="58.2443932" id="直线_1" fill="#FFFFFF"></line>
                    <path d="M191.992287,58.5808617 L191.949766,58.5808617 L179.802699,57.0880138 C179.611071,57.0626233 179.47622,56.8868205 179.501356,56.6951591 C179.509974,56.6029795 179.556194,56.518424 179.629132,56.4614029 C179.70207,56.4043818 179.795281,56.3799341 179.886816,56.3938164 L192.033884,57.8801938 C192.162694,57.8828594 192.279709,57.9558303 192.338779,58.0703289 C192.39785,58.1848276 192.389497,58.3224768 192.317014,58.4289919 C192.24453,58.5355071 192.119551,58.5937923 191.991363,58.5808617 L191.992287,58.5808617 Z" id="路径_10208" fill="#D1D3D4"></path>
                    <line x1="179.403373" y1="60.3399265" x2="191.550441" y2="61.8327744" id="直线_2" fill="#FFFFFF"></line>
                    <path d="M191.532878,62.1831084 L191.532878,62.1831084 L179.36455,60.6828656 C179.235607,60.6723608 179.122731,60.5921833 179.070352,60.4738908 C179.017972,60.3555983 179.034475,60.2181323 179.113366,60.1155992 C179.192256,60.013066 179.320901,59.9618837 179.448667,59.9821976 L191.595735,61.4824405 C191.783324,61.501363 191.922516,61.6650079 191.911095,61.8532026 C191.899674,62.0413973 191.741715,62.1870093 191.553214,62.1831084 L191.532878,62.1831084 Z" id="路径_10209" fill="#D1D3D4"></path>
                    <line x1="178.962452" y1="63.9283077" x2="191.103049" y2="65.4285506" id="直线_3" fill="#FFFFFF"></line>
                    <path d="M191.10952,65.7788845 L191.060528,65.7788845 L178.91346,64.2786417 C178.726045,64.2488439 178.595696,64.0762423 178.618316,63.8878256 C178.640936,63.6994089 178.808434,63.5625646 178.997577,63.5779738 L191.144645,65.0708217 C191.334128,65.0998797 191.467026,65.2731362 191.445988,65.4636764 C191.428513,65.6381405 191.284752,65.7728181 191.10952,65.7788845 Z" id="路径_10210" fill="#D1D3D4"></path>
                    <line x1="178.520606" y1="67.5240839" x2="190.661203" y2="69.0169318" id="直线_4" fill="#FFFFFF"></line>
                    <path d="M190.660279,69.3672658 L190.617758,69.3672658 L178.47716,67.8744178 C178.284694,67.8489407 178.147681,67.6745972 178.168423,67.4815631 C178.177056,67.3874357 178.224056,67.3010128 178.298375,67.242607 C178.372693,67.1842013 178.467777,67.1589635 178.561278,67.1728255 L190.708346,68.6730684 C190.835339,68.679421 190.948985,68.7539088 191.00548,68.8678217 C191.061975,68.9817345 191.052497,69.1172851 190.9807,69.2222276 C190.908902,69.3271702 190.785996,69.3851181 190.659354,69.3737363 L190.660279,69.3672658 Z" id="路径_10211" fill="#D1D3D4"></path>
                    <line x1="178.07876" y1="71.11986" x2="186.300978" y2="72.1292655" id="直线_5" fill="#FFFFFF"></line>
                    <path d="M186.300978,72.4795995 L186.259381,72.4795995 L178.032541,71.4627991 C177.905415,71.4499066 177.795391,71.3688231 177.745437,71.2512141 C177.695482,71.1336051 177.713522,70.9981266 177.792511,70.8976871 C177.8715,70.7972476 177.998907,70.7477795 178.124978,70.7686017 L186.347196,71.7854021 C186.534785,71.8043246 186.673977,71.9679696 186.662556,72.1561642 C186.651135,72.3443589 186.493176,72.4899709 186.304675,72.4860701 L186.300978,72.4795995 Z" id="路径_10212" fill="#D1D3D4"></path>
                    <polygon id="路径_10213" fill="#FFFFFF" points="188.670123 76.8869673 189.209951 72.4851457 192.960096 72.9473277"></polygon>
                    <path d="M188.671972,77.2391587 C188.615646,77.2395636 188.560195,77.2252226 188.511132,77.1975536 C188.380289,77.1291753 188.306353,76.9861097 188.326259,76.8398247 L188.866088,72.4444737 C188.876595,72.3516847 188.924388,72.2671594 188.998483,72.2103245 C189.072577,72.1534897 189.166601,72.1292335 189.258943,72.143131 L193.015558,72.605313 C193.149305,72.6228351 193.261113,72.7155887 193.303035,72.8437989 C193.347877,72.9738147 193.309077,73.1180329 193.205053,73.2079984 L188.908609,77.140243 C188.846352,77.2038589 188.760981,77.2395415 188.671972,77.2391587 L188.671972,77.2391587 Z M189.513143,72.8789248 L189.134154,75.9838636 L192.168841,73.1802674 L189.513143,72.8789248 Z" id="路径_10214" fill="#D1D3D4"></path>
                </g>
            </g>
        </g>
    </g>
</svg>