<?xml version="1.0" encoding="UTF-8"?>
<svg width="200px" height="200px" viewBox="0 0 200 200" version="1.1" xmlns="http://www.w3.org/2000/svg" xmlns:xlink="http://www.w3.org/1999/xlink">
    <title>编组 10备份</title>
    <g id="页面" stroke="none" stroke-width="1" fill="none" fill-rule="evenodd">
        <g id="00插画状态" transform="translate(-1160.000000, -319.000000)">
            <g id="编组-10备份" transform="translate(1160.000000, 319.000000)">
                <rect id="矩形" x="0" y="0" width="200" height="200"></rect>
                <g id="编组" transform="translate(2.000000, 32.000000)" fill-rule="nonzero">
                    <rect id="矩形_3316" fill="#FFFFFF" x="104.754473" y="34.7012708" width="90.0711615" height="96.5941818"></rect>
                    <path d="M194.825635,131.620783 L104.756404,131.620783 C104.576729,131.620783 104.431074,131.475128 104.431074,131.295453 L104.431074,34.7022362 C104.431074,34.5225612 104.576729,34.3769058 104.756404,34.3769058 L194.825635,34.3769058 C195.004933,34.3769058 195.15,34.5229375 195.15,34.7022362 L195.15,131.296418 C195.15,131.47534 195.004557,131.620783 194.825635,131.620783 Z M105.079804,130.971088 L194.50127,130.971088 L194.50127,35.0266013 L105.079804,35.0266013 L105.079804,130.971088 Z" id="路径_9829" fill="#231F20"></path>
                    <rect id="矩形_3317" fill="#FFFFFF" x="104.754473" y="34.7012708" width="90.0711615" height="10.6943938"></rect>
                    <path d="M194.825635,45.7209951 L104.756404,45.7209951 C104.576729,45.7209951 104.431074,45.5753397 104.431074,45.3956646 L104.431074,34.7022362 C104.431074,34.5225612 104.576729,34.3769058 104.756404,34.3769058 L194.825635,34.3769058 C195.004933,34.3774378 195.15,34.5229375 195.15,34.7022362 L195.15,45.39663 C195.15,45.5755518 195.004557,45.7204649 194.825635,45.7209951 Z M105.079804,45.0712995 L194.50127,45.0712995 L194.50127,35.0266013 L105.079804,35.0266013 L105.079804,45.0712995 Z" id="路径_9830" fill="#231F20"></path>
                    <circle id="椭圆_153" fill="#FF595E" cx="109.568785" cy="39.8669777" r="1.37082859"></circle>
                    <circle id="椭圆_154" fill="#D1D3D4" cx="114.494114" cy="39.8669777" r="1.37082859"></circle>
                    <circle id="椭圆_155" fill="#D1D3D4" cx="119.419443" cy="39.8669777" r="1.37082859"></circle>
                    <path d="M144.107873,87.4781717 C144.107873,87.4781717 124.02813,90.3433965 121.325088,87.4781717 C118.622046,84.6129468 112.449456,68.2672639 112.449456,68.2672639 L105.305701,74.1666537 C105.305701,74.1666537 110.672205,104.768954 119.7747,104.605806 C128.877195,104.442658 149.265857,96.9977074 149.265857,96.9977074 L144.107873,87.4781717 Z" id="路径_9831" fill="#FFFFFF"></path>
                    <path d="M119.698436,104.930171 C110.472373,104.930171 105.203372,75.4785946 104.982301,74.2178185 C104.965862,74.1041471 105.00713,73.9897561 105.092354,73.9127608 L112.236108,68.013371 C112.317506,67.948304 112.424374,67.9244369 112.52572,67.9486911 C112.625393,67.9803402 112.706189,68.0540801 112.74679,68.1504539 C112.805678,68.3126364 118.93193,84.4710371 121.550985,87.2590322 C123.669012,89.5006265 138.508714,87.9473426 144.050916,87.154772 C144.185134,87.1398537 144.315343,87.2062873 144.382039,87.3237121 L149.547746,96.8162174 C149.593283,96.8977073 149.600786,96.9950695 149.568274,97.0825746 C149.535761,97.1700798 149.466505,97.2389216 149.378806,97.2709077 C149.171251,97.3491029 128.821204,104.768954 119.770839,104.931137 L119.698436,104.930171 Z M105.659993,74.2960136 C106.128198,76.8368734 111.377892,104.280476 119.693609,104.280476 L119.765047,104.280476 C128.055663,104.130843 146.053098,97.7835204 148.807305,96.789187 L143.934106,87.8295672 C142.8944,87.9724422 138.431484,88.5642154 133.75329,88.8760307 C126.540994,89.3587168 122.278876,88.9609834 121.090503,87.7002073 C118.595981,85.0492951 113.326014,71.4568538 112.312373,68.8059416 L105.659993,74.2960136 Z" id="路径_9832" fill="#231F20"></path>
                    <rect id="矩形_3318" fill="#FFFFFF" x="0.325330448" y="0.318572842" width="90.0711615" height="96.5941818"></rect>
                    <path d="M90.4283492,97.2438788 L0.325330448,97.2438788 C0.145655403,97.2438788 0,97.0982219 0,96.9185469 L0,0.325330448 C0,0.145655403 0.145655403,7.10542736e-15 0.325330448,7.10542736e-15 L90.4293146,7.10542736e-15 C90.6089897,7.10542736e-15 90.7546451,0.145655403 90.7546451,0.325330448 L90.7546451,96.9195122 C90.7546451,97.0057954 90.7198682,97.0884429 90.6586758,97.1492733 C90.5974834,97.2101036 90.5146324,97.2438788 90.4283492,97.2438788 L90.4283492,97.2438788 Z M0.68251818,96.5941818 L90.0759884,96.5941818 L90.0759884,0.649695523 L0.649695523,0.649695523 L0.68251818,96.5941818 Z" id="路径_9833" fill="#231F20"></path>
                    <rect id="矩形_3319" fill="#FFFFFF" x="0.325330448" y="0.318572842" width="90.0711615" height="10.6943938"></rect>
                    <path d="M90.4283492,11.344095 L0.325330448,11.344095 C0.146952676,11.3409953 0.00309395006,11.1971366 0,11.0187588 L0,0.325330448 C0,0.145655403 0.145655403,0 0.325330448,0 L90.4293146,0 C90.6089897,0 90.7546451,0.145655403 90.7546451,0.325330448 L90.7546451,11.0197242 C90.7546451,11.1060868 90.7202076,11.1888842 90.6589591,11.2497703 C90.5977107,11.3106563 90.5147103,11.3446034 90.4283492,11.344095 Z M0.68251818,10.6943938 L90.0759884,10.6943938 L90.0759884,0.649695523 L0.649695523,0.649695523 L0.68251818,10.6943938 Z" id="路径_9834" fill="#231F20"></path>
                    <circle id="椭圆_156" fill="#FF595E" cx="5.13964185" cy="5.48331437" r="1.37082859"></circle>
                    <circle id="椭圆_157" fill="#D1D3D4" cx="10.0640057" cy="5.48331437" r="1.37082859"></circle>
                    <circle id="椭圆_158" fill="#D1D3D4" cx="14.9893349" cy="5.48331437" r="1.37082859"></circle>
                    <polygon id="路径_9835" fill="#231F20" points="24.3129001 85.8804806 22.1948734 96.9195122 56.5814328 96.9195122 54.6902686 91.3126302"></polygon>
                    <path d="M56.584329,97.2487047 L22.2074232,97.2487047 C22.1116769,97.2488839 22.0209272,97.2059905 21.9602879,97.1318941 C21.8963484,97.0590155 21.869946,96.9605418 21.8888504,96.8654514 L24.0059117,85.8158006 C24.0391218,85.6407435 24.2069705,85.5249709 24.3824069,85.5561155 L54.7568793,90.9882651 C54.8734544,91.0093167 54.969903,91.0910403 55.0098068,91.2025778 L56.9009711,96.8094598 C56.9340138,96.9081247 56.9178133,97.0166424 56.8575352,97.1014152 C56.7972015,97.186188 56.6999585,97.2369872 56.5959134,97.2380851 L56.584329,97.2487047 Z M22.590676,96.5990087 L56.1296386,96.5990087 L54.4469948,91.6022419 L24.5600354,86.2618026 L22.590676,96.5990087 Z" id="路径_9836" fill="#231F20"></path>
                    <polygon id="路径_9837" fill="#FFFFFF" points="68.1369387 54.6352424 87.6374581 78.135299 79.0456451 81.6502194 58.1569204 59.4176965"></polygon>
                    <path d="M79.0514373,81.9755498 C78.9622357,81.9758125 78.8771927,81.9378594 78.8178172,81.8712896 L57.9426077,59.6378014 C57.8702134,59.5644057 57.8387749,59.4599722 57.8586203,59.3588088 C57.8770996,59.2558647 57.944932,59.1685485 58.0401103,59.1251887 L68.0201286,54.3437 C68.1532227,54.2812296 68.3116902,54.3160924 68.4062775,54.4286527 L87.8981086,77.9287094 C87.9660589,78.0086982 87.9902515,78.1170232 87.9627885,78.218321 C87.9363895,78.3180683 87.865001,78.3998082 87.7697141,78.4393913 L79.1865894,81.9543116 C79.1443104,81.9748548 79.0973493,81.9838473 79.0504719,81.9803767 L79.0514373,81.9755498 Z M58.7023557,59.5229221 L79.1363901,81.2688974 L87.1084341,78.0204197 L68.0519859,55.0590408 L58.7023557,59.5229221 Z" id="路径_9838" fill="#231F20"></path>
                    <polygon id="路径_9839" fill="#6F42FF" points="62.2761637 42.3875647 72.1567487 55.2646651 58.6878751 62.6516935"></polygon>
                    <path d="M62.2761637,42.4203873 C61.4507705,41.1209963 42.7128951,35.2216065 36.56637,39.5484049 C30.4198449,43.8752033 23.9035822,77.3359708 22.2074232,87.6924843 L59.6571088,97.3211071 C59.6571088,97.3211071 66.8172748,49.7292206 62.2761637,42.4203873 Z" id="路径_9840" fill="#6F42FF"></path>
                    <path d="M61.496143,88.9281608 L61.4575281,88.9281608 C61.3721673,88.9137695 61.2960618,88.8659518 61.2460556,88.7952909 C61.1960494,88.72463 61.1762665,88.6369532 61.1910853,88.5516656 C61.223908,88.2620539 64.5438232,59.3144017 63.4712946,52.0605946 C63.4446366,51.8811861 63.5684653,51.7141363 63.7478737,51.6874782 C63.9272822,51.6608202 64.0943321,51.7846489 64.1209901,51.9640574 C65.2060685,59.3124709 61.9836559,87.4327992 61.8465731,88.6211724 C61.8326761,88.8014963 61.6766618,88.9373104 61.496143,88.92623 L61.496143,88.9281608 Z" id="路径_9841" fill="#231F20"></path>
                    <path d="M51.8935852,34.3189834 C49.8292461,33.7275979 47.9664916,32.5816984 46.5077734,31.0058259 C45.828727,30.3170786 45.3754968,29.4378929 45.2083824,28.4852389 C45.0729874,27.5033071 45.6025567,26.5500039 46.5077734,26.146142 C45.6202449,25.5429626 45.0781799,24.5486974 45.0519921,23.4759223 C45.0393197,22.4148459 45.3156345,21.3703227 45.8513203,20.4543072 C46.5010158,19.2456611 47.5735444,18.0959028 48.9405115,18.0572879 C48.4472063,16.9953784 47.9529357,15.7568058 48.4404487,14.6920002 C48.7185426,14.170155 49.1198533,13.7241068 49.6095145,13.3926092 C50.5217219,12.6833071 51.4984517,12.0611347 52.5268694,11.5342676 C53.0790623,11.255275 53.7818533,11.0081397 54.2741932,11.3778773 C54.8970973,9.18753307 56.7068406,7.53897997 58.9456295,7.12251645 C60.0342542,6.89915958 61.1662873,7.04559004 62.1622498,7.53859189 C63.0943539,8.2251608 63.9639938,8.99271813 64.7610319,9.83231635 C66.6128583,9.37867961 68.5703212,9.81335414 70.0560987,11.0081397 C71.0920545,12.099298 71.4506712,13.6684771 70.9915444,15.1013181 C72.1358528,15.7476459 73.1265281,16.6342476 73.8953841,17.7001002 C74.66249,18.7844719 74.9010725,20.1564102 74.5450796,21.4360908 C74.1475799,22.7210051 72.932762,23.575583 71.5891098,23.5155026 C72.6702514,24.6695506 72.7260554,26.4470093 71.7194351,27.6666033 C70.6652684,28.8226446 69.015184,29.223614 67.5480616,28.6802441 C67.3454941,28.5835797 67.1226993,28.5369021 66.8983661,28.5441266 C66.6538922,28.6269201 66.4316398,28.7646306 66.2486705,28.9466869 C65.598975,29.4602649 64.7542743,29.2845672 64.0283144,29.5963824 C63.0514594,30.168671 62.1234853,30.8205777 61.2538345,31.545469 C60.3516237,32.1532307 59.4191631,32.7148336 58.4600472,33.2281128 C57.4425472,33.9354795 56.3537871,34.5343784 55.2115696,35.0150168 C54.1718637,35.3200744 53.6003633,34.8653841 52.6127875,34.5603265 L51.8935852,34.3189834 Z" id="路径_9842" fill="#FFFFFF"></path>
                    <path d="M54.5502896,35.4301269 C54.0709848,35.410533 53.6003825,35.2956719 53.1659458,35.0922466 C52.964183,35.0208091 52.756628,34.9358563 52.5162503,34.8644187 L51.7758098,34.6240411 L51.7758098,34.6240411 C49.6609003,34.0092124 47.7522372,32.8325205 46.2529152,31.2191731 C45.5231147,30.4847165 45.0434369,29.5388729 44.8820866,28.5161308 C44.7800679,27.593452 45.157457,26.682764 45.8822122,26.1027002 C45.1694195,25.4207565 44.7480736,24.4895058 44.7062583,23.5039181 C44.6991466,22.3897129 44.9933507,21.2942862 45.5578471,20.3336357 C46.1248116,19.1268982 47.1747122,18.2154654 48.449137,17.8236678 C47.9211459,17.0911375 47.7233532,16.1712676 47.9035793,15.2864547 C48.0838054,14.4016418 48.6256451,13.6324263 49.3980979,13.1647814 C50.3290769,12.4371738 51.3228048,11.7936412 52.367583,11.2417598 C52.8745331,10.9369667 53.4730977,10.8217003 54.0569844,10.9164294 C54.8124522,8.78175371 56.6509754,7.21344998 58.8780534,6.80394361 C60.0346076,6.56564554 61.2376444,6.72129267 62.2954712,7.2460841 C63.2139609,7.92279327 64.0824726,8.66483513 64.8942533,9.46644027 C66.8019546,9.05339853 68.7939221,9.53166973 70.3061301,10.7658313 C71.3633572,11.8786711 71.7755905,13.4561649 71.3979661,14.9439624 C72.5014657,15.5879192 73.4541247,16.4609156 74.1917534,17.5041296 C75.0128622,18.687007 75.24958,20.1798217 74.8346913,21.558693 C74.4469609,22.7333235 73.4515653,23.6044795 72.2359092,23.8331101 C73.0046207,25.1079699 72.8886767,26.7284809 71.9462976,27.8809159 C70.8075547,29.1587501 68.998112,29.6008364 67.3984289,28.9920594 L67.3269913,28.9920594 C67.202231,28.9352963 67.0672544,28.9044257 66.9302233,28.9013144 C66.7838009,28.9452325 66.6509313,29.0256187 66.5440744,29.1349345 L66.4137492,29.2391947 C65.9916687,29.5204651 65.5035486,29.6868319 64.9975481,29.7218808 C64.6988685,29.7495853 64.406015,29.8218225 64.1287131,29.9361934 C63.4731364,30.2780032 62.8579,30.6921544 62.2945058,31.1709045 C61.9894482,31.4045246 61.6901828,31.6323525 61.4044326,31.8206 C60.501384,32.4338249 59.5644487,32.9955993 58.5980955,33.5032439 C58.2534576,33.6963183 57.9097851,33.9193193 57.551632,34.1529394 C56.8640036,34.6475249 56.1091599,35.0412009 55.3100376,35.3220052 C55.0649605,35.3931162 54.8112601,35.430148 54.5560819,35.4320576 L54.5502896,35.4301269 Z M53.6563549,11.5265446 C53.3061306,11.5518597 52.9661854,11.6561535 52.6620215,11.8316023 C51.6510911,12.3513645 50.6897673,12.9624111 49.7900391,13.6571212 C49.347654,13.9594576 48.9806942,14.3594471 48.7175105,14.826187 C48.2888852,15.7548751 48.7561254,16.911391 49.2243309,17.9153782 C49.2763323,18.0128124 49.2763323,18.1297592 49.2243309,18.2271934 C49.1645292,18.3177737 49.0661295,18.3755301 48.9578882,18.3835837 C47.4702496,18.4221986 46.4952236,19.9494175 46.1447935,20.6039399 C45.6403865,21.4695268 45.3779782,22.454808 45.3849064,23.4566149 C45.406298,24.4228626 45.8895038,25.3203473 46.6844366,25.8700455 C46.7937066,25.9325554 46.8559189,26.0535492 46.8431861,26.1787902 C46.8304532,26.3040312 46.7451635,26.4100289 46.6255488,26.4492689 C45.865832,26.8068222 45.4300815,27.6198833 45.5530203,28.4504855 C45.705435,29.3374753 46.1302275,30.1550068 46.7684239,30.7895825 C48.1866201,32.3308835 49.999852,33.4543461 52.0113606,34.0380601 L52.0113606,34.0380601 C52.2449807,34.1230129 52.4940467,34.2002426 52.7392513,34.2784378 C52.9844558,34.3566329 53.2074568,34.4406203 53.3889468,34.5188155 C53.9155964,34.8049412 54.5316225,34.8791821 55.1111709,34.7263705 C55.8483242,34.4627542 56.5439965,34.0950882 57.1770675,33.6345345 C57.5301503,33.3970497 57.8966348,33.1801244 58.2746958,32.984839 C59.2231206,32.4784388 60.144677,31.9232495 61.0356604,31.3215026 C61.314653,31.1284281 61.6013685,30.9054272 61.9044954,30.6718071 C62.5039492,30.1676772 63.1576722,29.7318619 63.853582,29.372416 C64.1854338,29.233765 64.5356533,29.1440151 64.8932879,29.1059733 C65.2913278,29.0844581 65.6767732,28.958972 66.011189,28.7420279 L66.1347566,28.651283 C66.3291004,28.4603696 66.5756866,28.3313654 66.8433398,28.28058 C67.0861795,28.2612665 67.3299546,28.3037777 67.5519231,28.4041477 L67.616603,28.4041477 C68.9642897,28.9046867 70.4809006,28.5372781 71.4500962,27.4754596 C72.340306,26.3841241 72.2959321,24.8051513 71.345836,23.765534 C71.2434863,23.6709028 71.2145449,23.5207202 71.2743985,23.3948311 C71.331118,23.2653816 71.464926,23.1873594 71.6055211,23.2017566 C72.8033899,23.2679545 73.8908991,22.505581 74.2371259,21.3569302 C74.5668507,20.1714878 74.3421832,18.9005014 73.6260453,17.8999322 C72.886057,16.8741018 71.9305038,16.022671 70.8264657,15.4054103 C70.6956305,15.3249621 70.6388812,15.1639712 70.6903483,15.0192614 C71.1163171,13.6908952 70.7831232,12.2359486 69.8215132,11.2253485 C68.4293835,10.1036381 66.5918907,9.69947546 64.8575691,10.1335125 L64.8575691,10.1335125 C64.7741794,10.1639825 64.6819596,10.1590488 64.6022968,10.1198555 C64.5226341,10.0806621 64.4624497,10.0106144 64.4357015,9.92595746 C63.6636224,9.16769877 62.8432717,8.46021084 61.9797945,7.80793074 C61.0518416,7.34337825 59.9937753,7.20724878 58.9784521,7.42178185 C56.864128,7.81537128 55.1536048,9.36967888 54.5599434,11.436765 C54.532471,11.5422389 54.4548529,11.6274382 54.3523883,11.6645929 C54.2496705,11.7029786 54.1344309,11.6858385 54.0473307,11.6192204 C53.9289713,11.550511 53.792962,11.5182718 53.6563549,11.5265446 L53.6563549,11.5265446 Z" id="路径_9843" fill="#231F20"></path>
                    <path d="M66.8365822,29.3675892 C66.8365822,29.3675892 68.2981558,34.5651534 67.4341477,35.2148489 C66.5701395,35.8645444 64.8353656,34.7080284 64.8353656,34.7080284" id="路径_9844" fill="#FFFFFF"></path>
                    <path d="M66.740045,35.7873146 C65.9788735,35.7130391 65.2495506,35.4444461 64.6220183,35.0072938 C64.4772777,34.9018178 64.4426344,34.7003732 64.5438232,34.5526035 C64.6450043,34.4069035 64.844254,34.3691147 64.9917559,34.4676508 C65.3943161,34.7466433 66.6743997,35.433023 67.2265926,34.987021 C67.6484603,34.6491407 67.2265926,31.8553535 66.524767,29.4515766 C66.4865226,29.3380625 66.5139507,29.2127109 66.5961065,29.1255415 C66.6782623,29.0383721 66.8017715,29.0035754 66.9173495,29.0350365 C67.0329275,29.0664976 67.1217592,29.1590949 67.1483975,29.2758788 C67.5055852,30.536655 68.5964558,34.7205783 67.6310836,35.4938415 C67.3781086,35.6939349 67.0624135,35.7979125 66.740045,35.7873146 L66.740045,35.7873146 Z" id="路径_9845" fill="#231F20"></path>
                    <path d="M68.9024789,19.7322088 C69.1271934,19.9679068 69.2606596,20.2759056 69.278974,20.6010438 C69.4168549,21.7418186 69.3418965,22.8982738 69.0579038,24.0117039 C68.5718462,26.2140163 67.9489378,28.3838782 67.1928046,30.5086592 C66.2615422,33.3404178 65.2697831,36.155765 64.2175273,38.954701 C63.5678318,40.7222976 58.8703304,39.2800314 58.2206349,38.4807032 L56.6760393,45.8223591 C56.6760393,45.8223591 54.2461974,45.7258219 51.0363347,42.7881942 C47.8264719,39.8505664 48.0803648,38.9479434 48.0803648,38.9479434 L51.0044774,30.8330242 C51.0044774,30.8330242 54.0772572,31.8331499 57.0728073,28.7478202 C57.5468051,28.254515 57.9503307,27.370234 58.5083159,27.0004964 C59.190834,26.5390485 59.976647,26.6500663 60.5877277,25.9607905 C61.1489599,25.3058852 61.370216,24.4255073 61.1852931,23.5830787 C61.1466782,23.4015887 61.1013057,23.1805184 61.2374232,23.0569508 C61.3268193,22.9942823 61.4333068,22.9605838 61.5424808,22.9604136 C62.1539701,22.853094 62.6971631,22.5057294 63.0511049,21.9956688 C63.4050468,21.4856082 63.5403505,20.8552006 63.4268875,20.2448214 C64.6027109,20.6213166 65.7659844,19.6858709 66.6753651,18.8286203 C66.3963725,19.1018207 68.4883342,19.4783159 68.5201914,19.4783159 C68.6612916,19.540299 68.7906226,19.6261931 68.9024789,19.7322088 Z" id="路径_9846" fill="#FFFFFF"></path>
                    <path d="M56.6818316,46.1428627 L56.6818316,46.1428627 C56.5775714,46.1428627 54.0830495,46.0067452 50.8345719,43.0179528 C47.7222117,40.1652778 47.7096619,39.1197796 47.7810994,38.8533369 L50.705212,30.7249025 C50.7636967,30.5571879 50.9458894,30.4673807 51.1145298,30.5231397 C51.2313398,30.5617546 54.0386423,31.413213 56.8449795,28.5219231 C57.036594,28.307042 57.2102974,28.0768365 57.3643497,27.8336127 C57.6193743,27.4120769 57.9460754,27.0383308 58.329722,26.7292268 C58.6293747,26.5439581 58.9546457,26.4037663 59.2950942,26.3131514 C59.6978916,26.2356402 60.067964,26.0384926 60.3570037,25.7474432 C60.8550018,25.1733392 61.0547908,24.3988442 60.8966468,23.6554816 C60.786162,23.3690635 60.8466772,23.0448219 61.0530371,22.8175385 C61.1811885,22.7106208 61.34098,22.6488754 61.5077274,22.6418407 C62.0393438,22.5621513 62.5118839,22.2598801 62.8071185,21.8106552 C63.1274378,21.3882021 63.2505286,20.848361 63.1449988,20.3288088 C63.1189342,20.2150793 63.1557697,20.0961005 63.241536,20.0169936 C63.3249771,19.9335785 63.4490383,19.9057588 63.5601088,19.945556 C64.5737497,20.2641289 65.6453129,19.3933631 66.4639486,18.6007925 L66.4639486,18.6007925 C66.5250143,18.5393638 66.6080554,18.5048228 66.6946725,18.5048228 C66.7812896,18.5048228 66.8643307,18.5393638 66.9253965,18.6007925 C66.9663059,18.6472615 66.9954424,18.7028857 67.0103492,18.762975 C67.4969128,18.9458105 67.999476,19.0828439 68.5115031,19.1722929 L68.6611358,19.2109077 C68.8335224,19.2769574 68.9937112,19.3712436 69.1351336,19.4899003 L69.1351336,19.4899003 C69.4072044,19.7748948 69.5743425,20.143892 69.6091313,20.5363638 C69.757454,21.7178877 69.682463,22.9167608 69.3880611,24.0705916 C68.9497714,26.0799326 68.3832252,28.0591362 67.6919021,29.9960465 L67.484347,30.645742 C66.5614512,33.472352 65.5352605,36.3182694 64.5090698,39.0917838 C64.2554317,39.6730619 63.6944395,40.0605205 63.0610114,40.0919095 C61.4461295,40.2127642 59.8312086,39.858032 58.4156401,39.071511 L56.9859238,45.9131041 C56.9466022,46.0485658 56.8228826,46.1420429 56.6818316,46.1428627 L56.6818316,46.1428627 Z M48.3912147,39.0483421 C48.3912147,39.0483421 48.4752021,39.9837878 51.2631971,42.543955 C52.6796317,43.9787367 54.4688071,44.9891811 56.428904,45.4613099 L57.9039928,38.4054042 C57.9302138,38.2826785 58.0246848,38.1859774 58.1467655,38.1569007 C58.2688461,38.1278241 58.3967652,38.1715573 58.4754932,38.2692867 C59.8043297,39.1428805 61.3856923,39.5503607 62.9712318,39.4277334 C63.3704625,39.4204338 63.7329779,39.1931188 63.9134351,38.8369256 C64.9656908,36.0692033 65.9667818,33.2300435 66.8829201,30.3908837 L67.0904751,29.7411882 C67.7631596,27.8287578 68.314517,25.8757921 68.7412617,23.8939285 C69.0097176,22.83321 69.084607,21.73276 68.9623319,20.6454509 C68.9473044,20.3926822 68.8515406,20.1514114 68.6891316,19.9571405 C68.6019213,19.8878912 68.5041335,19.83313 68.3995199,19.794958 L68.33484,19.794958 C67.7430966,19.696582 67.1650263,19.5287342 66.6126159,19.2948951 C65.8936695,20.1019356 64.8792655,20.5844215 63.7995211,20.6329011 C63.8011414,21.1815419 63.6324928,21.71717 63.316835,22.1659122 C62.9206107,22.7639839 62.2888813,23.165483 61.579165,23.270298 L61.439186,23.270298 C61.4711178,23.3381854 61.4929101,23.4103928 61.5038659,23.4846107 C61.7272711,24.4386594 61.4783376,25.4419371 60.834863,26.1808954 C60.4714535,26.5613639 60.003535,26.8257227 59.4900994,26.9406433 C59.2102874,27.0090997 58.9428776,27.120819 58.6975288,27.271766 C58.3840007,27.5381808 58.1162612,27.8541852 57.9049582,28.2072117 C57.7282806,28.4779607 57.5304022,28.7342665 57.313185,28.9737173 C55.8122519,30.7338777 53.5032424,31.5857204 51.21879,31.2220693 L48.3921801,39.0579958 L48.3912147,39.0483421 Z" id="路径_9847" fill="#231F20"></path>
                    <path d="M59.4302464,27.834578 C59.5817468,27.0989458 59.5232026,26.3355286 59.2613062,25.6315986 C59.1251685,25.063363 58.9062647,24.5182178 58.6116107,24.0136347 C58.3323712,23.5182505 57.8507103,23.1695224 57.2929122,23.0588815 C56.7734675,23.0264261 56.2649861,23.2179412 55.8960186,23.5850094 C55.532627,23.9516948 55.2570335,24.3959448 55.0899327,24.8844004 C54.3001104,27.0290957 54.7164849,29.4323606 56.1817687,31.1863505 L56.0775085,30.9652802" id="路径_9848" fill="#FFFFFF"></path>
                    <path d="M56.1489461,31.5116815 C56.0531998,31.5118606 55.96245,31.4689672 55.9018108,31.3948709 C54.3693704,29.5464664 53.9317794,27.0241641 54.7520524,24.7675904 C54.9378951,24.2343196 55.2422126,23.7501182 55.6421256,23.3513893 C56.0769567,22.9173467 56.6792891,22.6942475 57.2919468,22.7403087 C57.9722502,22.840096 58.5701744,23.2440412 58.9166683,23.8379369 C59.2152189,24.3728611 59.4340912,24.9484985 59.5663638,25.5466458 C59.8465102,26.3096126 59.9050792,27.1362714 59.735304,27.9311153 C59.6819879,28.1105237 59.4933275,28.2127418 59.313919,28.1594258 C59.1345105,28.1061097 59.0322924,27.9174493 59.0856085,27.7380408 C59.208266,27.0582438 59.1455738,26.3579593 58.9041185,25.7107591 C58.7864408,25.1761972 58.5913062,24.6616924 58.3248951,24.1835402 C58.0829868,23.7575809 57.6634441,23.4619538 57.180929,23.3774544 C56.7560774,23.3554508 56.3421329,23.5163902 56.0437205,23.8195949 C55.7247624,24.154098 55.484929,24.5559096 55.3418949,24.9954183 C54.6504554,26.8947197 54.9424341,29.0130109 56.1219157,30.6544304 C56.2075322,30.6804331 56.2778524,30.7419633 56.3149901,30.8233705 L56.4192503,31.0444408 C56.4873573,31.1909566 56.4376164,31.3652552 56.3024403,31.4537586 C56.256684,31.4851402 56.2040274,31.5050106 56.1489461,31.5116815 L56.1489461,31.5116815 Z" id="路径_9849" fill="#231F20"></path>
                    <path d="M58.2216003,38.4768417 C56.9750712,37.5883271 56.0116494,36.3587407 55.4471205,34.9358563 C55.4471205,34.9358563 54.2259246,39.3147848 57.5323245,41.7446268 L58.2216003,38.4768417 Z" id="路径_9850" fill="#231F20"></path>
                    <path d="M57.5332899,42.0699662 C57.4644348,42.0704599 57.3970697,42.0499136 57.3402154,42.0110695 C53.889975,39.4702097 55.1198593,34.8673149 55.1198593,34.8673149 C55.1577244,34.726058 55.2854321,34.6276084 55.4316745,34.6269372 L55.4316745,34.6269372 C55.5752783,34.6289482 55.701214,34.7233025 55.7434897,34.8605573 C56.280162,36.2167612 57.2015893,37.3864974 58.3944019,38.2258449 C58.4999133,38.300413 58.5511091,38.4304882 58.5247272,38.5569676 L57.8364168,41.8054452 C57.8160311,41.9154379 57.7394475,42.0066786 57.634654,42.0458229 C57.6023171,42.0590605 57.5681226,42.0672021 57.5332899,42.0699662 L57.5332899,42.0699662 Z M55.5842033,36.0846493 C55.331608,37.9552973 55.9755392,39.8355764 57.3218734,41.1586458 L57.8547588,38.6119938 C56.94862,37.919519 56.1815235,37.0620218 55.593857,36.0846493 L55.5842033,36.0846493 Z" id="路径_9851" fill="#231F20"></path>
                    <ellipse id="椭圆_159" fill="#231F20" transform="translate(65.585942, 26.483810) rotate(-70.114835) translate(-65.585942, -26.483810) " cx="65.5859425" cy="26.4838099" rx="1.06534457" ry="1"></ellipse>
                    <path d="M64.8093005,34.7340935 L62.0280631,32.5253218 C62.0280631,32.5253218 59.8772137,36.0402421 60.9429847,37.8918261 C62.0087556,39.7434101 64.1142325,36.5731276 64.8093005,34.7340935 Z" id="路径_9852" fill="#FFFFFF"></path>
                    <path d="M61.7423129,38.7818993 C61.2708401,38.7678075 60.8491088,38.4849024 60.6572345,38.0540087 C59.5132684,36.0595496 61.6573601,32.505049 61.7548627,32.3583124 C61.8030943,32.2784767 61.883891,32.223789 61.975933,32.2086797 C62.0656747,32.1912525 62.1585017,32.2149907 62.2288605,32.2733596 L65.0100979,34.4821313 C65.1187565,34.5718659 65.160311,34.7196153 65.1143581,34.8528343 C64.6664254,36.0354153 63.2299515,38.66702 61.8658805,38.7510074 L61.7423129,38.7818993 Z M62.1284618,33.018627 C61.6457757,33.8961504 60.445818,36.3713648 61.2248734,37.7354358 C61.439186,38.111931 61.646741,38.137996 61.7838239,38.1322038 C62.5638447,38.0675239 63.7975904,36.358815 64.4212209,34.8441459 L62.1284618,33.018627 Z" id="路径_9853" fill="#231F20"></path>
                    <polygon id="矩形_3320" fill="#FFFFFF" transform="translate(87.081446, 84.296734) rotate(52.520000) translate(-87.081446, -84.296734) " points="65.9296577 44.0498822 108.233235 44.0498822 108.233235 124.543586 65.9296577 124.543586"></polygon>
                    <path d="M68.013371,125.891299 C67.9132677,125.890011 67.819592,125.841743 67.7604435,125.760974 L42.0178271,92.1998073 C41.9652532,92.1314243 41.9419882,92.0449617 41.9531472,91.9594296 C41.9659523,91.8731205 42.0099066,91.7944834 42.0767148,91.7383594 L105.95057,42.7621291 C106.018101,42.7081392 106.104675,42.6839162 106.190419,42.6950211 C106.276163,42.7061259 106.353711,42.7516047 106.40526,42.8210168 L132.146911,76.3918368 C132.200179,76.4598748 132.223523,76.5466326 132.211591,76.6322144 C132.198344,76.7164826 132.154316,76.7928438 132.088023,76.8465271 L68.2141684,125.822757 C68.156677,125.868249 68.0857138,125.894195 68.0124056,125.894195 L68.013371,125.891299 Z M42.7360641,92.0521054 L68.0751548,125.110313 L131.429639,76.5240928 L106.090549,43.4726431 L42.7360641,92.0521054 Z" id="路径_9854" fill="#231F20"></path>
                    <path d="M73.4513129,115.228762 L73.3904944,115.228762 C73.3006444,115.217273 73.2213449,115.164407 73.1761818,115.085887 L73.0333067,114.892813 C70.8506803,112.054051 66.7826249,111.516508 63.9375694,113.690924 C63.8700384,113.744914 63.7834635,113.769137 63.6977196,113.758032 C63.6119757,113.746928 63.534428,113.701449 63.4828791,113.632037 L52.6388526,99.4874024 C52.5302032,99.3454071 52.5565023,99.1423441 52.6977403,99.0327121 C55.5365023,96.8500857 56.0740452,92.7820303 53.8996287,89.9369748 C53.8535332,89.8697725 53.8035714,89.8053057 53.749996,89.7439003 C53.6840087,89.6797064 53.6524721,89.5879635 53.6650433,89.496765 C53.6712247,89.4064906 53.7163161,89.3233534 53.7886109,89.2689372 L100.530004,53.4304578 C100.600785,53.3722183 100.693605,53.3480714 100.783794,53.3644355 C100.873982,53.3807996 100.952402,53.4360169 100.99821,53.5154106 L101.134327,53.708485 C103.314905,56.5494384 107.383243,57.0900412 110.230065,54.9171311 C110.299843,54.8674451 110.385153,54.8444901 110.470442,54.8524512 C110.554711,54.8656982 110.631072,54.9097262 110.684755,54.9760188 L121.528782,69.120653 C121.637431,69.2626483 121.611132,69.4657113 121.469894,69.5753433 C118.631132,71.7579697 118.093589,75.8260251 120.268005,78.6710806 L120.424396,78.8641551 C120.488734,78.9293412 120.51968,79.0204001 120.508383,79.1112904 C120.500621,79.2027108 120.456015,79.287044 120.384815,79.3449105 L73.643422,115.196905 C73.5845626,115.228159 73.5171098,115.239344 73.4513129,115.228762 L73.4513129,115.228762 Z M67.8762882,111.694535 C70.0794212,111.692017 72.1604711,112.706181 73.5159928,114.442949 L119.724501,79.0137878 C117.447567,75.9866858 117.929166,71.7086327 120.822129,69.2635281 L110.364252,55.6228182 C107.240502,57.7820445 102.973384,57.1200518 100.650676,54.1158721 L54.4402372,89.5517912 C56.7171711,92.5788933 56.2355725,96.8569463 53.342609,99.302051 L63.796625,112.946622 C64.9980062,112.124862 66.4217423,111.689691 67.8772535,111.699361 L67.8762882,111.694535 Z" id="路径_9855" fill="#D1D3D4"></path>
                    <path d="M52.9525986,61.5482731 C52.9525986,61.5482731 72.7948598,85.7897356 76.3812177,86.6537438 C79.9675756,87.5177519 85.8804806,86.4606693 85.476955,88.355695 C85.0734294,90.2507208 79.3564949,90.2594091 79.3564949,90.2594091 C79.3564949,90.2594091 86.3602706,93.3128815 85.4962624,95.375882 C84.6322543,97.4388825 81.3248889,99.1186302 78.3525078,97.8510965 C75.3801266,96.5835627 73.7332016,94.3622412 71.1469693,93.0947074 C68.5607371,91.8271736 44.2980364,69.3648922 44.2980364,69.3648922 L52.9525986,61.5482731 Z" id="路径_9856" fill="#FFFFFF"></path>
                    <path d="M80.5072186,98.6147109 C79.7209938,98.6157334 78.9428174,98.4564191 78.2202518,98.1465004 C76.7469727,97.4584517 75.3741698,96.5731287 74.1396233,95.5148956 C73.1740381,94.6924583 72.1216813,93.9777232 71.0011981,93.3833537 C68.402416,92.0839627 45.0645419,70.5194774 44.0673124,69.5965815 C44.0009873,69.5341985 43.9630522,69.4472565 43.9630522,69.3562038 C43.9639372,69.2640854 44.0039502,69.1766886 44.0731046,69.1158261 L52.7276668,61.3194798 C52.794757,61.2622378 52.8819106,61.2341245 52.9698037,61.2413735 C53.0576969,61.2486224 53.1390669,61.2906344 53.1958724,61.3580947 C58.6984942,68.0761202 73.5970841,85.6642372 76.4555513,86.3467554 C77.9869446,86.6350929 79.5426642,86.7744352 81.1009226,86.7628308 C83.2903868,86.8217185 84.9990957,86.867091 85.5966611,87.6007739 C85.7786366,87.8392813 85.8432001,88.1471997 85.7723589,88.438717 C85.427721,89.9659359 82.4900932,90.3878036 80.6848471,90.5441939 C82.8289389,91.5964497 86.5321069,93.721234 85.7723589,95.5148956 C85.1751617,96.7425723 84.1247643,97.6905257 82.8424541,98.1590502 C82.1007194,98.4601396 81.3077342,98.6147109 80.5072186,98.6147109 L80.5072186,98.6147109 Z M44.7729995,69.3813035 C47.3717816,71.8111454 68.9227517,91.6534066 71.2879137,92.8166802 C72.4460168,93.4333682 73.5350077,94.1718756 74.5363913,95.0196597 C75.7242022,96.0474772 77.0495521,96.904617 78.4741447,97.5663116 C79.7939638,98.1189454 81.2803266,98.1189454 82.6001457,97.5663116 C83.7317176,97.1651063 84.6633997,96.3403669 85.1989278,95.2658296 C85.7125058,94.0446337 82.0131994,91.7904895 79.2281004,90.5750858 C79.0850704,90.5154637 79.004188,90.3630003 79.035026,90.2111405 C79.0637136,90.0584929 79.1983019,89.9487831 79.3535988,89.9514554 C81.4523181,89.9514554 84.8890433,89.5035226 85.155486,88.3103225 C85.1906861,88.2091933 85.1737077,88.0972079 85.1101135,88.0110571 C84.7239646,87.5109943 82.8820344,87.4656218 81.1076802,87.4202493 C79.5012548,87.4307634 77.8976175,87.2849488 76.3194338,86.9848664 C72.8305785,86.1536809 55.2096389,64.8160581 52.9294296,62.0415783 L44.7729995,69.3813035 Z" id="路径_9857" fill="#231F20"></path>
                    <polyline id="路径_9858" fill="#6F42FF" points="46.2673957 49.2880455 54.4151375 59.9824393 42.8171553 70.676833 35.8519946 62.6526589"></polyline>
                    <path d="M42.8171553,71.0079557 L42.8171553,71.0079557 C42.7296388,71.0028763 42.6477079,70.9632995 42.5893275,70.8979033 L35.6241667,62.8737292 C35.5097596,62.7446457 35.5163862,62.5486006 35.6392488,62.4275372 C35.7621114,62.3064739 35.9582329,62.3027399 36.0856146,62.4190388 L42.8297052,70.2153851 L53.9787893,59.9631318 L46.0067452,49.5023581 C45.928176,49.410197 45.9069261,49.2821803 45.9515061,49.1695773 C45.996086,49.0569743 46.0992066,48.9781963 46.2195692,48.964793 C46.3399318,48.9513897 46.4578564,49.0055526 46.5261155,49.1055902 L54.6931647,59.7806765 C54.7924638,59.9170336 54.775983,60.1057378 54.6545498,60.222817 L43.0546369,70.9172107 C42.9892842,70.97556 42.9047659,71.0079557 42.8171553,71.0079557 L42.8171553,71.0079557 Z" id="路径_9859" fill="#231F20"></path>
                    <path d="M166.218759,63.861305 C168.14198,63.9862921 170.019243,64.5037386 171.734896,65.3817663 C174.72755,66.8114826 177.582156,69.1631294 178.231851,72.411607 C178.771494,75.0103891 177.770403,77.7520463 176.503835,80.1239659 C175.237267,82.4958855 173.677225,84.7577527 172.969607,87.3488118 C172.261989,89.9398709 172.593112,93.059954 174.645493,94.7947279 C171.871457,93.7371103 169.286882,92.2374832 166.992022,90.3540156 C165.624835,89.2519552 164.730126,87.6693794 164.490743,85.9297146 C164.495799,84.4976627 164.843351,83.0875964 165.504384,81.8172288 C166.460544,79.9230296 167.086713,77.8796576 167.355968,75.7749639 C167.486293,73.6636948 166.706272,71.3439053 164.873996,70.2781343 C163.275339,69.3426886 158.044952,69.4334336 158.863588,66.4967712 C159.526799,64.1576743 164.347868,63.7570448 166.218759,63.861305 Z" id="路径_9860" fill="#FFFFFF"></path>
                    <path d="M174.671558,95.0872357 C174.628681,95.0971371 174.584111,95.0971371 174.541233,95.0872357 C171.733094,94.0155604 169.117641,92.4949333 166.797017,90.5847395 C165.369146,89.4251139 164.439274,87.7629492 164.198235,85.9393683 C164.198705,84.4566583 164.554922,82.9957035 165.236976,81.6791806 L165.347993,81.4243223 C166.2353,79.6415786 166.815272,77.7218296 167.06346,75.7460027 C167.310529,73.7185191 166.419652,71.7199842 164.746566,70.5484385 C164.093619,70.2487009 163.406252,70.0304943 162.699977,69.898743 C161.155382,69.5347977 159.39937,69.1187222 158.741951,68.0143364 C158.459311,67.514503 158.400431,66.9186913 158.579768,66.3732036 C159.294144,63.8130364 164.349798,63.4297836 166.23324,63.5079787 C168.202421,63.6305103 170.124915,64.1593687 171.879702,65.0612627 C174.036344,66.094211 177.768473,68.4072429 178.585178,72.3189312 C179.053383,74.5991405 178.494433,77.1206928 176.824339,80.2456028 C176.499974,80.8624756 176.174643,81.4667987 175.80394,82.07981 C174.756221,83.7454726 173.9202,85.5352318 173.31521,87.4076995 C172.717645,89.5710987 172.775567,92.7288313 174.887802,94.5514541 C175.014294,94.6547186 175.042226,94.8369045 174.952482,94.9733218 C174.884391,95.0552579 174.779181,95.0967596 174.673489,95.0833742 L174.671558,95.0872357 Z M165.795926,64.1412629 C163.619012,64.1412629 159.734354,64.6866982 159.220776,66.5450398 C159.088205,66.9175259 159.12123,67.3289218 159.311521,67.6754907 C159.825099,68.5443257 161.43534,68.9227517 162.859264,69.260632 C163.627712,69.3931002 164.37464,69.6291945 165.07962,69.9624576 C166.969768,71.2510848 167.988373,73.4824217 167.723774,75.7546911 C167.478107,77.8054968 166.878058,79.7980401 165.950386,81.6434618 L165.840333,81.9031469 C165.202704,83.1254962 164.866424,84.4825283 164.859515,85.8611731 C165.116236,87.5106103 165.969119,89.0085658 167.256534,90.0711615 C169.109911,91.646113 171.19939,92.9198679 173.448432,93.845767 C172.299435,91.835832 172.026829,89.4420613 172.694476,87.2252441 C173.312065,85.2975348 174.169951,83.4552704 175.247886,81.7419298 C175.592524,81.1376067 175.936196,80.5400413 176.261527,79.9289607 C177.853425,76.9469258 178.393069,74.5624563 177.957686,72.437672 C177.20373,68.799184 173.656952,66.5904123 171.609398,65.6346938 C169.935977,64.7725776 168.102259,64.2660784 166.223586,64.1470552 L165.795926,64.1412629 Z" id="路径_9861" fill="#231F20"></path>
                    <path d="M163.878697,64.5110005 C164.510532,65.6070646 164.753111,66.8845988 164.567007,68.1359733 C164.512061,68.9811374 164.206559,69.7907683 163.689484,70.461555 C162.998088,71.2357068 161.981751,71.6379472 160.947827,71.5466334 C160.488131,71.5405735 160.047473,71.3621051 159.713116,71.0465706 C159.471212,70.7469539 159.314183,70.3878877 159.258425,70.0068647 C158.70044,67.344368 160.598362,59.3510858 163.878697,64.5110005 Z" id="路径_9862" fill="#231F20"></path>
                    <path d="M161.208477,71.859414 L160.918865,71.859414 C160.377581,71.8461902 159.860912,71.6305668 159.470807,71.255091 C159.189185,70.9117299 159.005124,70.4989269 158.937922,70.0599602 C158.528604,68.1108736 159.359789,63.3679998 161.254815,62.5947366 C162.203776,62.2085877 163.203902,62.787811 164.150932,64.3227529 L164.150932,64.3227529 C164.823304,65.4828755 165.084212,66.8360591 164.891372,68.1630037 C164.829269,69.0701838 164.498967,69.9384442 163.942411,70.6575256 C163.246056,71.4322739 162.250126,71.8701034 161.208477,71.859414 L161.208477,71.859414 Z M161.806043,63.1266567 C161.700978,63.1268917 161.597105,63.1489156 161.500985,63.1913366 C160.084784,63.77056 159.184092,68.0645357 159.551898,69.9228773 C159.598154,70.2441004 159.725762,70.5481655 159.922601,70.8061929 C160.206052,71.0571712 160.570229,71.1979772 160.948792,71.2029609 C161.877547,71.2866079 162.791652,70.9291167 163.417249,70.2375887 C163.893774,69.6167072 164.174417,68.8678778 164.223335,68.0867393 C164.397273,66.9069506 164.168382,65.7029739 163.573639,64.6693215 L163.573639,64.6693215 C163.138256,63.9346733 162.476011,63.1247259 161.806043,63.1247259 L161.806043,63.1266567 Z" id="路径_9863" fill="#231F20"></path>
                    <path d="M146.733686,81.7419298 C147.513706,82.6455182 148.682772,83.1581308 150.631859,82.9573334 C152.245073,82.7368579 153.77739,82.1158992 155.088982,81.1511219 C160.317495,77.4519202 163.004534,71.1141277 162.028078,64.7842008 C160.966169,58.5092812 154.698972,52.2700804 147.961639,54.6806149 C145.662308,55.5218247 143.852381,57.3363452 143.017002,59.6378014 C142.091954,59.3326209 141.073937,59.5999828 140.41822,60.3203196 C138.68055,62.0579896 138.748126,63.9134351 139.683572,65.9986391 C141.228168,69.4228145 143.114505,72.6838419 144.497884,76.1794549 C145.284662,78.2202518 145.596477,80.4097161 146.733686,81.7419298 Z" id="路径_9864" fill="#FFFFFF"></path>
                    <path d="M149.806465,83.3521707 C148.546271,83.4314889 147.320371,82.9228063 146.48655,81.9745845 L146.48655,81.9745845 C145.705855,80.8851079 145.151432,79.6502125 144.856037,78.3428541 C144.648482,77.6931585 144.434169,76.9913329 144.206341,76.32233 C143.394463,74.2757408 142.38758,72.2745241 141.412554,70.3321952 C140.762858,68.9739164 140.02821,67.5712305 139.398787,66.1608217 C138.287644,63.6856072 138.541537,61.7683779 140.198116,60.1117992 C140.879444,59.3908837 141.881626,59.0676227 142.855785,59.2545486 C143.766805,56.9960012 145.595068,55.2312657 147.884409,54.4006569 C150.548091,53.444626 153.502367,53.7556211 155.908583,55.2453577 C159.326242,57.3499841 161.688259,60.8080749 162.405539,64.7571704 C163.346889,71.2058794 160.590453,77.6374406 155.271438,81.4030841 C153.914162,82.3969779 152.331112,83.0378944 150.664681,83.2681833 C150.380685,83.3120395 150.094511,83.3403991 149.807431,83.353136 L149.806465,83.3521707 Z M146.953791,81.5266517 C147.878385,82.5114919 149.256052,82.9318844 150.572971,82.6310376 C152.13312,82.4166017 153.614337,81.813426 154.880462,80.8769562 C159.988057,77.2406145 162.617939,71.0418986 161.68344,64.8421232 C161.007058,61.0829348 158.765649,57.7880239 155.517608,55.7782431 C153.276243,54.393945 150.52752,54.1023815 148.045627,54.9856725 C145.835281,55.7881428 144.095322,57.5305769 143.295995,59.7420616 C143.26634,59.8277644 143.202832,59.8975536 143.120297,59.935136 C143.038057,59.973819 142.942852,59.973819 142.860612,59.935136 C142.042726,59.6879081 141.155835,59.9420066 140.592953,60.5848316 C139.117864,62.0599204 138.917067,63.6518192 139.943257,65.9059634 C140.592953,67.302857 141.242648,68.6997507 141.951232,70.0512718 C142.926257,72.0003584 143.939898,74.0276401 144.764326,76.0935367 C145.037527,76.7818471 145.247012,77.4836728 145.459394,78.1661909 C145.740849,79.3844838 146.252321,80.537836 146.96634,81.5643013 L146.953791,81.5266517 Z" id="路径_9865" fill="#231F20"></path>
                    <path d="M141.705062,67.2526577 C141.705062,67.2526577 137.624433,70.7347554 137.956521,71.8005263 C138.288609,72.8662973 140.412428,72.8334746 140.412428,72.8334746" id="路径_9866" fill="#FFFFFF"></path>
                    <path d="M140.371883,73.1520475 C139.985734,73.1520475 138.020236,73.0931598 137.642775,71.8912713 C137.265315,70.6893829 140.49545,67.8560153 141.488818,67.0055224 C141.627559,66.890821 141.832519,66.9079724 141.950266,67.0441373 C142.006509,67.1090932 142.034128,67.1940135 142.026858,67.2796267 C142.019587,67.36524 141.978042,67.4442864 141.911651,67.4988276 C140.020487,69.1167915 138.104223,71.1826881 138.266406,71.6962661 C138.480718,72.3459617 139.907538,72.5149018 140.40374,72.502352 L140.40374,72.502352 C140.580809,72.5023138 140.725392,72.6438942 140.72907,72.8209248 C140.729198,72.9990078 140.588453,73.145298 140.410497,73.1520475 L140.371883,73.1520475 Z" id="路径_9867" fill="#231F20"></path>
                    <path d="M139.488567,90.7015496 C144.076016,91.0519797 151.905185,86.4326735 151.963107,86.2608372 C152.796478,83.2821908 153.479537,80.2635214 154.009696,77.2162647 C154.009696,77.2162647 150.904094,76.3474296 150.111523,72.1355105 C149.318953,67.9235914 145.446844,67.2816188 143.912868,61.7403821 C141.683823,62.6951353 141.314086,65.9638857 140.742585,67.9969597 C139.941326,70.8641153 139.209253,73.7444643 138.546364,76.6380067 C138.117738,78.472214 142.794001,79.8864843 143.743928,79.5553616 C142.756352,82.2941227 142.756352,82.2941227 139.488567,90.7015496 Z" id="路径_9868" fill="#FFFFFF"></path>
                    <path d="M139.969322,91.0461875 L139.462502,91.0461875 C139.361233,91.0377752 139.269758,90.9823904 139.215367,90.8965548 C139.167816,90.805873 139.167816,90.6976249 139.215367,90.6069431 C142.275597,82.7188865 142.463844,82.2323389 143.341368,79.9511642 C141.730601,79.8224035 140.193615,79.2213099 138.922859,78.2231479 C138.412502,77.8484555 138.160348,77.2156362 138.273163,76.5926342 C138.922859,73.7081019 139.676814,70.8004007 140.476143,67.9448296 C140.566888,67.6069493 140.657633,67.2304541 140.755135,66.8336861 C141.229133,64.8257118 141.826698,62.33119 143.834673,61.4739394 C143.919222,61.4350155 144.016566,61.4350155 144.101116,61.4739394 C144.185726,61.516026 144.249274,61.5910959 144.276813,61.6814944 C144.896796,63.8499956 146.080665,65.8153382 147.707746,67.3771907 C149.013895,68.806907 150.085458,69.9759728 150.475468,72.1007571 C151.196602,76.0510604 153.997146,76.8957611 154.113956,76.9276184 C154.275845,76.9723556 154.377069,77.1329744 154.347577,77.2983213 C153.818306,80.3637545 153.130684,83.3997303 152.287472,86.3940586 C152.11274,86.8419913 144.537464,91.0461875 139.969322,91.0461875 Z M139.969322,90.396492 C144.166761,90.396492 150.897336,86.667259 151.664807,86.0754858 C152.461567,83.2280129 153.112113,80.3416381 153.613894,77.4276812 C151.507603,76.4745271 150.055232,74.4868597 149.787158,72.1905367 C149.436728,70.2414502 148.390264,69.1109993 147.188376,67.7923008 C145.597703,66.2421468 144.407098,64.3290298 143.718828,62.217276 C142.27077,63.0861111 141.769742,65.225376 141.346908,66.9601499 C141.250371,67.3627101 141.153834,67.7459629 141.057297,68.0973584 C140.264726,70.9432758 139.524286,73.8413233 138.861075,76.7190979 C138.817641,77.1125365 138.991895,77.4984104 139.315765,77.7259812 C140.56249,78.7082849 142.101706,79.2458214 143.688902,79.2532001 C143.807562,79.219395 143.935177,79.2543681 144.020024,79.3439451 C144.104239,79.4350294 144.129325,79.5660783 144.084704,79.6818254 C143.051756,82.3655602 143.051756,82.4109327 139.952911,90.3974573 L139.969322,90.396492 Z" id="路径_9869" fill="#231F20"></path>
                    <path d="M139.248189,74.5363913 C139.700024,75.0746079 140.364005,75.3891589 141.066682,75.3978752 C141.76936,75.4065914 142.440939,75.1086071 142.905985,74.5817638" id="路径_9870" fill="#FFFFFF"></path>
                    <path d="M141.172176,75.7643448 L141.172176,75.7643448 C140.357514,75.7055702 139.59358,75.3468201 139.028084,74.7574615 C138.905991,74.6241714 138.915067,74.417142 139.048357,74.2950483 C139.181647,74.1729546 139.388677,74.182031 139.51077,74.315321 C139.952577,74.7748381 140.545861,75.0587915 141.180864,75.1146493 C141.765642,75.0747113 142.310393,74.8033776 142.694568,74.3606935 C142.773377,74.2710056 142.894877,74.2315214 143.011354,74.2577471 C143.127832,74.2839727 143.220685,74.3717201 143.25345,74.4865296 C143.286214,74.601339 143.253658,74.7248762 143.168566,74.8086263 C142.669283,75.3953917 141.944262,75.7424611 141.174107,75.7633794 L141.172176,75.7643448 Z" id="路径_9871" fill="#231F20"></path>
                    <path d="M143.803781,79.5650153 C145.200048,79.8828924 146.665616,79.6078145 147.851587,78.8052674 C147.851587,78.8052674 146.441178,83.1320658 142.354757,83.3212788 L143.803781,79.5650153 Z" id="路径_9872" fill="#231F20"></path>
                    <path d="M142.353792,83.6456438 C142.249399,83.6466337 142.150652,83.5983338 142.087349,83.5153186 C142.025992,83.4232977 142.011678,83.3077116 142.048734,83.2035033 L143.504515,79.4482053 C143.564061,79.298174 143.72311,79.2129399 143.881011,79.2464425 C145.178276,79.5375075 146.538139,79.2864558 147.645962,78.5513745 C147.761356,78.4685529 147.916718,78.4685529 148.032111,78.5513745 C148.153699,78.6317888 148.206953,78.783267 148.162437,78.9220774 C148.162437,78.9674499 146.629425,83.4699461 142.370203,83.6649513 L142.353792,83.6456438 Z M144.010371,79.9357183 L142.851924,82.9505758 C144.729687,82.5873081 146.320769,81.3485242 147.13335,79.6171454 C146.140855,80.0060111 145.060941,80.1161722 144.010371,79.9357183 Z" id="路径_9873" fill="#231F20"></path>
                    <ellipse id="椭圆_160" fill="#231F20" transform="translate(143.076060, 66.161712) rotate(-77.970000) translate(-143.076060, -66.161712) " cx="143.07606" cy="66.161712" rx="1.05901336" ry="1"></ellipse>
                    <path d="M147.103423,70.3901175 C147.386684,69.694739 147.859265,69.0927255 148.467494,68.6524474 C148.883782,68.2535958 149.356787,67.9185241 149.871145,67.658114 C150.401259,67.4056917 151.016918,67.4056917 151.547032,67.658114 C151.994753,67.9165495 152.310856,68.3538246 152.415867,68.8600025 C152.515679,69.3640854 152.497839,69.8844008 152.363737,70.3804638 C151.833614,72.5940074 150.161128,74.3555838 147.97805,74.99977 L148.185605,74.8762023" id="路径_9874" fill="#FFFFFF"></path>
                    <path d="M147.975154,75.3038622 C147.845381,75.3064803 147.726996,75.2301027 147.675889,75.1107878 C147.613781,74.962837 147.669182,74.7917085 147.806214,74.7082276 L148.013769,74.5779023 C148.089829,74.5322174 148.181495,74.5203218 148.266697,74.5450796 C150.152952,73.8406795 151.566988,72.2465436 152.041302,70.2897188 C152.163342,69.8427843 152.181176,69.3738024 152.093432,68.9188902 C152.013501,68.5018844 151.757753,68.1395454 151.391607,67.9245568 C150.945407,67.7307584 150.436224,67.7449024 150.001471,67.9631717 C149.524187,68.2113473 149.086304,68.5288617 148.70208,68.905375 C148.133153,69.3032026 147.683823,69.8490083 147.402689,70.4837586 C147.346866,70.6543101 147.165342,70.749353 146.993371,70.6980712 C146.824096,70.644795 146.728745,70.4656904 146.779058,70.295511 C147.083495,69.541003 147.594812,68.8878026 148.254147,68.4111044 C148.691981,67.9847555 149.193957,67.6296919 149.741786,67.3588486 C150.357484,67.0616102 151.075174,67.0616102 151.690872,67.3588486 C152.22279,67.6636762 152.598776,68.1816232 152.72382,68.7818073 C152.831488,69.3331393 152.813671,69.9016359 152.67169,70.4451437 C152.104123,72.771819 150.346349,74.6236346 148.052384,75.3115852 L147.975154,75.3038622 Z" id="路径_9875" fill="#231F20"></path>
                    <path d="M138.723027,87.2908894 C138.723027,87.2908894 152.624387,81.6772498 156.973389,86.576514 C161.322391,91.4757781 163.730995,102.819867 161.891961,127.392453 L129.366639,126.234006 C129.366639,126.234006 131.965421,90.3115392 138.723027,87.2908894 Z" id="路径_9876" fill="#6F42FF"></path>
                    <path d="M119.458058,94.7232904 C117.956904,93.4238993 105.460161,76.8754883 105.300874,74.1656884 C105.141588,71.4558884 104.001483,66.732322 103.351788,67.0644101 C102.702092,67.3964981 102.376762,71.7030237 102.376762,71.7030237 C102.376762,71.7030237 99.2875704,66.1540641 97.9910754,66.2001133 C96.6945805,66.2467398 93.5986317,69.8388899 93.7617796,71.7030237 C93.9249275,73.5671576 108.230779,107.697893 114.890882,108.676781 C121.550985,109.655668 138.878452,101.847738 140.457801,101.533026 C142.03715,101.218315 147.818764,88.5381504 140.457801,86.6740166 C140.459731,86.6605014 120.96597,96.003374 119.458058,94.7232904 Z" id="路径_9877" fill="#FFFFFF"></path>
                    <path d="M116.15745,109.075682 C115.722875,109.078368 115.288647,109.050301 114.858059,108.991492 C107.899656,107.977851 93.6314544,73.8027084 93.4171417,71.7281234 C93.3128815,70.5001699 94.4172674,68.7721536 95.3662283,67.6610101 C95.7301736,67.2516923 96.9909498,65.9069288 97.9650104,65.8741061 L97.9650104,65.8741061 C99.1234571,65.8741061 101.063855,68.8667601 102.110319,70.643045 C102.279259,69.0183235 102.593005,67.0566871 103.172228,66.7448719 C103.317849,66.6641115 103.494813,66.6641115 103.640434,66.7448719 C104.543057,67.2642421 105.459195,71.890306 105.58952,74.100043 C105.739153,76.5887727 117.84299,92.8968061 119.629894,94.4230596 C120.558582,95.0727551 130.857174,90.8367017 140.28886,86.3206903 C140.357316,86.2915012 140.434717,86.2915012 140.503173,86.3206903 C143.101955,86.9703859 144.472784,89.0362825 144.401346,92.2393876 C144.304809,96.293951 141.743676,101.556195 140.503173,101.81588 C140.177843,101.88056 138.982712,102.348766 137.462251,102.946331 C132.276271,105.001609 121.861835,109.075682 116.15745,109.075682 Z M98.0084521,66.524767 L98.0084521,66.524767 C97.6445068,66.524767 96.8500054,67.0315874 95.9097329,68.0906008 C94.7512862,69.3899918 94.0253262,70.8390156 94.0967638,71.6702011 C94.2898382,73.8529077 108.793591,107.450758 114.948804,108.346624 C120.048866,109.093822 131.672913,104.545953 137.260488,102.361316 C138.923824,101.71162 140.02821,101.276237 140.405671,101.202869 C141.100739,101.059994 143.699521,96.4271724 143.797023,92.2500067 C143.861703,89.3915395 142.757317,87.6239429 140.503173,87.00707 C139.755975,87.3642577 135.260236,89.4957997 130.656376,91.4709513 C120.345235,95.9020099 119.57873,95.2523144 119.253399,94.9733218 C117.843956,93.7646757 105.158964,77.0801472 104.959132,74.1820997 C104.8095,71.6875778 103.919426,68.0944623 103.414537,67.4312515 C102.986284,68.8228688 102.741585,70.2644505 102.686646,71.7194351 C102.678397,71.8647469 102.574636,71.9868997 102.432572,72.0185444 C102.290508,72.050189 102.14471,71.983625 102.075565,71.8555526 C100.66033,69.2857316 98.6986933,66.524767 98.0103829,66.524767 L98.0084521,66.524767 Z" id="路径_9878" fill="#231F20"></path>
                    <polygon id="路径_9879" fill="#231F20" points="129.366639 126.261036 128.612683 131.296418 161.891961 131.296418 161.891961 127.391487"></polygon>
                    <path d="M161.897753,131.620812 L128.612683,131.620812 C128.518333,131.622056 128.428272,131.581438 128.366772,131.509874 C128.305272,131.438311 128.278661,131.343166 128.29411,131.25008 L129.041308,126.207941 C129.058094,126.041483 129.205815,125.919602 129.372431,125.934741 L161.897753,127.065191 C162.072129,127.072442 162.209646,127.215995 162.209646,127.390522 L162.209646,131.288695 C162.2134,131.465832 162.07478,131.613464 161.897753,131.620812 Z M128.991109,130.971088 L161.572422,130.971088 L161.572422,127.72261 L129.644666,126.611466 L128.991109,130.971088 Z" id="路径_9880" fill="#231F20"></path>
                    <path d="M26.5419446,22.1948734 L10.0649711,22.1948734 C9.88659329,22.1917794 9.74273456,22.0479207 9.73964061,21.8695429 C9.73964061,21.6898679 9.88529602,21.5442125 10.0649711,21.5442125 L26.5419446,21.5442125 C26.6622271,21.537653 26.7762889,21.598094 26.838404,21.7013056 C26.9005191,21.8045172 26.9005191,21.9336033 26.838404,22.0368148 C26.7762889,22.1400264 26.6622271,22.2004675 26.5419446,22.193908 L26.5419446,22.1948734 Z" id="路径_9881" fill="#D1D3D4"></path>
                    <path d="M18.3092501,31.4527932 L10.0640057,31.4527932 C9.88433064,31.4527932 9.73867524,31.3071378 9.73867524,31.1274628 C9.74176919,30.949085 9.88562792,30.8052263 10.0640057,30.8021323 L18.3092501,30.8021323 C18.4817855,30.8115414 18.6168652,30.9541883 18.6168652,31.1269801 C18.6168652,31.2997719 18.4817855,31.4424188 18.3092501,31.4518279 L18.3092501,31.4527932 Z" id="路径_9882" fill="#D1D3D4"></path>
                    <path d="M184.449814,106.304861 L172.942577,106.304861 C172.770041,106.295452 172.634962,106.152805 172.634962,105.980013 C172.634962,105.807222 172.770041,105.664575 172.942577,105.655166 L184.462364,105.655166 C184.58249,105.651365 184.694926,105.714102 184.754776,105.818326 C184.814626,105.92255 184.812139,106.05128 184.748309,106.153115 C184.684478,106.25495 184.569703,106.313298 184.449814,106.304861 L184.449814,106.304861 Z" id="路径_9883" fill="#D1D3D4"></path>
                    <path d="M180.180938,113.14935 L172.940646,113.14935 C172.820364,113.15591 172.706302,113.095469 172.644187,112.992257 C172.582072,112.889046 172.582072,112.75996 172.644187,112.656748 C172.706302,112.553537 172.820364,112.493095 172.940646,112.499655 L180.191557,112.499655 C180.369568,112.502733 180.513281,112.646019 180.516888,112.82402 C180.516888,112.912522 180.48096,112.997231 180.417207,113.058617 C180.353454,113.120002 180.267443,113.152765 180.179007,113.14935 L180.180938,113.14935 Z" id="路径_9884" fill="#D1D3D4"></path>
                    <path d="M183.514368,124.038749 L174.833741,124.038749 C173.603995,124.035566 172.60788,123.039451 172.604697,121.809705 L172.604697,120.386746 C172.608407,119.157752 173.603782,118.162378 174.832776,118.158667 L183.513403,118.158667 C184.742397,118.162378 185.737771,119.157752 185.741523,120.386746 L185.741523,121.790397 C185.745077,122.384449 185.512004,122.955486 185.093754,123.377359 C184.675504,123.799232 184.106498,124.037221 183.512438,124.038749 L183.514368,124.038749 Z M174.833741,118.841185 C173.962024,118.841185 173.255357,119.547852 173.255357,120.419569 L173.255357,121.82322 C173.25589,122.69456 173.962401,123.400638 174.833741,123.400638 L183.514368,123.400638 C184.386085,123.400638 185.092752,122.693972 185.092752,121.822255 L185.092752,120.386746 C185.092752,119.515029 184.386085,118.808363 183.514368,118.808363 L174.833741,118.841185 Z" id="路径_9885" fill="#D1D3D4"></path>
                    <path d="M14.1832491,47.8197143 C12.1466273,47.8197143 10.3105444,46.592883 9.53116303,44.7112898 C8.75178162,42.8296966 9.1825875,40.6638892 10.6226966,39.2237802 C12.0628056,37.7836711 14.228613,37.3528652 16.1102062,38.1322466 C17.9917994,38.911628 19.2186307,40.7477109 19.2186307,42.7843327 C19.2186307,45.5652972 16.9642136,47.8197143 14.1832491,47.8197143 L14.1832491,47.8197143 Z M14.1832491,38.3986465 C11.7611015,38.3986465 9.79756295,40.3621851 9.79756295,42.7843327 C9.79756295,45.2064802 11.7611015,47.1700188 14.1832491,47.1700188 C16.6053966,47.1700188 18.5689352,45.2064802 18.5689352,42.7843327 C18.5689352,40.3621851 16.6053966,38.3986465 14.1832491,38.3986465 L14.1832491,38.3986465 Z" id="路径_9886" fill="#D1D3D4"></path>
                    <path d="M14.1832491,44.4467037 L14.1832491,44.4467037 C14.0903024,44.4344101 14.006158,44.3853839 13.949629,44.3105862 L12.0584648,41.7118041 C11.9894859,41.6178204 11.9758865,41.4941761 12.0227893,41.3874468 C12.0696922,41.2807175 12.1699716,41.207118 12.2858533,41.1943724 C12.401735,41.1816268 12.5156138,41.2316715 12.5845926,41.3256552 L14.2546866,43.6058645 L20.8559021,37.1089092 C20.915807,37.0478823 20.9977318,37.0135019 21.0832472,37.0135019 C21.1687626,37.0135019 21.2506874,37.0478823 21.3105924,37.1089092 C21.3720211,37.169975 21.4065621,37.2530161 21.4065621,37.3396332 C21.4065621,37.4262503 21.3720211,37.5092914 21.3105924,37.5703572 L14.4101116,44.3665778 C14.3486614,44.4232386 14.2666537,44.4522031 14.1832491,44.4467037 Z" id="路径_9887" fill="#D1D3D4"></path>
                </g>
            </g>
        </g>
    </g>
</svg>