<?xml version="1.0" encoding="UTF-8"?>
<svg width="200px" height="200px" viewBox="0 0 200 200" version="1.1" xmlns="http://www.w3.org/2000/svg" xmlns:xlink="http://www.w3.org/1999/xlink">
    <title>编组 10</title>
    <g id="页面" stroke="none" stroke-width="1" fill="none" fill-rule="evenodd">
        <g id="00插画状态" transform="translate(-680.000000, -319.000000)">
            <g id="编组-10" transform="translate(680.000000, 319.000000)">
                <rect id="矩形" x="0" y="0" width="200" height="200"></rect>
                <g id="编组" transform="translate(10.000000, 26.000000)" fill-rule="nonzero">
                    <polygon id="路径_9643" fill="#FFFFFF" points="111.624894 29.8280497 75.4099928 29.8280497 79.1960322 17.112283 115.410933 17.112283"></polygon>
                    <path d="M111.624894,30.2003749 L75.4099928,30.2003749 C75.2921655,30.2001925 75.1812283,30.1447386 75.1104434,30.0505432 C75.0396586,29.9563478 75.0172563,29.8343627 75.0499534,29.721163 L78.8359928,17.0053963 C78.8816197,16.8453085 79.0296129,16.7362406 79.1960322,16.7399578 L115.410933,16.7399578 C115.528761,16.7401402 115.639698,16.7955941 115.710483,16.8897895 C115.781268,16.983985 115.80367,17.10597 115.770973,17.2191697 L111.984933,29.9349364 C111.939307,30.0950242 111.791313,30.2040922 111.624894,30.2003749 L111.624894,30.2003749 Z M75.9087974,29.4305062 L111.350176,29.4305062 L114.913066,17.4404439 L79.4801258,17.4404439 L75.9087974,29.4305062 Z" id="路径_9644" fill="#231F20"></path>
                    <polygon id="路径_9645" fill="#FFFFFF" points="109.876265 26.0298215 110.778239 23.0069907 81.3722079 23.0069907 80.4702341 26.0298215"></polygon>
                    <path d="M109.877203,26.4011121 L80.4711717,26.4011121 C80.353752,26.4009883 80.2435347,26.3444845 80.1748893,26.2492205 C80.103689,26.1557184 80.0804359,26.0342472 80.1120699,25.9210596 L81.0140437,22.8982288 C81.06242,22.7400686 81.208691,22.6322699 81.3740831,22.6328846 L110.805429,22.6328846 C110.922483,22.6345023 111.032069,22.6906824 111.101712,22.7847788 C111.170974,22.8792335 111.19213,23.0006232 111.158905,23.1129398 L110.256932,26.1357706 C110.209667,26.3033411 110.050808,26.4143467 109.877203,26.4011121 L109.877203,26.4011121 Z M80.9699763,25.6435292 L109.595922,25.6435292 L110.270996,23.3651549 L81.6553639,23.3651549 L80.9699763,25.6435292 Z" id="路径_9646" fill="#231F20"></path>
                    <polygon id="路径_9647" fill="#231F20" points="94.9590074 26.0298215 95.8609812 23.0069907 81.3722079 23.0069907 80.4702341 26.0298215"></polygon>
                    <path d="M94.9590074,26.4011121 L80.4496069,26.4011121 C80.3306217,26.3999538 80.2188449,26.3438923 80.1467612,26.2492205 C80.0774992,26.1547659 80.0563427,26.0333762 80.0895675,25.9210596 L80.9915412,22.8982288 C81.0399176,22.7400686 81.1861885,22.6322699 81.3515806,22.6328846 L95.8656692,22.6328846 C95.9837161,22.6328846 96.0948739,22.6884661 96.165702,22.7829036 C96.2365301,22.8773412 96.2587617,22.9996147 96.2257086,23.1129398 L95.3237348,26.1357706 C95.2781079,26.2958584 95.1301147,26.4049263 94.9636954,26.4011121 L94.9590074,26.4011121 Z M80.975602,25.6435292 L94.6814771,25.6435292 L95.3565509,23.3717181 L81.6506758,23.3717181 L80.975602,25.6435292 Z" id="路径_9648" fill="#231F20"></path>
                    <path d="M108.633004,58.8365372 C108.633004,58.8365372 116.583874,49.7305405 117.921833,45.6538443 C119.259792,41.5771482 122.969886,34.522626 123.891549,35.8727738 C124.813212,37.2229216 121.815697,44.5118444 121.815697,44.5118444 C121.815697,44.5118444 129.444969,33.0730924 131.811478,34.5479413 C134.177987,36.0227902 136.172268,40.6564224 134.259559,43.4270381 C132.34685,46.1976539 118.565966,62.2447227 118.565966,62.2447227 L108.633004,58.8365372 Z" id="路径_9649" fill="#FFFFFF"></path>
                    <path d="M118.565966,62.5972613 C118.526235,62.6038709 118.485684,62.6038709 118.445953,62.5972613 L108.513929,59.2153286 C108.395793,59.1744611 108.305785,59.0774208 108.273902,58.9565503 C108.237596,58.8355573 108.26631,58.7043941 108.349848,58.6096373 C108.432357,58.5215027 116.269777,49.5102039 117.562731,45.5535209 C118.667227,42.1903403 121.828823,35.6018067 123.475254,35.3561548 C123.757122,35.3142967 124.037675,35.4397589 124.194395,35.6777525 C124.825401,36.5994158 124.036877,39.5266112 123.235227,41.8368641 C125.759253,38.3602336 130.079726,33.0468395 132.013063,34.2647853 C133.692867,35.47532 134.848249,37.2804786 135.244042,39.3128378 C135.621087,40.7921501 135.374689,42.3613737 134.562404,43.653938 C132.669385,46.404864 119.417309,61.8274895 118.85006,62.4838114 C118.775134,62.5593011 118.672281,62.6003745 118.565966,62.5972613 L118.565966,62.5972613 Z M109.277137,58.6658935 L118.445953,61.7890478 C120.010812,59.9654107 132.177143,45.7738575 133.95015,43.2113895 C134.645922,42.0788247 134.849123,40.7112855 134.512712,39.4253501 C134.151724,37.5989994 133.123562,35.9725233 131.628646,34.8629758 C130.77074,34.3388559 127.26223,37.0400891 122.158859,44.7199921 C122.040249,44.8401726 121.855951,44.8662712 121.708636,44.7837485 C121.561321,44.7012258 121.487318,44.5304325 121.527853,44.3665159 C122.752362,41.4196309 124.21596,36.9013239 123.642147,36.0874848 L123.642147,36.0874848 C122.828308,36.0874848 119.742657,41.4824503 118.335316,45.7672943 C117.114557,49.4145685 110.873874,56.8038147 109.277137,58.6658935 L109.277137,58.6658935 Z" id="路径_9650" fill="#231F20"></path>
                    <path d="M77.5674164,125.379133 L78.9053754,135.160203 C78.9053754,135.160203 19.0516369,135.867156 19.7651525,135.160203 C20.4786681,134.453251 19.7651525,120.10418 19.7651525,120.10418 L77.5674164,125.379133 Z" id="路径_9651" fill="#231F20"></path>
                    <path d="M34.310182,135.858717 C19.6385762,135.858717 19.5373151,135.612128 19.4182395,135.322409 C19.3585968,135.177649 19.3910613,135.011269 19.5007486,134.89955 C19.860788,134.224476 19.7220228,126.778036 19.3938619,120.126683 C19.3887478,120.01923 19.4304276,119.914844 19.5077327,119.84005 C19.5850377,119.765256 19.690736,119.727254 19.7979686,119.735703 L77.6067957,125.011593 C77.779276,125.028573 77.9176565,125.161527 77.9415199,125.33319 L79.2794788,135.114261 C79.2924014,135.21924 79.2603944,135.324795 79.1913442,135.404918 C79.1219086,135.488621 79.0188179,135.537074 78.9100634,135.53712 C78.7581718,135.53712 64.0237466,135.713389 49.441213,135.802461 C43.1724019,135.835277 38.2349865,135.858717 34.310182,135.858717 Z M20.2320786,134.89955 C23.9487354,135.284904 56.434791,135.051441 78.476891,134.792663 L77.2148778,125.730734 L20.1383184,120.518601 C20.3961591,125.347254 20.6615006,132.793694 20.2320786,134.894862 L20.2320786,134.89955 Z" id="路径_9652" fill="#231F20"></path>
                    <path d="M56.6363755,7.34433889 C56.4976104,7.11743906 56.3550948,6.88960162 56.2135168,6.66270179 C53.4943673,2.5293171 48.8004633,0.132141993 43.8577894,0.352636157 C41.8463305,0.435971122 39.8503924,0.742893379 37.9068256,1.26773631 C35.9444233,1.82279707 35.2627862,3.57705157 33.5938536,4.42276913 C33.2399799,4.56984271 32.860387,4.64506011 32.4771688,4.64404335 C31.2542424,4.74341366 30.0561197,5.04405313 28.9311557,5.53382824 C25.8642576,6.86522396 23.8137206,11.1313159 22.7092247,14.0847641 C20.6341465,19.8893834 19.3499737,25.9469448 18.8913069,32.0942353 C18.3803134,37.7732943 17.7108652,44.1339905 19.8626632,49.592713 C21.9336403,55.0368213 24.9665926,60.0642176 28.8167682,64.4349624 C35.9537993,72.2658195 46.6687221,76.9107029 57.2130012,76.0612349 C63.5230668,75.5502415 69.4955955,73.2090477 75.0583918,70.2434107 C78.2518663,68.5397867 81.4068992,66.564258 83.5840124,63.6745667 C87.6594693,57.9417042 87.4011649,50.1921883 82.9530059,44.7434322 C78.2012358,39.0643731 70.7238549,36.6406704 65.9823985,30.8603502 C60.7637023,24.4368347 60.953098,14.48137 56.6363755,7.34433889 Z" id="路径_9653" fill="#FFFFFF"></path>
                    <path d="M54.78086,76.5619147 C44.7778112,76.3964167 35.2855897,72.1138086 28.5420506,64.723744 C24.6522887,60.3278964 21.5963889,55.2598304 19.5241886,49.7680446 C17.4098947,44.4237097 17.9715187,38.2074043 18.4703233,32.7299298 L18.5265794,32.0998609 C18.9799826,25.9194042 20.2690448,19.8289243 22.3585614,13.9947543 C23.5774448,10.7384604 25.6842379,6.57362954 28.7886401,5.22348177 C29.9518951,4.7185807 31.1905911,4.4093819 32.4546664,4.30838161 L32.5559275,4.30838161 C32.8521653,4.30552789 33.1452951,4.24766495 33.4203971,4.13773793 C34.0540723,3.77685863 34.6242134,3.31441084 35.1080818,2.76883811 C35.8180463,1.92533297 36.748835,1.29614966 37.7961885,0.951764231 C39.7678039,0.414277868 41.7935159,0.099775148 43.835287,0.0141616114 C48.906668,-0.210007376 53.7246466,2.23972178 56.531364,6.46955565 C56.6832557,6.69645548 56.8220209,6.92991854 56.960786,7.15775597 L56.960786,7.15775597 C58.9231883,10.4140499 59.9704905,14.2882239 60.9924773,18.0339464 C62.2113607,22.5203749 63.4724362,27.1586951 66.2993081,30.6550152 C68.6658172,33.5615834 71.8020979,35.6590004 74.8371176,37.6870349 C77.8721373,39.7150694 80.8884049,41.7384158 83.2614771,44.5652877 C87.7894632,50.1652879 88.0471566,58.0913704 83.8924837,63.9736619 C81.6019205,67.0152448 78.2134246,69.0217144 75.2477875,70.643767 C68.6911324,74.1400871 62.8104888,76.0518589 57.2570685,76.5056586 C56.4404166,76.5300362 55.6068879,76.5619147 54.78086,76.5619147 Z M44.3734709,0.743458896 L43.8690407,0.743458896 C41.8870529,0.833585135 39.9211158,1.14268881 38.0071491,1.66527983 C37.0881033,1.98507724 36.272663,2.54749454 35.6472033,3.29295797 C35.101177,3.89408372 34.4620052,4.40345837 33.7541836,4.80156059 C33.3911308,4.95877283 33.0011395,5.04441173 32.6056204,5.05377569 L32.4968585,5.05377569 C31.3149841,5.14839157 30.1569719,5.43829064 29.0699209,5.91168209 C26.243049,7.15494317 24.223453,11.1303783 23.0880162,14.2854111 C21.0241604,20.0567568 19.7505972,26.0807926 19.3019768,32.1936211 L19.2447831,32.8246277 C18.7591049,38.2261564 18.2040441,44.3477639 20.2480179,49.5345816 C22.2912855,54.9388602 25.2998872,59.9267215 29.1271147,64.2549427 C36.3400916,72.1683088 47.1112705,76.5731659 57.239254,75.7583893 C62.68485,75.3167784 68.4717334,73.430322 74.9083754,69.9846323 C77.8299452,68.4319624 81.1049911,66.4442448 83.3139829,63.5226751 C87.2641027,58.2852268 86.9931356,50.1702762 82.6829763,45.0462778 C80.3792867,42.3009774 77.344267,40.2691925 74.4105084,38.3067902 C71.3314214,36.2496901 68.1510733,34.1232073 65.7086185,31.1256917 C62.7870487,27.5412369 61.4997203,22.8279086 60.2630225,18.2655342 C59.2597877,14.5676295 58.2181112,10.7497116 56.3129026,7.58248996 L56.3129026,7.58248996 C56.1807007,7.35559013 56.0419355,7.13431591 55.8966071,6.91397929 C53.3455647,3.04249955 49.0116895,0.721435704 44.3753461,0.743458896 L44.3734709,0.743458896 Z" id="路径_9654" fill="#231F20"></path>
                    <path d="M17.064857,129.018906 C14.9252478,115.135824 6.79154506,58.0020709 16.1497568,48.8773222 C26.8206122,38.4699331 56.1638238,38.9199823 61.5400372,48.3344502 C64.461607,53.4396965 72.6778188,62.0337621 73.3088253,73.2034221 C74.2051734,89.0489064 78.925065,118.86467 80.0548762,129.031095 L17.064857,129.018906 Z" id="路径_9655" fill="#6F42FF"></path>
                    <polygon id="路径_9656" fill="#231F20" points="40.7468239 129.019844 34.196732 48.323199 50.8626186 50.0840167 59.9245479 129.019844"></polygon>
                    <path d="M59.9236103,129.392072 L40.7571376,129.392072 C40.5628327,129.392905 40.4000681,129.245196 40.3820965,129.051722 L33.8188782,48.3616407 C33.808327,48.2511099 33.8485685,48.1417723 33.9282572,48.0644542 C34.007946,47.987136 34.1184487,47.9502138 34.2286105,47.9640972 L50.8944971,49.7249149 C51.069109,49.7425135 51.2081688,49.8788467 51.2292212,50.0530758 L60.3239666,128.976714 C60.338118,129.081795 60.3059609,129.187845 60.235832,129.267371 C60.1574001,129.354547 60.0434669,129.401156 59.9264231,129.394675 L59.9236103,129.392072 Z M41.0937369,128.647615 L59.50919,128.647615 L50.5297697,50.3999888 L34.6092772,48.7123041 L41.0937369,128.647615 Z" id="路径_9657" fill="#231F20"></path>
                    <path d="M49.9090767,39.6653764 L50.8560554,50.0840167 C50.8560554,50.0840167 47.7010226,53.7191021 43.4349307,54.0594518 C36.4966713,54.6220134 34.1901688,48.323199 34.1901688,48.323199 C33.9192017,43.4954831 33.6097928,38.6743304 33.3463265,33.8531778 C33.1700572,30.5650054 31.4026762,23.8067657 34.5455202,21.6043371 C35.416553,20.9733306 36.4385399,20.6076656 37.3283248,20.0460416 C40.0555088,18.3020742 41.5554164,15.1604838 41.1968732,11.9432797 C42.2524263,13.4663292 43.664988,14.7076323 45.3110735,15.5586754 C46.7541205,16.0432859 48.2794799,16.2345535 49.797502,16.121237 C51.2976662,16.121237 53.155057,15.7865129 54.6252179,16.0706065 C56.2032031,16.3800153 55.7109618,16.0706065 56.1253821,17.4338807 C56.6110603,19.0812485 56.371034,21.3211812 56.4788583,23.0369939 C56.6663788,26.1413962 56.9392212,29.2654882 56.9392212,32.3764536 C56.6485644,37.8483025 49.9090767,39.6653764 49.9090767,39.6653764 Z" id="路径_9658" fill="#FFFFFF"></path>
                    <path d="M42.5826499,54.4691842 C36.1019406,54.4691842 33.8676335,48.5125947 33.8432558,48.4488378 C33.8372936,48.4134583 33.8372936,48.3773305 33.8432558,48.3419511 C33.7166795,46.1648378 33.5910407,43.9942877 33.4579012,41.8171744 C33.3022591,39.1750102 33.1488048,36.5269079 32.9975383,33.8728674 C32.9582766,33.0590639 32.8740765,32.2480515 32.7453232,31.443539 C32.2971491,27.9537821 31.6914578,23.1710711 34.3608125,21.2968035 C34.8721121,20.9534397 35.4076373,20.6476044 35.9631754,20.3817033 C36.3672821,20.1735555 36.7835777,19.9654078 37.1623691,19.7506968 C39.754253,18.0779711 41.182256,15.0873983 40.8537106,12.0201632 C40.8326172,11.8551899 40.9226935,11.6960295 41.0749849,11.6291829 C41.229475,11.5614413 41.410182,11.6051793 41.5165957,11.7360696 C42.535901,13.2059468 43.8956536,14.4074315 45.479842,15.2380154 C46.8805327,15.6972079 48.3572133,15.8793647 49.8275053,15.7743241 C50.3075579,15.7743241 50.8185513,15.7302567 51.3604856,15.6927526 C52.4785881,15.5623526 53.6087497,15.5749554 54.7236662,15.7302567 L55.297479,15.8315178 C56.0475611,15.9637198 56.2060159,16.0462288 56.3447811,16.7025506 C56.386642,16.9154013 56.4392146,17.1260044 56.5022984,17.3335572 C56.8019548,18.6275471 56.9165462,19.957501 56.8426481,21.283677 L56.8426481,23.0257427 C56.8867154,23.7580104 56.9364084,24.4893404 56.9879765,25.2216081 C57.1398681,27.5656146 57.3039486,29.9921302 57.3039486,32.3839545 C57.0226678,37.432007 51.6248895,39.5097344 50.2934938,39.9560332 L51.2207828,50.0521382 C51.2310258,50.1539977 51.199185,50.2556173 51.1326482,50.333419 C51.0004462,50.4853106 47.8135349,54.0838295 43.4593083,54.4354305 C43.1655262,54.4579329 42.8733067,54.4691842 42.5826499,54.4691842 Z M34.5623971,48.24069 C35.9729069,51.8147087 39.569783,54.0319297 43.3964889,53.686286 C47.0250111,53.3956292 49.8837615,50.5312532 50.4641375,49.9508772 L49.5171588,39.6963173 C49.5037888,39.5150489 49.6223241,39.3502848 49.7984396,39.305337 C49.861259,39.305337 56.2791489,37.4882631 56.5566793,32.3670776 C56.5566793,30.0230711 56.3991621,27.6153075 56.2407072,25.280677 C56.1900767,24.5427838 56.146947,23.8105161 56.101942,23.0782485 C56.0644379,22.5156869 56.0700636,21.923122 56.0700636,21.2968035 C56.1373758,20.0433889 56.0332786,18.7866519 55.7606547,17.5613946 C55.6888203,17.326979 55.6299744,17.0887784 55.5843854,16.8478791 C55.5697733,16.7690343 55.5506778,16.6910868 55.5271916,16.614416 C55.3974612,16.6093695 55.2684681,16.5924215 55.141837,16.5637855 L54.5483345,16.4625244 C53.5008217,16.3301606 52.4408145,16.3301606 51.3933017,16.4625244 C50.8382409,16.5000285 50.3141211,16.5384702 49.8153165,16.5440958 C48.2454541,16.6630336 46.6677489,16.4633887 45.1769963,15.9571566 C43.7817853,15.2750218 42.5684019,14.2714741 41.6366088,13.0290236 C41.5649003,15.994067 40.0317421,18.7318495 37.5411606,20.342324 C37.1314282,20.5945391 36.6973182,20.8111253 36.2791475,21.0239611 C35.7555823,21.2778202 35.2496963,21.5666294 34.7649192,21.8884307 C32.4677928,23.5039201 33.0425432,28.0287903 33.4588388,31.3582172 C33.5788519,32.2733174 33.6857386,33.1396622 33.7241803,33.8447393 C33.8629455,36.4869035 34.0163998,39.1331307 34.1845432,41.7834207 C34.3145574,43.9349062 34.4405087,46.0873293 34.5623971,48.24069 L34.5623971,48.24069 Z" id="路径_9659" fill="#231F20"></path>
                    <path d="M37.60398,27.9331548 C36.6014135,25.5962458 34.1175964,24.2615879 31.615512,24.7153026 C28.6433117,25.4785112 29.0089767,28.8988855 30.1706664,31.0253683 C30.8848355,32.3196971 32.0873483,33.274335 33.5099313,33.6763081 C34.9325143,34.0782811 36.4568057,33.8941443 37.7427451,33.1649774" id="路径_9660" fill="#FFFFFF"></path>
                    <path d="M35.0049455,34.2450957 C32.8548648,34.2436098 30.8754027,33.0739603 29.8368799,31.1913239 C28.946828,29.6843502 28.7337131,27.8718527 29.2499406,26.1995276 C29.6690837,25.2574918 30.5134667,24.5727157 31.5217518,24.3571384 C34.2097919,23.8538991 36.8856016,25.2901277 37.9518305,27.8084537 C37.9968844,27.9347386 37.9711438,28.0754666 37.8843048,28.1776268 C37.7974658,28.2797871 37.6627215,28.327859 37.5308286,28.3037344 C37.3989357,28.2796098 37.289932,28.1869537 37.2448782,28.0606688 C36.3199892,25.8956486 34.0213268,24.6574285 31.7045843,25.0762796 C30.9245091,25.2436796 30.2695082,25.7700444 29.9381409,26.49581 C29.5069732,27.9526956 29.7084163,29.5237475 30.4932017,30.8247213 C31.1578637,32.0348022 32.2799923,32.9278323 33.6083913,33.3039006 C34.9367903,33.679969 36.3605133,33.5076669 37.5608502,32.8255653 C37.6464366,32.7737429 37.7495195,32.7592538 37.8460755,32.7854745 C37.9426315,32.8116952 38.0242261,32.8763353 38.0718437,32.9643305 C38.1742603,33.1438038 38.112208,33.3723072 37.9330785,33.4753239 C37.0390796,33.978484 36.0308118,34.2435457 35.0049455,34.2450957 L35.0049455,34.2450957 Z" id="路径_9661" fill="#231F20"></path>
                    <path d="M48.9630357,21.5237033 C48.9630357,21.5237033 53.3294511,26.4461171 52.5981211,27.4999824 C51.866791,28.5538478 49.3671424,28.2697542 49.3671424,28.2697542" id="路径_9662" fill="#FFFFFF"></path>
                    <path d="M50.1678551,28.6794865 C49.8938309,28.6960451 49.6188232,28.6834733 49.3474528,28.6419824 C49.1419391,28.6175335 48.9950768,28.4312282 49.0192919,28.2256868 C49.0285429,28.1259141 49.0783314,28.0343087 49.1570226,27.9722774 C49.2357138,27.910246 49.3364126,27.883224 49.4355874,27.8975259 C50.0225267,27.9669085 51.8208485,27.998787 52.3130899,27.2665194 C52.6093723,26.8370974 50.8935595,24.2061844 48.709883,21.7449775 C48.6207801,21.6444856 48.5920575,21.5040914 48.6345346,21.3766801 C48.6770118,21.2492687 48.7842354,21.1541971 48.9158154,21.1272777 C49.0473954,21.1003584 49.1833417,21.145681 49.2724446,21.2461729 C50.6413444,22.7922797 53.7466843,26.5154997 52.9290948,27.6893781 C52.3637204,28.5350957 51.0454511,28.6794865 50.1678551,28.6794865 Z" id="路径_9663" fill="#231F20"></path>
                    <path d="M49.9090767,39.6653764 C49.9090767,39.6653764 46.0152131,40.7698723 41.0018519,38.1323961 C41.0018519,38.1323961 43.4499323,45.2947425 50.4172574,45.3069314 L49.9090767,39.6653764 Z" id="路径_9664" fill="#231F20"></path>
                    <path d="M50.4210078,45.6800972 L50.4210078,45.6800972 C43.2717878,45.6800972 40.6774413,38.3283551 40.6530637,38.2524093 C40.602109,38.1072533 40.6474558,37.9457287 40.7665136,37.8483025 C40.8819968,37.7481718 41.0466915,37.7281414 41.1828092,37.797672 C45.9973986,40.3216982 49.7646859,39.3184634 49.8031276,39.3062746 C49.9107275,39.2751159 50.0266226,39.2936866 50.1190997,39.3569052 C50.2137685,39.4207914 50.274168,39.5243333 50.2831802,39.6381859 L50.7941736,45.2731777 C50.8039593,45.3785052 50.76881,45.4830673 50.6973877,45.5610962 C50.6259655,45.639125 50.5249127,45.6833636 50.4191326,45.6829135 L50.4210078,45.6800972 Z M41.7594348,38.8956047 C42.6557829,40.7192418 45.1479306,44.682488 50.0103378,44.9028246 L49.5752902,40.100424 C46.908138,40.4904722 44.1853119,40.0707467 41.7594348,38.8956047 Z" id="路径_9665" fill="#231F20"></path>
                    <ellipse id="椭圆_140" fill="#231F20" cx="43.4161786" cy="22.4697444" rx="1" ry="1.65299342"></ellipse>
                    <ellipse id="椭圆_141" fill="#231F20" transform="translate(52.951415, 21.511272) rotate(-3.220000) translate(-52.951415, -21.511272) " cx="52.9514151" cy="21.5112717" rx="1" ry="1.65299342"></ellipse>
                    <path d="M47.567883,36.1699938 C47.3755651,36.168506 47.1836772,36.1515747 46.9940702,36.1193633 C46.4372807,36.0252544 45.9489445,35.6936511 45.6561113,35.2108264 C44.5581786,33.4753239 45.498594,29.8852435 45.5360981,29.7267886 C45.5896505,29.5352314 45.7834333,29.4187971 45.977709,29.4614471 L51.656768,30.6418888 C51.8494027,30.6815069 51.9787156,30.8631997 51.9530505,31.0581844 C51.7086545,32.7793362 50.841254,34.3509992 49.5152836,35.4752303 C48.9593345,35.9130793 48.275431,36.1570718 47.567883,36.1699938 Z M46.1792935,30.2696606 C45.9205152,31.4116605 45.5989175,33.7209758 46.2861802,34.8067196 C46.4672969,35.1147456 46.776984,35.3253328 47.1300226,35.3805324 C47.8133238,35.500731 48.51547,35.3240861 49.0605464,34.8948543 C50.142947,33.9695649 50.8775005,32.7028652 51.1429618,31.3038362 L46.1792935,30.2696606 Z" id="路径_9666" fill="#231F20"></path>
                    <path d="M86.9762587,74.454184 C89.7018695,73.0909098 111.384868,49.3386226 111.384868,49.3386226 L124.004999,59.9119674 C123.778099,61.6474698 103.963743,103.081067 92.364661,100.966773 C80.765579,98.8524794 55.8787926,84.0046043 55.8787926,84.0046043 L61.5578517,48.3260118 C61.5578517,48.3260118 84.2440847,75.8174582 86.9762587,74.454184 Z" id="路径_9667" fill="#6F42FF"></path>
                    <path d="M78.9053754,120.476409 C78.7249207,120.47468 78.5712831,120.344679 78.5397103,120.167 L68.6770684,63.0332465 C68.6555996,62.836213 68.7911488,62.6564896 68.9864953,62.6229804 C69.1818418,62.5894711 69.369538,62.7137458 69.4149617,62.9066702 L79.2532259,120.040423 C79.2716808,120.137732 79.2498735,120.238364 79.1927918,120.319303 C79.1357102,120.400243 79.0482373,120.454565 78.9503803,120.469845 L78.9053754,120.476409 Z" id="路径_9668" fill="#231F20"></path>
                    <path d="M45.9027007,103.895844 C45.9467681,103.535804 48.8242705,103.138261 49.2349405,103.018248 C50.6929125,102.588826 52.2193296,102.311295 53.7091802,102.00845 C56.6363539,101.270793 59.6530124,100.950094 62.6698484,101.055846 C67.8754181,101.524647 61.4837811,104.841885 61.4837811,104.841885 C61.4837811,104.841885 73.561978,101.762798 72.8428368,104.841885 C72.1236956,107.920972 66.4436989,110.767533 62.8911226,111.713575 C59.3385463,112.659616 44.8891523,111.713575 44.8891523,111.713575 L45.9027007,103.895844 Z" id="路径_9669" fill="#FFFFFF"></path>
                    <path d="M56.6110603,112.49366 C51.4242426,112.49366 45.2520045,112.096116 44.8741507,112.070801 C44.7719665,112.062593 44.6769028,112.01523 44.6088091,111.938599 C44.5456609,111.859228 44.5163513,111.75816 44.5272377,111.657318 C44.5272377,111.657318 45.5239093,103.895844 45.5304725,103.83865 L45.5304725,103.83865 C45.5876663,103.403603 46.1042853,103.207644 48.4201638,102.797911 C48.7605135,102.735092 49.0511703,102.684461 49.1336794,102.652583 C50.3956925,102.286918 51.7148994,102.021576 52.9891014,101.769361 L53.7963772,101.605281 C56.7061802,100.873794 59.705525,100.561547 62.7036021,100.677992 C63.6412047,100.766126 64.8994674,100.980837 65.0701111,101.845307 C65.2088763,102.552259 64.4391045,103.328594 63.6065134,103.965226 C66.6068418,103.33422 71.6333294,102.507254 72.9075314,103.757079 C73.2195625,104.058462 73.3387237,104.508024 73.2169403,104.924394 C72.4668582,108.174125 66.7934247,111.05819 62.9970717,112.067988 C60.8883165,112.425836 58.7486543,112.568459 56.6110603,112.49366 Z M45.3157615,111.35166 C47.6597681,111.496988 59.6779584,112.172062 62.807676,111.35166 C66.4549502,110.380304 71.84429,107.565621 72.4874854,104.757501 C72.5508852,104.594065 72.5085765,104.408501 72.3805987,104.288699 C71.2948549,103.222645 65.174185,104.288699 61.5709781,105.2038 C61.3879644,105.24587 61.2020469,105.146099 61.1359305,104.970336 C61.0668737,104.794388 61.1432918,104.594807 61.3121998,104.509974 C62.8517433,103.708323 64.4672326,102.50913 64.3350307,101.985947 C64.2975266,101.789988 63.8306004,101.525584 62.6314067,101.41776 C59.7061262,101.309935 56.7803548,101.618044 53.9417056,102.33286 L53.1344298,102.496941 C51.8724166,102.742593 50.5719618,103.001371 49.3483904,103.367974 C49.2349405,103.399852 48.9320948,103.456108 48.5598666,103.525491 C47.781862,103.643722 47.0139492,103.820812 46.2627402,104.055236 C46.142727,104.915018 45.5051572,109.905877 45.3157615,111.350722 L45.3157615,111.35166 Z" id="路径_9670" fill="#231F20"></path>
                    <path d="M14.6092757,51.2391432 C14.3636238,51.8701497 -8.22791131,105.602281 3.25021996,112.652115 C14.7283512,119.701949 50.4453854,116.965087 50.4453854,116.965087 L48.9620981,101.038031 L20.2827092,97.1910476 L14.6092757,51.2391432 Z" id="路径_9671" fill="#6F42FF"></path>
                    <path d="M47.700085,101.412138 L47.6344528,101.412138 L13.9876452,96.0799885 C13.7980887,96.0330414 13.6762803,95.8484905 13.7076299,95.6557397 C13.7389795,95.4629888 13.9129943,95.3265515 14.1076583,95.3420952 L47.7544659,100.674241 C47.9552898,100.707834 48.0926257,100.895526 48.0638748,101.0971 C48.038536,101.278353 47.883099,101.412959 47.700085,101.412138 Z" id="路径_9672" fill="#231F20"></path>
                    <path d="M18.572522,96.0865517 C18.3653925,96.0865517 18.1974809,95.9186401 18.1974809,95.7115106 C18.1037207,86.8136618 20.5574267,64.4058967 20.582742,64.1602449 C20.6122866,63.9576312 20.7951262,63.8135009 20.9990376,63.8320839 C21.2017083,63.8565845 21.3475576,64.0386877 21.3271985,64.2418163 C21.3271985,64.4687161 18.8538028,86.8324138 18.9419374,95.6861954 C18.9444663,95.7847899 18.9070603,95.8802253 18.8382088,95.9508422 C18.7693573,96.0214591 18.6748994,96.0612688 18.5762724,96.0612364 L18.572522,96.0865517 Z" id="路径_9673" fill="#231F20"></path>
                    <polygon id="路径_9674" fill="#FFFFFF" points="86.8496824 103.646442 44.2825234 103.646442 51.6970849 77.250115 94.2642439 77.250115"></polygon>
                    <path d="M86.8243671,104.01867 L44.2806482,104.01867 C44.1650601,104.017238 44.0562526,103.963867 43.9843658,103.873341 C43.9131654,103.779839 43.8899124,103.658368 43.9215464,103.545181 L51.3426711,77.148854 C51.3883021,76.9907731 51.5316399,76.8808935 51.6961473,76.8778868 L94.2633063,76.8778868 C94.3803602,76.8795018 94.4899462,76.935682 94.5595887,77.0297784 C94.6300757,77.1210713 94.6533592,77.2402688 94.6224081,77.3513761 L87.2012834,103.747703 C87.1535174,103.913566 86.9987148,104.025411 86.8262423,104.01867 L86.8243671,104.01867 Z M44.771952,103.261087 L86.5655888,103.261087 L93.7654393,77.6223433 L51.9811785,77.6223433 L44.771952,103.261087 Z" id="路径_9675" fill="#231F20"></path>
                    <rect id="矩形_3303" fill="#FFFFFF" x="32.8531475" y="103.646442" width="54.4072048" height="2.17055007"></rect>
                    <path d="M87.2603523,106.18922 L32.8522099,106.18922 C32.7519669,106.191825 32.6550527,106.153149 32.5841462,106.082243 C32.5132398,106.011336 32.4745638,105.914422 32.4770453,105.814179 L32.4770453,103.643629 C32.4745638,103.543386 32.5132398,103.446472 32.5841462,103.375565 C32.6550527,103.304659 32.7519669,103.265983 32.8522099,103.268588 L87.2594147,103.268588 C87.4665442,103.268588 87.6344558,103.436499 87.6344558,103.643629 L87.6344558,105.814179 C87.6344558,106.020943 87.4671155,106.188703 87.2603523,106.18922 L87.2603523,106.18922 Z M33.2253757,105.444763 L86.8628088,105.444763 L86.8628088,104.01867 L33.2244381,104.01867 L33.2253757,105.444763 Z" id="路径_9676" fill="#231F20"></path>
                    <rect id="矩形_3304" fill="#FFFFFF" x="32.8531475" y="103.646442" width="12.0594449" height="2.17055007"></rect>
                    <path d="M44.9116548,106.18922 L32.8522099,106.18922 C32.7519669,106.191825 32.6550527,106.153149 32.5841462,106.082243 C32.5132398,106.011336 32.4745638,105.914422 32.4770453,105.814179 L32.4770453,103.643629 C32.4745638,103.543386 32.5132398,103.446472 32.5841462,103.375565 C32.6550527,103.304659 32.7519669,103.265983 32.8522099,103.268588 L44.9116548,103.268588 C45.0118978,103.265983 45.108812,103.304659 45.1797184,103.375565 C45.2506249,103.446472 45.2893009,103.543386 45.2868194,103.643629 L45.2868194,105.814179 C45.2893009,105.914422 45.2506249,106.011336 45.1797184,106.082243 C45.108812,106.153149 45.0118978,106.191825 44.9116548,106.18922 L44.9116548,106.18922 Z M33.2253757,105.444763 L44.5459898,105.444763 L44.5459898,104.01867 L33.2244381,104.01867 L33.2253757,105.444763 Z" id="路径_9677" fill="#231F20"></path>
                    <path d="M56.6485644,105.892 C59.2926038,105.048158 61.5962934,103.42423 63.9815545,102.004699 C65.8778118,100.752402 68.006453,99.8940582 70.2409896,99.4806732 C71.0817518,99.4364979 71.9242536,99.4364979 72.7650158,99.4806732 C73.5029091,99.4806732 74.5380224,99.1843907 75.0433902,99.922284 C76.0213097,101.341814 75.2768532,104.875639 69.7871899,108.485409" id="路径_9678" fill="#FFFFFF"></path>
                    <path d="M69.7871899,108.877332 C69.6263195,108.871301 69.487239,108.763282 69.4415851,108.608908 C69.3959312,108.454534 69.4538887,108.288244 69.5856053,108.19569 C72.6149994,106.201409 74.5774017,103.917409 74.968382,101.929691 C75.1325953,101.331371 75.0484186,100.692101 74.7349189,100.156685 C74.4695774,99.7657044 73.9463951,99.7816436 73.2347547,99.8407126 L72.7875183,99.8407126 C72.4280492,99.8599736 72.0678067,99.8599736 71.7083377,99.8407126 C71.2382241,99.7933883 70.7645465,99.7933883 70.2944329,99.8407126 C68.1125373,100.252546 66.034051,101.093247 64.1793886,102.314108 C63.6871472,102.604765 63.1949059,102.907611 62.7026645,103.210456 C60.8540084,104.458962 58.8592148,105.476039 56.7629519,106.238913 C56.5657039,106.300062 56.3561351,106.190248 56.2941506,105.993261 C56.2325204,105.797651 56.3394456,105.588813 56.5341769,105.52446 C58.5717133,104.778452 60.5106232,103.786642 62.3079338,102.571011 L63.7912211,101.669038 C65.7325888,100.40119 67.9048655,99.5285202 70.1837958,99.1009441 C70.7040444,99.0474593 71.228406,99.0474593 71.7486546,99.1009441 C72.0827986,99.1198615 72.4177453,99.1198615 72.7518894,99.1009441 L73.1616217,99.1009441 C73.9519346,98.8894499 74.7944098,99.1322704 75.3509238,99.7319507 C75.7759174,100.435258 75.9008946,101.279698 75.6978368,102.075957 C75.4456217,103.33797 74.3730043,105.937942 69.9868992,108.815445 C69.9282772,108.856119 69.8585394,108.877728 69.7871899,108.877332 L69.7871899,108.877332 Z" id="路径_9679" fill="#231F20"></path>
                    <path d="M154.029848,91.8139865 L94.7124179,91.8139865 C94.5926435,91.8165496 94.4791663,91.7603623 94.4086677,91.6634968 C94.3386523,91.5666314 94.3195921,91.4413757 94.3589418,91.3282184 L120.26959,10.9222305 C120.317246,10.7663749 120.460103,10.6591372 120.623066,10.6568823 L179.940496,10.6568823 C180.061262,10.6568823 180.174599,10.7151115 180.243342,10.8144062 C180.312393,10.911446 180.333448,11.0346682 180.300536,11.1491303 L154.389887,91.5551182 C154.339172,91.7106801 154.193461,91.8154099 154.029848,91.8139865 Z M95.2046593,91.0694401 L153.757943,91.0694401 L179.459506,11.4079086 L120.900597,11.4079086 L95.2046593,91.0694401 Z" id="路径_9680" fill="#231F20"></path>
                    <path d="M144.248777,22.8804143 L124.365038,22.8804143 C124.272177,22.8814022 124.184813,22.8364922 124.131575,22.7604012 C124.073295,22.6874895 124.056645,22.5897147 124.087508,22.5016228 L126.440891,15.2070745 C126.480076,15.0853038 126.594267,15.0034668 126.722171,15.0054532 L146.619037,15.0054532 C146.711898,15.004502 146.799262,15.049412 146.8525,15.125503 C146.907815,15.202217 146.924116,15.3003686 146.896567,15.3908446 L144.543184,22.6788297 C144.50332,22.8042345 144.38395,22.8870237 144.252528,22.8804143 L144.248777,22.8804143 Z M124.746643,22.3000383 L144.037817,22.3000383 L146.201803,15.5858659 L126.927506,15.5858659 L124.746643,22.3000383 Z" id="路径_9681" fill="#D1D3D4"></path>
                    <path d="M171.250795,15.5858659 L151.771163,15.5858659 C151.694076,15.5858659 151.620146,15.5552432 151.565638,15.5007345 C151.511129,15.4462258 151.480506,15.3722961 151.480506,15.2952091 C151.483503,15.1359415 151.611895,15.0075487 151.771163,15.0045523 L171.250795,15.0045523 C171.41132,15.0045523 171.541614,15.1346838 171.541614,15.2952091 C171.544094,15.373076 171.51432,15.4485506 171.459228,15.5036424 C171.404136,15.5587343 171.328662,15.5885078 171.250795,15.5858659 L171.250795,15.5858659 Z" id="路径_9682" fill="#D1D3D4"></path>
                    <path d="M169.761882,20.2044964 L150.28225,20.2044964 C150.204383,20.2071383 150.128909,20.1773648 150.073817,20.1222729 C150.018725,20.0671811 149.988951,19.9917065 149.991431,19.9138396 C149.991431,19.8367526 150.022216,19.7628229 150.076725,19.7083142 C150.131233,19.6538055 150.205163,19.6231828 150.28225,19.6231828 L169.761882,19.6231828 C169.922041,19.6236995 170.051762,19.7536797 170.051762,19.9138396 C170.054229,19.9915383 170.024582,20.0668597 169.969698,20.1219211 C169.914814,20.1769825 169.839589,20.2068731 169.761882,20.2044964 L169.761882,20.2044964 Z" id="路径_9683" fill="#D1D3D4"></path>
                    <path d="M168.272031,24.8259397 L148.792399,24.8259397 C148.677852,24.8418371 148.564524,24.7896343 148.502161,24.6922455 C148.439797,24.5948568 148.439797,24.4700835 148.502161,24.3726947 C148.564524,24.275306 148.677852,24.2231031 148.792399,24.2390005 L168.272031,24.2390005 C168.418522,24.2593311 168.527585,24.3845756 168.527585,24.5324701 C168.527585,24.6803647 168.418522,24.8056091 168.272031,24.8259397 Z" id="路径_9684" fill="#D1D3D4"></path>
                    <path d="M166.783119,29.4342566 L147.297861,29.4342566 C147.15137,29.413926 147.042308,29.2886815 147.042308,29.140787 C147.042308,28.9928925 147.15137,28.867648 147.297861,28.8473174 L166.784056,28.8473174 C166.930547,28.867648 167.039609,28.9928925 167.039609,29.140787 C167.039609,29.2886815 166.930547,29.413926 166.784056,29.4342566 L166.783119,29.4342566 Z" id="路径_9685" fill="#D1D3D4"></path>
                    <path d="M145.51079,49.6236538 L142.166362,49.6236538 C142.075006,49.6247638 141.988478,49.5827164 141.932899,49.5102039 C141.874132,49.4349663 141.857539,49.3350567 141.888831,49.2448624 L143.951557,42.8457245 C143.990742,42.7239539 144.104934,42.6421168 144.232838,42.6441033 L147.577266,42.6441033 C147.670127,42.643152 147.757491,42.688062 147.81073,42.7641531 C147.865753,42.8384891 147.882115,42.9345736 147.854797,43.0229314 L145.792071,49.4276949 C145.753544,49.5492041 145.638122,49.6296154 145.51079,49.6236538 L145.51079,49.6236538 Z M142.563905,49.0432778 L145.296079,49.0432778 L147.189099,43.2254536 L144.450362,43.2254536 L142.563905,49.0432778 Z" id="路径_9686" fill="#D1D3D4"></path>
                    <path d="M153.247887,49.6227162 L149.928774,49.6227162 C149.838085,49.6209485 149.75274,49.5794756 149.695311,49.5092663 C149.639995,49.4325523 149.623694,49.3344008 149.651243,49.2439248 L153.475725,37.4123173 C153.511169,37.2923418 153.621591,37.2101937 153.746692,37.2107301 L157.101434,37.2107301 C157.193698,37.2121991 157.280011,37.2565689 157.334897,37.3307459 C157.387684,37.4061948 157.401596,37.5021938 157.372401,37.5895242 L153.52823,49.4342581 C153.487106,49.5524431 153.372852,49.6292496 153.247887,49.6227162 Z M150.307565,49.0423402 L153.039739,49.0423402 L156.668261,37.7911088 L153.936087,37.7911088 L150.307565,49.0423402 Z" id="路径_9687" fill="#D1D3D4"></path>
                    <path d="M161.008424,49.6236538 L157.663995,49.6236538 C157.572639,49.6247638 157.486112,49.5827164 157.430532,49.5102039 C157.375217,49.4334899 157.358916,49.3353384 157.386465,49.2448624 L162.43733,33.5634586 C162.476516,33.4416879 162.590707,33.3598509 162.718611,33.3618373 L166.06304,33.3618373 C166.155901,33.3608861 166.243265,33.4057961 166.296503,33.4818871 C166.351669,33.556162 166.368044,33.6523179 166.34057,33.7406655 L161.292518,49.4276949 C161.253728,49.5502612 161.136776,49.6309311 161.008424,49.6236538 Z M158.061539,49.0432778 L160.800276,49.0432778 L165.703938,33.9478756 L162.965201,33.9478756 L158.061539,49.0432778 Z" id="路径_9688" fill="#D1D3D4"></path>
                    <path d="M163.924368,49.6245914 L139.235416,49.6245914 C139.157359,49.6261025 139.081976,49.5961482 139.026244,49.5414748 C138.970513,49.4868015 138.939134,49.4120063 138.939134,49.3339346 C138.942199,49.1725035 139.073956,49.0432487 139.235416,49.0432778 L163.928119,49.0432778 C164.088644,49.0432778 164.218937,49.1734093 164.218937,49.3339346 C164.221417,49.4118015 164.191644,49.4872761 164.136552,49.542368 C164.08146,49.5974598 164.005985,49.6272333 163.928119,49.6245914 L163.924368,49.6245914 Z" id="路径_9689" fill="#D1D3D4"></path>
                    <path d="M114.539901,84.1724511 L104.589124,84.1724511 C104.496263,84.1734231 104.408899,84.1285131 104.355661,84.052422 C104.300345,83.9757081 104.284044,83.8775565 104.311594,83.7870805 L111.221725,62.3891135 C111.257169,62.2691379 111.367591,62.1869899 111.492692,62.187513 L121.444406,62.187513 C121.537267,62.186541 121.624631,62.231451 121.677869,62.3075421 C121.732892,62.3818781 121.749255,62.4779626 121.721937,62.5663204 L114.818369,83.9708506 C114.779491,84.09162 114.666771,84.1732183 114.539901,84.1724511 Z M104.992293,83.5920592 L114.32519,83.5920592 L121.045925,62.767905 L111.706465,62.767905 L104.992293,83.5920592 Z" id="路径_9690" fill="#D1D3D4"></path>
                    <path d="M138.728173,83.1504483 C135.775211,83.2872976 132.939736,81.9814406 131.124216,79.6485025 C129.363398,77.231363 129.009922,73.9694435 130.13317,70.4984386 L130.13317,70.4984386 C132.35435,63.6201858 139.756723,58.0283076 146.640601,58.0283076 C146.731924,58.0273617 146.818389,58.0693787 146.874065,58.1417736 C146.92938,58.2184876 146.945681,58.3166392 146.918132,58.4071152 L143.081462,70.2959164 L154.976826,70.2959164 C155.069687,70.2949285 155.157051,70.3398385 155.210289,70.4159295 C155.26857,70.4888412 155.28522,70.586616 155.254357,70.6747079 C153.007861,77.5529607 145.607363,83.1504483 138.728173,83.1504483 Z M130.689168,70.6747079 C129.623114,73.9750691 129.944712,77.0419673 131.591142,79.3072152 C133.29721,81.4910298 135.96062,82.7062194 138.728173,82.5635091 C145.246386,82.5635091 152.257779,77.3579393 154.548342,70.87723 L142.683918,70.87723 C142.591057,70.878218 142.503693,70.8333079 142.450455,70.7572169 C142.392175,70.6843052 142.375525,70.5865304 142.406388,70.4984386 L146.243058,58.6162006 C139.706092,58.8243483 132.795961,64.1564944 130.68823,70.6747079 L130.689168,70.6747079 Z" id="路径_9691" fill="#D1D3D4"></path>
                    <path d="M157.498977,69.0658852 L145.244511,69.0658852 C145.152247,69.0643154 145.065934,69.0199457 145.011048,68.9457686 C144.958118,68.8703766 144.944195,68.7743068 144.973544,68.6869903 L148.930227,56.4193976 C148.969412,56.297627 149.083604,56.21579 149.211508,56.2178131 C152.15628,56.0769229 154.983917,57.3846522 156.783587,59.7197589 C158.544404,62.1368984 158.897881,65.3988179 157.774633,68.8698228 C157.736663,68.9892579 157.624257,69.0691655 157.498977,69.0658852 L157.498977,69.0658852 Z M145.628928,68.4854057 L157.284266,68.4854057 C158.275312,65.2609903 157.915273,62.2756636 156.318536,60.0610462 C154.660054,57.9272017 152.081548,56.7146066 149.380276,56.7981891 L145.628928,68.4854057 Z" id="路径_9692" fill="#D1D3D4"></path>
                    <path d="M125.507038,83.5789327 L118.641912,83.5789327 C118.481387,83.5789327 118.351255,83.4488012 118.351255,83.2882759 C118.348613,83.2104091 118.378387,83.1349344 118.433479,83.0798426 C118.488571,83.0247507 118.564045,82.9949772 118.641912,82.9976191 L125.507976,82.9976191 C125.585843,82.9949772 125.661317,83.0247507 125.716409,83.0798426 C125.771501,83.1349344 125.801275,83.2104091 125.798633,83.2882759 C125.798633,83.4488012 125.668501,83.5789327 125.507976,83.5789327 L125.507038,83.5789327 Z" id="路径_9693" fill="#D1D3D4"></path>
                    <path d="M123.987185,79.4900477 L119.961119,79.4900477 C119.853509,79.496167 119.751348,79.4422347 119.695698,79.3499279 C119.640048,79.2576211 119.640048,79.1420982 119.695698,79.0497915 C119.751348,78.9574847 119.853509,78.9035524 119.961119,78.9096717 L123.987185,78.9096717 C124.141051,78.9184213 124.26134,79.0457448 124.26134,79.1998597 C124.26134,79.3539746 124.141051,79.4812981 123.987185,79.4900477 L123.987185,79.4900477 Z" id="路径_9694" fill="#D1D3D4"></path>
                    <path d="M124.510367,52.1917474 C121.795267,52.3214735 119.187757,51.1178188 117.525227,48.967332 C115.903175,46.7461514 115.581577,43.7617623 116.61669,40.5560989 C118.655038,34.2460333 125.450782,29.1032829 131.761785,29.1032829 C134.477706,28.9712809 137.087291,30.1723131 138.753488,32.3211351 C140.368978,34.5423157 140.690575,37.5332681 139.662025,40.7323682 L139.662025,40.7323682 C137.635866,47.048997 130.833559,52.1917474 124.510367,52.1917474 Z M131.773974,29.6836589 C125.684245,29.6836589 119.152905,34.6435768 117.165188,40.7333058 C116.193832,43.7561366 116.483551,46.5576933 117.992153,48.6279199 C119.557996,50.6131215 121.984584,51.7220495 124.510367,51.6066834 C130.600096,51.6066834 137.131436,46.6533287 139.119153,40.5570365 L139.119153,40.5570365 C140.097073,37.5342057 139.80079,34.732649 138.292188,32.6624224 C136.735351,30.6657872 134.302508,29.5540003 131.773974,29.6836589 Z" id="路径_9695" fill="#D1D3D4"></path>
                    <path d="M165.072931,116.651928 L128.233587,116.651928 C128.114218,116.652674 128.001765,116.595977 127.930741,116.500036 C127.861289,116.402858 127.842807,116.27859 127.880111,116.165312 L137.711812,85.6932266 C137.759211,85.5381232 137.903112,85.4327736 138.065288,85.4344286 L174.924322,85.4344286 C175.044126,85.4353359 175.156295,85.4934079 175.226177,85.5907231 C175.296059,85.6880384 175.315241,85.812884 175.277798,85.9266897 L165.446097,116.393149 C165.396832,116.555554 165.2423,116.662717 165.072931,116.651928 L165.072931,116.651928 Z M128.750206,115.882156 L164.819779,115.882156 L174.40489,86.1601527 L138.33438,86.1601527 L128.750206,115.882156 Z" id="路径_9696" fill="#231F20"></path>
                    <path d="M117.820572,129.285188 L87.2603523,129.285188 C87.1409839,129.285635 87.0285305,129.229234 86.9575067,129.133294 C86.8825876,129.038782 86.8610262,128.912595 86.9003129,128.798569 L95.0574557,103.557369 C95.1074224,103.404108 95.2497367,103.299921 95.4109319,103.298585 L125.953337,103.298585 C126.072539,103.297921 126.184961,103.353958 126.256183,103.449545 C126.325635,103.546723 126.344118,103.670991 126.306813,103.784269 L118.149671,129.025469 C118.106884,129.173568 117.97456,129.277994 117.820572,129.285188 L117.820572,129.285188 Z M87.7704081,128.540729 L117.550543,128.540729 L125.457345,104.01867 L95.6603342,104.01867 L87.7704081,128.540729 Z" id="路径_9697" fill="#231F20"></path>
                    <path d="M124.365038,108.877327 L93.8423227,108.877327 C93.6984121,108.895052 93.5571768,108.828233 93.47961,108.705727 C93.4020432,108.58322 93.4020432,108.426976 93.47961,108.30447 C93.5571768,108.181964 93.6984121,108.115145 93.8423227,108.13287 L124.365038,108.13287 C124.508949,108.115145 124.650184,108.181964 124.727751,108.30447 C124.805318,108.426976 124.805318,108.58322 124.727751,108.705727 C124.650184,108.828233 124.508949,108.895052 124.365038,108.877327 L124.365038,108.877327 Z" id="路径_9698" fill="#231F20"></path>
                    <path d="M168.063884,95.3795993 L139.235416,95.3795993 C139.157359,95.3811104 139.081976,95.3511561 139.026244,95.2964827 C138.970513,95.2418093 138.939134,95.1670141 138.939134,95.0889425 C138.942199,94.9275113 139.073956,94.7982566 139.235416,94.7982857 L168.067634,94.7982857 C168.226902,94.8012821 168.355295,94.9296748 168.358291,95.0889425 C168.358291,95.1666837 168.32716,95.2411875 168.271838,95.2958053 C168.216515,95.3504231 168.141618,95.3806024 168.063884,95.3795993 Z" id="路径_9699" fill="#D1D3D4"></path>
                    <path d="M166.783119,99.7206994 L160.895912,99.7206994 C160.735386,99.7206994 160.605255,99.5905679 160.605255,99.4300426 C160.608251,99.270775 160.736644,99.1423822 160.895912,99.1393858 L166.783119,99.1393858 C166.942386,99.1423822 167.070779,99.270775 167.073775,99.4300426 C167.073775,99.5905679 166.943644,99.7206994 166.783119,99.7206994 L166.783119,99.7206994 Z" id="路径_9700" fill="#D1D3D4"></path>
                    <path d="M156.749833,99.7206994 L149.524667,99.7206994 C149.364142,99.7206994 149.23401,99.5905679 149.23401,99.4300426 C149.237007,99.270775 149.365399,99.1423822 149.524667,99.1393858 L156.749833,99.1393858 C156.910358,99.1393858 157.04049,99.2695173 157.04049,99.4300426 C157.043132,99.5079095 157.013358,99.5833841 156.958266,99.6384759 C156.903174,99.6935678 156.8277,99.7233413 156.749833,99.7206994 L156.749833,99.7206994 Z" id="路径_9701" fill="#D1D3D4"></path>
                    <path d="M144.727892,99.7206994 L137.938712,99.7206994 C137.778186,99.7206994 137.648055,99.5905679 137.648055,99.4300426 C137.651051,99.270775 137.779444,99.1423822 137.938712,99.1393858 L144.722266,99.1393858 C144.881534,99.1423822 145.009927,99.270775 145.012923,99.4300426 C145.012923,99.5883964 144.886216,99.7176345 144.727892,99.7206994 L144.727892,99.7206994 Z" id="路径_9702" fill="#D1D3D4"></path>
                    <path d="M165.363588,104.441529 L143.618708,104.441529 C143.540841,104.44417 143.465367,104.414397 143.410275,104.359305 C143.355183,104.304213 143.32541,104.228739 143.327889,104.150872 C143.344375,104.002909 143.469851,103.891196 143.618708,103.892093 L165.376715,103.892093 C165.535982,103.89509 165.664375,104.023483 165.667371,104.18275 C165.650678,104.335878 165.517423,104.449392 165.363588,104.441529 L165.363588,104.441529 Z" id="路径_9703" fill="#D1D3D4"></path>
                    <path d="M139.579516,104.441529 L136.532308,104.441529 C136.454441,104.44417 136.378966,104.414397 136.323874,104.359305 C136.268782,104.304213 136.239009,104.228739 136.241651,104.150872 C136.241651,103.990346 136.371782,103.860215 136.532308,103.860215 L139.580454,103.860215 C139.739721,103.863211 139.868114,103.991604 139.871111,104.150872 C139.871111,104.311397 139.740979,104.441529 139.580454,104.441529 L139.579516,104.441529 Z" id="路径_9704" fill="#D1D3D4"></path>
                    <path d="M163.489321,109.167983 L155.746598,109.167983 C155.600108,109.147653 155.491045,109.022408 155.491045,108.874514 C155.491045,108.726619 155.600108,108.601375 155.746598,108.581044 L163.489321,108.581044 C163.635811,108.601375 163.744874,108.726619 163.744874,108.874514 C163.744874,109.022408 163.635811,109.147653 163.489321,109.167983 Z" id="路径_9705" fill="#D1D3D4"></path>
                    <path d="M149.764693,109.167983 L134.65804,109.167983 C134.511549,109.147653 134.402487,109.022408 134.402487,108.874514 C134.402487,108.726619 134.511549,108.601375 134.65804,108.581044 L149.764693,108.581044 C149.911184,108.601375 150.020247,108.726619 150.020247,108.874514 C150.020247,109.022408 149.911184,109.147653 149.764693,109.167983 Z" id="路径_9706" fill="#D1D3D4"></path>
                    <path d="M123.116152,49.7183517 L123.116152,49.7183517 C122.911089,49.7014565 122.755473,49.5264401 122.762676,49.3208082 C122.926756,46.1085816 121.59536,44.7959379 121.582234,44.7837491 C121.439901,44.6380319 121.439901,44.4053465 121.582234,44.2596293 C121.651073,44.1888896 121.745587,44.1489848 121.844294,44.1489848 C121.943,44.1489848 122.037514,44.1888896 122.106354,44.2596293 C122.169173,44.316823 123.709654,45.7869839 123.525884,49.3770644 C123.517097,49.4767008 123.468874,49.5686995 123.391933,49.6326114 C123.314993,49.6965234 123.215709,49.7270529 123.116152,49.7174141 L123.116152,49.7183517 Z" id="路径_9707" fill="#231F20"></path>
                    <path d="M105.289513,111.079755 L106.406198,110.77691 L106.986574,110.644708 C107.20781,110.568704 107.449179,110.683761 107.529446,110.903486 C107.611017,111.149138 107.668211,111.414479 107.737594,111.666694 C107.765468,111.80547 107.807894,111.940921 107.86417,112.070801 C107.905768,112.165303 107.986606,112.236893 108.085444,112.26676 C108.50174,112.354895 108.929286,112.424277 109.347457,112.488034 C109.516438,112.49862 109.681895,112.436531 109.802195,112.317391 L110.666664,111.547619 C110.776636,111.448184 110.897402,111.361383 111.026704,111.288841 C111.117427,111.240125 111.222986,111.226763 111.322986,111.251336 C111.839419,111.479134 112.311443,111.796568 112.717201,112.188939 C112.845207,112.323834 112.858617,112.530902 112.74908,112.68118 C112.561559,113.028093 112.374038,113.375006 112.180892,113.712543 C112.020171,113.92552 112.002804,114.214097 112.136825,114.444811 C112.307469,114.735468 112.464986,115.038313 112.63563,115.328033 C112.701616,115.440807 112.827192,115.504876 112.957227,115.492113 L114.301749,115.492113 C114.395379,115.478905 114.490166,115.506608 114.561946,115.568159 C114.633726,115.62971 114.675562,115.719162 114.676791,115.813711 C114.720858,116.337831 114.7593,116.861013 114.778052,117.391696 C114.772042,117.617071 114.633346,117.817573 114.424575,117.902689 C114.143295,118.041455 113.856388,118.148341 113.572295,118.27773 C113.440093,118.334924 113.301327,118.397744 113.174751,118.465251 C112.998608,118.544299 112.862907,118.692552 112.79971,118.874983 C112.667508,119.240648 112.540932,119.612877 112.395603,119.979479 C112.299466,120.175477 112.331725,120.410188 112.477175,120.572982 L113.158812,121.330565 C113.344259,121.517381 113.344259,121.818822 113.158812,122.005639 C112.830651,122.428497 112.527805,122.849481 112.155577,123.267652 C111.998586,123.528743 111.677468,123.640385 111.392369,123.532993 C111.177658,123.463611 110.96951,123.368913 110.761362,123.292967 C110.553214,123.217021 110.451953,123.18608 110.292561,123.141075 C110.144331,123.106055 109.988202,123.135712 109.863139,123.222647 C109.503099,123.449547 109.143997,123.677384 108.790521,123.910847 C108.598582,124.031004 108.469285,124.229578 108.437045,124.453719 C108.405167,124.699371 108.379851,124.94596 108.343285,125.185987 C108.323639,125.341145 108.294202,125.494906 108.25515,125.646349 C108.208479,125.873032 108.032956,126.051125 107.806976,126.101087 L106.298374,126.476128 L106.06491,126.476128 C105.900372,126.497836 105.744773,126.395699 105.699245,126.236102 L105.453594,125.321001 L105.453594,125.251619 C105.410371,124.976273 105.169658,124.775679 104.891032,124.782817 C104.610443,124.760828 104.33204,124.716622 104.058441,124.650615 C103.777557,124.608182 103.493881,124.707539 103.300858,124.915957 C103.029891,125.168172 102.757986,125.420387 102.480456,125.660414 C102.202925,125.90044 102.011654,125.941694 101.742562,125.773863 C101.357208,125.528212 100.979354,125.269433 100.607126,125.004092 C100.405541,124.858763 100.380226,124.675931 100.513365,124.410589 C100.646505,124.145248 100.809648,123.867717 100.961539,123.59675 C101.2897,123.009811 101.296264,122.915113 101.018733,122.422872 L100.684009,121.854684 C100.574074,121.629446 100.321334,121.512075 100.078318,121.573404 C99.7970369,121.573404 99.5045049,121.624034 99.2204113,121.630597 C99.0840916,121.625583 98.9486619,121.606415 98.8163046,121.573404 C98.6810346,121.566573 98.5739155,121.456592 98.5706527,121.321189 C98.5706527,120.816758 98.513459,120.311391 98.4881437,119.812586 C98.482085,119.741144 98.482085,119.669317 98.4881437,119.597875 C98.5140039,119.411927 98.6363496,119.253556 98.8097414,119.181579 L99.806413,118.746532 L100.102695,118.59464 C100.267071,118.517421 100.392501,118.376058 100.449608,118.20366 C100.569622,117.850184 100.69526,117.490144 100.824649,117.137606 C100.908167,116.951191 100.867874,116.732565 100.723388,116.588171 L100.092382,115.913097 L100.092382,115.913097 C99.8467299,115.610251 99.8401667,115.464923 100.136449,115.092694 C100.432732,114.720466 100.767456,114.265729 101.146247,113.86256 C101.278401,113.649497 101.544267,113.561796 101.777254,113.654412 C102.06791,113.755673 102.351066,113.86256 102.629534,113.989136 C102.921694,114.114918 103.259468,114.068727 103.507131,113.869123 C103.823103,113.647849 104.138137,113.446264 104.459735,113.238116 C104.594539,113.15468 104.688353,113.018717 104.718513,112.863075 C104.775707,112.516162 104.8254,112.174875 104.882594,111.831712 C104.90485,111.599297 104.997409,111.379183 105.147935,111.200706 L105.289513,111.079755 Z M107.921364,121.226491 C109.580019,120.352834 110.331298,118.382887 109.675618,116.626612 C109.044612,115.364599 107.151592,114.733593 105.258572,115.856841 C103.570887,116.888203 102.778613,118.935928 103.497754,120.407026 C104.36785,122.141591 106.595594,122.135965 107.920426,121.227428 L107.921364,121.226491 Z" id="路径_9708" fill="#231F20"></path>
                    <path d="M106.03397,126.81929 C105.698868,126.846806 105.391495,126.632314 105.301702,126.308297 L105.05605,125.386634 L105.05605,125.298499 C105.05605,125.197238 105.018546,125.140982 104.82915,125.12223 C104.639754,125.103478 104.419418,125.065036 104.198144,125.034095 L103.945929,124.990028 C103.78041,124.966155 103.614092,125.02795 103.504318,125.154108 C103.234913,125.414762 102.957383,125.667289 102.671727,125.911691 C102.374711,126.257506 101.863309,126.320466 101.491285,126.057019 C101.100305,125.804804 100.71495,125.546026 100.342722,125.274121 C100.171636,125.162252 100.052577,124.986428 100.012217,124.786038 C99.9718571,124.585648 100.01357,124.377443 100.128011,124.208067 C100.241461,123.981167 100.368037,123.759893 100.493676,123.532993 L100.58181,123.381102 C100.840589,122.926364 100.840589,122.926364 100.639004,122.579451 L100.310843,122.011264 C100.277137,121.941143 100.19882,121.904334 100.123323,121.923129 L99.8420419,121.923129 L99.2551026,121.955008 C99.0841234,121.962488 98.9128331,121.951802 98.7441092,121.923129 C98.4255623,121.884518 98.1867169,121.612993 98.1890485,121.292123 L98.15717,120.793318 C98.15717,120.452969 98.1252915,120.118244 98.1065394,119.776957 C98.0960207,119.686941 98.0960207,119.596006 98.1065394,119.50599 C98.1518295,119.190233 98.3571725,118.920343 98.6494113,118.792474 L99.6460829,118.357427 L99.9114245,118.225225 C99.9941283,118.190563 100.058209,118.122392 100.087694,118.037704 C100.201144,117.70298 100.321157,117.406698 100.434607,117.041033 L100.434607,116.965087 C100.455509,116.910126 100.455509,116.849404 100.434607,116.794443 L99.9864327,116.302202 L99.8223522,116.114681 C99.6338494,115.944714 99.5262426,115.702798 99.5262426,115.448983 C99.5262426,115.195168 99.6338494,114.953252 99.8223522,114.783286 C100.150513,114.360427 100.497426,113.950694 100.844339,113.521272 C101.077064,113.184639 101.51157,113.053548 101.891641,113.2053 C102.193391,113.301292 102.488446,113.417184 102.774863,113.552213 C102.947939,113.623828 103.146771,113.589534 103.285856,113.464079 C103.489098,113.318608 103.699714,113.183727 103.916863,113.059972 L104.276902,112.826509 C104.365037,112.769315 104.370663,112.719622 104.370663,112.699932 L104.440045,112.277074 C104.471924,112.075489 104.502864,111.872967 104.541306,111.646067 C104.567846,111.333485 104.694054,111.037685 104.901346,110.802225 C104.92371,110.777954 104.949257,110.756822 104.977291,110.739405 L105.097305,110.670023 C105.125963,110.650349 105.157629,110.635465 105.191065,110.625956 L105.500474,110.543446 L106.314313,110.322172 C106.515897,110.264978 106.711856,110.228412 106.945319,110.183407 C107.35173,110.066464 107.778568,110.288123 107.916676,110.687837 C107.973869,110.858481 108.017937,111.03475 108.062004,111.211957 L108.163265,111.586998 C108.179843,111.662652 108.203061,111.736697 108.232648,111.808272 C108.607689,111.896407 109.021172,111.96579 109.44403,112.029547 C109.50211,112.015455 109.554866,111.984843 109.595922,111.941412 L109.970963,111.606688 L110.463204,111.177266 C110.595913,111.055962 110.741847,110.949972 110.898252,110.861294 C111.093836,110.761381 111.321686,110.745469 111.529259,110.817226 C112.086115,111.063494 112.594231,111.407742 113.029423,111.833588 C113.274882,112.086303 113.313739,112.474873 113.123183,112.77119 L112.921598,113.146231 C112.801585,113.367506 112.681572,113.594405 112.546557,113.814742 C112.411543,114.035079 112.464986,114.111024 112.495927,114.161655 C112.61594,114.349176 112.717201,114.54701 112.824088,114.742031 L113.000357,115.057065 C113.13742,115.029265 113.276807,115.01451 113.416653,115.012998 L114.331753,115.012998 C114.517575,115.002781 114.699823,115.066938 114.838266,115.191308 C114.976709,115.315678 115.059961,115.490033 115.069646,115.675883 C115.113713,116.205629 115.151217,116.736312 115.170907,117.269808 C115.178528,117.643923 114.959198,117.985515 114.615846,118.134277 C114.419887,118.228038 114.224866,118.310547 114.028907,118.393056 L113.747626,118.513069 L113.372585,118.689338 C113.282994,118.731029 113.212842,118.805545 113.176626,118.897486 L113.088492,119.143138 C112.987231,119.433795 112.886907,119.723514 112.77252,120.007607 C112.744632,120.076461 112.744632,120.153465 112.77252,120.222318 C112.872194,120.357465 112.984254,120.483022 113.107244,120.597359 C113.220694,120.723936 113.340707,120.849574 113.454157,120.982714 C113.754906,121.306505 113.754906,121.807486 113.454157,122.131277 C113.119433,122.554136 112.785646,122.97512 112.444359,123.39329 C112.196118,123.782625 111.708289,123.943667 111.277043,123.778645 L110.8795,123.633317 L110.633848,123.539556 C110.489791,123.483825 110.34228,123.437473 110.192237,123.400791 C110.148369,123.403056 110.105369,123.413886 110.065661,123.43267 L109.844387,123.571435 L109.000544,124.114307 C108.898638,124.174802 108.829671,124.278253 108.813024,124.395588 L108.768956,124.717185 C108.761414,124.856927 108.744499,124.996005 108.718326,125.133481 C108.699574,125.272246 108.661132,125.461642 108.624566,125.625722 C108.542493,125.986098 108.264257,126.269413 107.905424,126.35799 L106.391196,126.723655 C106.295811,126.745135 106.198313,126.755828 106.100539,126.755533 L106.03397,126.81929 Z M105.976776,126.069208 L106.027406,126.444249 L106.027406,126.069208 L106.159608,126.069208 C106.664039,125.949195 107.162843,125.829182 107.668211,125.694167 C107.737594,125.694167 107.806976,125.643537 107.84448,125.506647 C107.879486,125.369825 107.904864,125.23072 107.920426,125.090351 L107.97762,124.686244 L108.021687,124.358083 C108.066741,124.02732 108.256345,123.733641 108.539244,123.556433 L109.39715,123.001372 L109.611861,122.862607 C109.825039,122.719839 110.088643,122.673862 110.337566,122.736031 C110.508209,122.780098 110.67229,122.837292 110.83637,122.893548 L111.107337,123.000435 L111.45425,123.127011 C111.599579,123.177642 111.650209,123.189831 111.81429,122.981683 C112.154639,122.57195 112.4828,122.154717 112.810961,121.71967 C112.912222,121.593093 112.89347,121.574341 112.848465,121.523711 L112.513741,121.14867 L112.173392,120.763315 C111.932235,120.499438 111.872411,120.116859 112.0215,119.791959 C112.128387,119.510678 112.229648,119.229397 112.330909,118.948116 L112.419043,118.695901 C112.511724,118.421291 112.709227,118.194467 112.968479,118.064895 C113.107244,117.995512 113.249759,117.92613 113.391337,117.868936 L113.68762,117.742359 C113.87514,117.666414 114.047659,117.590468 114.223928,117.502333 C114.293311,117.464829 114.37582,117.401072 114.37582,117.338253 C114.37582,116.814133 114.318626,116.290951 114.274559,115.773394 C114.113503,115.795047 113.951351,115.807568 113.788881,115.810898 L112.95629,115.810898 C112.699933,115.806543 112.462892,115.673758 112.325283,115.457422 L112.137763,115.135824 C112.036502,114.948304 111.936178,114.760783 111.828354,114.586389 C111.622628,114.237767 111.639862,113.801031 111.872421,113.469704 C111.998997,113.254993 112.112447,113.040282 112.225897,112.838698 L112.434045,112.463657 C112.438361,112.44073 112.438361,112.4172 112.434045,112.394274 C112.071801,112.05954 111.658426,111.784801 111.209536,111.580435 C111.096241,111.636127 110.991944,111.708503 110.900127,111.795146 L110.414449,112.224568 L110.039408,112.559292 C109.842473,112.756779 109.566636,112.854356 109.289326,112.824634 C108.854278,112.761814 108.418293,112.692432 107.995434,112.597734 C107.791529,112.541695 107.621077,112.401583 107.526633,112.212379 C107.467709,112.089514 107.423341,111.960186 107.394431,111.827024 L107.300671,111.461359 C107.256603,111.297279 107.219099,111.139762 107.168469,110.992558 L107.055019,110.992558 L106.492457,111.119134 L105.690807,111.340409 L105.40015,111.428543 C105.322492,111.551907 105.277036,111.692788 105.267948,111.838276 L105.097305,112.869639 C105.057507,113.130737 104.905384,113.361319 104.681009,113.500645 L104.315344,113.740671 L103.728405,114.138215 C103.370217,114.423213 102.881974,114.481976 102.466392,114.290107 C102.20105,114.170093 101.930083,114.068832 101.645989,113.968509 C101.539103,113.931005 101.525976,113.931005 101.412526,114.062269 C101.072177,114.466376 100.730889,114.869545 100.409291,115.281153 C100.351306,115.350231 100.302461,115.426492 100.263963,115.508052 L100.263963,115.508052 C100.263963,115.508052 100.263963,115.545556 100.365224,115.640254 L100.541493,115.836213 C100.680259,116.000294 100.822774,116.157811 100.970915,116.316266 C101.216308,116.56264 101.290193,116.932065 101.158436,117.253868 L101.158436,117.323251 L100.811523,118.314297 C100.724031,118.576097 100.535245,118.7919 100.287403,118.913425 C100.180516,118.976244 100.072692,119.026875 99.9658054,119.077506 L98.9691338,119.512553 C98.911929,119.536032 98.8727822,119.589678 98.8678728,119.651318 C98.8646389,119.695326 98.8646389,119.739512 98.8678728,119.78352 C98.8597385,120.120909 98.8766619,120.458436 98.9185033,120.793318 L98.9185033,121.203051 C99.0192657,121.21172 99.1205865,121.21172 99.2213489,121.203051 L99.7764097,121.171172 L100.067067,121.171172 C100.429115,121.132465 100.779301,121.313647 100.956851,121.631535 L101.285012,122.205348 C101.633448,122.666211 101.612344,123.307917 101.234382,123.744891 L101.146247,123.902409 C101.026234,124.110556 100.900595,124.325267 100.792771,124.533415 C100.770389,124.567775 100.755384,124.606406 100.748704,124.646865 C101.139684,124.912207 101.511912,125.164422 101.890704,125.410074 L101.991965,125.460704 C102.062025,125.428466 102.125582,125.383659 102.179485,125.328502 C102.450452,125.088476 102.722357,124.842824 102.986761,124.590609 C103.264853,124.30426 103.665529,124.172219 104.059378,124.237133 L104.32472,124.2812 C104.500989,124.2812 104.684759,124.344019 104.874155,124.362771 C105.319349,124.37262 105.693833,124.699357 105.76394,125.139106 L106.029282,126.091711 C106.014145,126.079585 105.995995,126.071807 105.976776,126.069208 L105.976776,126.069208 Z M105.976776,122.20725 C105.674339,122.208407 105.373032,122.170271 105.080428,122.093773 C104.251103,121.900852 103.554523,121.341242 103.187408,120.572982 C102.380132,118.932177 103.231475,116.673492 105.080428,115.524929 C106.013822,114.918869 107.160628,114.737562 108.235461,115.026125 C108.999756,115.232887 109.642676,115.75001 110.008467,116.452218 C110.755588,118.380579 109.942323,120.56298 108.115447,121.532149 C107.473828,121.963787 106.718194,122.194557 105.944897,122.195034 L105.976776,122.20725 Z M107.276293,115.644005 C106.644225,115.654057 106.027415,115.839749 105.494848,116.180313 C103.994684,117.095414 103.254915,118.956555 103.885922,120.243883 C104.156861,120.805387 104.663165,121.217574 105.267948,121.369006 C106.119805,121.566765 107.015531,121.402085 107.741344,120.914269 L107.741344,120.914269 C109.24108,120.143822 109.933374,118.377929 109.356833,116.793506 C109.082258,116.281708 108.606419,115.907835 108.04419,115.762143 C107.784764,115.680277 107.514567,115.637614 107.242539,115.635566 L107.276293,115.644005 Z" id="路径_9709" fill="#231F20"></path>
                    <path d="M94.0635969,20.2841927 L82.4082588,20.2841927 C82.2617683,20.263862 82.1527054,20.1386176 82.1527054,19.990723 C82.1527054,19.8428285 82.2617683,19.7175841 82.4082588,19.6972534 L94.0448449,19.6972534 C94.1913354,19.7175841 94.3003982,19.8428285 94.3003982,19.990723 C94.3003982,20.1386176 94.1913354,20.263862 94.0448449,20.2841927 L94.0635969,20.2841927 Z" id="路径_9710" fill="#D1D3D4"></path>
                </g>
            </g>
        </g>
    </g>
</svg>