<?xml version="1.0" standalone="no"?><!DOCTYPE svg PUBLIC "-//W3C//DTD SVG 1.1//EN" "http://www.w3.org/Graphics/SVG/1.1/DTD/svg11.dtd"><svg t="1742808768630" class="icon" viewBox="0 0 1059 1024" version="1.1" xmlns="http://www.w3.org/2000/svg" p-id="3502" width="132.375" height="128" xmlns:xlink="http://www.w3.org/1999/xlink"><path d="M1006.462529 303.233471H864.750345v624.522299c0 19.385379-8.827586 56.496552-24.034575 68.431448l-23.375448 23.622621h183.872735c26.329747 0 52.894897-30.555218 52.894897-57.002667V351.25554a47.645425 47.645425 0 0 0-47.657195-48.022069" fill="#dbdbdb" opacity=".537" p-id="3503"></path><path d="M115.935632 549.193563c0-10.828506 8.827586-19.773793 19.656092-19.773793h521.651494c10.828506 0 19.656092 8.945287 19.656092 19.773793v46.491954c0 10.946207-8.827586 19.773793-19.656092 19.773793H135.591724c-10.828506 0-19.656092-8.827586-19.656092-19.773793v-46.491954z m16.242759-318.617011h159.838161c8.945287 0 16.242759 7.297471 16.242758 16.242758v139.24046c0 8.945287-7.297471 16.242759-16.242758 16.242759H132.296092c-8.945287 0-16.242759-7.297471-16.242759-16.242759v-139.24046h-0.117701c0-8.945287 7.297471-16.242759 16.242759-16.242758z m362.048735 25.188046h18.36138c40.136092 0 72.974713 32.956322 72.974712 73.327816 0 40.253793-32.838621 73.210115-72.974712 73.210115h-18.36138c-40.018391 0-72.857011-32.956322-72.857011-73.210115 0-40.371494 32.838621-73.327816 72.857011-73.327816zM115.935632 727.157701c0-6.12046 2.824828-11.652414 7.297471-15.183448 3.413333-2.942529 7.650575-4.590345 12.358621-4.590345h521.651494c3.06023 0 5.885057 0.706207 8.474483 2.00092 6.591264 3.177931 11.181609 10.004598 11.181609 17.772873v46.491954c0 10.946207-8.827586 19.773793-19.656092 19.773793H135.591724c-10.828506 0-19.656092-8.827586-19.656092-19.773793v-46.491954zM684.667586 11.770115H103.223908C46.491954 11.770115 0 58.497471 0 115.464828v793.070344c0 24.59954 8.709885 47.315862 23.187126 65.206437 18.949885 23.422529 47.904368 38.488276 80.036782 38.488276h581.443678c32.132414 0 61.086897-15.065747 80.036782-38.488276a103.43577 103.43577 0 0 0 23.187126-65.206437V115.464828c0-57.085057-46.491954-103.694713-103.223908-103.694713z" fill="#dbdbdb" opacity=".473" p-id="3504"></path></svg>